solid OpenSCAD_Model
  facet normal 0.321404 -0.946942 0
    outer loop
      vertex 13.2588 0.0340729 0
      vertex 13.3827 0.0761261 5.59
      vertex 13.2588 0.0340729 5.59
    endloop
  endfacet
  facet normal 0.321404 -0.946942 0
    outer loop
      vertex 13.3827 0.0761261 5.59
      vertex 13.2588 0.0340729 0
      vertex 13.3827 0.0761261 0
    endloop
  endfacet
  facet normal 0 -1 0
    outer loop
      vertex 1 0 0
      vertex 13 0 5.59
      vertex 1 0 5.59
    endloop
  endfacet
  facet normal 0 -1 -0
    outer loop
      vertex 13 0 5.59
      vertex 1 0 0
      vertex 13 0 0
    endloop
  endfacet
  facet normal 0.195033 -0.980797 0
    outer loop
      vertex 13.1305 0.00856018 0
      vertex 13.2588 0.0340729 5.59
      vertex 13.1305 0.00856018 5.59
    endloop
  endfacet
  facet normal 0.195033 -0.980797 0
    outer loop
      vertex 13.2588 0.0340729 5.59
      vertex 13.1305 0.00856018 0
      vertex 13.2588 0.0340729 0
    endloop
  endfacet
  facet normal -0.896888 -0.442258 0
    outer loop
      vertex 0.133972 0.5 0
      vertex 0.0761261 0.61731 5.59
      vertex 0.0761261 0.61731 0
    endloop
  endfacet
  facet normal -0.896888 -0.442258 0
    outer loop
      vertex 0.0761261 0.61731 5.59
      vertex 0.133972 0.5 0
      vertex 0.133972 0.5 5.59
    endloop
  endfacet
  facet normal 0.0654546 -0.997856 0
    outer loop
      vertex 13 0 0
      vertex 13.1305 0.00856018 5.59
      vertex 13 0 5.59
    endloop
  endfacet
  facet normal 0.0654546 -0.997856 0
    outer loop
      vertex 13.1305 0.00856018 5.59
      vertex 13 0 0
      vertex 13.1305 0.00856018 0
    endloop
  endfacet
  facet normal 0.195013 0.980801 -0
    outer loop
      vertex 13.2588 9.36592 0
      vertex 13.1305 9.39143 5.59
      vertex 13.2588 9.36592 5.59
    endloop
  endfacet
  facet normal 0.195013 0.980801 0
    outer loop
      vertex 13.1305 9.39143 5.59
      vertex 13.2588 9.36592 0
      vertex 13.1305 9.39143 0
    endloop
  endfacet
  facet normal -0.0654426 -0.997856 0
    outer loop
      vertex 0.869476 0.00856018 0
      vertex 1 0 5.59
      vertex 0.869476 0.00856018 5.59
    endloop
  endfacet
  facet normal -0.0654426 -0.997856 -0
    outer loop
      vertex 1 0 5.59
      vertex 0.869476 0.00856018 0
      vertex 1 0 0
    endloop
  endfacet
  facet normal -0.5556 0.83145 0
    outer loop
      vertex 0.5 9.26602 0
      vertex 0.391235 9.19334 5.59
      vertex 0.5 9.26602 5.59
    endloop
  endfacet
  facet normal -0.5556 0.83145 0
    outer loop
      vertex 0.391235 9.19334 5.59
      vertex 0.5 9.26602 0
      vertex 0.391235 9.19334 0
    endloop
  endfacet
  facet normal -0.997856 -0.0654426 0
    outer loop
      vertex 0.00856018 0.869476 0
      vertex 0 1 5.59
      vertex 0 1 0
    endloop
  endfacet
  facet normal -0.997856 -0.0654426 0
    outer loop
      vertex 0 1 5.59
      vertex 0.00856018 0.869476 0
      vertex 0.00856018 0.869476 5.59
    endloop
  endfacet
  facet normal -0.321474 -0.946918 0
    outer loop
      vertex 0.61731 0.0761261 0
      vertex 0.74118 0.0340729 5.59
      vertex 0.61731 0.0761261 5.59
    endloop
  endfacet
  facet normal -0.321474 -0.946918 -0
    outer loop
      vertex 0.74118 0.0340729 5.59
      vertex 0.61731 0.0761261 0
      vertex 0.74118 0.0340729 0
    endloop
  endfacet
  facet normal -0.896888 0.442258 0
    outer loop
      vertex 0.0761261 8.78268 0
      vertex 0.133972 8.89999 5.59
      vertex 0.133972 8.89999 0
    endloop
  endfacet
  facet normal -0.896888 0.442258 0
    outer loop
      vertex 0.133972 8.89999 5.59
      vertex 0.0761261 8.78268 0
      vertex 0.0761261 8.78268 5.59
    endloop
  endfacet
  facet normal -0.659326 0.751857 0
    outer loop
      vertex 0.391235 9.19334 0
      vertex 0.292892 9.1071 5.59
      vertex 0.391235 9.19334 5.59
    endloop
  endfacet
  facet normal -0.659326 0.751857 0
    outer loop
      vertex 0.292892 9.1071 5.59
      vertex 0.391235 9.19334 0
      vertex 0.292892 9.1071 0
    endloop
  endfacet
  facet normal -0.442283 0.896875 0
    outer loop
      vertex 0.61731 9.32387 0
      vertex 0.5 9.26602 5.59
      vertex 0.61731 9.32387 5.59
    endloop
  endfacet
  facet normal -0.442283 0.896875 0
    outer loop
      vertex 0.5 9.26602 5.59
      vertex 0.61731 9.32387 0
      vertex 0.5 9.26602 0
    endloop
  endfacet
  facet normal -0.0654412 0.997856 0
    outer loop
      vertex 1 9.39999 0
      vertex 0.869476 9.39143 5.59
      vertex 1 9.39999 5.59
    endloop
  endfacet
  facet normal -0.0654412 0.997856 0
    outer loop
      vertex 0.869476 9.39143 5.59
      vertex 1 9.39999 0
      vertex 0.869476 9.39143 0
    endloop
  endfacet
  facet normal 0.555476 0.831533 -0
    outer loop
      vertex 13.6088 9.19334 0
      vertex 13.5 9.26602 5.59
      vertex 13.6088 9.19334 5.59
    endloop
  endfacet
  facet normal 0.555476 0.831533 0
    outer loop
      vertex 13.5 9.26602 5.59
      vertex 13.6088 9.19334 0
      vertex 13.5 9.26602 0
    endloop
  endfacet
  facet normal -0.946918 -0.321474 0
    outer loop
      vertex 0.0761261 0.61731 0
      vertex 0.0340729 0.74118 5.59
      vertex 0.0340729 0.74118 0
    endloop
  endfacet
  facet normal -0.946918 -0.321474 0
    outer loop
      vertex 0.0340729 0.74118 5.59
      vertex 0.0761261 0.61731 0
      vertex 0.0761261 0.61731 5.59
    endloop
  endfacet
  facet normal 0.980814 -0.194946 0
    outer loop
      vertex 13.9659 0.74118 5.59
      vertex 13.9914 0.869476 0
      vertex 13.9914 0.869476 5.59
    endloop
  endfacet
  facet normal 0.980814 -0.194946 0
    outer loop
      vertex 13.9914 0.869476 0
      vertex 13.9659 0.74118 5.59
      vertex 13.9659 0.74118 0
    endloop
  endfacet
  facet normal 1 0 0
    outer loop
      vertex 14 8.84999 11.14
      vertex 14 2.04639 7
      vertex 14 7.35361 7
    endloop
  endfacet
  facet normal 1 0 -0
    outer loop
      vertex 14 2.04639 7
      vertex 14 8.84999 11.14
      vertex 14 0.550006 11.14
    endloop
  endfacet
  facet normal 1 0 0
    outer loop
      vertex 14 9.09999 7
      vertex 14 8.39999 5.59
      vertex 14 9.09999 5.59
    endloop
  endfacet
  facet normal 1 0 0
    outer loop
      vertex 14 8.39999 5.59
      vertex 14 8.2 4.4
      vertex 14 8.39999 0
    endloop
  endfacet
  facet normal 1 -0 0
    outer loop
      vertex 14 7.35361 7
      vertex 14 8.39999 5.59
      vertex 14 9.09999 7
    endloop
  endfacet
  facet normal 1 0 0
    outer loop
      vertex 14 7.35361 7
      vertex 14 8.2 4.4
      vertex 14 8.39999 5.59
    endloop
  endfacet
  facet normal 1 -0 0
    outer loop
      vertex 14 2.04639 7
      vertex 14 8.2 4.4
      vertex 14 7.35361 7
    endloop
  endfacet
  facet normal 1 0 0
    outer loop
      vertex 14 2.04639 7
      vertex 14 1.2 4.4
      vertex 14 8.2 4.4
    endloop
  endfacet
  facet normal 1 0 0
    outer loop
      vertex 14 1.2 4.4
      vertex 14 1 5.59
      vertex 14 1.2 1.2
    endloop
  endfacet
  facet normal 1 0 0
    outer loop
      vertex 14 2.04639 7
      vertex 14 1 5.59
      vertex 14 1.2 4.4
    endloop
  endfacet
  facet normal 1 -0 0
    outer loop
      vertex 14 0.300006 7
      vertex 14 1 5.59
      vertex 14 2.04639 7
    endloop
  endfacet
  facet normal 1 0 0
    outer loop
      vertex 14 1 5.59
      vertex 14 0.300006 7
      vertex 14 0.300006 5.59
    endloop
  endfacet
  facet normal 1 -0 0
    outer loop
      vertex 14 8.2 1.2
      vertex 14 8.39999 0
      vertex 14 8.2 4.4
    endloop
  endfacet
  facet normal 1 -0 0
    outer loop
      vertex 14 1.2 1.2
      vertex 14 8.39999 0
      vertex 14 8.2 1.2
    endloop
  endfacet
  facet normal 1 0 0
    outer loop
      vertex 14 1.2 1.2
      vertex 14 1 0
      vertex 14 8.39999 0
    endloop
  endfacet
  facet normal 1 0 0
    outer loop
      vertex 14 1 0
      vertex 14 1.2 1.2
      vertex 14 1 5.59
    endloop
  endfacet
  facet normal -1 0 0
    outer loop
      vertex 0 8.39999 0
      vertex 0 8.2 1.2
      vertex 0 8.39999 5.59
    endloop
  endfacet
  facet normal -1 0 0
    outer loop
      vertex 0 8.39999 0
      vertex 0 1.2 1.2
      vertex 0 8.2 1.2
    endloop
  endfacet
  facet normal -1 -0 0
    outer loop
      vertex 0 1.2 1.2
      vertex 0 1 0
      vertex 0 1.2 4.4
    endloop
  endfacet
  facet normal -1 0 0
    outer loop
      vertex 0 1 0
      vertex 0 1.2 1.2
      vertex 0 8.39999 0
    endloop
  endfacet
  facet normal -1 0 0
    outer loop
      vertex 0 8.39999 5.59
      vertex 0 9.09999 7
      vertex 0 9.09999 5.59
    endloop
  endfacet
  facet normal -1 0 0
    outer loop
      vertex 0 8.2 4.4
      vertex 0 8.39999 5.59
      vertex 0 8.2 1.2
    endloop
  endfacet
  facet normal -1 0 0
    outer loop
      vertex 0 8.39999 5.59
      vertex 0 7.35361 7
      vertex 0 9.09999 7
    endloop
  endfacet
  facet normal -1 0 0
    outer loop
      vertex 0 8.2 4.4
      vertex 0 7.35361 7
      vertex 0 8.39999 5.59
    endloop
  endfacet
  facet normal -1 0 0
    outer loop
      vertex 0 8.2 4.4
      vertex 0 2.04639 7
      vertex 0 7.35361 7
    endloop
  endfacet
  facet normal -1 0 0
    outer loop
      vertex 0 1.2 4.4
      vertex 0 2.04639 7
      vertex 0 8.2 4.4
    endloop
  endfacet
  facet normal -1 0 0
    outer loop
      vertex 0 1 5.59
      vertex 0 1.2 4.4
      vertex 0 1 0
    endloop
  endfacet
  facet normal -1 0 0
    outer loop
      vertex 0 1 5.59
      vertex 0 2.04639 7
      vertex 0 1.2 4.4
    endloop
  endfacet
  facet normal -1 0 0
    outer loop
      vertex 0 0.300006 7
      vertex 0 1 5.59
      vertex 0 0.300006 5.59
    endloop
  endfacet
  facet normal -1 0 0
    outer loop
      vertex 0 1 5.59
      vertex 0 0.300006 7
      vertex 0 2.04639 7
    endloop
  endfacet
  facet normal -1 0 0
    outer loop
      vertex 0 2.04639 7
      vertex 0 8.84999 11.14
      vertex 0 7.35361 7
    endloop
  endfacet
  facet normal -1 -0 0
    outer loop
      vertex 0 8.84999 11.14
      vertex 0 2.04639 7
      vertex 0 0.550006 11.14
    endloop
  endfacet
  facet normal -0.946918 0.321474 0
    outer loop
      vertex 0.0340729 8.65881 0
      vertex 0.0761261 8.78268 5.59
      vertex 0.0761261 8.78268 0
    endloop
  endfacet
  facet normal -0.946918 0.321474 0
    outer loop
      vertex 0.0761261 8.78268 5.59
      vertex 0.0340729 8.65881 0
      vertex 0.0340729 8.65881 5.59
    endloop
  endfacet
  facet normal 0.947042 0.321109 0
    outer loop
      vertex 13.9659 8.65881 5.59
      vertex 13.9239 8.78268 0
      vertex 13.9239 8.78268 5.59
    endloop
  endfacet
  facet normal 0.947042 0.321109 0
    outer loop
      vertex 13.9239 8.78268 0
      vertex 13.9659 8.65881 5.59
      vertex 13.9659 8.65881 0
    endloop
  endfacet
  facet normal -0.195039 -0.980795 0
    outer loop
      vertex 0.74118 0.0340729 0
      vertex 0.869476 0.00856018 5.59
      vertex 0.74118 0.0340729 5.59
    endloop
  endfacet
  facet normal -0.195039 -0.980795 -0
    outer loop
      vertex 0.869476 0.00856018 5.59
      vertex 0.74118 0.0340729 0
      vertex 0.869476 0.00856018 0
    endloop
  endfacet
  facet normal 0.831733 -0.555177 0
    outer loop
      vertex 13.7934 0.391235 5.59
      vertex 13.866 0.5 0
      vertex 13.866 0.5 5.59
    endloop
  endfacet
  facet normal 0.831733 -0.555177 0
    outer loop
      vertex 13.866 0.5 0
      vertex 13.7934 0.391235 5.59
      vertex 13.7934 0.391235 0
    endloop
  endfacet
  facet normal -0.751839 0.659346 0
    outer loop
      vertex 0.20665 9.00876 0
      vertex 0.292892 9.1071 5.59
      vertex 0.292892 9.1071 0
    endloop
  endfacet
  facet normal -0.751839 0.659346 0
    outer loop
      vertex 0.292892 9.1071 5.59
      vertex 0.20665 9.00876 0
      vertex 0.20665 9.00876 5.59
    endloop
  endfacet
  facet normal 0.896724 -0.442591 0
    outer loop
      vertex 13.866 0.5 5.59
      vertex 13.9239 0.61731 0
      vertex 13.9239 0.61731 5.59
    endloop
  endfacet
  facet normal 0.896724 -0.442591 0
    outer loop
      vertex 13.9239 0.61731 0
      vertex 13.866 0.5 5.59
      vertex 13.866 0.5 0
    endloop
  endfacet
  facet normal -0.555589 -0.831457 0
    outer loop
      vertex 0.391235 0.20665 0
      vertex 0.5 0.133972 5.59
      vertex 0.391235 0.20665 5.59
    endloop
  endfacet
  facet normal -0.555589 -0.831457 -0
    outer loop
      vertex 0.5 0.133972 5.59
      vertex 0.391235 0.20665 0
      vertex 0.5 0.133972 0
    endloop
  endfacet
  facet normal 0 1 -0
    outer loop
      vertex 13 9.39999 0
      vertex 1 9.39999 5.59
      vertex 13 9.39999 5.59
    endloop
  endfacet
  facet normal 0 1 0
    outer loop
      vertex 1 9.39999 5.59
      vertex 13 9.39999 0
      vertex 1 9.39999 0
    endloop
  endfacet
  facet normal -0.321452 0.946926 0
    outer loop
      vertex 0.74118 9.36592 0
      vertex 0.61731 9.32387 5.59
      vertex 0.74118 9.36592 5.59
    endloop
  endfacet
  facet normal -0.321452 0.946926 0
    outer loop
      vertex 0.61731 9.32387 5.59
      vertex 0.74118 9.36592 0
      vertex 0.61731 9.32387 0
    endloop
  endfacet
  facet normal -0.831469 0.555571 0
    outer loop
      vertex 0.133972 8.89999 0
      vertex 0.20665 9.00876 5.59
      vertex 0.20665 9.00876 0
    endloop
  endfacet
  facet normal -0.831469 0.555571 0
    outer loop
      vertex 0.20665 9.00876 5.59
      vertex 0.133972 8.89999 0
      vertex 0.133972 8.89999 5.59
    endloop
  endfacet
  facet normal 0.75162 0.659597 0
    outer loop
      vertex 13.7934 9.00876 5.59
      vertex 13.7071 9.1071 0
      vertex 13.7071 9.1071 5.59
    endloop
  endfacet
  facet normal 0.75162 0.659597 0
    outer loop
      vertex 13.7071 9.1071 0
      vertex 13.7934 9.00876 5.59
      vertex 13.7934 9.00876 0
    endloop
  endfacet
  facet normal 0.0654532 0.997856 -0
    outer loop
      vertex 13.1305 9.39143 0
      vertex 13 9.39999 5.59
      vertex 13.1305 9.39143 5.59
    endloop
  endfacet
  facet normal 0.0654532 0.997856 0
    outer loop
      vertex 13 9.39999 5.59
      vertex 13.1305 9.39143 0
      vertex 13 9.39999 0
    endloop
  endfacet
  facet normal -0.195019 0.980799 0
    outer loop
      vertex 0.869476 9.39143 0
      vertex 0.74118 9.36592 5.59
      vertex 0.869476 9.39143 5.59
    endloop
  endfacet
  facet normal -0.195019 0.980799 0
    outer loop
      vertex 0.74118 9.36592 5.59
      vertex 0.869476 9.39143 0
      vertex 0.74118 9.36592 0
    endloop
  endfacet
  facet normal 0.442314 0.89686 -0
    outer loop
      vertex 13.5 9.26602 0
      vertex 13.3827 9.32387 5.59
      vertex 13.5 9.26602 5.59
    endloop
  endfacet
  facet normal 0.442314 0.89686 0
    outer loop
      vertex 13.3827 9.32387 5.59
      vertex 13.5 9.26602 0
      vertex 13.3827 9.32387 0
    endloop
  endfacet
  facet normal -0.659335 -0.751849 0
    outer loop
      vertex 0.292892 0.292892 0
      vertex 0.391235 0.20665 5.59
      vertex 0.292892 0.292892 5.59
    endloop
  endfacet
  facet normal -0.659335 -0.751849 -0
    outer loop
      vertex 0.391235 0.20665 5.59
      vertex 0.292892 0.292892 0
      vertex 0.391235 0.20665 0
    endloop
  endfacet
  facet normal 0.659498 -0.751706 0
    outer loop
      vertex 13.6088 0.20665 0
      vertex 13.7071 0.292892 5.59
      vertex 13.6088 0.20665 5.59
    endloop
  endfacet
  facet normal 0.659498 -0.751706 0
    outer loop
      vertex 13.7071 0.292892 5.59
      vertex 13.6088 0.20665 0
      vertex 13.7071 0.292892 0
    endloop
  endfacet
  facet normal -0.442258 -0.896888 0
    outer loop
      vertex 0.5 0.133972 0
      vertex 0.61731 0.0761261 5.59
      vertex 0.5 0.133972 5.59
    endloop
  endfacet
  facet normal -0.442258 -0.896888 -0
    outer loop
      vertex 0.61731 0.0761261 5.59
      vertex 0.5 0.133972 0
      vertex 0.61731 0.0761261 0
    endloop
  endfacet
  facet normal 0.659489 0.751714 -0
    outer loop
      vertex 13.7071 9.1071 0
      vertex 13.6088 9.19334 5.59
      vertex 13.7071 9.1071 5.59
    endloop
  endfacet
  facet normal 0.659489 0.751714 0
    outer loop
      vertex 13.6088 9.19334 5.59
      vertex 13.7071 9.1071 0
      vertex 13.6088 9.19334 0
    endloop
  endfacet
  facet normal -0.980794 0.195048 0
    outer loop
      vertex 0.00856018 8.53052 0
      vertex 0.0340729 8.65881 5.59
      vertex 0.0340729 8.65881 0
    endloop
  endfacet
  facet normal -0.980794 0.195048 0
    outer loop
      vertex 0.0340729 8.65881 5.59
      vertex 0.00856018 8.53052 0
      vertex 0.00856018 8.53052 5.59
    endloop
  endfacet
  facet normal 0.947042 -0.321109 0
    outer loop
      vertex 13.9239 0.61731 5.59
      vertex 13.9659 0.74118 0
      vertex 13.9659 0.74118 5.59
    endloop
  endfacet
  facet normal 0.947042 -0.321109 0
    outer loop
      vertex 13.9659 0.74118 0
      vertex 13.9239 0.61731 5.59
      vertex 13.9239 0.61731 0
    endloop
  endfacet
  facet normal 0.751629 -0.659586 0
    outer loop
      vertex 13.7071 0.292892 5.59
      vertex 13.7934 0.391235 0
      vertex 13.7934 0.391235 5.59
    endloop
  endfacet
  facet normal 0.751629 -0.659586 0
    outer loop
      vertex 13.7934 0.391235 0
      vertex 13.7071 0.292892 5.59
      vertex 13.7071 0.292892 0
    endloop
  endfacet
  facet normal -0.997857 0.0654396 0
    outer loop
      vertex 0 8.39999 0
      vertex 0.00856018 8.53052 5.59
      vertex 0.00856018 8.53052 0
    endloop
  endfacet
  facet normal -0.997857 0.0654396 0
    outer loop
      vertex 0.00856018 8.53052 5.59
      vertex 0 8.39999 0
      vertex 0 8.39999 5.59
    endloop
  endfacet
  facet normal 0.997837 0.0657427 0
    outer loop
      vertex 14 8.39999 5.59
      vertex 13.9914 8.53052 0
      vertex 13.9914 8.53052 5.59
    endloop
  endfacet
  facet normal 0.997837 0.0657427 0
    outer loop
      vertex 13.9914 8.53052 0
      vertex 14 8.39999 5.59
      vertex 14 8.39999 0
    endloop
  endfacet
  facet normal 0.831744 0.555159 0
    outer loop
      vertex 13.866 8.89999 5.59
      vertex 13.7934 9.00876 0
      vertex 13.7934 9.00876 5.59
    endloop
  endfacet
  facet normal 0.831744 0.555159 0
    outer loop
      vertex 13.7934 9.00876 0
      vertex 13.866 8.89999 5.59
      vertex 13.866 8.89999 0
    endloop
  endfacet
  facet normal -0.751849 -0.659335 0
    outer loop
      vertex 0.292892 0.292892 0
      vertex 0.20665 0.391235 5.59
      vertex 0.20665 0.391235 0
    endloop
  endfacet
  facet normal -0.751849 -0.659335 0
    outer loop
      vertex 0.20665 0.391235 5.59
      vertex 0.292892 0.292892 0
      vertex 0.292892 0.292892 5.59
    endloop
  endfacet
  facet normal 0.321382 0.94695 -0
    outer loop
      vertex 13.3827 9.32387 0
      vertex 13.2588 9.36592 5.59
      vertex 13.3827 9.32387 5.59
    endloop
  endfacet
  facet normal 0.321382 0.94695 0
    outer loop
      vertex 13.2588 9.36592 5.59
      vertex 13.3827 9.32387 0
      vertex 13.2588 9.36592 0
    endloop
  endfacet
  facet normal -0.831457 -0.555589 0
    outer loop
      vertex 0.20665 0.391235 0
      vertex 0.133972 0.5 5.59
      vertex 0.133972 0.5 0
    endloop
  endfacet
  facet normal -0.831457 -0.555589 0
    outer loop
      vertex 0.133972 0.5 5.59
      vertex 0.20665 0.391235 0
      vertex 0.20665 0.391235 5.59
    endloop
  endfacet
  facet normal 0.896724 0.442591 0
    outer loop
      vertex 13.9239 8.78268 5.59
      vertex 13.866 8.89999 0
      vertex 13.866 8.89999 5.59
    endloop
  endfacet
  facet normal 0.896724 0.442591 0
    outer loop
      vertex 13.866 8.89999 0
      vertex 13.9239 8.78268 5.59
      vertex 13.9239 8.78268 0
    endloop
  endfacet
  facet normal 0.980812 0.194955 0
    outer loop
      vertex 13.9914 8.53052 5.59
      vertex 13.9659 8.65881 0
      vertex 13.9659 8.65881 5.59
    endloop
  endfacet
  facet normal 0.980812 0.194955 0
    outer loop
      vertex 13.9659 8.65881 0
      vertex 13.9914 8.53052 5.59
      vertex 13.9914 8.53052 0
    endloop
  endfacet
  facet normal -0.980795 -0.195039 0
    outer loop
      vertex 0.0340729 0.74118 0
      vertex 0.00856018 0.869476 5.59
      vertex 0.00856018 0.869476 0
    endloop
  endfacet
  facet normal -0.980795 -0.195039 0
    outer loop
      vertex 0.00856018 0.869476 5.59
      vertex 0.0340729 0.74118 0
      vertex 0.0340729 0.74118 5.59
    endloop
  endfacet
  facet normal 0 0 -1
    outer loop
      vertex 13 0 0
      vertex 14 1 0
      vertex 13.9914 0.869476 0
    endloop
  endfacet
  facet normal -0 0 -1
    outer loop
      vertex 14 1 0
      vertex 13 0 0
      vertex 14 8.39999 0
    endloop
  endfacet
  facet normal 0 0 -1
    outer loop
      vertex 13 0 0
      vertex 13.9914 0.869476 0
      vertex 13.9659 0.74118 0
    endloop
  endfacet
  facet normal 0 0 -1
    outer loop
      vertex 13 9.39999 0
      vertex 14 8.39999 0
      vertex 13 0 0
    endloop
  endfacet
  facet normal 0 0 -1
    outer loop
      vertex 13 0 0
      vertex 13.9659 0.74118 0
      vertex 13.9239 0.61731 0
    endloop
  endfacet
  facet normal 0 0 -1
    outer loop
      vertex 14 8.39999 0
      vertex 13 9.39999 0
      vertex 13.9914 8.53052 0
    endloop
  endfacet
  facet normal 0 0 -1
    outer loop
      vertex 13 0 0
      vertex 13.9239 0.61731 0
      vertex 13.866 0.5 0
    endloop
  endfacet
  facet normal 0 0 -1
    outer loop
      vertex 13.9914 8.53052 0
      vertex 13 9.39999 0
      vertex 13.9659 8.65881 0
    endloop
  endfacet
  facet normal 0 0 -1
    outer loop
      vertex 13 0 0
      vertex 13.866 0.5 0
      vertex 13.7934 0.391235 0
    endloop
  endfacet
  facet normal 0 0 -1
    outer loop
      vertex 13.9659 8.65881 0
      vertex 13 9.39999 0
      vertex 13.9239 8.78268 0
    endloop
  endfacet
  facet normal 0 0 -1
    outer loop
      vertex 13 0 0
      vertex 13.7934 0.391235 0
      vertex 13.7071 0.292892 0
    endloop
  endfacet
  facet normal 0 0 -1
    outer loop
      vertex 13.9239 8.78268 0
      vertex 13 9.39999 0
      vertex 13.866 8.89999 0
    endloop
  endfacet
  facet normal 0 0 -1
    outer loop
      vertex 13 0 0
      vertex 13.7071 0.292892 0
      vertex 13.6088 0.20665 0
    endloop
  endfacet
  facet normal 0 0 -1
    outer loop
      vertex 13.866 8.89999 0
      vertex 13 9.39999 0
      vertex 13.7934 9.00876 0
    endloop
  endfacet
  facet normal 0 0 -1
    outer loop
      vertex 13 0 0
      vertex 13.6088 0.20665 0
      vertex 13.5 0.133972 0
    endloop
  endfacet
  facet normal 0 0 -1
    outer loop
      vertex 13.7934 9.00876 0
      vertex 13 9.39999 0
      vertex 13.7071 9.1071 0
    endloop
  endfacet
  facet normal 0 0 -1
    outer loop
      vertex 13 0 0
      vertex 13.5 0.133972 0
      vertex 13.3827 0.0761261 0
    endloop
  endfacet
  facet normal 0 0 -1
    outer loop
      vertex 13.7071 9.1071 0
      vertex 13 9.39999 0
      vertex 13.6088 9.19334 0
    endloop
  endfacet
  facet normal 0 0 -1
    outer loop
      vertex 13 0 0
      vertex 13.3827 0.0761261 0
      vertex 13.2588 0.0340729 0
    endloop
  endfacet
  facet normal 0 0 -1
    outer loop
      vertex 13.6088 9.19334 0
      vertex 13 9.39999 0
      vertex 13.5 9.26602 0
    endloop
  endfacet
  facet normal 0 0 -1
    outer loop
      vertex 13 0 0
      vertex 13.2588 0.0340729 0
      vertex 13.1305 0.00856018 0
    endloop
  endfacet
  facet normal 0 0 -1
    outer loop
      vertex 13.5 9.26602 0
      vertex 13 9.39999 0
      vertex 13.3827 9.32387 0
    endloop
  endfacet
  facet normal 0 0 -1
    outer loop
      vertex 13.3827 9.32387 0
      vertex 13 9.39999 0
      vertex 13.2588 9.36592 0
    endloop
  endfacet
  facet normal 0 0 -1
    outer loop
      vertex 13.2588 9.36592 0
      vertex 13 9.39999 0
      vertex 13.1305 9.39143 0
    endloop
  endfacet
  facet normal 0 0 -1
    outer loop
      vertex 1 0 0
      vertex 13 9.39999 0
      vertex 13 0 0
    endloop
  endfacet
  facet normal 0 0 -1
    outer loop
      vertex 1 0 0
      vertex 1 9.39999 0
      vertex 13 9.39999 0
    endloop
  endfacet
  facet normal 0 0 -1
    outer loop
      vertex 0 1 0
      vertex 1 0 0
      vertex 0.869476 0.00856018 0
    endloop
  endfacet
  facet normal 0 0 -1
    outer loop
      vertex 1 0 0
      vertex 0 1 0
      vertex 1 9.39999 0
    endloop
  endfacet
  facet normal 0 0 -1
    outer loop
      vertex 0 1 0
      vertex 0.869476 0.00856018 0
      vertex 0.74118 0.0340729 0
    endloop
  endfacet
  facet normal 0 0 -1
    outer loop
      vertex 0 8.39999 0
      vertex 1 9.39999 0
      vertex 0 1 0
    endloop
  endfacet
  facet normal 0 0 -1
    outer loop
      vertex 0 1 0
      vertex 0.74118 0.0340729 0
      vertex 0.61731 0.0761261 0
    endloop
  endfacet
  facet normal 0 0 -1
    outer loop
      vertex 1 9.39999 0
      vertex 0 8.39999 0
      vertex 0.869476 9.39143 0
    endloop
  endfacet
  facet normal 0 0 -1
    outer loop
      vertex 0 1 0
      vertex 0.61731 0.0761261 0
      vertex 0.5 0.133972 0
    endloop
  endfacet
  facet normal 0 0 -1
    outer loop
      vertex 0.869476 9.39143 0
      vertex 0 8.39999 0
      vertex 0.74118 9.36592 0
    endloop
  endfacet
  facet normal 0 0 -1
    outer loop
      vertex 0 1 0
      vertex 0.5 0.133972 0
      vertex 0.391235 0.20665 0
    endloop
  endfacet
  facet normal 0 0 -1
    outer loop
      vertex 0.74118 9.36592 0
      vertex 0 8.39999 0
      vertex 0.61731 9.32387 0
    endloop
  endfacet
  facet normal 0 0 -1
    outer loop
      vertex 0 1 0
      vertex 0.391235 0.20665 0
      vertex 0.292892 0.292892 0
    endloop
  endfacet
  facet normal 0 0 -1
    outer loop
      vertex 0.61731 9.32387 0
      vertex 0 8.39999 0
      vertex 0.5 9.26602 0
    endloop
  endfacet
  facet normal 0 0 -1
    outer loop
      vertex 0 1 0
      vertex 0.292892 0.292892 0
      vertex 0.20665 0.391235 0
    endloop
  endfacet
  facet normal 0 0 -1
    outer loop
      vertex 0.5 9.26602 0
      vertex 0 8.39999 0
      vertex 0.391235 9.19334 0
    endloop
  endfacet
  facet normal 0 0 -1
    outer loop
      vertex 0 1 0
      vertex 0.20665 0.391235 0
      vertex 0.133972 0.5 0
    endloop
  endfacet
  facet normal 0 0 -1
    outer loop
      vertex 0.391235 9.19334 0
      vertex 0 8.39999 0
      vertex 0.292892 9.1071 0
    endloop
  endfacet
  facet normal 0 0 -1
    outer loop
      vertex 0 1 0
      vertex 0.133972 0.5 0
      vertex 0.0761261 0.61731 0
    endloop
  endfacet
  facet normal 0 0 -1
    outer loop
      vertex 0.292892 9.1071 0
      vertex 0 8.39999 0
      vertex 0.20665 9.00876 0
    endloop
  endfacet
  facet normal 0 0 -1
    outer loop
      vertex 0 1 0
      vertex 0.0761261 0.61731 0
      vertex 0.0340729 0.74118 0
    endloop
  endfacet
  facet normal 0 0 -1
    outer loop
      vertex 0.20665 9.00876 0
      vertex 0 8.39999 0
      vertex 0.133972 8.89999 0
    endloop
  endfacet
  facet normal 0 0 -1
    outer loop
      vertex 0 1 0
      vertex 0.0340729 0.74118 0
      vertex 0.00856018 0.869476 0
    endloop
  endfacet
  facet normal 0 0 -1
    outer loop
      vertex 0.133972 8.89999 0
      vertex 0 8.39999 0
      vertex 0.0761261 8.78268 0
    endloop
  endfacet
  facet normal 0 0 -1
    outer loop
      vertex 0.0761261 8.78268 0
      vertex 0 8.39999 0
      vertex 0.0340729 8.65881 0
    endloop
  endfacet
  facet normal 0 0 -1
    outer loop
      vertex 0.0340729 8.65881 0
      vertex 0 8.39999 0
      vertex 0.00856018 8.53052 0
    endloop
  endfacet
  facet normal 0.997836 -0.0657457 0
    outer loop
      vertex 13.9914 0.869476 5.59
      vertex 14 1 0
      vertex 14 1 5.59
    endloop
  endfacet
  facet normal 0.997836 -0.0657457 0
    outer loop
      vertex 14 1 0
      vertex 13.9914 0.869476 5.59
      vertex 13.9914 0.869476 0
    endloop
  endfacet
  facet normal 0.442288 -0.896873 0
    outer loop
      vertex 13.3827 0.0761261 0
      vertex 13.5 0.133972 5.59
      vertex 13.3827 0.0761261 5.59
    endloop
  endfacet
  facet normal 0.442288 -0.896873 0
    outer loop
      vertex 13.5 0.133972 5.59
      vertex 13.3827 0.0761261 0
      vertex 13.5 0.133972 0
    endloop
  endfacet
  facet normal 0.555465 -0.83154 0
    outer loop
      vertex 13.5 0.133972 0
      vertex 13.6088 0.20665 5.59
      vertex 13.5 0.133972 5.59
    endloop
  endfacet
  facet normal 0.555465 -0.83154 0
    outer loop
      vertex 13.6088 0.20665 5.59
      vertex 13.5 0.133972 0
      vertex 13.6088 0.20665 0
    endloop
  endfacet
  facet normal 0.321629 -0.946866 0
    outer loop
      vertex 13.5553 -0.279552 5.59
      vertex 13.6296 -0.254314 7
      vertex 13.5553 -0.279552 7
    endloop
  endfacet
  facet normal 0.321629 -0.946866 0
    outer loop
      vertex 13.6296 -0.254314 7
      vertex 13.5553 -0.279552 5.59
      vertex 13.6296 -0.254314 5.59
    endloop
  endfacet
  facet normal 0 -1 0
    outer loop
      vertex 0.600006 -0.299999 5.59
      vertex 13.4 -0.299999 7
      vertex 0.600006 -0.299999 7
    endloop
  endfacet
  facet normal 0 -1 -0
    outer loop
      vertex 13.4 -0.299999 7
      vertex 0.600006 -0.299999 5.59
      vertex 13.4 -0.299999 5.59
    endloop
  endfacet
  facet normal 0.194952 -0.980813 0
    outer loop
      vertex 13.4783 -0.294857 5.59
      vertex 13.5553 -0.279552 7
      vertex 13.4783 -0.294857 7
    endloop
  endfacet
  facet normal 0.194952 -0.980813 0
    outer loop
      vertex 13.5553 -0.279552 7
      vertex 13.4783 -0.294857 5.59
      vertex 13.5553 -0.279552 5.59
    endloop
  endfacet
  facet normal -0.896941 -0.442151 0
    outer loop
      vertex 0.0803833 2.86102e-06 5.59
      vertex 0.0456848 0.0703917 7
      vertex 0.0456848 0.0703917 5.59
    endloop
  endfacet
  facet normal -0.896941 -0.442151 0
    outer loop
      vertex 0.0456848 0.0703917 7
      vertex 0.0803833 2.86102e-06 5.59
      vertex 0.0803833 2.86102e-06 7
    endloop
  endfacet
  facet normal 0.0655293 -0.997851 0
    outer loop
      vertex 13.4 -0.299999 5.59
      vertex 13.4783 -0.294857 7
      vertex 13.4 -0.299999 7
    endloop
  endfacet
  facet normal 0.0655293 -0.997851 0
    outer loop
      vertex 13.4783 -0.294857 7
      vertex 13.4 -0.299999 5.59
      vertex 13.4783 -0.294857 5.59
    endloop
  endfacet
  facet normal 0.195014 0.980801 -0
    outer loop
      vertex 13.5553 9.67955 5.59
      vertex 13.4783 9.69486 7
      vertex 13.5553 9.67955 7
    endloop
  endfacet
  facet normal 0.195014 0.980801 0
    outer loop
      vertex 13.4783 9.69486 7
      vertex 13.5553 9.67955 5.59
      vertex 13.4783 9.69486 5.59
    endloop
  endfacet
  facet normal -0.0655227 -0.997851 0
    outer loop
      vertex 0.521698 -0.294857 5.59
      vertex 0.600006 -0.299999 7
      vertex 0.521698 -0.294857 7
    endloop
  endfacet
  facet normal -0.0655227 -0.997851 -0
    outer loop
      vertex 0.600006 -0.299999 7
      vertex 0.521698 -0.294857 5.59
      vertex 0.600006 -0.299999 5.59
    endloop
  endfacet
  facet normal -0.555688 0.831391 0
    outer loop
      vertex 0.300003 9.61962 5.59
      vertex 0.234756 9.57601 7
      vertex 0.300003 9.61962 7
    endloop
  endfacet
  facet normal -0.555688 0.831391 0
    outer loop
      vertex 0.234756 9.57601 7
      vertex 0.300003 9.61962 5.59
      vertex 0.234756 9.57601 5.59
    endloop
  endfacet
  facet normal -0.997851 -0.0655253 0
    outer loop
      vertex 0.00514221 0.221698 5.59
      vertex 0 0.300006 7
      vertex 0 0.300006 5.59
    endloop
  endfacet
  facet normal -0.997851 -0.0655253 0
    outer loop
      vertex 0 0.300006 7
      vertex 0.00514221 0.221698 5.59
      vertex 0.00514221 0.221698 7
    endloop
  endfacet
  facet normal -0.321532 -0.946899 0
    outer loop
      vertex 0.370392 -0.254314 5.59
      vertex 0.444717 -0.279552 7
      vertex 0.370392 -0.254314 7
    endloop
  endfacet
  facet normal -0.321532 -0.946899 -0
    outer loop
      vertex 0.444717 -0.279552 7
      vertex 0.370392 -0.254314 5.59
      vertex 0.444717 -0.279552 5.59
    endloop
  endfacet
  facet normal -0.896944 0.442145 0
    outer loop
      vertex 0.0456848 9.32961 5.59
      vertex 0.0803833 9.4 7
      vertex 0.0803833 9.4 5.59
    endloop
  endfacet
  facet normal -0.896944 0.442145 0
    outer loop
      vertex 0.0803833 9.4 7
      vertex 0.0456848 9.32961 5.59
      vertex 0.0456848 9.32961 7
    endloop
  endfacet
  facet normal -0.659274 0.751903 0
    outer loop
      vertex 0.234756 9.57601 5.59
      vertex 0.175735 9.52426 7
      vertex 0.234756 9.57601 7
    endloop
  endfacet
  facet normal -0.659274 0.751903 0
    outer loop
      vertex 0.175735 9.52426 7
      vertex 0.234756 9.57601 5.59
      vertex 0.175735 9.52426 5.59
    endloop
  endfacet
  facet normal -0.442063 0.896984 0
    outer loop
      vertex 0.370392 9.65431 5.59
      vertex 0.300003 9.61962 7
      vertex 0.370392 9.65431 7
    endloop
  endfacet
  facet normal -0.442063 0.896984 0
    outer loop
      vertex 0.300003 9.61962 7
      vertex 0.370392 9.65431 5.59
      vertex 0.300003 9.61962 5.59
    endloop
  endfacet
  facet normal -0.0654973 0.997853 0
    outer loop
      vertex 0.600006 9.7 5.59
      vertex 0.521698 9.69486 7
      vertex 0.600006 9.7 7
    endloop
  endfacet
  facet normal -0.0654973 0.997853 0
    outer loop
      vertex 0.521698 9.69486 7
      vertex 0.600006 9.7 5.59
      vertex 0.521698 9.69486 5.59
    endloop
  endfacet
  facet normal 0.555965 0.831206 -0
    outer loop
      vertex 13.7652 9.57601 5.59
      vertex 13.7 9.61962 7
      vertex 13.7652 9.57601 7
    endloop
  endfacet
  facet normal 0.555965 0.831206 0
    outer loop
      vertex 13.7 9.61962 7
      vertex 13.7652 9.57601 5.59
      vertex 13.7 9.61962 5.59
    endloop
  endfacet
  facet normal 0.980816 -0.194937 0
    outer loop
      vertex 13.9796 0.144717 7
      vertex 13.9949 0.221698 5.59
      vertex 13.9949 0.221698 7
    endloop
  endfacet
  facet normal 0.980816 -0.194937 0
    outer loop
      vertex 13.9949 0.221698 5.59
      vertex 13.9796 0.144717 7
      vertex 13.9796 0.144717 5.59
    endloop
  endfacet
  facet normal -0.946905 0.321512 0
    outer loop
      vertex 0.0204468 9.25528 5.59
      vertex 0.0456848 9.32961 7
      vertex 0.0456848 9.32961 5.59
    endloop
  endfacet
  facet normal -0.946905 0.321512 0
    outer loop
      vertex 0.0456848 9.32961 7
      vertex 0.0204468 9.25528 5.59
      vertex 0.0204468 9.25528 7
    endloop
  endfacet
  facet normal 0.946665 0.32222 0
    outer loop
      vertex 13.9796 9.25528 7
      vertex 13.9543 9.32961 5.59
      vertex 13.9543 9.32961 7
    endloop
  endfacet
  facet normal 0.946665 0.32222 0
    outer loop
      vertex 13.9543 9.32961 5.59
      vertex 13.9796 9.25528 7
      vertex 13.9796 9.25528 5.59
    endloop
  endfacet
  facet normal -0.194999 -0.980803 0
    outer loop
      vertex 0.444717 -0.279552 5.59
      vertex 0.521698 -0.294857 7
      vertex 0.444717 -0.279552 7
    endloop
  endfacet
  facet normal -0.194999 -0.980803 -0
    outer loop
      vertex 0.521698 -0.294857 7
      vertex 0.444717 -0.279552 5.59
      vertex 0.521698 -0.294857 5.59
    endloop
  endfacet
  facet normal 0.831445 -0.555608 0
    outer loop
      vertex 13.876 -0.0652428 7
      vertex 13.9196 2.86102e-06 5.59
      vertex 13.9196 2.86102e-06 7
    endloop
  endfacet
  facet normal 0.831445 -0.555608 0
    outer loop
      vertex 13.9196 2.86102e-06 5.59
      vertex 13.876 -0.0652428 7
      vertex 13.876 -0.0652428 5.59
    endloop
  endfacet
  facet normal -0.751948 0.659222 0
    outer loop
      vertex 0.123993 9.46524 5.59
      vertex 0.175735 9.52426 7
      vertex 0.175735 9.52426 5.59
    endloop
  endfacet
  facet normal -0.751948 0.659222 0
    outer loop
      vertex 0.175735 9.52426 7
      vertex 0.123993 9.46524 5.59
      vertex 0.123993 9.46524 7
    endloop
  endfacet
  facet normal 0.896933 -0.442166 0
    outer loop
      vertex 13.9196 2.86102e-06 7
      vertex 13.9543 0.0703917 5.59
      vertex 13.9543 0.0703917 7
    endloop
  endfacet
  facet normal 0.896933 -0.442166 0
    outer loop
      vertex 13.9543 0.0703917 5.59
      vertex 13.9196 2.86102e-06 7
      vertex 13.9196 2.86102e-06 5.59
    endloop
  endfacet
  facet normal -0.555688 -0.831391 0
    outer loop
      vertex 0.234756 -0.176006 5.59
      vertex 0.300003 -0.219616 7
      vertex 0.234756 -0.176006 7
    endloop
  endfacet
  facet normal -0.555688 -0.831391 -0
    outer loop
      vertex 0.300003 -0.219616 7
      vertex 0.234756 -0.176006 5.59
      vertex 0.300003 -0.219616 5.59
    endloop
  endfacet
  facet normal 0 1 -0
    outer loop
      vertex 13.4 9.7 5.59
      vertex 0.600006 9.7 7
      vertex 13.4 9.7 7
    endloop
  endfacet
  facet normal 0 1 0
    outer loop
      vertex 0.600006 9.7 7
      vertex 13.4 9.7 5.59
      vertex 0.600006 9.7 5.59
    endloop
  endfacet
  facet normal -0.321554 0.946891 0
    outer loop
      vertex 0.444717 9.67955 5.59
      vertex 0.370392 9.65431 7
      vertex 0.444717 9.67955 7
    endloop
  endfacet
  facet normal -0.321554 0.946891 0
    outer loop
      vertex 0.370392 9.65431 7
      vertex 0.444717 9.67955 5.59
      vertex 0.370392 9.65431 5.59
    endloop
  endfacet
  facet normal -0.831365 0.555726 0
    outer loop
      vertex 0.0803833 9.4 5.59
      vertex 0.123993 9.46524 7
      vertex 0.123993 9.46524 5.59
    endloop
  endfacet
  facet normal -0.831365 0.555726 0
    outer loop
      vertex 0.123993 9.46524 7
      vertex 0.0803833 9.4 5.59
      vertex 0.0803833 9.4 7
    endloop
  endfacet
  facet normal 0.752213 0.65892 0
    outer loop
      vertex 13.876 9.46524 7
      vertex 13.8243 9.52426 5.59
      vertex 13.8243 9.52426 7
    endloop
  endfacet
  facet normal 0.752213 0.65892 0
    outer loop
      vertex 13.8243 9.52426 5.59
      vertex 13.876 9.46524 7
      vertex 13.876 9.46524 5.59
    endloop
  endfacet
  facet normal 0.065504 0.997852 -0
    outer loop
      vertex 13.4783 9.69486 5.59
      vertex 13.4 9.7 7
      vertex 13.4783 9.69486 7
    endloop
  endfacet
  facet normal 0.065504 0.997852 0
    outer loop
      vertex 13.4 9.7 7
      vertex 13.4783 9.69486 5.59
      vertex 13.4 9.7 5.59
    endloop
  endfacet
  facet normal -0.19506 0.980791 0
    outer loop
      vertex 0.521698 9.69486 5.59
      vertex 0.444717 9.67955 7
      vertex 0.521698 9.69486 7
    endloop
  endfacet
  facet normal -0.19506 0.980791 0
    outer loop
      vertex 0.444717 9.67955 7
      vertex 0.521698 9.69486 5.59
      vertex 0.444717 9.67955 5.59
    endloop
  endfacet
  facet normal 0.442007 0.897011 -0
    outer loop
      vertex 13.7 9.61962 5.59
      vertex 13.6296 9.65431 7
      vertex 13.7 9.61962 7
    endloop
  endfacet
  facet normal 0.442007 0.897011 0
    outer loop
      vertex 13.6296 9.65431 7
      vertex 13.7 9.61962 5.59
      vertex 13.6296 9.65431 5.59
    endloop
  endfacet
  facet normal -0.659216 -0.751954 0
    outer loop
      vertex 0.175735 -0.124264 5.59
      vertex 0.234756 -0.176006 7
      vertex 0.175735 -0.124264 7
    endloop
  endfacet
  facet normal -0.659216 -0.751954 -0
    outer loop
      vertex 0.234756 -0.176006 7
      vertex 0.175735 -0.124264 5.59
      vertex 0.234756 -0.176006 5.59
    endloop
  endfacet
  facet normal 0.658717 -0.752391 0
    outer loop
      vertex 13.7652 -0.176006 5.59
      vertex 13.8243 -0.124264 7
      vertex 13.7652 -0.176006 7
    endloop
  endfacet
  facet normal 0.658717 -0.752391 0
    outer loop
      vertex 13.8243 -0.124264 7
      vertex 13.7652 -0.176006 5.59
      vertex 13.8243 -0.124264 5.59
    endloop
  endfacet
  facet normal -0.442145 -0.896944 0
    outer loop
      vertex 0.300003 -0.219616 5.59
      vertex 0.370392 -0.254314 7
      vertex 0.300003 -0.219616 7
    endloop
  endfacet
  facet normal -0.442145 -0.896944 -0
    outer loop
      vertex 0.370392 -0.254314 7
      vertex 0.300003 -0.219616 5.59
      vertex 0.370392 -0.254314 5.59
    endloop
  endfacet
  facet normal 0.658775 0.75234 -0
    outer loop
      vertex 13.8243 9.52426 5.59
      vertex 13.7652 9.57601 7
      vertex 13.8243 9.52426 7
    endloop
  endfacet
  facet normal 0.658775 0.75234 0
    outer loop
      vertex 13.7652 9.57601 7
      vertex 13.8243 9.52426 5.59
      vertex 13.7652 9.57601 5.59
    endloop
  endfacet
  facet normal -0.980804 0.194996 0
    outer loop
      vertex 0.00514221 9.1783 5.59
      vertex 0.0204468 9.25528 7
      vertex 0.0204468 9.25528 5.59
    endloop
  endfacet
  facet normal -0.980804 0.194996 0
    outer loop
      vertex 0.0204468 9.25528 7
      vertex 0.00514221 9.1783 5.59
      vertex 0.00514221 9.1783 7
    endloop
  endfacet
  facet normal 0.946659 -0.322238 0
    outer loop
      vertex 13.9543 0.0703917 7
      vertex 13.9796 0.144717 5.59
      vertex 13.9796 0.144717 7
    endloop
  endfacet
  facet normal 0.946659 -0.322238 0
    outer loop
      vertex 13.9796 0.144717 5.59
      vertex 13.9543 0.0703917 7
      vertex 13.9543 0.0703917 5.59
    endloop
  endfacet
  facet normal 0.75222 -0.658912 0
    outer loop
      vertex 13.8243 -0.124264 7
      vertex 13.876 -0.0652428 5.59
      vertex 13.876 -0.0652428 7
    endloop
  endfacet
  facet normal 0.75222 -0.658912 0
    outer loop
      vertex 13.876 -0.0652428 5.59
      vertex 13.8243 -0.124264 7
      vertex 13.8243 -0.124264 5.59
    endloop
  endfacet
  facet normal -0.997851 0.0655237 0
    outer loop
      vertex 0 9.09999 5.59
      vertex 0.00514221 9.1783 7
      vertex 0.00514221 9.1783 5.59
    endloop
  endfacet
  facet normal -0.997851 0.0655237 0
    outer loop
      vertex 0.00514221 9.1783 7
      vertex 0 9.09999 5.59
      vertex 0 9.09999 7
    endloop
  endfacet
  facet normal 0.997886 0.0649881 0
    outer loop
      vertex 14 9.09999 7
      vertex 13.9949 9.1783 5.59
      vertex 13.9949 9.1783 7
    endloop
  endfacet
  facet normal 0.997886 0.0649881 0
    outer loop
      vertex 13.9949 9.1783 5.59
      vertex 14 9.09999 7
      vertex 14 9.09999 5.59
    endloop
  endfacet
  facet normal 0.831422 0.555641 0
    outer loop
      vertex 13.9196 9.4 7
      vertex 13.876 9.46524 5.59
      vertex 13.876 9.46524 7
    endloop
  endfacet
  facet normal 0.831422 0.555641 0
    outer loop
      vertex 13.876 9.46524 5.59
      vertex 13.9196 9.4 7
      vertex 13.9196 9.4 5.59
    endloop
  endfacet
  facet normal -0.751955 -0.659215 0
    outer loop
      vertex 0.175735 -0.124264 5.59
      vertex 0.123993 -0.0652428 7
      vertex 0.123993 -0.0652428 5.59
    endloop
  endfacet
  facet normal -0.751955 -0.659215 0
    outer loop
      vertex 0.123993 -0.0652428 7
      vertex 0.175735 -0.124264 5.59
      vertex 0.175735 -0.124264 7
    endloop
  endfacet
  facet normal 0.321651 0.946858 -0
    outer loop
      vertex 13.6296 9.65431 5.59
      vertex 13.5553 9.67955 7
      vertex 13.6296 9.65431 7
    endloop
  endfacet
  facet normal 0.321651 0.946858 0
    outer loop
      vertex 13.5553 9.67955 7
      vertex 13.6296 9.65431 5.59
      vertex 13.5553 9.67955 5.59
    endloop
  endfacet
  facet normal -0.831388 -0.555693 0
    outer loop
      vertex 0.123993 -0.0652428 5.59
      vertex 0.0803833 2.86102e-06 7
      vertex 0.0803833 2.86102e-06 5.59
    endloop
  endfacet
  facet normal -0.831388 -0.555693 0
    outer loop
      vertex 0.0803833 2.86102e-06 7
      vertex 0.123993 -0.0652428 5.59
      vertex 0.123993 -0.0652428 7
    endloop
  endfacet
  facet normal 0.896936 0.44216 0
    outer loop
      vertex 13.9543 9.32961 7
      vertex 13.9196 9.4 5.59
      vertex 13.9196 9.4 7
    endloop
  endfacet
  facet normal 0.896936 0.44216 0
    outer loop
      vertex 13.9196 9.4 5.59
      vertex 13.9543 9.32961 7
      vertex 13.9543 9.32961 5.59
    endloop
  endfacet
  facet normal 0.980815 0.19494 0
    outer loop
      vertex 13.9949 9.1783 7
      vertex 13.9796 9.25528 5.59
      vertex 13.9796 9.25528 7
    endloop
  endfacet
  facet normal 0.980815 0.19494 0
    outer loop
      vertex 13.9796 9.25528 5.59
      vertex 13.9949 9.1783 7
      vertex 13.9949 9.1783 5.59
    endloop
  endfacet
  facet normal -0.980804 -0.194994 0
    outer loop
      vertex 0.0204468 0.144717 5.59
      vertex 0.00514221 0.221698 7
      vertex 0.00514221 0.221698 5.59
    endloop
  endfacet
  facet normal -0.980804 -0.194994 0
    outer loop
      vertex 0.00514221 0.221698 7
      vertex 0.0204468 0.144717 5.59
      vertex 0.0204468 0.144717 7
    endloop
  endfacet
  facet normal -0.946899 -0.32153 0
    outer loop
      vertex 0.0456848 0.0703917 5.59
      vertex 0.0204468 0.144717 7
      vertex 0.0204468 0.144717 5.59
    endloop
  endfacet
  facet normal -0.946899 -0.32153 0
    outer loop
      vertex 0.0204468 0.144717 7
      vertex 0.0456848 0.0703917 5.59
      vertex 0.0456848 0.0703917 7
    endloop
  endfacet
  facet normal 0 0 -1
    outer loop
      vertex 13.7934 0.391235 5.59
      vertex 14 0.300006 5.59
      vertex 13.9949 0.221698 5.59
    endloop
  endfacet
  facet normal 0 0 -1
    outer loop
      vertex 14 0.300006 5.59
      vertex 13.9914 0.869476 5.59
      vertex 14 1 5.59
    endloop
  endfacet
  facet normal 0 0 -1
    outer loop
      vertex 13.7071 0.292892 5.59
      vertex 13.9949 0.221698 5.59
      vertex 13.9796 0.144717 5.59
    endloop
  endfacet
  facet normal 0 0 -1
    outer loop
      vertex 14 0.300006 5.59
      vertex 13.9659 0.74118 5.59
      vertex 13.9914 0.869476 5.59
    endloop
  endfacet
  facet normal 0 0 -1
    outer loop
      vertex 13.7071 0.292892 5.59
      vertex 13.9796 0.144717 5.59
      vertex 13.9543 0.0703917 5.59
    endloop
  endfacet
  facet normal 0 0 -1
    outer loop
      vertex 14 0.300006 5.59
      vertex 13.9239 0.61731 5.59
      vertex 13.9659 0.74118 5.59
    endloop
  endfacet
  facet normal 0 0 -1
    outer loop
      vertex 13.6088 0.20665 5.59
      vertex 13.9543 0.0703917 5.59
      vertex 13.9196 2.86102e-06 5.59
    endloop
  endfacet
  facet normal 0 0 -1
    outer loop
      vertex 13.6088 0.20665 5.59
      vertex 13.9196 2.86102e-06 5.59
      vertex 13.876 -0.0652428 5.59
    endloop
  endfacet
  facet normal 0 0 -1
    outer loop
      vertex 14 0.300006 5.59
      vertex 13.866 0.5 5.59
      vertex 13.9239 0.61731 5.59
    endloop
  endfacet
  facet normal 0 0 -1
    outer loop
      vertex 13.6088 0.20665 5.59
      vertex 13.876 -0.0652428 5.59
      vertex 13.8243 -0.124264 5.59
    endloop
  endfacet
  facet normal 0 0 -1
    outer loop
      vertex 14 0.300006 5.59
      vertex 13.7934 0.391235 5.59
      vertex 13.866 0.5 5.59
    endloop
  endfacet
  facet normal 0 0 -1
    outer loop
      vertex 13.5 0.133972 5.59
      vertex 13.8243 -0.124264 5.59
      vertex 13.7652 -0.176006 5.59
    endloop
  endfacet
  facet normal 0 0 -1
    outer loop
      vertex 13.9949 0.221698 5.59
      vertex 13.7071 0.292892 5.59
      vertex 13.7934 0.391235 5.59
    endloop
  endfacet
  facet normal 0 0 -1
    outer loop
      vertex 13.5 0.133972 5.59
      vertex 13.7652 -0.176006 5.59
      vertex 13.7 -0.219616 5.59
    endloop
  endfacet
  facet normal 0 0 -1
    outer loop
      vertex 13.5 0.133972 5.59
      vertex 13.7 -0.219616 5.59
      vertex 13.6296 -0.254314 5.59
    endloop
  endfacet
  facet normal 0 0 -1
    outer loop
      vertex 13.9543 0.0703917 5.59
      vertex 13.6088 0.20665 5.59
      vertex 13.7071 0.292892 5.59
    endloop
  endfacet
  facet normal 0 0 -1
    outer loop
      vertex 13.3827 0.0761261 5.59
      vertex 13.6296 -0.254314 5.59
      vertex 13.5553 -0.279552 5.59
    endloop
  endfacet
  facet normal 0 0 -1
    outer loop
      vertex 13.8243 -0.124264 5.59
      vertex 13.5 0.133972 5.59
      vertex 13.6088 0.20665 5.59
    endloop
  endfacet
  facet normal 0 0 -1
    outer loop
      vertex 13.3827 0.0761261 5.59
      vertex 13.5553 -0.279552 5.59
      vertex 13.4783 -0.294857 5.59
    endloop
  endfacet
  facet normal 0 0 -1
    outer loop
      vertex 13.3827 0.0761261 5.59
      vertex 13.4783 -0.294857 5.59
      vertex 13.4 -0.299999 5.59
    endloop
  endfacet
  facet normal 0 0 -1
    outer loop
      vertex 13.6296 -0.254314 5.59
      vertex 13.3827 0.0761261 5.59
      vertex 13.5 0.133972 5.59
    endloop
  endfacet
  facet normal 0 0 -1
    outer loop
      vertex 13.4 -0.299999 5.59
      vertex 13.2588 0.0340729 5.59
      vertex 13.3827 0.0761261 5.59
    endloop
  endfacet
  facet normal 0 0 -1
    outer loop
      vertex 13.4 -0.299999 5.59
      vertex 13.1305 0.00856018 5.59
      vertex 13.2588 0.0340729 5.59
    endloop
  endfacet
  facet normal 0 0 -1
    outer loop
      vertex 13.4 -0.299999 5.59
      vertex 13 0 5.59
      vertex 13.1305 0.00856018 5.59
    endloop
  endfacet
  facet normal 0 0 -1
    outer loop
      vertex 13.4 -0.299999 5.59
      vertex 1 0 5.59
      vertex 13 0 5.59
    endloop
  endfacet
  facet normal 0 0 -1
    outer loop
      vertex 0.600006 -0.299999 5.59
      vertex 1 0 5.59
      vertex 13.4 -0.299999 5.59
    endloop
  endfacet
  facet normal 0 0 -1
    outer loop
      vertex 0.600006 -0.299999 5.59
      vertex 0.869476 0.00856018 5.59
      vertex 1 0 5.59
    endloop
  endfacet
  facet normal 0 0 -1
    outer loop
      vertex 0.600006 -0.299999 5.59
      vertex 0.74118 0.0340729 5.59
      vertex 0.869476 0.00856018 5.59
    endloop
  endfacet
  facet normal 0 0 -1
    outer loop
      vertex 0.600006 -0.299999 5.59
      vertex 0.61731 0.0761261 5.59
      vertex 0.74118 0.0340729 5.59
    endloop
  endfacet
  facet normal 0 0 -1
    outer loop
      vertex 0.521698 -0.294857 5.59
      vertex 0.61731 0.0761261 5.59
      vertex 0.600006 -0.299999 5.59
    endloop
  endfacet
  facet normal 0 0 -1
    outer loop
      vertex 0.444717 -0.279552 5.59
      vertex 0.61731 0.0761261 5.59
      vertex 0.521698 -0.294857 5.59
    endloop
  endfacet
  facet normal 0 0 -1
    outer loop
      vertex 0.370392 -0.254314 5.59
      vertex 0.61731 0.0761261 5.59
      vertex 0.444717 -0.279552 5.59
    endloop
  endfacet
  facet normal -0 0 -1
    outer loop
      vertex 0.61731 0.0761261 5.59
      vertex 0.370392 -0.254314 5.59
      vertex 0.5 0.133972 5.59
    endloop
  endfacet
  facet normal 0 0 -1
    outer loop
      vertex 0.300003 -0.219616 5.59
      vertex 0.5 0.133972 5.59
      vertex 0.370392 -0.254314 5.59
    endloop
  endfacet
  facet normal 0 0 -1
    outer loop
      vertex 0.234756 -0.176006 5.59
      vertex 0.5 0.133972 5.59
      vertex 0.300003 -0.219616 5.59
    endloop
  endfacet
  facet normal 0 0 -1
    outer loop
      vertex 0.175735 -0.124264 5.59
      vertex 0.5 0.133972 5.59
      vertex 0.234756 -0.176006 5.59
    endloop
  endfacet
  facet normal -0 0 -1
    outer loop
      vertex 0.5 0.133972 5.59
      vertex 0.175735 -0.124264 5.59
      vertex 0.391235 0.20665 5.59
    endloop
  endfacet
  facet normal 0 0 -1
    outer loop
      vertex 0.123993 -0.0652428 5.59
      vertex 0.391235 0.20665 5.59
      vertex 0.175735 -0.124264 5.59
    endloop
  endfacet
  facet normal 0 0 -1
    outer loop
      vertex 0.0803833 2.86102e-06 5.59
      vertex 0.391235 0.20665 5.59
      vertex 0.123993 -0.0652428 5.59
    endloop
  endfacet
  facet normal 0 0 -1
    outer loop
      vertex 0.0456848 0.0703917 5.59
      vertex 0.391235 0.20665 5.59
      vertex 0.0803833 2.86102e-06 5.59
    endloop
  endfacet
  facet normal -0 0 -1
    outer loop
      vertex 0.391235 0.20665 5.59
      vertex 0.0456848 0.0703917 5.59
      vertex 0.292892 0.292892 5.59
    endloop
  endfacet
  facet normal 0 0 -1
    outer loop
      vertex 0.0204468 0.144717 5.59
      vertex 0.292892 0.292892 5.59
      vertex 0.0456848 0.0703917 5.59
    endloop
  endfacet
  facet normal 0 0 -1
    outer loop
      vertex 0.00514221 0.221698 5.59
      vertex 0.292892 0.292892 5.59
      vertex 0.0204468 0.144717 5.59
    endloop
  endfacet
  facet normal -0 0 -1
    outer loop
      vertex 0.292892 0.292892 5.59
      vertex 0.00514221 0.221698 5.59
      vertex 0.20665 0.391235 5.59
    endloop
  endfacet
  facet normal -0 0 -1
    outer loop
      vertex 0.133972 0.5 5.59
      vertex 0 0.300006 5.59
      vertex 0.0761261 0.61731 5.59
    endloop
  endfacet
  facet normal 0 0 -1
    outer loop
      vertex 0 0.300006 5.59
      vertex 0.20665 0.391235 5.59
      vertex 0.00514221 0.221698 5.59
    endloop
  endfacet
  facet normal -0 0 -1
    outer loop
      vertex 0.0761261 0.61731 5.59
      vertex 0 0.300006 5.59
      vertex 0.0340729 0.74118 5.59
    endloop
  endfacet
  facet normal -0 0 -1
    outer loop
      vertex 0.20665 0.391235 5.59
      vertex 0 0.300006 5.59
      vertex 0.133972 0.5 5.59
    endloop
  endfacet
  facet normal -0 0 -1
    outer loop
      vertex 0.0340729 0.74118 5.59
      vertex 0 0.300006 5.59
      vertex 0.00856018 0.869476 5.59
    endloop
  endfacet
  facet normal -0 0 -1
    outer loop
      vertex 0.00856018 0.869476 5.59
      vertex 0 0.300006 5.59
      vertex 0 1 5.59
    endloop
  endfacet
  facet normal 0 0 -1
    outer loop
      vertex 13.9914 8.53052 5.59
      vertex 14 9.09999 5.59
      vertex 14 8.39999 5.59
    endloop
  endfacet
  facet normal 0 0 -1
    outer loop
      vertex 13.9659 8.65881 5.59
      vertex 14 9.09999 5.59
      vertex 13.9914 8.53052 5.59
    endloop
  endfacet
  facet normal 0 0 -1
    outer loop
      vertex 13.9239 8.78268 5.59
      vertex 14 9.09999 5.59
      vertex 13.9659 8.65881 5.59
    endloop
  endfacet
  facet normal 0 0 -1
    outer loop
      vertex 13.866 8.89999 5.59
      vertex 14 9.09999 5.59
      vertex 13.9239 8.78268 5.59
    endloop
  endfacet
  facet normal 0 0 -1
    outer loop
      vertex 13.7934 9.00876 5.59
      vertex 14 9.09999 5.59
      vertex 13.866 8.89999 5.59
    endloop
  endfacet
  facet normal -0 0 -1
    outer loop
      vertex 14 9.09999 5.59
      vertex 13.7934 9.00876 5.59
      vertex 13.9949 9.1783 5.59
    endloop
  endfacet
  facet normal 0 0 -1
    outer loop
      vertex 13.7071 9.1071 5.59
      vertex 13.9949 9.1783 5.59
      vertex 13.7934 9.00876 5.59
    endloop
  endfacet
  facet normal -0 0 -1
    outer loop
      vertex 13.9949 9.1783 5.59
      vertex 13.7071 9.1071 5.59
      vertex 13.9796 9.25528 5.59
    endloop
  endfacet
  facet normal -0 0 -1
    outer loop
      vertex 13.9796 9.25528 5.59
      vertex 13.7071 9.1071 5.59
      vertex 13.9543 9.32961 5.59
    endloop
  endfacet
  facet normal 0 0 -1
    outer loop
      vertex 13.6088 9.19334 5.59
      vertex 13.9543 9.32961 5.59
      vertex 13.7071 9.1071 5.59
    endloop
  endfacet
  facet normal -0 0 -1
    outer loop
      vertex 13.9543 9.32961 5.59
      vertex 13.6088 9.19334 5.59
      vertex 13.9196 9.4 5.59
    endloop
  endfacet
  facet normal -0 0 -1
    outer loop
      vertex 13.9196 9.4 5.59
      vertex 13.6088 9.19334 5.59
      vertex 13.876 9.46524 5.59
    endloop
  endfacet
  facet normal -0 0 -1
    outer loop
      vertex 13.876 9.46524 5.59
      vertex 13.6088 9.19334 5.59
      vertex 13.8243 9.52426 5.59
    endloop
  endfacet
  facet normal 0 0 -1
    outer loop
      vertex 13.5 9.26602 5.59
      vertex 13.8243 9.52426 5.59
      vertex 13.6088 9.19334 5.59
    endloop
  endfacet
  facet normal -0 0 -1
    outer loop
      vertex 13.8243 9.52426 5.59
      vertex 13.5 9.26602 5.59
      vertex 13.7652 9.57601 5.59
    endloop
  endfacet
  facet normal -0 0 -1
    outer loop
      vertex 13.7652 9.57601 5.59
      vertex 13.5 9.26602 5.59
      vertex 13.7 9.61962 5.59
    endloop
  endfacet
  facet normal -0 0 -1
    outer loop
      vertex 13.7 9.61962 5.59
      vertex 13.5 9.26602 5.59
      vertex 13.6296 9.65431 5.59
    endloop
  endfacet
  facet normal 0 0 -1
    outer loop
      vertex 13.3827 9.32387 5.59
      vertex 13.6296 9.65431 5.59
      vertex 13.5 9.26602 5.59
    endloop
  endfacet
  facet normal -0 0 -1
    outer loop
      vertex 13.6296 9.65431 5.59
      vertex 13.3827 9.32387 5.59
      vertex 13.5553 9.67955 5.59
    endloop
  endfacet
  facet normal -0 0 -1
    outer loop
      vertex 13.5553 9.67955 5.59
      vertex 13.3827 9.32387 5.59
      vertex 13.4783 9.69486 5.59
    endloop
  endfacet
  facet normal -0 0 -1
    outer loop
      vertex 13.4783 9.69486 5.59
      vertex 13.3827 9.32387 5.59
      vertex 13.4 9.7 5.59
    endloop
  endfacet
  facet normal 0 0 -1
    outer loop
      vertex 13.2588 9.36592 5.59
      vertex 13.4 9.7 5.59
      vertex 13.3827 9.32387 5.59
    endloop
  endfacet
  facet normal 0 0 -1
    outer loop
      vertex 13.1305 9.39143 5.59
      vertex 13.4 9.7 5.59
      vertex 13.2588 9.36592 5.59
    endloop
  endfacet
  facet normal 0 0 -1
    outer loop
      vertex 13 9.39999 5.59
      vertex 13.4 9.7 5.59
      vertex 13.1305 9.39143 5.59
    endloop
  endfacet
  facet normal 0 0 -1
    outer loop
      vertex 1 9.39999 5.59
      vertex 13.4 9.7 5.59
      vertex 13 9.39999 5.59
    endloop
  endfacet
  facet normal 0 0 -1
    outer loop
      vertex 1 9.39999 5.59
      vertex 0.600006 9.7 5.59
      vertex 13.4 9.7 5.59
    endloop
  endfacet
  facet normal 0 0 -1
    outer loop
      vertex 0.869476 9.39143 5.59
      vertex 0.600006 9.7 5.59
      vertex 1 9.39999 5.59
    endloop
  endfacet
  facet normal 0 0 -1
    outer loop
      vertex 0.74118 9.36592 5.59
      vertex 0.600006 9.7 5.59
      vertex 0.869476 9.39143 5.59
    endloop
  endfacet
  facet normal 0 0 -1
    outer loop
      vertex 0.61731 9.32387 5.59
      vertex 0.600006 9.7 5.59
      vertex 0.74118 9.36592 5.59
    endloop
  endfacet
  facet normal 0 0 -1
    outer loop
      vertex 0.61731 9.32387 5.59
      vertex 0.521698 9.69486 5.59
      vertex 0.600006 9.7 5.59
    endloop
  endfacet
  facet normal 0 0 -1
    outer loop
      vertex 0.370392 9.65431 5.59
      vertex 0.61731 9.32387 5.59
      vertex 0.5 9.26602 5.59
    endloop
  endfacet
  facet normal 0 0 -1
    outer loop
      vertex 0.61731 9.32387 5.59
      vertex 0.444717 9.67955 5.59
      vertex 0.521698 9.69486 5.59
    endloop
  endfacet
  facet normal 0 0 -1
    outer loop
      vertex 0.175735 9.52426 5.59
      vertex 0.5 9.26602 5.59
      vertex 0.391235 9.19334 5.59
    endloop
  endfacet
  facet normal 0 0 -1
    outer loop
      vertex 0.61731 9.32387 5.59
      vertex 0.370392 9.65431 5.59
      vertex 0.444717 9.67955 5.59
    endloop
  endfacet
  facet normal 0 0 -1
    outer loop
      vertex 0.5 9.26602 5.59
      vertex 0.300003 9.61962 5.59
      vertex 0.370392 9.65431 5.59
    endloop
  endfacet
  facet normal 0 0 -1
    outer loop
      vertex 0.0456848 9.32961 5.59
      vertex 0.391235 9.19334 5.59
      vertex 0.292892 9.1071 5.59
    endloop
  endfacet
  facet normal 0 0 -1
    outer loop
      vertex 0.5 9.26602 5.59
      vertex 0.234756 9.57601 5.59
      vertex 0.300003 9.61962 5.59
    endloop
  endfacet
  facet normal 0 0 -1
    outer loop
      vertex 0.00514221 9.1783 5.59
      vertex 0.292892 9.1071 5.59
      vertex 0.20665 9.00876 5.59
    endloop
  endfacet
  facet normal 0 0 -1
    outer loop
      vertex 0.5 9.26602 5.59
      vertex 0.175735 9.52426 5.59
      vertex 0.234756 9.57601 5.59
    endloop
  endfacet
  facet normal 0 0 -1
    outer loop
      vertex 0 9.09999 5.59
      vertex 0.20665 9.00876 5.59
      vertex 0.133972 8.89999 5.59
    endloop
  endfacet
  facet normal 0 0 -1
    outer loop
      vertex 0.391235 9.19334 5.59
      vertex 0.123993 9.46524 5.59
      vertex 0.175735 9.52426 5.59
    endloop
  endfacet
  facet normal 0 0 -1
    outer loop
      vertex 0.391235 9.19334 5.59
      vertex 0.0803833 9.4 5.59
      vertex 0.123993 9.46524 5.59
    endloop
  endfacet
  facet normal 0 0 -1
    outer loop
      vertex 0 9.09999 5.59
      vertex 0.133972 8.89999 5.59
      vertex 0.0761261 8.78268 5.59
    endloop
  endfacet
  facet normal 0 0 -1
    outer loop
      vertex 0.20665 9.00876 5.59
      vertex 0 9.09999 5.59
      vertex 0.00514221 9.1783 5.59
    endloop
  endfacet
  facet normal 0 0 -1
    outer loop
      vertex 0 9.09999 5.59
      vertex 0.0761261 8.78268 5.59
      vertex 0.0340729 8.65881 5.59
    endloop
  endfacet
  facet normal 0 0 -1
    outer loop
      vertex 0.391235 9.19334 5.59
      vertex 0.0456848 9.32961 5.59
      vertex 0.0803833 9.4 5.59
    endloop
  endfacet
  facet normal 0 0 -1
    outer loop
      vertex 0 9.09999 5.59
      vertex 0.0340729 8.65881 5.59
      vertex 0.00856018 8.53052 5.59
    endloop
  endfacet
  facet normal 0 0 -1
    outer loop
      vertex 0.292892 9.1071 5.59
      vertex 0.0204468 9.25528 5.59
      vertex 0.0456848 9.32961 5.59
    endloop
  endfacet
  facet normal 0 0 -1
    outer loop
      vertex 0 9.09999 5.59
      vertex 0.00856018 8.53052 5.59
      vertex 0 8.39999 5.59
    endloop
  endfacet
  facet normal 0 0 -1
    outer loop
      vertex 0.292892 9.1071 5.59
      vertex 0.00514221 9.1783 5.59
      vertex 0.0204468 9.25528 5.59
    endloop
  endfacet
  facet normal 0.997886 -0.0649898 0
    outer loop
      vertex 13.9949 0.221698 7
      vertex 14 0.300006 5.59
      vertex 14 0.300006 7
    endloop
  endfacet
  facet normal 0.997886 -0.0649898 0
    outer loop
      vertex 14 0.300006 5.59
      vertex 13.9949 0.221698 7
      vertex 13.9949 0.221698 5.59
    endloop
  endfacet
  facet normal 0 0 1
    outer loop
      vertex 13.4 9.7 7
      vertex 14 9.09999 7
      vertex 13.9949 9.1783 7
    endloop
  endfacet
  facet normal 0 0 1
    outer loop
      vertex 13.4 9.7 7
      vertex 13.9949 9.1783 7
      vertex 13.9796 9.25528 7
    endloop
  endfacet
  facet normal 0 0 1
    outer loop
      vertex 13.4 9.7 7
      vertex 13.9796 9.25528 7
      vertex 13.9543 9.32961 7
    endloop
  endfacet
  facet normal 0 0 1
    outer loop
      vertex 13.4 9.7 7
      vertex 13.9543 9.32961 7
      vertex 13.9196 9.4 7
    endloop
  endfacet
  facet normal 0 0 1
    outer loop
      vertex 13.4 9.7 7
      vertex 13.9196 9.4 7
      vertex 13.876 9.46524 7
    endloop
  endfacet
  facet normal 0 0 1
    outer loop
      vertex 13.4 9.7 7
      vertex 13.876 9.46524 7
      vertex 13.8243 9.52426 7
    endloop
  endfacet
  facet normal 0 0 1
    outer loop
      vertex 13.4 9.7 7
      vertex 13.8243 9.52426 7
      vertex 13.7652 9.57601 7
    endloop
  endfacet
  facet normal 0 0 1
    outer loop
      vertex 13.4 9.7 7
      vertex 13.7652 9.57601 7
      vertex 13.7 9.61962 7
    endloop
  endfacet
  facet normal 0 0 1
    outer loop
      vertex 13.4 9.7 7
      vertex 13.7 9.61962 7
      vertex 13.6296 9.65431 7
    endloop
  endfacet
  facet normal 0 0 1
    outer loop
      vertex 13.4 9.7 7
      vertex 13.6296 9.65431 7
      vertex 13.5553 9.67955 7
    endloop
  endfacet
  facet normal 0 0 1
    outer loop
      vertex 13.4 9.7 7
      vertex 13.5553 9.67955 7
      vertex 13.4783 9.69486 7
    endloop
  endfacet
  facet normal 0 0 1
    outer loop
      vertex 14 9.09999 7
      vertex 13.4 9.7 7
      vertex 14 7.35361 7
    endloop
  endfacet
  facet normal -0 0 1
    outer loop
      vertex 0.600006 9.7 7
      vertex 14 7.35361 7
      vertex 13.4 9.7 7
    endloop
  endfacet
  facet normal 0 0 1
    outer loop
      vertex 0 9.09999 7
      vertex 0.600006 9.7 7
      vertex 0.521698 9.69486 7
    endloop
  endfacet
  facet normal 0 0 1
    outer loop
      vertex 0 9.09999 7
      vertex 0.521698 9.69486 7
      vertex 0.444717 9.67955 7
    endloop
  endfacet
  facet normal 0 0 1
    outer loop
      vertex 0 9.09999 7
      vertex 0.444717 9.67955 7
      vertex 0.370392 9.65431 7
    endloop
  endfacet
  facet normal 0 0 1
    outer loop
      vertex 0 9.09999 7
      vertex 0.370392 9.65431 7
      vertex 0.300003 9.61962 7
    endloop
  endfacet
  facet normal 0 0 1
    outer loop
      vertex 0 9.09999 7
      vertex 0.300003 9.61962 7
      vertex 0.234756 9.57601 7
    endloop
  endfacet
  facet normal 0 0 1
    outer loop
      vertex 0 9.09999 7
      vertex 0.234756 9.57601 7
      vertex 0.175735 9.52426 7
    endloop
  endfacet
  facet normal 0 0 1
    outer loop
      vertex 0 9.09999 7
      vertex 0.175735 9.52426 7
      vertex 0.123993 9.46524 7
    endloop
  endfacet
  facet normal 0 0 1
    outer loop
      vertex 0 9.09999 7
      vertex 0.123993 9.46524 7
      vertex 0.0803833 9.4 7
    endloop
  endfacet
  facet normal 0 0 1
    outer loop
      vertex 0 9.09999 7
      vertex 0.0803833 9.4 7
      vertex 0.0456848 9.32961 7
    endloop
  endfacet
  facet normal 0 0 1
    outer loop
      vertex 0 9.09999 7
      vertex 0.0456848 9.32961 7
      vertex 0.0204468 9.25528 7
    endloop
  endfacet
  facet normal 0 0 1
    outer loop
      vertex 0 9.09999 7
      vertex 0.0204468 9.25528 7
      vertex 0.00514221 9.1783 7
    endloop
  endfacet
  facet normal 0 0 1
    outer loop
      vertex 0.600006 9.7 7
      vertex 0 9.09999 7
      vertex 0 7.35361 7
    endloop
  endfacet
  facet normal 0 0 1
    outer loop
      vertex 0.600006 9.7 7
      vertex 0 7.35361 7
      vertex 14 7.35361 7
    endloop
  endfacet
  facet normal 0 0 1
    outer loop
      vertex 13.4 -0.299999 7
      vertex 14 0.300006 7
      vertex 14 2.04639 7
    endloop
  endfacet
  facet normal 0 0 1
    outer loop
      vertex 14 0.300006 7
      vertex 13.4 -0.299999 7
      vertex 13.9949 0.221698 7
    endloop
  endfacet
  facet normal 0 0 1
    outer loop
      vertex 13.9949 0.221698 7
      vertex 13.4 -0.299999 7
      vertex 13.9796 0.144717 7
    endloop
  endfacet
  facet normal 0 0 1
    outer loop
      vertex 13.9796 0.144717 7
      vertex 13.4 -0.299999 7
      vertex 13.9543 0.0703917 7
    endloop
  endfacet
  facet normal 0 0 1
    outer loop
      vertex 13.9543 0.0703917 7
      vertex 13.4 -0.299999 7
      vertex 13.9196 2.86102e-06 7
    endloop
  endfacet
  facet normal 0 0 1
    outer loop
      vertex 13.9196 2.86102e-06 7
      vertex 13.4 -0.299999 7
      vertex 13.876 -0.0652428 7
    endloop
  endfacet
  facet normal 0 0 1
    outer loop
      vertex 13.876 -0.0652428 7
      vertex 13.4 -0.299999 7
      vertex 13.8243 -0.124264 7
    endloop
  endfacet
  facet normal 0 0 1
    outer loop
      vertex 13.8243 -0.124264 7
      vertex 13.4 -0.299999 7
      vertex 13.7652 -0.176006 7
    endloop
  endfacet
  facet normal 0 0 1
    outer loop
      vertex 13.7652 -0.176006 7
      vertex 13.4 -0.299999 7
      vertex 13.7 -0.219616 7
    endloop
  endfacet
  facet normal 0 0 1
    outer loop
      vertex 13.7 -0.219616 7
      vertex 13.4 -0.299999 7
      vertex 13.6296 -0.254314 7
    endloop
  endfacet
  facet normal 0 0 1
    outer loop
      vertex 13.6296 -0.254314 7
      vertex 13.4 -0.299999 7
      vertex 13.5553 -0.279552 7
    endloop
  endfacet
  facet normal 0 0 1
    outer loop
      vertex 13.5553 -0.279552 7
      vertex 13.4 -0.299999 7
      vertex 13.4783 -0.294857 7
    endloop
  endfacet
  facet normal 0 0 1
    outer loop
      vertex 14 2.04639 7
      vertex 0.600006 -0.299999 7
      vertex 13.4 -0.299999 7
    endloop
  endfacet
  facet normal -0 0 1
    outer loop
      vertex 0 2.04639 7
      vertex 0.600006 -0.299999 7
      vertex 14 2.04639 7
    endloop
  endfacet
  facet normal -0 0 1
    outer loop
      vertex 0 0.300006 7
      vertex 0.600006 -0.299999 7
      vertex 0 2.04639 7
    endloop
  endfacet
  facet normal 0 0 1
    outer loop
      vertex 0.600006 -0.299999 7
      vertex 0 0.300006 7
      vertex 0.521698 -0.294857 7
    endloop
  endfacet
  facet normal 0 0 1
    outer loop
      vertex 0.521698 -0.294857 7
      vertex 0 0.300006 7
      vertex 0.444717 -0.279552 7
    endloop
  endfacet
  facet normal 0 0 1
    outer loop
      vertex 0.444717 -0.279552 7
      vertex 0 0.300006 7
      vertex 0.370392 -0.254314 7
    endloop
  endfacet
  facet normal 0 0 1
    outer loop
      vertex 0.370392 -0.254314 7
      vertex 0 0.300006 7
      vertex 0.300003 -0.219616 7
    endloop
  endfacet
  facet normal 0 0 1
    outer loop
      vertex 0.300003 -0.219616 7
      vertex 0 0.300006 7
      vertex 0.234756 -0.176006 7
    endloop
  endfacet
  facet normal 0 0 1
    outer loop
      vertex 0.234756 -0.176006 7
      vertex 0 0.300006 7
      vertex 0.175735 -0.124264 7
    endloop
  endfacet
  facet normal 0 0 1
    outer loop
      vertex 0.175735 -0.124264 7
      vertex 0 0.300006 7
      vertex 0.123993 -0.0652428 7
    endloop
  endfacet
  facet normal 0 0 1
    outer loop
      vertex 0.123993 -0.0652428 7
      vertex 0 0.300006 7
      vertex 0.0803833 2.86102e-06 7
    endloop
  endfacet
  facet normal 0 0 1
    outer loop
      vertex 0.0456848 0.0703917 7
      vertex 0 0.300006 7
      vertex 0.0204468 0.144717 7
    endloop
  endfacet
  facet normal 0 0 1
    outer loop
      vertex 0.0803833 2.86102e-06 7
      vertex 0 0.300006 7
      vertex 0.0456848 0.0703917 7
    endloop
  endfacet
  facet normal 0 0 1
    outer loop
      vertex 0.0204468 0.144717 7
      vertex 0 0.300006 7
      vertex 0.00514221 0.221698 7
    endloop
  endfacet
  facet normal 0.442089 -0.896971 0
    outer loop
      vertex 13.6296 -0.254314 5.59
      vertex 13.7 -0.219616 7
      vertex 13.6296 -0.254314 7
    endloop
  endfacet
  facet normal 0.442089 -0.896971 0
    outer loop
      vertex 13.7 -0.219616 7
      vertex 13.6296 -0.254314 5.59
      vertex 13.7 -0.219616 5.59
    endloop
  endfacet
  facet normal 0.555965 -0.831206 0
    outer loop
      vertex 13.7 -0.219616 5.59
      vertex 13.7652 -0.176006 7
      vertex 13.7 -0.219616 7
    endloop
  endfacet
  facet normal 0.555965 -0.831206 0
    outer loop
      vertex 13.7652 -0.176006 7
      vertex 13.7 -0.219616 5.59
      vertex 13.7652 -0.176006 5.59
    endloop
  endfacet
  facet normal 0 0.940454 -0.339922
    outer loop
      vertex 14 7.35361 7
      vertex 0 8.84999 11.14
      vertex 14 8.84999 11.14
    endloop
  endfacet
  facet normal 0 0.940454 -0.339922
    outer loop
      vertex 0 8.84999 11.14
      vertex 14 7.35361 7
      vertex 0 7.35361 7
    endloop
  endfacet
  facet normal -0 0 1
    outer loop
      vertex 0 8.84999 11.14
      vertex 14 0.550006 11.14
      vertex 14 8.84999 11.14
    endloop
  endfacet
  facet normal 0 0 1
    outer loop
      vertex 14 0.550006 11.14
      vertex 0 8.84999 11.14
      vertex 0 0.550006 11.14
    endloop
  endfacet
  facet normal 0 -0.940453 -0.339923
    outer loop
      vertex 0 2.04639 7
      vertex 14 0.550006 11.14
      vertex 0 0.550006 11.14
    endloop
  endfacet
  facet normal 0 -0.940453 -0.339923
    outer loop
      vertex 14 0.550006 11.14
      vertex 0 2.04639 7
      vertex 14 2.04639 7
    endloop
  endfacet
  facet normal 0 0 -1
    outer loop
      vertex 0 1.2 4.4
      vertex 14 8.2 4.4
      vertex 14 1.2 4.4
    endloop
  endfacet
  facet normal -0 0 -1
    outer loop
      vertex 14 8.2 4.4
      vertex 0 1.2 4.4
      vertex 0 8.2 4.4
    endloop
  endfacet
  facet normal -0 0 1
    outer loop
      vertex 0 8.2 1.2
      vertex 14 1.2 1.2
      vertex 14 8.2 1.2
    endloop
  endfacet
  facet normal 0 0 1
    outer loop
      vertex 14 1.2 1.2
      vertex 0 8.2 1.2
      vertex 0 1.2 1.2
    endloop
  endfacet
  facet normal 0 -1 0
    outer loop
      vertex 0 8.2 1.2
      vertex 14 8.2 4.4
      vertex 0 8.2 4.4
    endloop
  endfacet
  facet normal 0 -1 -0
    outer loop
      vertex 14 8.2 4.4
      vertex 0 8.2 1.2
      vertex 14 8.2 1.2
    endloop
  endfacet
  facet normal 0 1 -0
    outer loop
      vertex 14 1.2 1.2
      vertex 0 1.2 4.4
      vertex 14 1.2 4.4
    endloop
  endfacet
  facet normal 0 1 0
    outer loop
      vertex 0 1.2 4.4
      vertex 14 1.2 1.2
      vertex 0 1.2 1.2
    endloop
  endfacet
endsolid OpenSCAD_Model
