solid OpenSCAD_Model
  facet normal -1 0 0
    outer loop
      vertex 0 1.2 4.51842
      vertex 0 1.2 5.39999
      vertex 0 1.2784 4.46603
    endloop
  endfacet
  facet normal -1 0 0
    outer loop
      vertex 0 -3.29999 0
      vertex 0 -2.02844 2.25647
      vertex 0 -1.94014 1.99635
    endloop
  endfacet
  facet normal -1 0 0
    outer loop
      vertex 0 1.2 5.39999
      vertex 0 1.48491 4.28491
      vertex 0 1.2784 4.46603
    endloop
  endfacet
  facet normal -1 0 0
    outer loop
      vertex 0 1.2 5.39999
      vertex 0 3.29999 5.39999
      vertex 0 1.48491 4.28491
    endloop
  endfacet
  facet normal -1 0 0
    outer loop
      vertex 0 1.48491 4.28491
      vertex 0 3.29999 5.39999
      vertex 0 1.66603 4.07838
    endloop
  endfacet
  facet normal -1 0 0
    outer loop
      vertex 0 1.66603 4.07838
      vertex 0 3.29999 5.39999
      vertex 0 1.81865 3.84999
    endloop
  endfacet
  facet normal -1 0 0
    outer loop
      vertex 0 1.81865 3.84999
      vertex 0 3.29999 5.39999
      vertex 0 1.94014 3.60362
    endloop
  endfacet
  facet normal -1 0 0
    outer loop
      vertex 0 1.94014 3.60362
      vertex 0 3.29999 5.39999
      vertex 0 2.02844 3.34351
    endloop
  endfacet
  facet normal -1 0 0
    outer loop
      vertex 0 2.02844 3.34351
      vertex 0 3.29999 5.39999
      vertex 0 2.08203 3.0741
    endloop
  endfacet
  facet normal -1 0 0
    outer loop
      vertex 0 2.08203 3.0741
      vertex 0 3.29999 5.39999
      vertex 0 2.09999 2.79999
    endloop
  endfacet
  facet normal -1 0 0
    outer loop
      vertex 0 2.09999 2.79999
      vertex 0 3.29999 5.39999
      vertex 0 3.29999 0
    endloop
  endfacet
  facet normal -1 0 0
    outer loop
      vertex 0 2.08203 2.52589
      vertex 0 2.09999 2.79999
      vertex 0 3.29999 0
    endloop
  endfacet
  facet normal -1 0 0
    outer loop
      vertex 0 2.02844 2.25647
      vertex 0 2.08203 2.52589
      vertex 0 3.29999 0
    endloop
  endfacet
  facet normal -1 0 0
    outer loop
      vertex 0 1.94014 1.99635
      vertex 0 2.02844 2.25647
      vertex 0 3.29999 0
    endloop
  endfacet
  facet normal -1 0 0
    outer loop
      vertex 0 1.81865 1.74998
      vertex 0 1.94014 1.99635
      vertex 0 3.29999 0
    endloop
  endfacet
  facet normal -1 0 0
    outer loop
      vertex 0 1.66603 1.52159
      vertex 0 1.81865 1.74998
      vertex 0 3.29999 0
    endloop
  endfacet
  facet normal -1 0 0
    outer loop
      vertex 0 1.48491 1.31506
      vertex 0 1.66603 1.52159
      vertex 0 3.29999 0
    endloop
  endfacet
  facet normal -1 0 0
    outer loop
      vertex 0 1.2784 1.13396
      vertex 0 1.48491 1.31506
      vertex 0 3.29999 0
    endloop
  endfacet
  facet normal -1 0 0
    outer loop
      vertex 0 1.04999 0.981339
      vertex 0 1.2784 1.13396
      vertex 0 3.29999 0
    endloop
  endfacet
  facet normal -1 0 0
    outer loop
      vertex 0 0.803635 0.859848
      vertex 0 1.04999 0.981339
      vertex 0 3.29999 0
    endloop
  endfacet
  facet normal -1 0 0
    outer loop
      vertex 0 0.274094 0.717957
      vertex 0 0.543518 0.771545
      vertex 0 3.29999 0
    endloop
  endfacet
  facet normal -1 0 0
    outer loop
      vertex 0 0.543518 0.771545
      vertex 0 0.803635 0.859848
      vertex 0 3.29999 0
    endloop
  endfacet
  facet normal -1 0 0
    outer loop
      vertex 0 0 0.699997
      vertex 0 0.274094 0.717957
      vertex 0 3.29999 0
    endloop
  endfacet
  facet normal -1 0 0
    outer loop
      vertex 0 -3.29999 0
      vertex 0 0 0.699997
      vertex 0 3.29999 0
    endloop
  endfacet
  facet normal -1 0 0
    outer loop
      vertex 0 -3.29999 0
      vertex 0 -0.274094 0.717957
      vertex 0 0 0.699997
    endloop
  endfacet
  facet normal -1 0 0
    outer loop
      vertex 0 -3.29999 0
      vertex 0 -0.543518 0.771545
      vertex 0 -0.274094 0.717957
    endloop
  endfacet
  facet normal -1 0 0
    outer loop
      vertex 0 -3.29999 0
      vertex 0 -0.803635 0.859848
      vertex 0 -0.543518 0.771545
    endloop
  endfacet
  facet normal -1 0 0
    outer loop
      vertex 0 -3.29999 0
      vertex 0 -1.04999 0.981339
      vertex 0 -0.803635 0.859848
    endloop
  endfacet
  facet normal -1 0 0
    outer loop
      vertex 0 -3.29999 0
      vertex 0 -1.2784 1.13396
      vertex 0 -1.04999 0.981339
    endloop
  endfacet
  facet normal -1 0 0
    outer loop
      vertex 0 -3.29999 0
      vertex 0 -1.48491 1.31506
      vertex 0 -1.2784 1.13396
    endloop
  endfacet
  facet normal -1 0 0
    outer loop
      vertex 0 -3.29999 0
      vertex 0 -1.66603 1.52159
      vertex 0 -1.48491 1.31506
    endloop
  endfacet
  facet normal -1 0 0
    outer loop
      vertex 0 -3.29999 0
      vertex 0 -1.81865 1.74998
      vertex 0 -1.66603 1.52159
    endloop
  endfacet
  facet normal -1 0 0
    outer loop
      vertex 0 -3.29999 0
      vertex 0 -1.94014 1.99635
      vertex 0 -1.81865 1.74998
    endloop
  endfacet
  facet normal -1 -0 0
    outer loop
      vertex 0 -2.02844 2.25647
      vertex 0 -3.29999 0
      vertex 0 -2.08203 2.52589
    endloop
  endfacet
  facet normal -1 -0 0
    outer loop
      vertex 0 -2.08203 2.52589
      vertex 0 -3.29999 0
      vertex 0 -2.09999 2.79999
    endloop
  endfacet
  facet normal -1 -0 0
    outer loop
      vertex 0 -2.09999 2.79999
      vertex 0 -3.29999 0
      vertex 0 -3.29999 5.39999
    endloop
  endfacet
  facet normal -1 -0 0
    outer loop
      vertex 0 -2.08203 3.0741
      vertex 0 -2.09999 2.79999
      vertex 0 -3.29999 5.39999
    endloop
  endfacet
  facet normal -1 0 0
    outer loop
      vertex 0 -3.29999 5.39999
      vertex 0 -2.02844 3.34351
      vertex 0 -2.08203 3.0741
    endloop
  endfacet
  facet normal -1 0 0
    outer loop
      vertex 0 -3.29999 5.39999
      vertex 0 -1.94014 3.60362
      vertex 0 -2.02844 3.34351
    endloop
  endfacet
  facet normal -1 0 0
    outer loop
      vertex 0 -3.29999 5.39999
      vertex 0 -1.81865 3.84999
      vertex 0 -1.94014 3.60362
    endloop
  endfacet
  facet normal -1 0 0
    outer loop
      vertex 0 -3.29999 5.39999
      vertex 0 -1.66603 4.07838
      vertex 0 -1.81865 3.84999
    endloop
  endfacet
  facet normal -1 0 0
    outer loop
      vertex 0 -3.29999 5.39999
      vertex 0 -1.48491 4.28491
      vertex 0 -1.66603 4.07838
    endloop
  endfacet
  facet normal -1 0 0
    outer loop
      vertex 0 -1.2 5.39999
      vertex 0 -1.2784 4.46603
      vertex 0 -1.48491 4.28491
    endloop
  endfacet
  facet normal -1 0 -0
    outer loop
      vertex 0 -1.2 5.39999
      vertex 0 -1.2 4.51842
      vertex 0 -1.2784 4.46603
    endloop
  endfacet
  facet normal -1 0 0
    outer loop
      vertex 0 -3.29999 5.39999
      vertex 0 -1.2 5.39999
      vertex 0 -1.48491 4.28491
    endloop
  endfacet
  facet normal 1 0 0
    outer loop
      vertex 40 1.2784 4.46603
      vertex 40 1.2 5.39999
      vertex 40 1.2 4.51842
    endloop
  endfacet
  facet normal 1 0 0
    outer loop
      vertex 40 -1.94014 1.99635
      vertex 40 -2.02844 2.25647
      vertex 40 -3.29999 0
    endloop
  endfacet
  facet normal 1 -0 -0
    outer loop
      vertex 40 1.2784 4.46603
      vertex 40 1.48491 4.28491
      vertex 40 1.2 5.39999
    endloop
  endfacet
  facet normal 1 0 -0
    outer loop
      vertex 40 1.48491 4.28491
      vertex 40 3.29999 5.39999
      vertex 40 1.2 5.39999
    endloop
  endfacet
  facet normal 1 0 -0
    outer loop
      vertex 40 1.66603 4.07838
      vertex 40 3.29999 5.39999
      vertex 40 1.48491 4.28491
    endloop
  endfacet
  facet normal 1 0 -0
    outer loop
      vertex 40 1.81865 3.84999
      vertex 40 3.29999 5.39999
      vertex 40 1.66603 4.07838
    endloop
  endfacet
  facet normal 1 0 -0
    outer loop
      vertex 40 1.94014 3.60362
      vertex 40 3.29999 5.39999
      vertex 40 1.81865 3.84999
    endloop
  endfacet
  facet normal 1 0 -0
    outer loop
      vertex 40 2.02844 3.34351
      vertex 40 3.29999 5.39999
      vertex 40 1.94014 3.60362
    endloop
  endfacet
  facet normal 1 0 -0
    outer loop
      vertex 40 2.08203 3.0741
      vertex 40 3.29999 5.39999
      vertex 40 2.02844 3.34351
    endloop
  endfacet
  facet normal 1 0 -0
    outer loop
      vertex 40 2.09999 2.79999
      vertex 40 3.29999 5.39999
      vertex 40 2.08203 3.0741
    endloop
  endfacet
  facet normal 1 0 -0
    outer loop
      vertex 40 3.29999 0
      vertex 40 3.29999 5.39999
      vertex 40 2.09999 2.79999
    endloop
  endfacet
  facet normal 1 0 0
    outer loop
      vertex 40 3.29999 0
      vertex 40 2.09999 2.79999
      vertex 40 2.08203 2.52589
    endloop
  endfacet
  facet normal 1 0 0
    outer loop
      vertex 40 3.29999 0
      vertex 40 2.08203 2.52589
      vertex 40 2.02844 2.25647
    endloop
  endfacet
  facet normal 1 0 0
    outer loop
      vertex 40 3.29999 0
      vertex 40 2.02844 2.25647
      vertex 40 1.94014 1.99635
    endloop
  endfacet
  facet normal 1 0 0
    outer loop
      vertex 40 3.29999 0
      vertex 40 1.94014 1.99635
      vertex 40 1.81865 1.74998
    endloop
  endfacet
  facet normal 1 0 0
    outer loop
      vertex 40 3.29999 0
      vertex 40 1.81865 1.74998
      vertex 40 1.66603 1.52159
    endloop
  endfacet
  facet normal 1 0 0
    outer loop
      vertex 40 3.29999 0
      vertex 40 1.66603 1.52159
      vertex 40 1.48491 1.31506
    endloop
  endfacet
  facet normal 1 0 0
    outer loop
      vertex 40 3.29999 0
      vertex 40 1.48491 1.31506
      vertex 40 1.2784 1.13396
    endloop
  endfacet
  facet normal 1 0 0
    outer loop
      vertex 40 3.29999 0
      vertex 40 1.2784 1.13396
      vertex 40 1.04999 0.981339
    endloop
  endfacet
  facet normal 1 0 0
    outer loop
      vertex 40 3.29999 0
      vertex 40 1.04999 0.981339
      vertex 40 0.803635 0.859848
    endloop
  endfacet
  facet normal 1 0 0
    outer loop
      vertex 40 3.29999 0
      vertex 40 0.543518 0.771545
      vertex 40 0.274094 0.717957
    endloop
  endfacet
  facet normal 1 0 0
    outer loop
      vertex 40 3.29999 0
      vertex 40 0.803635 0.859848
      vertex 40 0.543518 0.771545
    endloop
  endfacet
  facet normal 1 0 0
    outer loop
      vertex 40 3.29999 0
      vertex 40 0.274094 0.717957
      vertex 40 0 0.699997
    endloop
  endfacet
  facet normal 1 0 0
    outer loop
      vertex 40 3.29999 0
      vertex 40 0 0.699997
      vertex 40 -3.29999 0
    endloop
  endfacet
  facet normal 1 0 0
    outer loop
      vertex 40 0 0.699997
      vertex 40 -0.274094 0.717957
      vertex 40 -3.29999 0
    endloop
  endfacet
  facet normal 1 0 0
    outer loop
      vertex 40 -0.274094 0.717957
      vertex 40 -0.543518 0.771545
      vertex 40 -3.29999 0
    endloop
  endfacet
  facet normal 1 0 0
    outer loop
      vertex 40 -0.543518 0.771545
      vertex 40 -0.803635 0.859848
      vertex 40 -3.29999 0
    endloop
  endfacet
  facet normal 1 0 0
    outer loop
      vertex 40 -0.803635 0.859848
      vertex 40 -1.04999 0.981339
      vertex 40 -3.29999 0
    endloop
  endfacet
  facet normal 1 0 0
    outer loop
      vertex 40 -1.04999 0.981339
      vertex 40 -1.2784 1.13396
      vertex 40 -3.29999 0
    endloop
  endfacet
  facet normal 1 0 0
    outer loop
      vertex 40 -1.2784 1.13396
      vertex 40 -1.48491 1.31506
      vertex 40 -3.29999 0
    endloop
  endfacet
  facet normal 1 0 0
    outer loop
      vertex 40 -1.48491 1.31506
      vertex 40 -1.66603 1.52159
      vertex 40 -3.29999 0
    endloop
  endfacet
  facet normal 1 0 0
    outer loop
      vertex 40 -1.66603 1.52159
      vertex 40 -1.81865 1.74998
      vertex 40 -3.29999 0
    endloop
  endfacet
  facet normal 1 0 0
    outer loop
      vertex 40 -1.81865 1.74998
      vertex 40 -1.94014 1.99635
      vertex 40 -3.29999 0
    endloop
  endfacet
  facet normal 1 0 0
    outer loop
      vertex 40 -2.08203 2.52589
      vertex 40 -3.29999 0
      vertex 40 -2.02844 2.25647
    endloop
  endfacet
  facet normal 1 0 0
    outer loop
      vertex 40 -2.09999 2.79999
      vertex 40 -3.29999 0
      vertex 40 -2.08203 2.52589
    endloop
  endfacet
  facet normal 1 0 0
    outer loop
      vertex 40 -3.29999 5.39999
      vertex 40 -3.29999 0
      vertex 40 -2.09999 2.79999
    endloop
  endfacet
  facet normal 1 0 0
    outer loop
      vertex 40 -3.29999 5.39999
      vertex 40 -2.09999 2.79999
      vertex 40 -2.08203 3.0741
    endloop
  endfacet
  facet normal 1 0 -0
    outer loop
      vertex 40 -2.08203 3.0741
      vertex 40 -2.02844 3.34351
      vertex 40 -3.29999 5.39999
    endloop
  endfacet
  facet normal 1 0 -0
    outer loop
      vertex 40 -2.02844 3.34351
      vertex 40 -1.94014 3.60362
      vertex 40 -3.29999 5.39999
    endloop
  endfacet
  facet normal 1 0 -0
    outer loop
      vertex 40 -1.94014 3.60362
      vertex 40 -1.81865 3.84999
      vertex 40 -3.29999 5.39999
    endloop
  endfacet
  facet normal 1 0 -0
    outer loop
      vertex 40 -1.81865 3.84999
      vertex 40 -1.66603 4.07838
      vertex 40 -3.29999 5.39999
    endloop
  endfacet
  facet normal 1 0 -0
    outer loop
      vertex 40 -1.66603 4.07838
      vertex 40 -1.48491 4.28491
      vertex 40 -3.29999 5.39999
    endloop
  endfacet
  facet normal 1 0 0
    outer loop
      vertex 40 -1.48491 4.28491
      vertex 40 -1.2784 4.46603
      vertex 40 -1.2 5.39999
    endloop
  endfacet
  facet normal 1 0 0
    outer loop
      vertex 40 -1.2784 4.46603
      vertex 40 -1.2 4.51842
      vertex 40 -1.2 5.39999
    endloop
  endfacet
  facet normal 1 0 -0
    outer loop
      vertex 40 -1.48491 4.28491
      vertex 40 -1.2 5.39999
      vertex 40 -3.29999 5.39999
    endloop
  endfacet
  facet normal 0 0 -1
    outer loop
      vertex 0 3.29999 0
      vertex 40 -3.29999 0
      vertex 0 -3.29999 0
    endloop
  endfacet
  facet normal 0 0 -1
    outer loop
      vertex 0 3.29999 0
      vertex 40 3.29999 0
      vertex 40 -3.29999 0
    endloop
  endfacet
  facet normal 0 1 0
    outer loop
      vertex 0 3.29999 5.39999
      vertex 40 3.29999 0
      vertex 0 3.29999 0
    endloop
  endfacet
  facet normal -0 1 0
    outer loop
      vertex 0 3.29999 5.39999
      vertex 40 3.29999 5.39999
      vertex 40 3.29999 0
    endloop
  endfacet
  facet normal 0 0 1
    outer loop
      vertex 0 1.2 5.39999
      vertex 40 3.29999 5.39999
      vertex 0 3.29999 5.39999
    endloop
  endfacet
  facet normal 0 0 1
    outer loop
      vertex 0 1.2 5.39999
      vertex 40 1.2 5.39999
      vertex 40 3.29999 5.39999
    endloop
  endfacet
  facet normal 0 -1 0
    outer loop
      vertex 0 1.2 4.51842
      vertex 40 1.2 5.39999
      vertex 0 1.2 5.39999
    endloop
  endfacet
  facet normal 0 -1 0
    outer loop
      vertex 0 1.2 4.51842
      vertex 40 1.2 4.51842
      vertex 40 1.2 5.39999
    endloop
  endfacet
  facet normal 0 -0.555605 -0.831446
    outer loop
      vertex 0 1.2784 4.46603
      vertex 40 1.2 4.51842
      vertex 0 1.2 4.51842
    endloop
  endfacet
  facet normal 0 -0.555605 -0.831446
    outer loop
      vertex 0 1.2784 4.46603
      vertex 40 1.2784 4.46603
      vertex 40 1.2 4.51842
    endloop
  endfacet
  facet normal 0 -0.659378 -0.751812
    outer loop
      vertex 0 1.48491 4.28491
      vertex 40 1.2784 4.46603
      vertex 0 1.2784 4.46603
    endloop
  endfacet
  facet normal 0 -0.659378 -0.751812
    outer loop
      vertex 0 1.48491 4.28491
      vertex 40 1.48491 4.28491
      vertex 40 1.2784 4.46603
    endloop
  endfacet
  facet normal 0 -0.751843 -0.659342
    outer loop
      vertex 0 1.66603 4.07838
      vertex 40 1.48491 4.28491
      vertex 0 1.48491 4.28491
    endloop
  endfacet
  facet normal 0 -0.751843 -0.659342
    outer loop
      vertex 0 1.66603 4.07838
      vertex 40 1.66603 4.07838
      vertex 40 1.48491 4.28491
    endloop
  endfacet
  facet normal 0 -0.831445 -0.555607
    outer loop
      vertex 0 1.81865 3.84999
      vertex 40 1.66603 4.07838
      vertex 0 1.66603 4.07838
    endloop
  endfacet
  facet normal 0 -0.831445 -0.555607
    outer loop
      vertex 0 1.81865 3.84999
      vertex 40 1.81865 3.84999
      vertex 40 1.66603 4.07838
    endloop
  endfacet
  facet normal 0 -0.896882 -0.44227
    outer loop
      vertex 0 1.94014 3.60362
      vertex 40 1.81865 3.84999
      vertex 0 1.81865 3.84999
    endloop
  endfacet
  facet normal 0 -0.896882 -0.44227
    outer loop
      vertex 0 1.94014 3.60362
      vertex 40 1.94014 3.60362
      vertex 40 1.81865 3.84999
    endloop
  endfacet
  facet normal 0 -0.946925 -0.321454
    outer loop
      vertex 0 2.02844 3.34351
      vertex 40 1.94014 3.60362
      vertex 0 1.94014 3.60362
    endloop
  endfacet
  facet normal 0 -0.946925 -0.321454
    outer loop
      vertex 0 2.02844 3.34351
      vertex 40 2.02844 3.34351
      vertex 40 1.94014 3.60362
    endloop
  endfacet
  facet normal 0 -0.980785 -0.195094
    outer loop
      vertex 0 2.08203 3.0741
      vertex 40 2.02844 3.34351
      vertex 0 2.02844 3.34351
    endloop
  endfacet
  facet normal 0 -0.980785 -0.195094
    outer loop
      vertex 0 2.08203 3.0741
      vertex 40 2.08203 3.0741
      vertex 40 2.02844 3.34351
    endloop
  endfacet
  facet normal 0 -0.99786 -0.065381
    outer loop
      vertex 0 2.09999 2.79999
      vertex 40 2.08203 3.0741
      vertex 0 2.08203 3.0741
    endloop
  endfacet
  facet normal 0 -0.99786 -0.065381
    outer loop
      vertex 0 2.09999 2.79999
      vertex 40 2.09999 2.79999
      vertex 40 2.08203 3.0741
    endloop
  endfacet
  facet normal 0 -0.99786 0.0653833
    outer loop
      vertex 0 2.08203 2.52589
      vertex 40 2.09999 2.79999
      vertex 0 2.09999 2.79999
    endloop
  endfacet
  facet normal 0 -0.99786 0.0653833
    outer loop
      vertex 0 2.08203 2.52589
      vertex 40 2.08203 2.52589
      vertex 40 2.09999 2.79999
    endloop
  endfacet
  facet normal 0 -0.980786 0.195087
    outer loop
      vertex 0 2.02844 2.25647
      vertex 40 2.08203 2.52589
      vertex 0 2.08203 2.52589
    endloop
  endfacet
  facet normal 0 -0.980786 0.195087
    outer loop
      vertex 0 2.02844 2.25647
      vertex 40 2.02844 2.25647
      vertex 40 2.08203 2.52589
    endloop
  endfacet
  facet normal 0 -0.946929 0.321443
    outer loop
      vertex 0 1.94014 1.99635
      vertex 40 2.02844 2.25647
      vertex 0 2.02844 2.25647
    endloop
  endfacet
  facet normal 0 -0.946929 0.321443
    outer loop
      vertex 0 1.94014 1.99635
      vertex 40 1.94014 1.99635
      vertex 40 2.02844 2.25647
    endloop
  endfacet
  facet normal 0 -0.896882 0.44227
    outer loop
      vertex 0 1.81865 1.74998
      vertex 40 1.94014 1.99635
      vertex 0 1.94014 1.99635
    endloop
  endfacet
  facet normal 0 -0.896882 0.44227
    outer loop
      vertex 0 1.81865 1.74998
      vertex 40 1.81865 1.74998
      vertex 40 1.94014 1.99635
    endloop
  endfacet
  facet normal 0 -0.831445 0.555607
    outer loop
      vertex 0 1.66603 1.52159
      vertex 40 1.81865 1.74998
      vertex 0 1.81865 1.74998
    endloop
  endfacet
  facet normal 0 -0.831445 0.555607
    outer loop
      vertex 0 1.66603 1.52159
      vertex 40 1.66603 1.52159
      vertex 40 1.81865 1.74998
    endloop
  endfacet
  facet normal 0 -0.751843 0.659342
    outer loop
      vertex 0 1.48491 1.31506
      vertex 40 1.66603 1.52159
      vertex 0 1.66603 1.52159
    endloop
  endfacet
  facet normal 0 -0.751843 0.659342
    outer loop
      vertex 0 1.48491 1.31506
      vertex 40 1.48491 1.31506
      vertex 40 1.66603 1.52159
    endloop
  endfacet
  facet normal 0 -0.659337 0.751848
    outer loop
      vertex 0 1.2784 1.13396
      vertex 40 1.48491 1.31506
      vertex 0 1.48491 1.31506
    endloop
  endfacet
  facet normal 0 -0.659337 0.751848
    outer loop
      vertex 0 1.2784 1.13396
      vertex 40 1.2784 1.13396
      vertex 40 1.48491 1.31506
    endloop
  endfacet
  facet normal 0 -0.555576 0.831466
    outer loop
      vertex 0 1.04999 0.981339
      vertex 40 1.2784 1.13396
      vertex 0 1.2784 1.13396
    endloop
  endfacet
  facet normal 0 -0.555576 0.831466
    outer loop
      vertex 0 1.04999 0.981339
      vertex 40 1.04999 0.981339
      vertex 40 1.2784 1.13396
    endloop
  endfacet
  facet normal 0 -0.442295 0.89687
    outer loop
      vertex 0 0.803635 0.859848
      vertex 40 1.04999 0.981339
      vertex 0 1.04999 0.981339
    endloop
  endfacet
  facet normal 0 -0.442295 0.89687
    outer loop
      vertex 0 0.803635 0.859848
      vertex 40 0.803635 0.859848
      vertex 40 1.04999 0.981339
    endloop
  endfacet
  facet normal 0 -0.321456 0.946924
    outer loop
      vertex 0 0.543518 0.771545
      vertex 40 0.803635 0.859848
      vertex 0 0.803635 0.859848
    endloop
  endfacet
  facet normal 0 -0.321456 0.946924
    outer loop
      vertex 0 0.543518 0.771545
      vertex 40 0.543518 0.771545
      vertex 40 0.803635 0.859848
    endloop
  endfacet
  facet normal 0 -0.195077 0.980788
    outer loop
      vertex 0 0.274094 0.717957
      vertex 40 0.543518 0.771545
      vertex 0 0.543518 0.771545
    endloop
  endfacet
  facet normal 0 -0.195077 0.980788
    outer loop
      vertex 0 0.274094 0.717957
      vertex 40 0.274094 0.717957
      vertex 40 0.543518 0.771545
    endloop
  endfacet
  facet normal 0 -0.0653848 0.99786
    outer loop
      vertex 0 0 0.699997
      vertex 40 0.274094 0.717957
      vertex 0 0.274094 0.717957
    endloop
  endfacet
  facet normal 0 -0.0653848 0.99786
    outer loop
      vertex 0 0 0.699997
      vertex 40 0 0.699997
      vertex 40 0.274094 0.717957
    endloop
  endfacet
  facet normal 0 0.0653848 0.99786
    outer loop
      vertex 0 -0.274094 0.717957
      vertex 40 0 0.699997
      vertex 0 0 0.699997
    endloop
  endfacet
  facet normal -0 0.0653848 0.99786
    outer loop
      vertex 0 -0.274094 0.717957
      vertex 40 -0.274094 0.717957
      vertex 40 0 0.699997
    endloop
  endfacet
  facet normal 0 0.195077 0.980788
    outer loop
      vertex 0 -0.543518 0.771545
      vertex 40 -0.274094 0.717957
      vertex 0 -0.274094 0.717957
    endloop
  endfacet
  facet normal -0 0.195077 0.980788
    outer loop
      vertex 0 -0.543518 0.771545
      vertex 40 -0.543518 0.771545
      vertex 40 -0.274094 0.717957
    endloop
  endfacet
  facet normal 0 0.321456 0.946924
    outer loop
      vertex 0 -0.803635 0.859848
      vertex 40 -0.543518 0.771545
      vertex 0 -0.543518 0.771545
    endloop
  endfacet
  facet normal -0 0.321456 0.946924
    outer loop
      vertex 0 -0.803635 0.859848
      vertex 40 -0.803635 0.859848
      vertex 40 -0.543518 0.771545
    endloop
  endfacet
  facet normal 0 0.442295 0.89687
    outer loop
      vertex 0 -1.04999 0.981339
      vertex 40 -0.803635 0.859848
      vertex 0 -0.803635 0.859848
    endloop
  endfacet
  facet normal -0 0.442295 0.89687
    outer loop
      vertex 0 -1.04999 0.981339
      vertex 40 -1.04999 0.981339
      vertex 40 -0.803635 0.859848
    endloop
  endfacet
  facet normal 0 0.555576 0.831466
    outer loop
      vertex 0 -1.2784 1.13396
      vertex 40 -1.04999 0.981339
      vertex 0 -1.04999 0.981339
    endloop
  endfacet
  facet normal -0 0.555576 0.831466
    outer loop
      vertex 0 -1.2784 1.13396
      vertex 40 -1.2784 1.13396
      vertex 40 -1.04999 0.981339
    endloop
  endfacet
  facet normal 0 0.659337 0.751848
    outer loop
      vertex 0 -1.48491 1.31506
      vertex 40 -1.2784 1.13396
      vertex 0 -1.2784 1.13396
    endloop
  endfacet
  facet normal -0 0.659337 0.751848
    outer loop
      vertex 0 -1.48491 1.31506
      vertex 40 -1.48491 1.31506
      vertex 40 -1.2784 1.13396
    endloop
  endfacet
  facet normal 0 0.751843 0.659342
    outer loop
      vertex 0 -1.66603 1.52159
      vertex 40 -1.48491 1.31506
      vertex 0 -1.48491 1.31506
    endloop
  endfacet
  facet normal -0 0.751843 0.659342
    outer loop
      vertex 0 -1.66603 1.52159
      vertex 40 -1.66603 1.52159
      vertex 40 -1.48491 1.31506
    endloop
  endfacet
  facet normal 0 0.831445 0.555607
    outer loop
      vertex 0 -1.81865 1.74998
      vertex 40 -1.66603 1.52159
      vertex 0 -1.66603 1.52159
    endloop
  endfacet
  facet normal -0 0.831445 0.555607
    outer loop
      vertex 0 -1.81865 1.74998
      vertex 40 -1.81865 1.74998
      vertex 40 -1.66603 1.52159
    endloop
  endfacet
  facet normal 0 0.896882 0.44227
    outer loop
      vertex 0 -1.94014 1.99635
      vertex 40 -1.81865 1.74998
      vertex 0 -1.81865 1.74998
    endloop
  endfacet
  facet normal -0 0.896882 0.44227
    outer loop
      vertex 0 -1.94014 1.99635
      vertex 40 -1.94014 1.99635
      vertex 40 -1.81865 1.74998
    endloop
  endfacet
  facet normal 0 0.946929 0.321443
    outer loop
      vertex 0 -2.02844 2.25647
      vertex 40 -1.94014 1.99635
      vertex 0 -1.94014 1.99635
    endloop
  endfacet
  facet normal -0 0.946929 0.321443
    outer loop
      vertex 0 -2.02844 2.25647
      vertex 40 -2.02844 2.25647
      vertex 40 -1.94014 1.99635
    endloop
  endfacet
  facet normal 0 0.980786 0.195087
    outer loop
      vertex 0 -2.08203 2.52589
      vertex 40 -2.02844 2.25647
      vertex 0 -2.02844 2.25647
    endloop
  endfacet
  facet normal -0 0.980786 0.195087
    outer loop
      vertex 0 -2.08203 2.52589
      vertex 40 -2.08203 2.52589
      vertex 40 -2.02844 2.25647
    endloop
  endfacet
  facet normal 0 0.99786 0.0653833
    outer loop
      vertex 0 -2.09999 2.79999
      vertex 40 -2.08203 2.52589
      vertex 0 -2.08203 2.52589
    endloop
  endfacet
  facet normal -0 0.99786 0.0653833
    outer loop
      vertex 0 -2.09999 2.79999
      vertex 40 -2.09999 2.79999
      vertex 40 -2.08203 2.52589
    endloop
  endfacet
  facet normal 0 0.99786 -0.065381
    outer loop
      vertex 0 -2.08203 3.0741
      vertex 40 -2.09999 2.79999
      vertex 0 -2.09999 2.79999
    endloop
  endfacet
  facet normal 0 0.99786 -0.065381
    outer loop
      vertex 0 -2.08203 3.0741
      vertex 40 -2.08203 3.0741
      vertex 40 -2.09999 2.79999
    endloop
  endfacet
  facet normal 0 0.980785 -0.195094
    outer loop
      vertex 0 -2.02844 3.34351
      vertex 40 -2.08203 3.0741
      vertex 0 -2.08203 3.0741
    endloop
  endfacet
  facet normal 0 0.980785 -0.195094
    outer loop
      vertex 0 -2.02844 3.34351
      vertex 40 -2.02844 3.34351
      vertex 40 -2.08203 3.0741
    endloop
  endfacet
  facet normal 0 0.946925 -0.321454
    outer loop
      vertex 0 -1.94014 3.60362
      vertex 40 -2.02844 3.34351
      vertex 0 -2.02844 3.34351
    endloop
  endfacet
  facet normal 0 0.946925 -0.321454
    outer loop
      vertex 0 -1.94014 3.60362
      vertex 40 -1.94014 3.60362
      vertex 40 -2.02844 3.34351
    endloop
  endfacet
  facet normal 0 0.896882 -0.44227
    outer loop
      vertex 0 -1.81865 3.84999
      vertex 40 -1.94014 3.60362
      vertex 0 -1.94014 3.60362
    endloop
  endfacet
  facet normal 0 0.896882 -0.44227
    outer loop
      vertex 0 -1.81865 3.84999
      vertex 40 -1.81865 3.84999
      vertex 40 -1.94014 3.60362
    endloop
  endfacet
  facet normal 0 0.831445 -0.555607
    outer loop
      vertex 0 -1.66603 4.07838
      vertex 40 -1.81865 3.84999
      vertex 0 -1.81865 3.84999
    endloop
  endfacet
  facet normal 0 0.831445 -0.555607
    outer loop
      vertex 0 -1.66603 4.07838
      vertex 40 -1.66603 4.07838
      vertex 40 -1.81865 3.84999
    endloop
  endfacet
  facet normal 0 0.751843 -0.659342
    outer loop
      vertex 0 -1.48491 4.28491
      vertex 40 -1.66603 4.07838
      vertex 0 -1.66603 4.07838
    endloop
  endfacet
  facet normal 0 0.751843 -0.659342
    outer loop
      vertex 0 -1.48491 4.28491
      vertex 40 -1.48491 4.28491
      vertex 40 -1.66603 4.07838
    endloop
  endfacet
  facet normal 0 0.659378 -0.751812
    outer loop
      vertex 0 -1.2784 4.46603
      vertex 40 -1.48491 4.28491
      vertex 0 -1.48491 4.28491
    endloop
  endfacet
  facet normal 0 0.659378 -0.751812
    outer loop
      vertex 0 -1.2784 4.46603
      vertex 40 -1.2784 4.46603
      vertex 40 -1.48491 4.28491
    endloop
  endfacet
  facet normal 0 0.555605 -0.831446
    outer loop
      vertex 0 -1.2 4.51842
      vertex 40 -1.2784 4.46603
      vertex 0 -1.2784 4.46603
    endloop
  endfacet
  facet normal 0 0.555605 -0.831446
    outer loop
      vertex 0 -1.2 4.51842
      vertex 40 -1.2 4.51842
      vertex 40 -1.2784 4.46603
    endloop
  endfacet
  facet normal 0 1 0
    outer loop
      vertex 0 -1.2 5.39999
      vertex 40 -1.2 4.51842
      vertex 0 -1.2 4.51842
    endloop
  endfacet
  facet normal -0 1 0
    outer loop
      vertex 0 -1.2 5.39999
      vertex 40 -1.2 5.39999
      vertex 40 -1.2 4.51842
    endloop
  endfacet
  facet normal 0 0 1
    outer loop
      vertex 0 -3.29999 5.39999
      vertex 40 -1.2 5.39999
      vertex 0 -1.2 5.39999
    endloop
  endfacet
  facet normal 0 0 1
    outer loop
      vertex 0 -3.29999 5.39999
      vertex 40 -3.29999 5.39999
      vertex 40 -1.2 5.39999
    endloop
  endfacet
  facet normal 0 -1 0
    outer loop
      vertex 0 -3.29999 0
      vertex 40 -3.29999 5.39999
      vertex 0 -3.29999 5.39999
    endloop
  endfacet
  facet normal 0 -1 0
    outer loop
      vertex 0 -3.29999 0
      vertex 40 -3.29999 0
      vertex 40 -3.29999 5.39999
    endloop
  endfacet
endsolid OpenSCAD_Model
