solid OpenSCAD_Model
  facet normal 0 0 -1
    outer loop
      vertex 44.257 0.0272675 0
      vertex 44.45 0.107178 0
      vertex 44.3561 0.0608978 0
    endloop
  endfacet
  facet normal 0 0 -1
    outer loop
      vertex 44.6157 0.234314 0
      vertex 44.537 0.165314 0
      vertex 44.45 0.107178 0
    endloop
  endfacet
  facet normal -0 0 -1
    outer loop
      vertex 44.6157 0.234314 0
      vertex 44.45 0.107178 0
      vertex 44.7428 0.400009 0
    endloop
  endfacet
  facet normal 0 0 -1
    outer loop
      vertex 44.7428 0.400009 0
      vertex 44.45 0.107178 0
      vertex 44.257 0.0272675 0
    endloop
  endfacet
  facet normal 0 0 -1
    outer loop
      vertex 44.7428 0.400009 0
      vertex 44.6847 0.312988 0
      vertex 44.6157 0.234314 0
    endloop
  endfacet
  facet normal 0 0 -1
    outer loop
      vertex 44.8227 0.592941 0
      vertex 44.7428 0.400009 0
      vertex 44.257 0.0272675 0
    endloop
  endfacet
  facet normal 0 0 -1
    outer loop
      vertex 44.8227 0.592941 0
      vertex 44.7891 0.493851 0
      vertex 44.7428 0.400009 0
    endloop
  endfacet
  facet normal 0 0 -1
    outer loop
      vertex 44.1544 0.0068512 0
      vertex 44.8227 0.592941 0
      vertex 44.257 0.0272675 0
    endloop
  endfacet
  facet normal 0 0 -1
    outer loop
      vertex 44.1544 0.0068512 0
      vertex 44.8431 0.695587 0
      vertex 44.8227 0.592941 0
    endloop
  endfacet
  facet normal -0 0 -1
    outer loop
      vertex 44.1544 0.0068512 0
      vertex 44.05 0 0
      vertex 44.8431 0.695587 0
    endloop
  endfacet
  facet normal -0 0 -1
    outer loop
      vertex 44.8431 0.695587 0
      vertex 44.05 0 0
      vertex 44.85 0.800003 0
    endloop
  endfacet
  facet normal 0 0 -1
    outer loop
      vertex 44.85 0.800003 0
      vertex 44.05 32.5 0
      vertex 44.85 31.7 0
    endloop
  endfacet
  facet normal -0 -0 -1
    outer loop
      vertex 44.7891 32.0061 0
      vertex 44.8227 31.9071 0
      vertex 44.7428 32.1 0
    endloop
  endfacet
  facet normal 0 0 -1
    outer loop
      vertex 44.7428 32.1 0
      vertex 44.45 32.3928 0
      vertex 44.6157 32.2657 0
    endloop
  endfacet
  facet normal -0 -0 -1
    outer loop
      vertex 44.6847 32.187 0
      vertex 44.7428 32.1 0
      vertex 44.6157 32.2657 0
    endloop
  endfacet
  facet normal 0 0 -1
    outer loop
      vertex 44.7428 32.1 0
      vertex 44.257 32.4727 0
      vertex 44.45 32.3928 0
    endloop
  endfacet
  facet normal -0 -0 -1
    outer loop
      vertex 44.537 32.3347 0
      vertex 44.6157 32.2657 0
      vertex 44.45 32.3928 0
    endloop
  endfacet
  facet normal -0 -0 -1
    outer loop
      vertex 44.7428 32.1 0
      vertex 44.8227 31.9071 0
      vertex 44.257 32.4727 0
    endloop
  endfacet
  facet normal -0 -0 -1
    outer loop
      vertex 44.3561 32.4391 0
      vertex 44.45 32.3928 0
      vertex 44.257 32.4727 0
    endloop
  endfacet
  facet normal -0 -0 -1
    outer loop
      vertex 44.257 32.4727 0
      vertex 44.8227 31.9071 0
      vertex 44.1544 32.4931 0
    endloop
  endfacet
  facet normal 0 0 -1
    outer loop
      vertex 44.1544 32.4931 0
      vertex 44.8227 31.9071 0
      vertex 44.8431 31.8044 0
    endloop
  endfacet
  facet normal 0 0 -1
    outer loop
      vertex 44.05 32.5 0
      vertex 44.1544 32.4931 0
      vertex 44.8431 31.8044 0
    endloop
  endfacet
  facet normal 0 0 -1
    outer loop
      vertex 44.85 31.7 0
      vertex 44.05 32.5 0
      vertex 44.8431 31.8044 0
    endloop
  endfacet
  facet normal -0 0 -1
    outer loop
      vertex 44.85 0.800003 0
      vertex 44.05 0 0
      vertex 44.05 32.5 0
    endloop
  endfacet
  facet normal -0 -0 -1
    outer loop
      vertex 44.05 32.5 0
      vertex 44.05 0 0
      vertex 0.800003 32.5 0
    endloop
  endfacet
  facet normal 0 -0 -1
    outer loop
      vertex 0.493851 32.4391 0
      vertex 0.592941 32.4727 0
      vertex 0.400009 32.3928 0
    endloop
  endfacet
  facet normal 0 0 -1
    outer loop
      vertex 0.400009 32.3928 0
      vertex 0.107178 32.1 0
      vertex 0.234314 32.2657 0
    endloop
  endfacet
  facet normal 0 -0 -1
    outer loop
      vertex 0.312988 32.3347 0
      vertex 0.400009 32.3928 0
      vertex 0.234314 32.2657 0
    endloop
  endfacet
  facet normal 0 0 -1
    outer loop
      vertex 0.400009 32.3928 0
      vertex 0.0272675 31.9071 0
      vertex 0.107178 32.1 0
    endloop
  endfacet
  facet normal 0 -0 -1
    outer loop
      vertex 0.165314 32.187 0
      vertex 0.234314 32.2657 0
      vertex 0.107178 32.1 0
    endloop
  endfacet
  facet normal 0 -0 -1
    outer loop
      vertex 0.400009 32.3928 0
      vertex 0.592941 32.4727 0
      vertex 0.0272675 31.9071 0
    endloop
  endfacet
  facet normal 0 -0 -1
    outer loop
      vertex 0.0608978 32.0061 0
      vertex 0.107178 32.1 0
      vertex 0.0272675 31.9071 0
    endloop
  endfacet
  facet normal 0 -0 -1
    outer loop
      vertex 0.0272675 31.9071 0
      vertex 0.592941 32.4727 0
      vertex 0.0068512 31.8044 0
    endloop
  endfacet
  facet normal 0 0 -1
    outer loop
      vertex 0.0068512 31.8044 0
      vertex 0.592941 32.4727 0
      vertex 0.695587 32.4931 0
    endloop
  endfacet
  facet normal 0 0 -1
    outer loop
      vertex 0 31.7 0
      vertex 0.0068512 31.8044 0
      vertex 0.695587 32.4931 0
    endloop
  endfacet
  facet normal 0 0 -1
    outer loop
      vertex 0.800003 32.5 0
      vertex 0 31.7 0
      vertex 0.695587 32.4931 0
    endloop
  endfacet
  facet normal 0 0 -1
    outer loop
      vertex 0.800003 0 0
      vertex 0 0.800003 0
      vertex 0 31.7 0
    endloop
  endfacet
  facet normal 0 0 -1
    outer loop
      vertex 0.695587 0.0068512 0
      vertex 0.0068512 0.695587 0
      vertex 0 0.800003 0
    endloop
  endfacet
  facet normal 0 0 -1
    outer loop
      vertex 0.0608978 0.493851 0
      vertex 0.0272675 0.592941 0
      vertex 0.107178 0.400009 0
    endloop
  endfacet
  facet normal 0 0 -1
    outer loop
      vertex 0.107178 0.400009 0
      vertex 0.400009 0.107178 0
      vertex 0.234314 0.234314 0
    endloop
  endfacet
  facet normal 0 0 -1
    outer loop
      vertex 0.165314 0.312988 0
      vertex 0.107178 0.400009 0
      vertex 0.234314 0.234314 0
    endloop
  endfacet
  facet normal 0 0 -1
    outer loop
      vertex 0.107178 0.400009 0
      vertex 0.0272675 0.592941 0
      vertex 0.400009 0.107178 0
    endloop
  endfacet
  facet normal 0 0 -1
    outer loop
      vertex 0.312988 0.165314 0
      vertex 0.234314 0.234314 0
      vertex 0.400009 0.107178 0
    endloop
  endfacet
  facet normal 0 0 -1
    outer loop
      vertex 0.400009 0.107178 0
      vertex 0.0272675 0.592941 0
      vertex 0.592941 0.0272675 0
    endloop
  endfacet
  facet normal 0 0 -1
    outer loop
      vertex 0.493851 0.0608978 0
      vertex 0.400009 0.107178 0
      vertex 0.592941 0.0272675 0
    endloop
  endfacet
  facet normal 0 0 -1
    outer loop
      vertex 0.592941 0.0272675 0
      vertex 0.0272675 0.592941 0
      vertex 0.0068512 0.695587 0
    endloop
  endfacet
  facet normal 0 0 -1
    outer loop
      vertex 0.695587 0.0068512 0
      vertex 0.592941 0.0272675 0
      vertex 0.0068512 0.695587 0
    endloop
  endfacet
  facet normal 0 0 -1
    outer loop
      vertex 0.800003 0 0
      vertex 0.695587 0.0068512 0
      vertex 0 0.800003 0
    endloop
  endfacet
  facet normal 0 -0 -1
    outer loop
      vertex 0.800003 32.5 0
      vertex 0.800003 0 0
      vertex 0 31.7 0
    endloop
  endfacet
  facet normal 0 0 -1
    outer loop
      vertex 0.800003 32.5 0
      vertex 44.05 0 0
      vertex 0.800003 0 0
    endloop
  endfacet
  facet normal 0 -0 1
    outer loop
      vertex 44.3561 0.0608978 3.2
      vertex 44.45 0.107178 3.2
      vertex 44.257 0.0272675 3.2
    endloop
  endfacet
  facet normal 0 0 1
    outer loop
      vertex 44.45 0.107178 3.2
      vertex 44.537 0.165314 3.2
      vertex 44.6157 0.234314 3.2
    endloop
  endfacet
  facet normal 0 0 1
    outer loop
      vertex 44.7428 0.400009 3.2
      vertex 44.45 0.107178 3.2
      vertex 44.6157 0.234314 3.2
    endloop
  endfacet
  facet normal 0 0 1
    outer loop
      vertex 44.257 0.0272675 3.2
      vertex 44.45 0.107178 3.2
      vertex 44.7428 0.400009 3.2
    endloop
  endfacet
  facet normal 0 0 1
    outer loop
      vertex 44.6157 0.234314 3.2
      vertex 44.6847 0.312988 3.2
      vertex 44.7428 0.400009 3.2
    endloop
  endfacet
  facet normal 0 0 1
    outer loop
      vertex 44.257 0.0272675 3.2
      vertex 44.7428 0.400009 3.2
      vertex 44.8227 0.592941 3.2
    endloop
  endfacet
  facet normal 0 0 1
    outer loop
      vertex 44.7428 0.400009 3.2
      vertex 44.7891 0.493851 3.2
      vertex 44.8227 0.592941 3.2
    endloop
  endfacet
  facet normal 0 -0 1
    outer loop
      vertex 44.257 0.0272675 3.2
      vertex 44.8227 0.592941 3.2
      vertex 44.1544 0.0068512 3.2
    endloop
  endfacet
  facet normal 0 -0 1
    outer loop
      vertex 44.8227 0.592941 3.2
      vertex 44.8431 0.695587 3.2
      vertex 44.1544 0.0068512 3.2
    endloop
  endfacet
  facet normal 0 0 1
    outer loop
      vertex 44.8431 0.695587 3.2
      vertex 44.05 0 3.2
      vertex 44.1544 0.0068512 3.2
    endloop
  endfacet
  facet normal 0 0 1
    outer loop
      vertex 44.85 0.800003 3.2
      vertex 44.05 0 3.2
      vertex 44.8431 0.695587 3.2
    endloop
  endfacet
  facet normal 0 0 1
    outer loop
      vertex 44.85 31.7 3.2
      vertex 44.05 32.5 3.2
      vertex 44.85 0.800003 3.2
    endloop
  endfacet
  facet normal 0 0 1
    outer loop
      vertex 44.7428 32.1 3.2
      vertex 44.8227 31.9071 3.2
      vertex 44.7891 32.0061 3.2
    endloop
  endfacet
  facet normal 0 0 1
    outer loop
      vertex 44.6157 32.2657 3.2
      vertex 44.45 32.3928 3.2
      vertex 44.7428 32.1 3.2
    endloop
  endfacet
  facet normal 0 0 1
    outer loop
      vertex 44.6157 32.2657 3.2
      vertex 44.7428 32.1 3.2
      vertex 44.6847 32.187 3.2
    endloop
  endfacet
  facet normal 0 0 1
    outer loop
      vertex 44.45 32.3928 3.2
      vertex 44.257 32.4727 3.2
      vertex 44.7428 32.1 3.2
    endloop
  endfacet
  facet normal 0 0 1
    outer loop
      vertex 44.45 32.3928 3.2
      vertex 44.6157 32.2657 3.2
      vertex 44.537 32.3347 3.2
    endloop
  endfacet
  facet normal 0 0 1
    outer loop
      vertex 44.257 32.4727 3.2
      vertex 44.8227 31.9071 3.2
      vertex 44.7428 32.1 3.2
    endloop
  endfacet
  facet normal 0 0 1
    outer loop
      vertex 44.257 32.4727 3.2
      vertex 44.45 32.3928 3.2
      vertex 44.3561 32.4391 3.2
    endloop
  endfacet
  facet normal 0 0 1
    outer loop
      vertex 44.1544 32.4931 3.2
      vertex 44.8227 31.9071 3.2
      vertex 44.257 32.4727 3.2
    endloop
  endfacet
  facet normal 0 0 1
    outer loop
      vertex 44.8431 31.8044 3.2
      vertex 44.8227 31.9071 3.2
      vertex 44.1544 32.4931 3.2
    endloop
  endfacet
  facet normal 0 0 1
    outer loop
      vertex 44.8431 31.8044 3.2
      vertex 44.1544 32.4931 3.2
      vertex 44.05 32.5 3.2
    endloop
  endfacet
  facet normal 0 0 1
    outer loop
      vertex 44.8431 31.8044 3.2
      vertex 44.05 32.5 3.2
      vertex 44.85 31.7 3.2
    endloop
  endfacet
  facet normal 0 0 1
    outer loop
      vertex 44.05 32.5 3.2
      vertex 44.05 0 3.2
      vertex 44.85 0.800003 3.2
    endloop
  endfacet
  facet normal -0 0 1
    outer loop
      vertex 0.800003 32.5 3.2
      vertex 44.05 0 3.2
      vertex 44.05 32.5 3.2
    endloop
  endfacet
  facet normal 0 0 1
    outer loop
      vertex 0.400009 32.3928 3.2
      vertex 0.592941 32.4727 3.2
      vertex 0.493851 32.4391 3.2
    endloop
  endfacet
  facet normal -0 0 1
    outer loop
      vertex 0.234314 32.2657 3.2
      vertex 0.107178 32.1 3.2
      vertex 0.400009 32.3928 3.2
    endloop
  endfacet
  facet normal 0 0 1
    outer loop
      vertex 0.234314 32.2657 3.2
      vertex 0.400009 32.3928 3.2
      vertex 0.312988 32.3347 3.2
    endloop
  endfacet
  facet normal -0 0 1
    outer loop
      vertex 0.107178 32.1 3.2
      vertex 0.0272675 31.9071 3.2
      vertex 0.400009 32.3928 3.2
    endloop
  endfacet
  facet normal 0 0 1
    outer loop
      vertex 0.107178 32.1 3.2
      vertex 0.234314 32.2657 3.2
      vertex 0.165314 32.187 3.2
    endloop
  endfacet
  facet normal 0 0 1
    outer loop
      vertex 0.0272675 31.9071 3.2
      vertex 0.592941 32.4727 3.2
      vertex 0.400009 32.3928 3.2
    endloop
  endfacet
  facet normal 0 0 1
    outer loop
      vertex 0.0272675 31.9071 3.2
      vertex 0.107178 32.1 3.2
      vertex 0.0608978 32.0061 3.2
    endloop
  endfacet
  facet normal 0 0 1
    outer loop
      vertex 0.0068512 31.8044 3.2
      vertex 0.592941 32.4727 3.2
      vertex 0.0272675 31.9071 3.2
    endloop
  endfacet
  facet normal 0 0 1
    outer loop
      vertex 0.695587 32.4931 3.2
      vertex 0.592941 32.4727 3.2
      vertex 0.0068512 31.8044 3.2
    endloop
  endfacet
  facet normal 0 0 1
    outer loop
      vertex 0.695587 32.4931 3.2
      vertex 0.0068512 31.8044 3.2
      vertex 0 31.7 3.2
    endloop
  endfacet
  facet normal -0 0 1
    outer loop
      vertex 0.695587 32.4931 3.2
      vertex 0 31.7 3.2
      vertex 0.800003 32.5 3.2
    endloop
  endfacet
  facet normal 0 0 1
    outer loop
      vertex 0 31.7 3.2
      vertex 0 0.800003 3.2
      vertex 0.800003 0 3.2
    endloop
  endfacet
  facet normal 0 0 1
    outer loop
      vertex 0 0.800003 3.2
      vertex 0.0068512 0.695587 3.2
      vertex 0.695587 0.0068512 3.2
    endloop
  endfacet
  facet normal 0 0 1
    outer loop
      vertex 0.107178 0.400009 3.2
      vertex 0.0272675 0.592941 3.2
      vertex 0.0608978 0.493851 3.2
    endloop
  endfacet
  facet normal -0 -0 1
    outer loop
      vertex 0.234314 0.234314 3.2
      vertex 0.400009 0.107178 3.2
      vertex 0.107178 0.400009 3.2
    endloop
  endfacet
  facet normal 0 0 1
    outer loop
      vertex 0.234314 0.234314 3.2
      vertex 0.107178 0.400009 3.2
      vertex 0.165314 0.312988 3.2
    endloop
  endfacet
  facet normal 0 0 1
    outer loop
      vertex 0.400009 0.107178 3.2
      vertex 0.0272675 0.592941 3.2
      vertex 0.107178 0.400009 3.2
    endloop
  endfacet
  facet normal 0 0 1
    outer loop
      vertex 0.400009 0.107178 3.2
      vertex 0.234314 0.234314 3.2
      vertex 0.312988 0.165314 3.2
    endloop
  endfacet
  facet normal 0 0 1
    outer loop
      vertex 0.592941 0.0272675 3.2
      vertex 0.0272675 0.592941 3.2
      vertex 0.400009 0.107178 3.2
    endloop
  endfacet
  facet normal 0 0 1
    outer loop
      vertex 0.592941 0.0272675 3.2
      vertex 0.400009 0.107178 3.2
      vertex 0.493851 0.0608978 3.2
    endloop
  endfacet
  facet normal 0 0 1
    outer loop
      vertex 0.0068512 0.695587 3.2
      vertex 0.0272675 0.592941 3.2
      vertex 0.592941 0.0272675 3.2
    endloop
  endfacet
  facet normal 0 0 1
    outer loop
      vertex 0.0068512 0.695587 3.2
      vertex 0.592941 0.0272675 3.2
      vertex 0.695587 0.0068512 3.2
    endloop
  endfacet
  facet normal 0 0 1
    outer loop
      vertex 0 0.800003 3.2
      vertex 0.695587 0.0068512 3.2
      vertex 0.800003 0 3.2
    endloop
  endfacet
  facet normal -0 0 1
    outer loop
      vertex 0 31.7 3.2
      vertex 0.800003 0 3.2
      vertex 0.800003 32.5 3.2
    endloop
  endfacet
  facet normal 0 0 1
    outer loop
      vertex 0.800003 0 3.2
      vertex 44.05 0 3.2
      vertex 0.800003 32.5 3.2
    endloop
  endfacet
  facet normal 0.195163 -0.980771 0
    outer loop
      vertex 44.257 0.0272675 0
      vertex 44.1544 0.0068512 3.2
      vertex 44.1544 0.0068512 0
    endloop
  endfacet
  facet normal 0.195163 -0.980771 0
    outer loop
      vertex 44.257 0.0272675 0
      vertex 44.257 0.0272675 3.2
      vertex 44.1544 0.0068512 3.2
    endloop
  endfacet
  facet normal 0.321357 -0.946958 0
    outer loop
      vertex 44.3561 0.0608978 0
      vertex 44.257 0.0272675 3.2
      vertex 44.257 0.0272675 0
    endloop
  endfacet
  facet normal 0.321357 -0.946958 0
    outer loop
      vertex 44.3561 0.0608978 0
      vertex 44.3561 0.0608978 3.2
      vertex 44.257 0.0272675 3.2
    endloop
  endfacet
  facet normal 0.442088 -0.896972 0
    outer loop
      vertex 44.45 0.107178 0
      vertex 44.3561 0.0608978 3.2
      vertex 44.3561 0.0608978 0
    endloop
  endfacet
  facet normal 0.442088 -0.896972 0
    outer loop
      vertex 44.45 0.107178 0
      vertex 44.45 0.107178 3.2
      vertex 44.3561 0.0608978 3.2
    endloop
  endfacet
  facet normal 0.5556 -0.83145 0
    outer loop
      vertex 44.537 0.165314 0
      vertex 44.45 0.107178 3.2
      vertex 44.45 0.107178 0
    endloop
  endfacet
  facet normal 0.5556 -0.83145 0
    outer loop
      vertex 44.537 0.165314 0
      vertex 44.537 0.165314 3.2
      vertex 44.45 0.107178 3.2
    endloop
  endfacet
  facet normal 0.659248 -0.751925 0
    outer loop
      vertex 44.6157 0.234314 0
      vertex 44.537 0.165314 3.2
      vertex 44.537 0.165314 0
    endloop
  endfacet
  facet normal 0.659248 -0.751925 0
    outer loop
      vertex 44.6157 0.234314 0
      vertex 44.6157 0.234314 3.2
      vertex 44.537 0.165314 3.2
    endloop
  endfacet
  facet normal 0.751817 -0.659371 0
    outer loop
      vertex 44.6847 0.312988 0
      vertex 44.6157 0.234314 3.2
      vertex 44.6157 0.234314 0
    endloop
  endfacet
  facet normal 0.751817 -0.659371 0
    outer loop
      vertex 44.6847 0.312988 0
      vertex 44.6847 0.312988 3.2
      vertex 44.6157 0.234314 3.2
    endloop
  endfacet
  facet normal 0.831671 -0.555269 0
    outer loop
      vertex 44.7428 0.400009 0
      vertex 44.6847 0.312988 3.2
      vertex 44.6847 0.312988 0
    endloop
  endfacet
  facet normal 0.831671 -0.555269 0
    outer loop
      vertex 44.7428 0.400009 0
      vertex 44.7428 0.400009 3.2
      vertex 44.6847 0.312988 3.2
    endloop
  endfacet
  facet normal 0.896788 -0.44246 0
    outer loop
      vertex 44.7891 0.493851 0
      vertex 44.7428 0.400009 3.2
      vertex 44.7428 0.400009 0
    endloop
  endfacet
  facet normal 0.896788 -0.44246 0
    outer loop
      vertex 44.7891 0.493851 0
      vertex 44.7891 0.493851 3.2
      vertex 44.7428 0.400009 3.2
    endloop
  endfacet
  facet normal 0.947036 -0.321126 0
    outer loop
      vertex 44.8227 0.592941 0
      vertex 44.7891 0.493851 3.2
      vertex 44.7891 0.493851 0
    endloop
  endfacet
  facet normal 0.947036 -0.321126 0
    outer loop
      vertex 44.8227 0.592941 0
      vertex 44.8227 0.592941 3.2
      vertex 44.7891 0.493851 3.2
    endloop
  endfacet
  facet normal 0.980817 -0.194929 0
    outer loop
      vertex 44.8431 0.695587 0
      vertex 44.8227 0.592941 3.2
      vertex 44.8227 0.592941 0
    endloop
  endfacet
  facet normal 0.980817 -0.194929 0
    outer loop
      vertex 44.8431 0.695587 0
      vertex 44.8431 0.695587 3.2
      vertex 44.8227 0.592941 3.2
    endloop
  endfacet
  facet normal 0.997824 -0.065938 0
    outer loop
      vertex 44.85 0.800003 0
      vertex 44.8431 0.695587 3.2
      vertex 44.8431 0.695587 0
    endloop
  endfacet
  facet normal 0.997824 -0.065938 0
    outer loop
      vertex 44.85 0.800003 0
      vertex 44.85 0.800003 3.2
      vertex 44.8431 0.695587 3.2
    endloop
  endfacet
  facet normal 1 0 0
    outer loop
      vertex 44.85 31.7 0
      vertex 44.85 0.800003 3.2
      vertex 44.85 0.800003 0
    endloop
  endfacet
  facet normal 1 0 -0
    outer loop
      vertex 44.85 31.7 0
      vertex 44.85 31.7 3.2
      vertex 44.85 0.800003 3.2
    endloop
  endfacet
  facet normal 0.997823 0.0659481 0
    outer loop
      vertex 44.8431 31.8044 0
      vertex 44.85 31.7 3.2
      vertex 44.85 31.7 0
    endloop
  endfacet
  facet normal 0.997823 0.0659481 -0
    outer loop
      vertex 44.8431 31.8044 0
      vertex 44.8431 31.8044 3.2
      vertex 44.85 31.7 3.2
    endloop
  endfacet
  facet normal 0.980837 0.19483 0
    outer loop
      vertex 44.8227 31.9071 0
      vertex 44.8431 31.8044 3.2
      vertex 44.8431 31.8044 0
    endloop
  endfacet
  facet normal 0.980837 0.19483 -0
    outer loop
      vertex 44.8227 31.9071 0
      vertex 44.8227 31.9071 3.2
      vertex 44.8431 31.8044 3.2
    endloop
  endfacet
  facet normal 0.946948 0.321388 0
    outer loop
      vertex 44.7891 32.0061 0
      vertex 44.8227 31.9071 3.2
      vertex 44.8227 31.9071 0
    endloop
  endfacet
  facet normal 0.946948 0.321388 -0
    outer loop
      vertex 44.7891 32.0061 0
      vertex 44.7891 32.0061 3.2
      vertex 44.8227 31.9071 3.2
    endloop
  endfacet
  facet normal 0.896897 0.44224 0
    outer loop
      vertex 44.7428 32.1 0
      vertex 44.7891 32.0061 3.2
      vertex 44.7891 32.0061 0
    endloop
  endfacet
  facet normal 0.896897 0.44224 -0
    outer loop
      vertex 44.7428 32.1 0
      vertex 44.7428 32.1 3.2
      vertex 44.7891 32.0061 3.2
    endloop
  endfacet
  facet normal 0.831609 0.555362 0
    outer loop
      vertex 44.6847 32.187 0
      vertex 44.7428 32.1 3.2
      vertex 44.7428 32.1 0
    endloop
  endfacet
  facet normal 0.831609 0.555362 -0
    outer loop
      vertex 44.6847 32.187 0
      vertex 44.6847 32.187 3.2
      vertex 44.7428 32.1 3.2
    endloop
  endfacet
  facet normal 0.751925 0.659248 0
    outer loop
      vertex 44.6157 32.2657 0
      vertex 44.6847 32.187 3.2
      vertex 44.6847 32.187 0
    endloop
  endfacet
  facet normal 0.751925 0.659248 -0
    outer loop
      vertex 44.6157 32.2657 0
      vertex 44.6157 32.2657 3.2
      vertex 44.6847 32.187 3.2
    endloop
  endfacet
  facet normal 0.659248 0.751925 0
    outer loop
      vertex 44.537 32.3347 0
      vertex 44.6157 32.2657 3.2
      vertex 44.6157 32.2657 0
    endloop
  endfacet
  facet normal 0.659248 0.751925 -0
    outer loop
      vertex 44.537 32.3347 0
      vertex 44.537 32.3347 3.2
      vertex 44.6157 32.2657 3.2
    endloop
  endfacet
  facet normal 0.555362 0.831609 0
    outer loop
      vertex 44.45 32.3928 0
      vertex 44.537 32.3347 3.2
      vertex 44.537 32.3347 0
    endloop
  endfacet
  facet normal 0.555362 0.831609 -0
    outer loop
      vertex 44.45 32.3928 0
      vertex 44.45 32.3928 3.2
      vertex 44.537 32.3347 3.2
    endloop
  endfacet
  facet normal 0.44224 0.896897 0
    outer loop
      vertex 44.3561 32.4391 0
      vertex 44.45 32.3928 3.2
      vertex 44.45 32.3928 0
    endloop
  endfacet
  facet normal 0.44224 0.896897 -0
    outer loop
      vertex 44.3561 32.4391 0
      vertex 44.3561 32.4391 3.2
      vertex 44.45 32.3928 3.2
    endloop
  endfacet
  facet normal 0.321097 0.947046 0
    outer loop
      vertex 44.257 32.4727 0
      vertex 44.3561 32.4391 3.2
      vertex 44.3561 32.4391 0
    endloop
  endfacet
  facet normal 0.321097 0.947046 -0
    outer loop
      vertex 44.257 32.4727 0
      vertex 44.257 32.4727 3.2
      vertex 44.3561 32.4391 3.2
    endloop
  endfacet
  facet normal 0.195013 0.980801 0
    outer loop
      vertex 44.1544 32.4931 0
      vertex 44.257 32.4727 3.2
      vertex 44.257 32.4727 0
    endloop
  endfacet
  facet normal 0.195013 0.980801 -0
    outer loop
      vertex 44.1544 32.4931 0
      vertex 44.1544 32.4931 3.2
      vertex 44.257 32.4727 3.2
    endloop
  endfacet
  facet normal 0.0659481 0.997823 0
    outer loop
      vertex 44.05 32.5 0
      vertex 44.1544 32.4931 3.2
      vertex 44.1544 32.4931 0
    endloop
  endfacet
  facet normal 0.0659481 0.997823 -0
    outer loop
      vertex 44.05 32.5 0
      vertex 44.05 32.5 3.2
      vertex 44.1544 32.4931 3.2
    endloop
  endfacet
  facet normal 0 1 0
    outer loop
      vertex 0.800003 32.5 0
      vertex 44.05 32.5 3.2
      vertex 44.05 32.5 0
    endloop
  endfacet
  facet normal 0 1 0
    outer loop
      vertex 0.800003 32.5 0
      vertex 0.800003 32.5 3.2
      vertex 44.05 32.5 3.2
    endloop
  endfacet
  facet normal -0.065938 0.997824 0
    outer loop
      vertex 0.695587 32.4931 0
      vertex 0.800003 32.5 3.2
      vertex 0.800003 32.5 0
    endloop
  endfacet
  facet normal -0.065938 0.997824 0
    outer loop
      vertex 0.695587 32.4931 0
      vertex 0.695587 32.4931 3.2
      vertex 0.800003 32.5 3.2
    endloop
  endfacet
  facet normal -0.194929 0.980817 0
    outer loop
      vertex 0.592941 32.4727 0
      vertex 0.695587 32.4931 3.2
      vertex 0.695587 32.4931 0
    endloop
  endfacet
  facet normal -0.194929 0.980817 0
    outer loop
      vertex 0.592941 32.4727 0
      vertex 0.592941 32.4727 3.2
      vertex 0.695587 32.4931 3.2
    endloop
  endfacet
  facet normal -0.321126 0.947036 0
    outer loop
      vertex 0.493851 32.4391 0
      vertex 0.592941 32.4727 3.2
      vertex 0.592941 32.4727 0
    endloop
  endfacet
  facet normal -0.321126 0.947036 0
    outer loop
      vertex 0.493851 32.4391 0
      vertex 0.493851 32.4391 3.2
      vertex 0.592941 32.4727 3.2
    endloop
  endfacet
  facet normal -0.44246 0.896788 0
    outer loop
      vertex 0.400009 32.3928 0
      vertex 0.493851 32.4391 3.2
      vertex 0.493851 32.4391 0
    endloop
  endfacet
  facet normal -0.44246 0.896788 0
    outer loop
      vertex 0.400009 32.3928 0
      vertex 0.400009 32.3928 3.2
      vertex 0.493851 32.4391 3.2
    endloop
  endfacet
  facet normal -0.555269 0.831671 0
    outer loop
      vertex 0.312988 32.3347 0
      vertex 0.400009 32.3928 3.2
      vertex 0.400009 32.3928 0
    endloop
  endfacet
  facet normal -0.555269 0.831671 0
    outer loop
      vertex 0.312988 32.3347 0
      vertex 0.312988 32.3347 3.2
      vertex 0.400009 32.3928 3.2
    endloop
  endfacet
  facet normal -0.659371 0.751817 0
    outer loop
      vertex 0.234314 32.2657 0
      vertex 0.312988 32.3347 3.2
      vertex 0.312988 32.3347 0
    endloop
  endfacet
  facet normal -0.659371 0.751817 0
    outer loop
      vertex 0.234314 32.2657 0
      vertex 0.234314 32.2657 3.2
      vertex 0.312988 32.3347 3.2
    endloop
  endfacet
  facet normal -0.751925 0.659248 0
    outer loop
      vertex 0.165314 32.187 0
      vertex 0.234314 32.2657 3.2
      vertex 0.234314 32.2657 0
    endloop
  endfacet
  facet normal -0.751925 0.659248 0
    outer loop
      vertex 0.165314 32.187 0
      vertex 0.165314 32.187 3.2
      vertex 0.234314 32.2657 3.2
    endloop
  endfacet
  facet normal -0.83145 0.5556 0
    outer loop
      vertex 0.107178 32.1 0
      vertex 0.165314 32.187 3.2
      vertex 0.165314 32.187 0
    endloop
  endfacet
  facet normal -0.83145 0.5556 0
    outer loop
      vertex 0.107178 32.1 0
      vertex 0.107178 32.1 3.2
      vertex 0.165314 32.187 3.2
    endloop
  endfacet
  facet normal -0.896972 0.442088 0
    outer loop
      vertex 0.0608978 32.0061 0
      vertex 0.107178 32.1 3.2
      vertex 0.107178 32.1 0
    endloop
  endfacet
  facet normal -0.896972 0.442088 0
    outer loop
      vertex 0.0608978 32.0061 0
      vertex 0.0608978 32.0061 3.2
      vertex 0.107178 32.1 3.2
    endloop
  endfacet
  facet normal -0.946859 0.321648 0
    outer loop
      vertex 0.0272675 31.9071 0
      vertex 0.0608978 32.0061 3.2
      vertex 0.0608978 32.0061 0
    endloop
  endfacet
  facet normal -0.946859 0.321648 0
    outer loop
      vertex 0.0272675 31.9071 0
      vertex 0.0272675 31.9071 3.2
      vertex 0.0608978 32.0061 3.2
    endloop
  endfacet
  facet normal -0.980807 0.19498 0
    outer loop
      vertex 0.0068512 31.8044 0
      vertex 0.0272675 31.9071 3.2
      vertex 0.0272675 31.9071 0
    endloop
  endfacet
  facet normal -0.980807 0.19498 0
    outer loop
      vertex 0.0068512 31.8044 0
      vertex 0.0068512 31.8044 3.2
      vertex 0.0272675 31.9071 3.2
    endloop
  endfacet
  facet normal -0.997854 0.0654837 0
    outer loop
      vertex 0 31.7 0
      vertex 0.0068512 31.8044 3.2
      vertex 0.0068512 31.8044 0
    endloop
  endfacet
  facet normal -0.997854 0.0654837 0
    outer loop
      vertex 0 31.7 0
      vertex 0 31.7 3.2
      vertex 0.0068512 31.8044 3.2
    endloop
  endfacet
  facet normal -1 0 0
    outer loop
      vertex 0 0.800003 0
      vertex 0 31.7 3.2
      vertex 0 31.7 0
    endloop
  endfacet
  facet normal -1 0 0
    outer loop
      vertex 0 0.800003 0
      vertex 0 0.800003 3.2
      vertex 0 31.7 3.2
    endloop
  endfacet
  facet normal -0.997854 -0.0654737 0
    outer loop
      vertex 0.0068512 0.695587 0
      vertex 0 0.800003 3.2
      vertex 0 0.800003 0
    endloop
  endfacet
  facet normal -0.997854 -0.0654737 0
    outer loop
      vertex 0.0068512 0.695587 0
      vertex 0.0068512 0.695587 3.2
      vertex 0 0.800003 3.2
    endloop
  endfacet
  facet normal -0.980788 -0.195079 0
    outer loop
      vertex 0.0272675 0.592941 0
      vertex 0.0068512 0.695587 3.2
      vertex 0.0068512 0.695587 0
    endloop
  endfacet
  facet normal -0.980788 -0.195079 0
    outer loop
      vertex 0.0272675 0.592941 0
      vertex 0.0272675 0.592941 3.2
      vertex 0.0068512 0.695587 3.2
    endloop
  endfacet
  facet normal -0.946948 -0.321386 0
    outer loop
      vertex 0.0608978 0.493851 0
      vertex 0.0272675 0.592941 3.2
      vertex 0.0272675 0.592941 0
    endloop
  endfacet
  facet normal -0.946948 -0.321386 0
    outer loop
      vertex 0.0608978 0.493851 0
      vertex 0.0608978 0.493851 3.2
      vertex 0.0272675 0.592941 3.2
    endloop
  endfacet
  facet normal -0.896863 -0.442308 0
    outer loop
      vertex 0.107178 0.400009 0
      vertex 0.0608978 0.493851 3.2
      vertex 0.0608978 0.493851 0
    endloop
  endfacet
  facet normal -0.896863 -0.442308 0
    outer loop
      vertex 0.107178 0.400009 0
      vertex 0.107178 0.400009 3.2
      vertex 0.0608978 0.493851 3.2
    endloop
  endfacet
  facet normal -0.831512 -0.555507 0
    outer loop
      vertex 0.165314 0.312988 0
      vertex 0.107178 0.400009 3.2
      vertex 0.107178 0.400009 0
    endloop
  endfacet
  facet normal -0.831512 -0.555507 0
    outer loop
      vertex 0.165314 0.312988 0
      vertex 0.165314 0.312988 3.2
      vertex 0.107178 0.400009 3.2
    endloop
  endfacet
  facet normal -0.751817 -0.659371 0
    outer loop
      vertex 0.234314 0.234314 0
      vertex 0.165314 0.312988 3.2
      vertex 0.165314 0.312988 0
    endloop
  endfacet
  facet normal -0.751817 -0.659371 0
    outer loop
      vertex 0.234314 0.234314 0
      vertex 0.234314 0.234314 3.2
      vertex 0.165314 0.312988 3.2
    endloop
  endfacet
  facet normal -0.659371 -0.751817 0
    outer loop
      vertex 0.312988 0.165314 0
      vertex 0.234314 0.234314 3.2
      vertex 0.234314 0.234314 0
    endloop
  endfacet
  facet normal -0.659371 -0.751817 0
    outer loop
      vertex 0.312988 0.165314 0
      vertex 0.312988 0.165314 3.2
      vertex 0.234314 0.234314 3.2
    endloop
  endfacet
  facet normal -0.555507 -0.831512 0
    outer loop
      vertex 0.400009 0.107178 0
      vertex 0.312988 0.165314 3.2
      vertex 0.312988 0.165314 0
    endloop
  endfacet
  facet normal -0.555507 -0.831512 0
    outer loop
      vertex 0.400009 0.107178 0
      vertex 0.400009 0.107178 3.2
      vertex 0.312988 0.165314 3.2
    endloop
  endfacet
  facet normal -0.442308 -0.896863 0
    outer loop
      vertex 0.493851 0.0608978 0
      vertex 0.400009 0.107178 3.2
      vertex 0.400009 0.107178 0
    endloop
  endfacet
  facet normal -0.442308 -0.896863 0
    outer loop
      vertex 0.493851 0.0608978 0
      vertex 0.493851 0.0608978 3.2
      vertex 0.400009 0.107178 3.2
    endloop
  endfacet
  facet normal -0.321386 -0.946948 0
    outer loop
      vertex 0.592941 0.0272675 0
      vertex 0.493851 0.0608978 3.2
      vertex 0.493851 0.0608978 0
    endloop
  endfacet
  facet normal -0.321386 -0.946948 0
    outer loop
      vertex 0.592941 0.0272675 0
      vertex 0.592941 0.0272675 3.2
      vertex 0.493851 0.0608978 3.2
    endloop
  endfacet
  facet normal -0.195079 -0.980788 0
    outer loop
      vertex 0.695587 0.0068512 0
      vertex 0.592941 0.0272675 3.2
      vertex 0.592941 0.0272675 0
    endloop
  endfacet
  facet normal -0.195079 -0.980788 0
    outer loop
      vertex 0.695587 0.0068512 0
      vertex 0.695587 0.0068512 3.2
      vertex 0.592941 0.0272675 3.2
    endloop
  endfacet
  facet normal -0.0654737 -0.997854 0
    outer loop
      vertex 0.800003 0 0
      vertex 0.695587 0.0068512 3.2
      vertex 0.695587 0.0068512 0
    endloop
  endfacet
  facet normal -0.0654737 -0.997854 0
    outer loop
      vertex 0.800003 0 0
      vertex 0.800003 0 3.2
      vertex 0.695587 0.0068512 3.2
    endloop
  endfacet
  facet normal 0 -1 0
    outer loop
      vertex 44.05 0 0
      vertex 0.800003 0 3.2
      vertex 0.800003 0 0
    endloop
  endfacet
  facet normal 0 -1 0
    outer loop
      vertex 44.05 0 0
      vertex 44.05 0 3.2
      vertex 0.800003 0 3.2
    endloop
  endfacet
  facet normal 0.0654837 -0.997854 0
    outer loop
      vertex 44.1544 0.0068512 0
      vertex 44.05 0 3.2
      vertex 44.05 0 0
    endloop
  endfacet
  facet normal 0.0654837 -0.997854 0
    outer loop
      vertex 44.1544 0.0068512 0
      vertex 44.1544 0.0068512 3.2
      vertex 44.05 0 3.2
    endloop
  endfacet
endsolid OpenSCAD_Model
