solid OpenSCAD_Model
  facet normal 1 -0 0
    outer loop
      vertex 4 0 0
      vertex 4 18.4 -1
      vertex 4 18.4 0
    endloop
  endfacet
  facet normal 1 0 0
    outer loop
      vertex 4 18.4 -1
      vertex 4 0 0
      vertex 4 0 -1
    endloop
  endfacet
  facet normal 0 0 -1
    outer loop
      vertex 3 0 -1
      vertex 4 18.4 -1
      vertex 4 0 -1
    endloop
  endfacet
  facet normal -0 0 -1
    outer loop
      vertex 4 18.4 -1
      vertex 3 0 -1
      vertex 3 18.4 -1
    endloop
  endfacet
  facet normal -1 0 0
    outer loop
      vertex 3 0 -1
      vertex 3 18.4 0
      vertex 3 18.4 -1
    endloop
  endfacet
  facet normal -1 -0 0
    outer loop
      vertex 3 18.4 0
      vertex 3 0 -1
      vertex 3 0 0
    endloop
  endfacet
  facet normal 0 1 -0
    outer loop
      vertex 4 18.4 -1
      vertex 3 18.4 0
      vertex 4 18.4 0
    endloop
  endfacet
  facet normal 0 1 0
    outer loop
      vertex 3 18.4 0
      vertex 4 18.4 -1
      vertex 3 18.4 -1
    endloop
  endfacet
  facet normal 0 1 -0
    outer loop
      vertex 29.4 18.4 -1
      vertex 28.4 18.4 0
      vertex 29.4 18.4 0
    endloop
  endfacet
  facet normal 0 1 0
    outer loop
      vertex 28.4 18.4 0
      vertex 29.4 18.4 -1
      vertex 28.4 18.4 -1
    endloop
  endfacet
  facet normal 0 1 0
    outer loop
      vertex 29.4 18.4 0
      vertex 32.4 18.4 1.6
      vertex 32.4 18.4 0
    endloop
  endfacet
  facet normal 0 1 0
    outer loop
      vertex 28.4 18.4 0
      vertex 32.4 18.4 1.6
      vertex 29.4 18.4 0
    endloop
  endfacet
  facet normal 0 1 0
    outer loop
      vertex 32.4 18.4 1.6
      vertex 28.4 18.4 0
      vertex 0 18.4 1.6
    endloop
  endfacet
  facet normal 0 1 -0
    outer loop
      vertex 4 18.4 0
      vertex 0 18.4 1.6
      vertex 28.4 18.4 0
    endloop
  endfacet
  facet normal 0 1 -0
    outer loop
      vertex 3 18.4 0
      vertex 0 18.4 1.6
      vertex 4 18.4 0
    endloop
  endfacet
  facet normal 0 1 0
    outer loop
      vertex 0 18.4 1.6
      vertex 3 18.4 0
      vertex 0 18.4 0
    endloop
  endfacet
  facet normal 0 -1 0
    outer loop
      vertex 28.4 0 -1
      vertex 29.4 0 0
      vertex 28.4 0 0
    endloop
  endfacet
  facet normal 0 -1 -0
    outer loop
      vertex 29.4 0 0
      vertex 28.4 0 -1
      vertex 29.4 0 -1
    endloop
  endfacet
  facet normal 0 -1 0
    outer loop
      vertex 3 0 -1
      vertex 4 0 0
      vertex 3 0 0
    endloop
  endfacet
  facet normal 0 -1 -0
    outer loop
      vertex 4 0 0
      vertex 3 0 -1
      vertex 4 0 -1
    endloop
  endfacet
  facet normal 0 -1 0
    outer loop
      vertex 3 0 0
      vertex 0 0 1.6
      vertex 0 0 0
    endloop
  endfacet
  facet normal 0 -1 0
    outer loop
      vertex 4 0 0
      vertex 0 0 1.6
      vertex 3 0 0
    endloop
  endfacet
  facet normal 0 -1 0
    outer loop
      vertex 0 0 1.6
      vertex 4 0 0
      vertex 32.4 0 1.6
    endloop
  endfacet
  facet normal 0 -1 0
    outer loop
      vertex 28.4 0 0
      vertex 32.4 0 1.6
      vertex 4 0 0
    endloop
  endfacet
  facet normal 0 -1 0
    outer loop
      vertex 29.4 0 0
      vertex 32.4 0 1.6
      vertex 28.4 0 0
    endloop
  endfacet
  facet normal 0 -1 -0
    outer loop
      vertex 32.4 0 1.6
      vertex 29.4 0 0
      vertex 32.4 0 0
    endloop
  endfacet
  facet normal 1 -0 0
    outer loop
      vertex 29.4 0 0
      vertex 29.4 18.4 -1
      vertex 29.4 18.4 0
    endloop
  endfacet
  facet normal 1 0 0
    outer loop
      vertex 29.4 18.4 -1
      vertex 29.4 0 0
      vertex 29.4 0 -1
    endloop
  endfacet
  facet normal 0 0 -1
    outer loop
      vertex 28.4 9.2 -1
      vertex 29.4 0 -1
      vertex 28.4 0 -1
    endloop
  endfacet
  facet normal 0 0 -1
    outer loop
      vertex 29.4 0 -1
      vertex 28.4 9.2 -1
      vertex 29.4 18.4 -1
    endloop
  endfacet
  facet normal -0 0 -1
    outer loop
      vertex 29.4 18.4 -1
      vertex 28.4 9.2 -1
      vertex 28.4 18.4 -1
    endloop
  endfacet
  facet normal -1 0 0
    outer loop
      vertex 28.4 0 -1
      vertex 28.4 9.2 0
      vertex 28.4 9.2 -1
    endloop
  endfacet
  facet normal -1 -0 0
    outer loop
      vertex 28.4 9.2 0
      vertex 28.4 0 -1
      vertex 28.4 0 0
    endloop
  endfacet
  facet normal -1 0 0
    outer loop
      vertex 28.4 9.2 -1
      vertex 28.4 18.4 0
      vertex 28.4 18.4 -1
    endloop
  endfacet
  facet normal -1 -0 0
    outer loop
      vertex 28.4 18.4 0
      vertex 28.4 9.2 -1
      vertex 28.4 9.2 0
    endloop
  endfacet
  facet normal 1 -0 0
    outer loop
      vertex 32.4 0 1.6
      vertex 32.4 18.4 0
      vertex 32.4 18.4 1.6
    endloop
  endfacet
  facet normal 1 0 0
    outer loop
      vertex 32.4 18.4 0
      vertex 32.4 0 1.6
      vertex 32.4 0 0
    endloop
  endfacet
  facet normal 0 0 1
    outer loop
      vertex 32.4 18.4 1.6
      vertex 28.4 9.2 1.6
      vertex 32.4 0 1.6
    endloop
  endfacet
  facet normal 0 0 1
    outer loop
      vertex 32.4 18.4 1.6
      vertex 28.3743 9.59158 1.6
      vertex 28.4 9.2 1.6
    endloop
  endfacet
  facet normal 0 0 1
    outer loop
      vertex 32.4 18.4 1.6
      vertex 28.2978 9.97646 1.6
      vertex 28.3743 9.59158 1.6
    endloop
  endfacet
  facet normal 0 0 1
    outer loop
      vertex 32.4 18.4 1.6
      vertex 28.1716 10.3481 1.6
      vertex 28.2978 9.97646 1.6
    endloop
  endfacet
  facet normal 0 0 1
    outer loop
      vertex 32.4 18.4 1.6
      vertex 27.9981 10.7 1.6
      vertex 28.1716 10.3481 1.6
    endloop
  endfacet
  facet normal 0 0 1
    outer loop
      vertex 32.4 18.4 1.6
      vertex 27.7801 11.0263 1.6
      vertex 27.9981 10.7 1.6
    endloop
  endfacet
  facet normal 0 0 1
    outer loop
      vertex 32.4 18.4 1.6
      vertex 27.5213 11.3213 1.6
      vertex 27.7801 11.0263 1.6
    endloop
  endfacet
  facet normal 0 0 1
    outer loop
      vertex 32.4 18.4 1.6
      vertex 27.2263 11.5801 1.6
      vertex 27.5213 11.3213 1.6
    endloop
  endfacet
  facet normal 0 0 1
    outer loop
      vertex 32.4 18.4 1.6
      vertex 26.9 11.7981 1.6
      vertex 27.2263 11.5801 1.6
    endloop
  endfacet
  facet normal 0 0 1
    outer loop
      vertex 32.4 18.4 1.6
      vertex 26.548 11.9716 1.6
      vertex 26.9 11.7981 1.6
    endloop
  endfacet
  facet normal 0 0 1
    outer loop
      vertex 32.4 18.4 1.6
      vertex 26.1765 12.0978 1.6
      vertex 26.548 11.9716 1.6
    endloop
  endfacet
  facet normal 0 0 1
    outer loop
      vertex 32.4 18.4 1.6
      vertex 25.7916 12.1743 1.6
      vertex 26.1765 12.0978 1.6
    endloop
  endfacet
  facet normal 0 0 1
    outer loop
      vertex 32.4 18.4 1.6
      vertex 25.4 12.2 1.6
      vertex 25.7916 12.1743 1.6
    endloop
  endfacet
  facet normal 0 0 1
    outer loop
      vertex 32.4 18.4 1.6
      vertex 25.0084 12.1743 1.6
      vertex 25.4 12.2 1.6
    endloop
  endfacet
  facet normal 0 0 1
    outer loop
      vertex 32.4 18.4 1.6
      vertex 24.6235 12.0978 1.6
      vertex 25.0084 12.1743 1.6
    endloop
  endfacet
  facet normal 0 0 1
    outer loop
      vertex 32.4 18.4 1.6
      vertex 24.2519 11.9716 1.6
      vertex 24.6235 12.0978 1.6
    endloop
  endfacet
  facet normal -0 0 1
    outer loop
      vertex 0 18.4 1.6
      vertex 24.2519 11.9716 1.6
      vertex 32.4 18.4 1.6
    endloop
  endfacet
  facet normal 0 0 1
    outer loop
      vertex 24.2519 11.9716 1.6
      vertex 0 18.4 1.6
      vertex 23.9 11.7981 1.6
    endloop
  endfacet
  facet normal 0 0 1
    outer loop
      vertex 22.4257 9.59158 1.6
      vertex 0 18.4 1.6
      vertex 22.4 9.2 1.6
    endloop
  endfacet
  facet normal 0 0 1
    outer loop
      vertex 22.5022 9.97646 1.6
      vertex 0 18.4 1.6
      vertex 22.4257 9.59158 1.6
    endloop
  endfacet
  facet normal 0 0 1
    outer loop
      vertex 22.6284 10.3481 1.6
      vertex 0 18.4 1.6
      vertex 22.5022 9.97646 1.6
    endloop
  endfacet
  facet normal 0 0 1
    outer loop
      vertex 22.8019 10.7 1.6
      vertex 0 18.4 1.6
      vertex 22.6284 10.3481 1.6
    endloop
  endfacet
  facet normal 0 0 1
    outer loop
      vertex 23.0199 11.0263 1.6
      vertex 0 18.4 1.6
      vertex 22.8019 10.7 1.6
    endloop
  endfacet
  facet normal 0 0 1
    outer loop
      vertex 23.2787 11.3213 1.6
      vertex 0 18.4 1.6
      vertex 23.0199 11.0263 1.6
    endloop
  endfacet
  facet normal 0 0 1
    outer loop
      vertex 23.5737 11.5801 1.6
      vertex 0 18.4 1.6
      vertex 23.2787 11.3213 1.6
    endloop
  endfacet
  facet normal 0 0 1
    outer loop
      vertex 23.9 11.7981 1.6
      vertex 0 18.4 1.6
      vertex 23.5737 11.5801 1.6
    endloop
  endfacet
  facet normal -0 0 1
    outer loop
      vertex 28.3743 8.80842 1.6
      vertex 32.4 0 1.6
      vertex 28.4 9.2 1.6
    endloop
  endfacet
  facet normal -0 0 1
    outer loop
      vertex 28.2978 8.42354 1.6
      vertex 32.4 0 1.6
      vertex 28.3743 8.80842 1.6
    endloop
  endfacet
  facet normal -0 0 1
    outer loop
      vertex 28.1716 8.05195 1.6
      vertex 32.4 0 1.6
      vertex 28.2978 8.42354 1.6
    endloop
  endfacet
  facet normal -0 0 1
    outer loop
      vertex 27.9981 7.7 1.6
      vertex 32.4 0 1.6
      vertex 28.1716 8.05195 1.6
    endloop
  endfacet
  facet normal -0 0 1
    outer loop
      vertex 27.7801 7.37372 1.6
      vertex 32.4 0 1.6
      vertex 27.9981 7.7 1.6
    endloop
  endfacet
  facet normal -0 0 1
    outer loop
      vertex 27.5213 7.07868 1.6
      vertex 32.4 0 1.6
      vertex 27.7801 7.37372 1.6
    endloop
  endfacet
  facet normal -0 0 1
    outer loop
      vertex 27.2263 6.81994 1.6
      vertex 32.4 0 1.6
      vertex 27.5213 7.07868 1.6
    endloop
  endfacet
  facet normal -0 0 1
    outer loop
      vertex 26.9 6.60192 1.6
      vertex 32.4 0 1.6
      vertex 27.2263 6.81994 1.6
    endloop
  endfacet
  facet normal -0 0 1
    outer loop
      vertex 26.548 6.42836 1.6
      vertex 32.4 0 1.6
      vertex 26.9 6.60192 1.6
    endloop
  endfacet
  facet normal -0 0 1
    outer loop
      vertex 26.1765 6.30222 1.6
      vertex 32.4 0 1.6
      vertex 26.548 6.42836 1.6
    endloop
  endfacet
  facet normal -0 0 1
    outer loop
      vertex 25.7916 6.22567 1.6
      vertex 32.4 0 1.6
      vertex 26.1765 6.30222 1.6
    endloop
  endfacet
  facet normal -0 0 1
    outer loop
      vertex 25.4 6.2 1.6
      vertex 32.4 0 1.6
      vertex 25.7916 6.22567 1.6
    endloop
  endfacet
  facet normal 0 0 1
    outer loop
      vertex 25.0084 6.22567 1.6
      vertex 32.4 0 1.6
      vertex 25.4 6.2 1.6
    endloop
  endfacet
  facet normal 0 0 1
    outer loop
      vertex 24.6235 6.30222 1.6
      vertex 32.4 0 1.6
      vertex 25.0084 6.22567 1.6
    endloop
  endfacet
  facet normal 0 0 1
    outer loop
      vertex 24.2519 6.42836 1.6
      vertex 32.4 0 1.6
      vertex 24.6235 6.30222 1.6
    endloop
  endfacet
  facet normal 0 0 1
    outer loop
      vertex 0 0 1.6
      vertex 24.2519 6.42836 1.6
      vertex 23.9 6.60192 1.6
    endloop
  endfacet
  facet normal 0 0 1
    outer loop
      vertex 0 0 1.6
      vertex 23.9 6.60192 1.6
      vertex 23.5737 6.81994 1.6
    endloop
  endfacet
  facet normal 0 0 1
    outer loop
      vertex 0 0 1.6
      vertex 22.4 9.2 1.6
      vertex 0 18.4 1.6
    endloop
  endfacet
  facet normal 0 0 1
    outer loop
      vertex 22.4 9.2 1.6
      vertex 0 0 1.6
      vertex 22.4257 8.80842 1.6
    endloop
  endfacet
  facet normal 0 0 1
    outer loop
      vertex 22.4257 8.80842 1.6
      vertex 0 0 1.6
      vertex 22.5022 8.42354 1.6
    endloop
  endfacet
  facet normal 0 0 1
    outer loop
      vertex 22.5022 8.42354 1.6
      vertex 0 0 1.6
      vertex 22.6284 8.05195 1.6
    endloop
  endfacet
  facet normal 0 0 1
    outer loop
      vertex 22.6284 8.05195 1.6
      vertex 0 0 1.6
      vertex 22.8019 7.7 1.6
    endloop
  endfacet
  facet normal 0 0 1
    outer loop
      vertex 22.8019 7.7 1.6
      vertex 0 0 1.6
      vertex 23.0199 7.37372 1.6
    endloop
  endfacet
  facet normal 0 0 1
    outer loop
      vertex 23.0199 7.37372 1.6
      vertex 0 0 1.6
      vertex 23.2787 7.07868 1.6
    endloop
  endfacet
  facet normal 0 0 1
    outer loop
      vertex 23.2787 7.07868 1.6
      vertex 0 0 1.6
      vertex 23.5737 6.81994 1.6
    endloop
  endfacet
  facet normal 0 0 1
    outer loop
      vertex 24.2519 6.42836 1.6
      vertex 0 0 1.6
      vertex 32.4 0 1.6
    endloop
  endfacet
  facet normal 0 0 -1
    outer loop
      vertex 29.4 0 0
      vertex 32.4 18.4 0
      vertex 32.4 0 0
    endloop
  endfacet
  facet normal -0 0 -1
    outer loop
      vertex 32.4 18.4 0
      vertex 29.4 0 0
      vertex 29.4 18.4 0
    endloop
  endfacet
  facet normal 0 0 -1
    outer loop
      vertex 0 0 0
      vertex 3 18.4 0
      vertex 3 0 0
    endloop
  endfacet
  facet normal -0 0 -1
    outer loop
      vertex 3 18.4 0
      vertex 0 0 0
      vertex 0 18.4 0
    endloop
  endfacet
  facet normal 0 0 -1
    outer loop
      vertex 28.4 0 0
      vertex 28.3743 8.80842 0
      vertex 28.4 9.2 0
    endloop
  endfacet
  facet normal 0 0 -1
    outer loop
      vertex 28.4 0 0
      vertex 28.2978 8.42354 0
      vertex 28.3743 8.80842 0
    endloop
  endfacet
  facet normal 0 0 -1
    outer loop
      vertex 28.4 0 0
      vertex 28.1716 8.05195 0
      vertex 28.2978 8.42354 0
    endloop
  endfacet
  facet normal 0 0 -1
    outer loop
      vertex 28.4 0 0
      vertex 27.9981 7.7 0
      vertex 28.1716 8.05195 0
    endloop
  endfacet
  facet normal 0 0 -1
    outer loop
      vertex 28.4 0 0
      vertex 27.7801 7.37372 0
      vertex 27.9981 7.7 0
    endloop
  endfacet
  facet normal 0 0 -1
    outer loop
      vertex 28.4 0 0
      vertex 27.5213 7.07868 0
      vertex 27.7801 7.37372 0
    endloop
  endfacet
  facet normal 0 0 -1
    outer loop
      vertex 28.4 0 0
      vertex 27.2263 6.81994 0
      vertex 27.5213 7.07868 0
    endloop
  endfacet
  facet normal 0 0 -1
    outer loop
      vertex 28.4 0 0
      vertex 26.9 6.60192 0
      vertex 27.2263 6.81994 0
    endloop
  endfacet
  facet normal 0 0 -1
    outer loop
      vertex 28.4 0 0
      vertex 26.548 6.42836 0
      vertex 26.9 6.60192 0
    endloop
  endfacet
  facet normal 0 0 -1
    outer loop
      vertex 28.4 0 0
      vertex 26.1765 6.30222 0
      vertex 26.548 6.42836 0
    endloop
  endfacet
  facet normal 0 0 -1
    outer loop
      vertex 28.4 0 0
      vertex 25.7916 6.22567 0
      vertex 26.1765 6.30222 0
    endloop
  endfacet
  facet normal 0 0 -1
    outer loop
      vertex 28.4 0 0
      vertex 25.4 6.2 0
      vertex 25.7916 6.22567 0
    endloop
  endfacet
  facet normal 0 0 -1
    outer loop
      vertex 28.4 0 0
      vertex 25.0084 6.22567 0
      vertex 25.4 6.2 0
    endloop
  endfacet
  facet normal 0 0 -1
    outer loop
      vertex 28.4 0 0
      vertex 24.6235 6.30222 0
      vertex 25.0084 6.22567 0
    endloop
  endfacet
  facet normal 0 0 -1
    outer loop
      vertex 28.4 0 0
      vertex 24.2519 6.42836 0
      vertex 24.6235 6.30222 0
    endloop
  endfacet
  facet normal 0 0 -1
    outer loop
      vertex 28.4 0 0
      vertex 23.9 6.60192 0
      vertex 24.2519 6.42836 0
    endloop
  endfacet
  facet normal 0 0 -1
    outer loop
      vertex 28.4 0 0
      vertex 23.5737 6.81994 0
      vertex 23.9 6.60192 0
    endloop
  endfacet
  facet normal 0 0 -1
    outer loop
      vertex 4 0 0
      vertex 23.5737 6.81994 0
      vertex 28.4 0 0
    endloop
  endfacet
  facet normal -0 0 -1
    outer loop
      vertex 23.5737 6.81994 0
      vertex 4 0 0
      vertex 23.2787 7.07868 0
    endloop
  endfacet
  facet normal -0 0 -1
    outer loop
      vertex 22.4257 8.80842 0
      vertex 4 0 0
      vertex 22.4 9.2 0
    endloop
  endfacet
  facet normal -0 0 -1
    outer loop
      vertex 22.5022 8.42354 0
      vertex 4 0 0
      vertex 22.4257 8.80842 0
    endloop
  endfacet
  facet normal -0 0 -1
    outer loop
      vertex 22.6284 8.05195 0
      vertex 4 0 0
      vertex 22.5022 8.42354 0
    endloop
  endfacet
  facet normal -0 0 -1
    outer loop
      vertex 22.8019 7.7 0
      vertex 4 0 0
      vertex 22.6284 8.05195 0
    endloop
  endfacet
  facet normal -0 0 -1
    outer loop
      vertex 23.0199 7.37372 0
      vertex 4 0 0
      vertex 22.8019 7.7 0
    endloop
  endfacet
  facet normal -0 0 -1
    outer loop
      vertex 23.2787 7.07868 0
      vertex 4 0 0
      vertex 23.0199 7.37372 0
    endloop
  endfacet
  facet normal 0 0 -1
    outer loop
      vertex 28.3743 9.59158 0
      vertex 28.4 18.4 0
      vertex 28.4 9.2 0
    endloop
  endfacet
  facet normal 0 0 -1
    outer loop
      vertex 28.2978 9.97646 0
      vertex 28.4 18.4 0
      vertex 28.3743 9.59158 0
    endloop
  endfacet
  facet normal 0 0 -1
    outer loop
      vertex 28.1716 10.3481 0
      vertex 28.4 18.4 0
      vertex 28.2978 9.97646 0
    endloop
  endfacet
  facet normal 0 0 -1
    outer loop
      vertex 27.9981 10.7 0
      vertex 28.4 18.4 0
      vertex 28.1716 10.3481 0
    endloop
  endfacet
  facet normal 0 0 -1
    outer loop
      vertex 27.7801 11.0263 0
      vertex 28.4 18.4 0
      vertex 27.9981 10.7 0
    endloop
  endfacet
  facet normal 0 0 -1
    outer loop
      vertex 27.5213 11.3213 0
      vertex 28.4 18.4 0
      vertex 27.7801 11.0263 0
    endloop
  endfacet
  facet normal 0 0 -1
    outer loop
      vertex 27.2263 11.5801 0
      vertex 28.4 18.4 0
      vertex 27.5213 11.3213 0
    endloop
  endfacet
  facet normal 0 0 -1
    outer loop
      vertex 26.9 11.7981 0
      vertex 28.4 18.4 0
      vertex 27.2263 11.5801 0
    endloop
  endfacet
  facet normal 0 0 -1
    outer loop
      vertex 26.548 11.9716 0
      vertex 28.4 18.4 0
      vertex 26.9 11.7981 0
    endloop
  endfacet
  facet normal 0 0 -1
    outer loop
      vertex 26.1765 12.0978 0
      vertex 28.4 18.4 0
      vertex 26.548 11.9716 0
    endloop
  endfacet
  facet normal 0 0 -1
    outer loop
      vertex 25.7916 12.1743 0
      vertex 28.4 18.4 0
      vertex 26.1765 12.0978 0
    endloop
  endfacet
  facet normal 0 0 -1
    outer loop
      vertex 25.4 12.2 0
      vertex 28.4 18.4 0
      vertex 25.7916 12.1743 0
    endloop
  endfacet
  facet normal 0 0 -1
    outer loop
      vertex 25.0084 12.1743 0
      vertex 28.4 18.4 0
      vertex 25.4 12.2 0
    endloop
  endfacet
  facet normal 0 0 -1
    outer loop
      vertex 24.6235 12.0978 0
      vertex 28.4 18.4 0
      vertex 25.0084 12.1743 0
    endloop
  endfacet
  facet normal 0 0 -1
    outer loop
      vertex 24.2519 11.9716 0
      vertex 28.4 18.4 0
      vertex 24.6235 12.0978 0
    endloop
  endfacet
  facet normal 0 0 -1
    outer loop
      vertex 23.9 11.7981 0
      vertex 28.4 18.4 0
      vertex 24.2519 11.9716 0
    endloop
  endfacet
  facet normal 0 0 -1
    outer loop
      vertex 23.5737 11.5801 0
      vertex 28.4 18.4 0
      vertex 23.9 11.7981 0
    endloop
  endfacet
  facet normal 0 0 -1
    outer loop
      vertex 4 18.4 0
      vertex 23.5737 11.5801 0
      vertex 23.2787 11.3213 0
    endloop
  endfacet
  facet normal 0 0 -1
    outer loop
      vertex 4 18.4 0
      vertex 23.2787 11.3213 0
      vertex 23.0199 11.0263 0
    endloop
  endfacet
  facet normal 0 0 -1
    outer loop
      vertex 4 18.4 0
      vertex 22.4 9.2 0
      vertex 4 0 0
    endloop
  endfacet
  facet normal 0 0 -1
    outer loop
      vertex 22.4 9.2 0
      vertex 4 18.4 0
      vertex 22.4257 9.59158 0
    endloop
  endfacet
  facet normal 0 0 -1
    outer loop
      vertex 22.4257 9.59158 0
      vertex 4 18.4 0
      vertex 22.5022 9.97646 0
    endloop
  endfacet
  facet normal 0 0 -1
    outer loop
      vertex 22.5022 9.97646 0
      vertex 4 18.4 0
      vertex 22.6284 10.3481 0
    endloop
  endfacet
  facet normal 0 0 -1
    outer loop
      vertex 22.6284 10.3481 0
      vertex 4 18.4 0
      vertex 22.8019 10.7 0
    endloop
  endfacet
  facet normal 0 0 -1
    outer loop
      vertex 22.8019 10.7 0
      vertex 4 18.4 0
      vertex 23.0199 11.0263 0
    endloop
  endfacet
  facet normal 0 0 -1
    outer loop
      vertex 23.5737 11.5801 0
      vertex 4 18.4 0
      vertex 28.4 18.4 0
    endloop
  endfacet
  facet normal -1 0 0
    outer loop
      vertex 0 0 0
      vertex 0 18.4 1.6
      vertex 0 18.4 0
    endloop
  endfacet
  facet normal -1 -0 0
    outer loop
      vertex 0 18.4 1.6
      vertex 0 0 0
      vertex 0 0 1.6
    endloop
  endfacet
  facet normal -0.19494 -0.980815 0
    outer loop
      vertex 25.7916 12.1743 0
      vertex 26.1765 12.0978 1.6
      vertex 25.7916 12.1743 1.6
    endloop
  endfacet
  facet normal -0.19494 -0.980815 -0
    outer loop
      vertex 26.1765 12.0978 1.6
      vertex 25.7916 12.1743 0
      vertex 26.1765 12.0978 0
    endloop
  endfacet
  facet normal -0.980813 -0.19495 0
    outer loop
      vertex 28.3743 9.59158 0
      vertex 28.2978 9.97646 1.6
      vertex 28.2978 9.97646 0
    endloop
  endfacet
  facet normal -0.980813 -0.19495 0
    outer loop
      vertex 28.2978 9.97646 1.6
      vertex 28.3743 9.59158 0
      vertex 28.3743 9.59158 1.6
    endloop
  endfacet
  facet normal -0.997853 -0.0654906 0
    outer loop
      vertex 28.4 9.2 0
      vertex 28.3743 9.59158 1.6
      vertex 28.3743 9.59158 0
    endloop
  endfacet
  facet normal -0.997853 -0.0654906 0
    outer loop
      vertex 28.3743 9.59158 1.6
      vertex 28.4 9.2 0
      vertex 28.4 9.2 1.6
    endloop
  endfacet
  facet normal -0.946895 -0.321543 0
    outer loop
      vertex 28.2978 9.97646 0
      vertex 28.1716 10.3481 1.6
      vertex 28.1716 10.3481 0
    endloop
  endfacet
  facet normal -0.946895 -0.321543 0
    outer loop
      vertex 28.1716 10.3481 1.6
      vertex 28.2978 9.97646 0
      vertex 28.2978 9.97646 1.6
    endloop
  endfacet
  facet normal -0.321514 0.946905 0
    outer loop
      vertex 26.548 6.42836 0
      vertex 26.1765 6.30222 1.6
      vertex 26.548 6.42836 1.6
    endloop
  endfacet
  facet normal -0.321514 0.946905 0
    outer loop
      vertex 26.1765 6.30222 1.6
      vertex 26.548 6.42836 0
      vertex 26.1765 6.30222 0
    endloop
  endfacet
  facet normal -0.831501 -0.555523 0
    outer loop
      vertex 27.9981 10.7 0
      vertex 27.7801 11.0263 1.6
      vertex 27.7801 11.0263 0
    endloop
  endfacet
  facet normal -0.831501 -0.555523 0
    outer loop
      vertex 27.7801 11.0263 1.6
      vertex 27.9981 10.7 0
      vertex 27.9981 10.7 1.6
    endloop
  endfacet
  facet normal -0.896911 -0.442211 0
    outer loop
      vertex 28.1716 10.3481 0
      vertex 27.9981 10.7 1.6
      vertex 27.9981 10.7 0
    endloop
  endfacet
  facet normal -0.896911 -0.442211 0
    outer loop
      vertex 27.9981 10.7 1.6
      vertex 28.1716 10.3481 0
      vertex 28.1716 10.3481 1.6
    endloop
  endfacet
  facet normal 0.19494 -0.980815 0
    outer loop
      vertex 24.6235 12.0978 0
      vertex 25.0084 12.1743 1.6
      vertex 24.6235 12.0978 1.6
    endloop
  endfacet
  facet normal 0.19494 -0.980815 0
    outer loop
      vertex 25.0084 12.1743 1.6
      vertex 24.6235 12.0978 0
      vertex 25.0084 12.1743 0
    endloop
  endfacet
  facet normal 0.555558 0.831477 -0
    outer loop
      vertex 23.9 6.60192 0
      vertex 23.5737 6.81994 1.6
      vertex 23.9 6.60192 1.6
    endloop
  endfacet
  facet normal 0.555558 0.831477 0
    outer loop
      vertex 23.5737 6.81994 1.6
      vertex 23.9 6.60192 0
      vertex 23.5737 6.81994 0
    endloop
  endfacet
  facet normal -0.946882 0.321582 0
    outer loop
      vertex 28.1716 8.05195 0
      vertex 28.2978 8.42354 1.6
      vertex 28.2978 8.42354 0
    endloop
  endfacet
  facet normal -0.946882 0.321582 0
    outer loop
      vertex 28.2978 8.42354 1.6
      vertex 28.1716 8.05195 0
      vertex 28.1716 8.05195 1.6
    endloop
  endfacet
  facet normal 0.659478 -0.751724 0
    outer loop
      vertex 23.2787 11.3213 0
      vertex 23.5737 11.5801 1.6
      vertex 23.2787 11.3213 1.6
    endloop
  endfacet
  facet normal 0.659478 -0.751724 0
    outer loop
      vertex 23.5737 11.5801 1.6
      vertex 23.2787 11.3213 0
      vertex 23.5737 11.5801 0
    endloop
  endfacet
  facet normal 0.321574 -0.946885 0
    outer loop
      vertex 24.2519 11.9716 0
      vertex 24.6235 12.0978 1.6
      vertex 24.2519 11.9716 1.6
    endloop
  endfacet
  facet normal 0.321574 -0.946885 0
    outer loop
      vertex 24.6235 12.0978 1.6
      vertex 24.2519 11.9716 0
      vertex 24.6235 12.0978 0
    endloop
  endfacet
  facet normal 0.0654873 -0.997853 0
    outer loop
      vertex 25.0084 12.1743 0
      vertex 25.4 12.2 1.6
      vertex 25.0084 12.1743 1.6
    endloop
  endfacet
  facet normal 0.0654873 -0.997853 0
    outer loop
      vertex 25.4 12.2 1.6
      vertex 25.0084 12.1743 0
      vertex 25.4 12.2 0
    endloop
  endfacet
  facet normal -0.0654873 -0.997853 0
    outer loop
      vertex 25.4 12.2 0
      vertex 25.7916 12.1743 1.6
      vertex 25.4 12.2 1.6
    endloop
  endfacet
  facet normal -0.0654873 -0.997853 -0
    outer loop
      vertex 25.7916 12.1743 1.6
      vertex 25.4 12.2 0
      vertex 25.7916 12.1743 0
    endloop
  endfacet
  facet normal 0.195062 0.980791 -0
    outer loop
      vertex 25.0084 6.22567 0
      vertex 24.6235 6.30222 1.6
      vertex 25.0084 6.22567 1.6
    endloop
  endfacet
  facet normal 0.195062 0.980791 0
    outer loop
      vertex 24.6235 6.30222 1.6
      vertex 25.0084 6.22567 0
      vertex 24.6235 6.30222 0
    endloop
  endfacet
  facet normal 0.659392 0.751799 -0
    outer loop
      vertex 23.5737 6.81994 0
      vertex 23.2787 7.07868 1.6
      vertex 23.5737 6.81994 1.6
    endloop
  endfacet
  facet normal 0.659392 0.751799 0
    outer loop
      vertex 23.2787 7.07868 1.6
      vertex 23.5737 6.81994 0
      vertex 23.2787 7.07868 0
    endloop
  endfacet
  facet normal -0.195062 0.980791 0
    outer loop
      vertex 26.1765 6.30222 0
      vertex 25.7916 6.22567 1.6
      vertex 26.1765 6.30222 1.6
    endloop
  endfacet
  facet normal -0.195062 0.980791 0
    outer loop
      vertex 25.7916 6.22567 1.6
      vertex 26.1765 6.30222 0
      vertex 25.7916 6.22567 0
    endloop
  endfacet
  facet normal -0.555523 -0.831501 0
    outer loop
      vertex 26.9 11.7981 0
      vertex 27.2263 11.5801 1.6
      vertex 26.9 11.7981 1.6
    endloop
  endfacet
  facet normal -0.555523 -0.831501 -0
    outer loop
      vertex 27.2263 11.5801 1.6
      vertex 26.9 11.7981 0
      vertex 27.2263 11.5801 0
    endloop
  endfacet
  facet normal -0.659478 -0.751724 0
    outer loop
      vertex 27.2263 11.5801 0
      vertex 27.5213 11.3213 1.6
      vertex 27.2263 11.5801 1.6
    endloop
  endfacet
  facet normal -0.659478 -0.751724 -0
    outer loop
      vertex 27.5213 11.3213 1.6
      vertex 27.2263 11.5801 0
      vertex 27.5213 11.3213 0
    endloop
  endfacet
  facet normal 0.946882 0.321582 0
    outer loop
      vertex 22.6284 8.05195 1.6
      vertex 22.5022 8.42354 0
      vertex 22.5022 8.42354 1.6
    endloop
  endfacet
  facet normal 0.946882 0.321582 0
    outer loop
      vertex 22.5022 8.42354 0
      vertex 22.6284 8.05195 1.6
      vertex 22.6284 8.05195 0
    endloop
  endfacet
  facet normal 0.0654112 0.997858 -0
    outer loop
      vertex 25.4 6.2 0
      vertex 25.0084 6.22567 1.6
      vertex 25.4 6.2 1.6
    endloop
  endfacet
  facet normal 0.0654112 0.997858 0
    outer loop
      vertex 25.0084 6.22567 1.6
      vertex 25.4 6.2 0
      vertex 25.0084 6.22567 0
    endloop
  endfacet
  facet normal 0.442211 -0.896911 0
    outer loop
      vertex 23.9 11.7981 0
      vertex 24.2519 11.9716 1.6
      vertex 23.9 11.7981 1.6
    endloop
  endfacet
  facet normal 0.442211 -0.896911 0
    outer loop
      vertex 24.2519 11.9716 1.6
      vertex 23.9 11.7981 0
      vertex 24.2519 11.9716 0
    endloop
  endfacet
  facet normal -0.659392 0.751799 0
    outer loop
      vertex 27.5213 7.07868 0
      vertex 27.2263 6.81994 1.6
      vertex 27.5213 7.07868 1.6
    endloop
  endfacet
  facet normal -0.659392 0.751799 0
    outer loop
      vertex 27.2263 6.81994 1.6
      vertex 27.5213 7.07868 0
      vertex 27.2263 6.81994 0
    endloop
  endfacet
  facet normal -0.555558 0.831477 0
    outer loop
      vertex 27.2263 6.81994 0
      vertex 26.9 6.60192 1.6
      vertex 27.2263 6.81994 1.6
    endloop
  endfacet
  facet normal -0.555558 0.831477 0
    outer loop
      vertex 26.9 6.60192 1.6
      vertex 27.2263 6.81994 0
      vertex 26.9 6.60192 0
    endloop
  endfacet
  facet normal 0.555523 -0.831501 0
    outer loop
      vertex 23.5737 11.5801 0
      vertex 23.9 11.7981 1.6
      vertex 23.5737 11.5801 1.6
    endloop
  endfacet
  facet normal 0.555523 -0.831501 0
    outer loop
      vertex 23.9 11.7981 1.6
      vertex 23.5737 11.5801 0
      vertex 23.9 11.7981 0
    endloop
  endfacet
  facet normal -0.997853 0.0654906 0
    outer loop
      vertex 28.3743 8.80842 0
      vertex 28.4 9.2 1.6
      vertex 28.4 9.2 0
    endloop
  endfacet
  facet normal -0.997853 0.0654906 0
    outer loop
      vertex 28.4 9.2 1.6
      vertex 28.3743 8.80842 0
      vertex 28.3743 8.80842 1.6
    endloop
  endfacet
  facet normal -0.751768 0.659428 0
    outer loop
      vertex 27.5213 7.07868 0
      vertex 27.7801 7.37372 1.6
      vertex 27.7801 7.37372 0
    endloop
  endfacet
  facet normal -0.751768 0.659428 0
    outer loop
      vertex 27.7801 7.37372 1.6
      vertex 27.5213 7.07868 0
      vertex 27.5213 7.07868 1.6
    endloop
  endfacet
  facet normal 0.442334 0.89685 -0
    outer loop
      vertex 24.2519 6.42836 0
      vertex 23.9 6.60192 1.6
      vertex 24.2519 6.42836 1.6
    endloop
  endfacet
  facet normal 0.442334 0.89685 0
    outer loop
      vertex 23.9 6.60192 1.6
      vertex 24.2519 6.42836 0
      vertex 23.9 6.60192 0
    endloop
  endfacet
  facet normal -0.831485 0.555547 0
    outer loop
      vertex 27.7801 7.37372 0
      vertex 27.9981 7.7 1.6
      vertex 27.9981 7.7 0
    endloop
  endfacet
  facet normal -0.831485 0.555547 0
    outer loop
      vertex 27.9981 7.7 1.6
      vertex 27.7801 7.37372 0
      vertex 27.7801 7.37372 1.6
    endloop
  endfacet
  facet normal -0.980813 0.19495 0
    outer loop
      vertex 28.2978 8.42354 0
      vertex 28.3743 8.80842 1.6
      vertex 28.3743 8.80842 0
    endloop
  endfacet
  facet normal -0.980813 0.19495 0
    outer loop
      vertex 28.3743 8.80842 1.6
      vertex 28.2978 8.42354 0
      vertex 28.2978 8.42354 1.6
    endloop
  endfacet
  facet normal 0.946895 -0.321543 0
    outer loop
      vertex 22.5022 9.97646 1.6
      vertex 22.6284 10.3481 0
      vertex 22.6284 10.3481 1.6
    endloop
  endfacet
  facet normal 0.946895 -0.321543 0
    outer loop
      vertex 22.6284 10.3481 0
      vertex 22.5022 9.97646 1.6
      vertex 22.5022 9.97646 0
    endloop
  endfacet
  facet normal -0.44211 -0.896961 0
    outer loop
      vertex 26.548 11.9716 0
      vertex 26.9 11.7981 1.6
      vertex 26.548 11.9716 1.6
    endloop
  endfacet
  facet normal -0.44211 -0.896961 -0
    outer loop
      vertex 26.9 11.7981 1.6
      vertex 26.548 11.9716 0
      vertex 26.9 11.7981 0
    endloop
  endfacet
  facet normal 0.980813 -0.19495 0
    outer loop
      vertex 22.4257 9.59158 1.6
      vertex 22.5022 9.97646 0
      vertex 22.5022 9.97646 1.6
    endloop
  endfacet
  facet normal 0.980813 -0.19495 0
    outer loop
      vertex 22.5022 9.97646 0
      vertex 22.4257 9.59158 1.6
      vertex 22.4257 9.59158 0
    endloop
  endfacet
  facet normal -0.442233 0.8969 0
    outer loop
      vertex 26.9 6.60192 0
      vertex 26.548 6.42836 1.6
      vertex 26.9 6.60192 1.6
    endloop
  endfacet
  facet normal -0.442233 0.8969 0
    outer loop
      vertex 26.548 6.42836 1.6
      vertex 26.9 6.60192 0
      vertex 26.548 6.42836 0
    endloop
  endfacet
  facet normal 0.831501 -0.555523 0
    outer loop
      vertex 22.8019 10.7 1.6
      vertex 23.0199 11.0263 0
      vertex 23.0199 11.0263 1.6
    endloop
  endfacet
  facet normal 0.831501 -0.555523 0
    outer loop
      vertex 23.0199 11.0263 0
      vertex 22.8019 10.7 1.6
      vertex 22.8019 10.7 0
    endloop
  endfacet
  facet normal 0.997853 0.0654906 0
    outer loop
      vertex 22.4257 8.80842 1.6
      vertex 22.4 9.2 0
      vertex 22.4 9.2 1.6
    endloop
  endfacet
  facet normal 0.997853 0.0654906 0
    outer loop
      vertex 22.4 9.2 0
      vertex 22.4257 8.80842 1.6
      vertex 22.4257 8.80842 0
    endloop
  endfacet
  facet normal 0.751768 0.659428 0
    outer loop
      vertex 23.2787 7.07868 1.6
      vertex 23.0199 7.37372 0
      vertex 23.0199 7.37372 1.6
    endloop
  endfacet
  facet normal 0.751768 0.659428 0
    outer loop
      vertex 23.0199 7.37372 0
      vertex 23.2787 7.07868 1.6
      vertex 23.2787 7.07868 0
    endloop
  endfacet
  facet normal -0.321651 -0.946858 0
    outer loop
      vertex 26.1765 12.0978 0
      vertex 26.548 11.9716 1.6
      vertex 26.1765 12.0978 1.6
    endloop
  endfacet
  facet normal -0.321651 -0.946858 -0
    outer loop
      vertex 26.548 11.9716 1.6
      vertex 26.1765 12.0978 0
      vertex 26.548 11.9716 0
    endloop
  endfacet
  facet normal 0.751724 -0.659478 0
    outer loop
      vertex 23.0199 11.0263 1.6
      vertex 23.2787 11.3213 0
      vertex 23.2787 11.3213 1.6
    endloop
  endfacet
  facet normal 0.751724 -0.659478 0
    outer loop
      vertex 23.2787 11.3213 0
      vertex 23.0199 11.0263 1.6
      vertex 23.0199 11.0263 0
    endloop
  endfacet
  facet normal -0.751724 -0.659478 0
    outer loop
      vertex 27.7801 11.0263 0
      vertex 27.5213 11.3213 1.6
      vertex 27.5213 11.3213 0
    endloop
  endfacet
  facet normal -0.751724 -0.659478 0
    outer loop
      vertex 27.5213 11.3213 1.6
      vertex 27.7801 11.0263 0
      vertex 27.7801 11.0263 1.6
    endloop
  endfacet
  facet normal 0.896936 0.44216 0
    outer loop
      vertex 22.8019 7.7 1.6
      vertex 22.6284 8.05195 0
      vertex 22.6284 8.05195 1.6
    endloop
  endfacet
  facet normal 0.896936 0.44216 0
    outer loop
      vertex 22.6284 8.05195 0
      vertex 22.8019 7.7 1.6
      vertex 22.8019 7.7 0
    endloop
  endfacet
  facet normal -0.0654112 0.997858 0
    outer loop
      vertex 25.7916 6.22567 0
      vertex 25.4 6.2 1.6
      vertex 25.7916 6.22567 1.6
    endloop
  endfacet
  facet normal -0.0654112 0.997858 0
    outer loop
      vertex 25.4 6.2 1.6
      vertex 25.7916 6.22567 0
      vertex 25.4 6.2 0
    endloop
  endfacet
  facet normal 0.980813 0.19495 0
    outer loop
      vertex 22.5022 8.42354 1.6
      vertex 22.4257 8.80842 0
      vertex 22.4257 8.80842 1.6
    endloop
  endfacet
  facet normal 0.980813 0.19495 0
    outer loop
      vertex 22.4257 8.80842 0
      vertex 22.5022 8.42354 1.6
      vertex 22.5022 8.42354 0
    endloop
  endfacet
  facet normal 0.831485 0.555547 0
    outer loop
      vertex 23.0199 7.37372 1.6
      vertex 22.8019 7.7 0
      vertex 22.8019 7.7 1.6
    endloop
  endfacet
  facet normal 0.831485 0.555547 0
    outer loop
      vertex 22.8019 7.7 0
      vertex 23.0199 7.37372 1.6
      vertex 23.0199 7.37372 0
    endloop
  endfacet
  facet normal 0.997853 -0.0654906 0
    outer loop
      vertex 22.4 9.2 1.6
      vertex 22.4257 9.59158 0
      vertex 22.4257 9.59158 1.6
    endloop
  endfacet
  facet normal 0.997853 -0.0654906 0
    outer loop
      vertex 22.4257 9.59158 0
      vertex 22.4 9.2 1.6
      vertex 22.4 9.2 0
    endloop
  endfacet
  facet normal 0.321437 0.946931 -0
    outer loop
      vertex 24.6235 6.30222 0
      vertex 24.2519 6.42836 1.6
      vertex 24.6235 6.30222 1.6
    endloop
  endfacet
  facet normal 0.321437 0.946931 0
    outer loop
      vertex 24.2519 6.42836 1.6
      vertex 24.6235 6.30222 0
      vertex 24.2519 6.42836 0
    endloop
  endfacet
  facet normal -0.896936 0.44216 0
    outer loop
      vertex 27.9981 7.7 0
      vertex 28.1716 8.05195 1.6
      vertex 28.1716 8.05195 0
    endloop
  endfacet
  facet normal -0.896936 0.44216 0
    outer loop
      vertex 28.1716 8.05195 1.6
      vertex 27.9981 7.7 0
      vertex 27.9981 7.7 1.6
    endloop
  endfacet
  facet normal 0.896911 -0.442211 0
    outer loop
      vertex 22.6284 10.3481 1.6
      vertex 22.8019 10.7 0
      vertex 22.8019 10.7 1.6
    endloop
  endfacet
  facet normal 0.896911 -0.442211 0
    outer loop
      vertex 22.8019 10.7 0
      vertex 22.6284 10.3481 1.6
      vertex 22.6284 10.3481 0
    endloop
  endfacet
endsolid OpenSCAD_Model
