solid OpenSCAD_Model
  facet normal 0 -0.321322 -0.94697
    outer loop
      vertex 0 6.00587 16.8807
      vertex 1.6 6.43939 16.7336
      vertex 1.6 6.00587 16.8807
    endloop
  endfacet
  facet normal -0 -0.321322 -0.94697
    outer loop
      vertex 1.6 6.43939 16.7336
      vertex 0 6.00587 16.8807
      vertex 0 6.43939 16.7336
    endloop
  endfacet
  facet normal 0 -0.0653099 0.997865
    outer loop
      vertex 0 5.55684 10.0299
      vertex 1.6 5.1 10
      vertex 1.6 5.55684 10.0299
    endloop
  endfacet
  facet normal 0 -0.0653099 0.997865
    outer loop
      vertex 1.6 5.1 10
      vertex 0 5.55684 10.0299
      vertex 0 5.1 10
    endloop
  endfacet
  facet normal 0 0.751824 -0.659364
    outer loop
      vertex 1.6 2.32326 15.6307
      vertex 0 2.62513 15.9749
      vertex 1.6 2.62513 15.9749
    endloop
  endfacet
  facet normal 0 0.751824 -0.659364
    outer loop
      vertex 0 2.62513 15.9749
      vertex 1.6 2.32326 15.6307
      vertex 0 2.32326 15.6307
    endloop
  endfacet
  facet normal -0 0.195263 0.980751
    outer loop
      vertex 0 4.64316 10.0299
      vertex 1.6 4.19413 10.1193
      vertex 1.6 4.64316 10.0299
    endloop
  endfacet
  facet normal 0 0.195263 0.980751
    outer loop
      vertex 1.6 4.19413 10.1193
      vertex 0 4.64316 10.0299
      vertex 0 4.19413 10.1193
    endloop
  endfacet
  facet normal 0 0.98079 0.195066
    outer loop
      vertex 1.6 1.71926 12.5941
      vertex 0 1.62994 13.0432
      vertex 1.6 1.62994 13.0432
    endloop
  endfacet
  facet normal 0 0.98079 0.195066
    outer loop
      vertex 0 1.62994 13.0432
      vertex 1.6 1.71926 12.5941
      vertex 0 1.71926 12.5941
    endloop
  endfacet
  facet normal 0 -0.997859 0.0654026
    outer loop
      vertex 0 8.57006 13.0432
      vertex 1.6 8.6 13.5
      vertex 0 8.6 13.5
    endloop
  endfacet
  facet normal 0 -0.997859 0.0654026
    outer loop
      vertex 1.6 8.6 13.5
      vertex 0 8.57006 13.0432
      vertex 1.6 8.57006 13.0432
    endloop
  endfacet
  facet normal 0 0.751824 0.659364
    outer loop
      vertex 1.6 2.62513 11.0251
      vertex 0 2.32326 11.3693
      vertex 1.6 2.32326 11.3693
    endloop
  endfacet
  facet normal 0 0.751824 0.659364
    outer loop
      vertex 0 2.32326 11.3693
      vertex 1.6 2.62513 11.0251
      vertex 0 2.62513 11.0251
    endloop
  endfacet
  facet normal 0 -0.946926 0.321452
    outer loop
      vertex 0 8.33358 12.1606
      vertex 1.6 8.48074 12.5941
      vertex 0 8.48074 12.5941
    endloop
  endfacet
  facet normal 0 -0.946926 0.321452
    outer loop
      vertex 1.6 8.48074 12.5941
      vertex 0 8.33358 12.1606
      vertex 1.6 8.33358 12.1606
    endloop
  endfacet
  facet normal 0 0.997859 0.0654026
    outer loop
      vertex 1.6 1.62994 13.0432
      vertex 0 1.6 13.5
      vertex 1.6 1.6 13.5
    endloop
  endfacet
  facet normal 0 0.997859 0.0654026
    outer loop
      vertex 0 1.6 13.5
      vertex 1.6 1.62994 13.0432
      vertex 0 1.62994 13.0432
    endloop
  endfacet
  facet normal 0 -0.659267 0.751909
    outer loop
      vertex 0 7.57487 11.0251
      vertex 1.6 7.23066 10.7233
      vertex 1.6 7.57487 11.0251
    endloop
  endfacet
  facet normal 0 -0.659267 0.751909
    outer loop
      vertex 1.6 7.23066 10.7233
      vertex 0 7.57487 11.0251
      vertex 0 7.23066 10.7233
    endloop
  endfacet
  facet normal 0 0.321322 -0.94697
    outer loop
      vertex 0 3.76061 16.7336
      vertex 1.6 4.19413 16.8807
      vertex 1.6 3.76061 16.7336
    endloop
  endfacet
  facet normal 0 0.321322 -0.94697
    outer loop
      vertex 1.6 4.19413 16.8807
      vertex 0 3.76061 16.7336
      vertex 0 4.19413 16.8807
    endloop
  endfacet
  facet normal 0 -0.98079 0.195066
    outer loop
      vertex 0 8.48074 12.5941
      vertex 1.6 8.57006 13.0432
      vertex 0 8.57006 13.0432
    endloop
  endfacet
  facet normal 0 -0.98079 0.195066
    outer loop
      vertex 1.6 8.57006 13.0432
      vertex 0 8.48074 12.5941
      vertex 1.6 8.48074 12.5941
    endloop
  endfacet
  facet normal 0 -0.896869 0.442297
    outer loop
      vertex 0 8.13109 11.75
      vertex 1.6 8.33358 12.1606
      vertex 0 8.33358 12.1606
    endloop
  endfacet
  facet normal 0 -0.896869 0.442297
    outer loop
      vertex 1.6 8.33358 12.1606
      vertex 0 8.13109 11.75
      vertex 1.6 8.13109 11.75
    endloop
  endfacet
  facet normal 0 0.946926 0.321452
    outer loop
      vertex 1.6 1.86642 12.1606
      vertex 0 1.71926 12.5941
      vertex 1.6 1.71926 12.5941
    endloop
  endfacet
  facet normal 0 0.946926 0.321452
    outer loop
      vertex 0 1.71926 12.5941
      vertex 1.6 1.86642 12.1606
      vertex 0 1.86642 12.1606
    endloop
  endfacet
  facet normal 0 -0.997859 -0.0654026
    outer loop
      vertex 0 8.6 13.5
      vertex 1.6 8.57006 13.9568
      vertex 0 8.57006 13.9568
    endloop
  endfacet
  facet normal 0 -0.997859 -0.0654026
    outer loop
      vertex 1.6 8.57006 13.9568
      vertex 0 8.6 13.5
      vertex 1.6 8.6 13.5
    endloop
  endfacet
  facet normal 0 -0.751824 -0.659364
    outer loop
      vertex 0 7.87674 15.6307
      vertex 1.6 7.57487 15.9749
      vertex 0 7.57487 15.9749
    endloop
  endfacet
  facet normal 0 -0.751824 -0.659364
    outer loop
      vertex 1.6 7.57487 15.9749
      vertex 0 7.87674 15.6307
      vertex 1.6 7.87674 15.6307
    endloop
  endfacet
  facet normal 0 -0.946926 -0.321452
    outer loop
      vertex 0 8.48074 14.4059
      vertex 1.6 8.33358 14.8394
      vertex 0 8.33358 14.8394
    endloop
  endfacet
  facet normal 0 -0.946926 -0.321452
    outer loop
      vertex 1.6 8.33358 14.8394
      vertex 0 8.48074 14.4059
      vertex 1.6 8.48074 14.4059
    endloop
  endfacet
  facet normal 0 0.831495 0.555532
    outer loop
      vertex 1.6 2.32326 11.3693
      vertex 0 2.06891 11.75
      vertex 1.6 2.06891 11.75
    endloop
  endfacet
  facet normal 0 0.831495 0.555532
    outer loop
      vertex 0 2.06891 11.75
      vertex 1.6 2.32326 11.3693
      vertex 0 2.32326 11.3693
    endloop
  endfacet
  facet normal 0 0.0653099 -0.997865
    outer loop
      vertex 0 4.64316 16.9701
      vertex 1.6 5.1 17
      vertex 1.6 4.64316 16.9701
    endloop
  endfacet
  facet normal 0 0.0653099 -0.997865
    outer loop
      vertex 1.6 5.1 17
      vertex 0 4.64316 16.9701
      vertex 0 5.1 17
    endloop
  endfacet
  facet normal -0 0.555637 0.831425
    outer loop
      vertex 0 3.35 10.4689
      vertex 1.6 2.96933 10.7233
      vertex 1.6 3.35 10.4689
    endloop
  endfacet
  facet normal 0 0.555637 0.831425
    outer loop
      vertex 1.6 2.96933 10.7233
      vertex 0 3.35 10.4689
      vertex 0 2.96933 10.7233
    endloop
  endfacet
  facet normal 0 -0.195263 0.980751
    outer loop
      vertex 0 6.00587 10.1193
      vertex 1.6 5.55684 10.0299
      vertex 1.6 6.00587 10.1193
    endloop
  endfacet
  facet normal 0 -0.195263 0.980751
    outer loop
      vertex 1.6 5.55684 10.0299
      vertex 0 6.00587 10.1193
      vertex 0 5.55684 10.0299
    endloop
  endfacet
  facet normal 0 0.946926 -0.321452
    outer loop
      vertex 1.6 1.71926 14.4059
      vertex 0 1.86642 14.8394
      vertex 1.6 1.86642 14.8394
    endloop
  endfacet
  facet normal 0 0.946926 -0.321452
    outer loop
      vertex 0 1.86642 14.8394
      vertex 1.6 1.71926 14.4059
      vertex 0 1.71926 14.4059
    endloop
  endfacet
  facet normal -0 0.442305 0.896864
    outer loop
      vertex 0 3.76061 10.2664
      vertex 1.6 3.35 10.4689
      vertex 1.6 3.76061 10.2664
    endloop
  endfacet
  facet normal 0 0.442305 0.896864
    outer loop
      vertex 1.6 3.35 10.4689
      vertex 0 3.76061 10.2664
      vertex 0 3.35 10.4689
    endloop
  endfacet
  facet normal -0 0.321322 0.94697
    outer loop
      vertex 0 4.19413 10.1193
      vertex 1.6 3.76061 10.2664
      vertex 1.6 4.19413 10.1193
    endloop
  endfacet
  facet normal 0 0.321322 0.94697
    outer loop
      vertex 1.6 3.76061 10.2664
      vertex 0 4.19413 10.1193
      vertex 0 3.76061 10.2664
    endloop
  endfacet
  facet normal 0 -0.442305 0.896864
    outer loop
      vertex 0 6.85 10.4689
      vertex 1.6 6.43939 10.2664
      vertex 1.6 6.85 10.4689
    endloop
  endfacet
  facet normal 0 -0.442305 0.896864
    outer loop
      vertex 1.6 6.43939 10.2664
      vertex 0 6.85 10.4689
      vertex 0 6.43939 10.2664
    endloop
  endfacet
  facet normal -0 0.0653099 0.997865
    outer loop
      vertex 0 5.1 10
      vertex 1.6 4.64316 10.0299
      vertex 1.6 5.1 10
    endloop
  endfacet
  facet normal 0 0.0653099 0.997865
    outer loop
      vertex 1.6 4.64316 10.0299
      vertex 0 5.1 10
      vertex 0 4.64316 10.0299
    endloop
  endfacet
  facet normal 0 0.195263 -0.980751
    outer loop
      vertex 0 4.19413 16.8807
      vertex 1.6 4.64316 16.9701
      vertex 1.6 4.19413 16.8807
    endloop
  endfacet
  facet normal 0 0.195263 -0.980751
    outer loop
      vertex 1.6 4.64316 16.9701
      vertex 0 4.19413 16.8807
      vertex 0 4.64316 16.9701
    endloop
  endfacet
  facet normal 0 -0.751824 0.659364
    outer loop
      vertex 0 7.57487 11.0251
      vertex 1.6 7.87674 11.3693
      vertex 0 7.87674 11.3693
    endloop
  endfacet
  facet normal 0 -0.751824 0.659364
    outer loop
      vertex 1.6 7.87674 11.3693
      vertex 0 7.57487 11.0251
      vertex 1.6 7.57487 11.0251
    endloop
  endfacet
  facet normal 0 -0.98079 -0.195066
    outer loop
      vertex 0 8.57006 13.9568
      vertex 1.6 8.48074 14.4059
      vertex 0 8.48074 14.4059
    endloop
  endfacet
  facet normal 0 -0.98079 -0.195066
    outer loop
      vertex 1.6 8.48074 14.4059
      vertex 0 8.57006 13.9568
      vertex 1.6 8.57006 13.9568
    endloop
  endfacet
  facet normal 0 -0.555647 0.831418
    outer loop
      vertex 0 7.23066 10.7233
      vertex 1.6 6.85 10.4689
      vertex 1.6 7.23066 10.7233
    endloop
  endfacet
  facet normal 0 -0.555647 0.831418
    outer loop
      vertex 1.6 6.85 10.4689
      vertex 0 7.23066 10.7233
      vertex 0 6.85 10.4689
    endloop
  endfacet
  facet normal 0 0.896869 -0.442297
    outer loop
      vertex 1.6 1.86642 14.8394
      vertex 0 2.06891 15.25
      vertex 1.6 2.06891 15.25
    endloop
  endfacet
  facet normal 0 0.896869 -0.442297
    outer loop
      vertex 0 2.06891 15.25
      vertex 1.6 1.86642 14.8394
      vertex 0 1.86642 14.8394
    endloop
  endfacet
  facet normal 0 -0.896869 -0.442297
    outer loop
      vertex 0 8.33358 14.8394
      vertex 1.6 8.13109 15.25
      vertex 0 8.13109 15.25
    endloop
  endfacet
  facet normal 0 -0.896869 -0.442297
    outer loop
      vertex 1.6 8.13109 15.25
      vertex 0 8.33358 14.8394
      vertex 1.6 8.33358 14.8394
    endloop
  endfacet
  facet normal 0 0.831495 -0.555532
    outer loop
      vertex 1.6 2.06891 15.25
      vertex 0 2.32326 15.6307
      vertex 1.6 2.32326 15.6307
    endloop
  endfacet
  facet normal 0 0.831495 -0.555532
    outer loop
      vertex 0 2.32326 15.6307
      vertex 1.6 2.06891 15.25
      vertex 0 2.06891 15.25
    endloop
  endfacet
  facet normal 0 0.997859 -0.0654026
    outer loop
      vertex 1.6 1.6 13.5
      vertex 0 1.62994 13.9568
      vertex 1.6 1.62994 13.9568
    endloop
  endfacet
  facet normal 0 0.997859 -0.0654026
    outer loop
      vertex 0 1.62994 13.9568
      vertex 1.6 1.6 13.5
      vertex 0 1.6 13.5
    endloop
  endfacet
  facet normal 0 0.442305 -0.896864
    outer loop
      vertex 0 3.35 16.5311
      vertex 1.6 3.76061 16.7336
      vertex 1.6 3.35 16.5311
    endloop
  endfacet
  facet normal 0 0.442305 -0.896864
    outer loop
      vertex 1.6 3.76061 16.7336
      vertex 0 3.35 16.5311
      vertex 0 3.76061 16.7336
    endloop
  endfacet
  facet normal 0 -0.831495 0.555532
    outer loop
      vertex 0 7.87674 11.3693
      vertex 1.6 8.13109 11.75
      vertex 0 8.13109 11.75
    endloop
  endfacet
  facet normal 0 -0.831495 0.555532
    outer loop
      vertex 1.6 8.13109 11.75
      vertex 0 7.87674 11.3693
      vertex 1.6 7.87674 11.3693
    endloop
  endfacet
  facet normal 0 0.896869 0.442297
    outer loop
      vertex 1.6 2.06891 11.75
      vertex 0 1.86642 12.1606
      vertex 1.6 1.86642 12.1606
    endloop
  endfacet
  facet normal 0 0.896869 0.442297
    outer loop
      vertex 0 1.86642 12.1606
      vertex 1.6 2.06891 11.75
      vertex 0 2.06891 11.75
    endloop
  endfacet
  facet normal 0 -0.0653099 -0.997865
    outer loop
      vertex 0 5.1 17
      vertex 1.6 5.55684 16.9701
      vertex 1.6 5.1 17
    endloop
  endfacet
  facet normal -0 -0.0653099 -0.997865
    outer loop
      vertex 1.6 5.55684 16.9701
      vertex 0 5.1 17
      vertex 0 5.55684 16.9701
    endloop
  endfacet
  facet normal -0 0.659278 0.7519
    outer loop
      vertex 0 2.96933 10.7233
      vertex 1.6 2.62513 11.0251
      vertex 1.6 2.96933 10.7233
    endloop
  endfacet
  facet normal 0 0.659278 0.7519
    outer loop
      vertex 1.6 2.62513 11.0251
      vertex 0 2.96933 10.7233
      vertex 0 2.62513 11.0251
    endloop
  endfacet
  facet normal 0 -0.321322 0.94697
    outer loop
      vertex 0 6.43939 10.2664
      vertex 1.6 6.00587 10.1193
      vertex 1.6 6.43939 10.2664
    endloop
  endfacet
  facet normal 0 -0.321322 0.94697
    outer loop
      vertex 1.6 6.00587 10.1193
      vertex 0 6.43939 10.2664
      vertex 0 6.00587 10.1193
    endloop
  endfacet
  facet normal 0 -0.659267 -0.751909
    outer loop
      vertex 0 7.23066 16.2767
      vertex 1.6 7.57487 15.9749
      vertex 1.6 7.23066 16.2767
    endloop
  endfacet
  facet normal -0 -0.659267 -0.751909
    outer loop
      vertex 1.6 7.57487 15.9749
      vertex 0 7.23066 16.2767
      vertex 0 7.57487 15.9749
    endloop
  endfacet
  facet normal 0 0.555637 -0.831425
    outer loop
      vertex 0 2.96933 16.2767
      vertex 1.6 3.35 16.5311
      vertex 1.6 2.96933 16.2767
    endloop
  endfacet
  facet normal 0 0.555637 -0.831425
    outer loop
      vertex 1.6 3.35 16.5311
      vertex 0 2.96933 16.2767
      vertex 0 3.35 16.5311
    endloop
  endfacet
  facet normal 0 -0.195263 -0.980751
    outer loop
      vertex 0 5.55684 16.9701
      vertex 1.6 6.00587 16.8807
      vertex 1.6 5.55684 16.9701
    endloop
  endfacet
  facet normal -0 -0.195263 -0.980751
    outer loop
      vertex 1.6 6.00587 16.8807
      vertex 0 5.55684 16.9701
      vertex 0 6.00587 16.8807
    endloop
  endfacet
  facet normal 0 -0.831495 -0.555532
    outer loop
      vertex 0 8.13109 15.25
      vertex 1.6 7.87674 15.6307
      vertex 0 7.87674 15.6307
    endloop
  endfacet
  facet normal 0 -0.831495 -0.555532
    outer loop
      vertex 1.6 7.87674 15.6307
      vertex 0 8.13109 15.25
      vertex 1.6 8.13109 15.25
    endloop
  endfacet
  facet normal 0 0.659278 -0.7519
    outer loop
      vertex 0 2.62513 15.9749
      vertex 1.6 2.96933 16.2767
      vertex 1.6 2.62513 15.9749
    endloop
  endfacet
  facet normal 0 0.659278 -0.7519
    outer loop
      vertex 1.6 2.96933 16.2767
      vertex 0 2.62513 15.9749
      vertex 0 2.96933 16.2767
    endloop
  endfacet
  facet normal 0 -0.555647 -0.831418
    outer loop
      vertex 0 6.85 16.5311
      vertex 1.6 7.23066 16.2767
      vertex 1.6 6.85 16.5311
    endloop
  endfacet
  facet normal -0 -0.555647 -0.831418
    outer loop
      vertex 1.6 7.23066 16.2767
      vertex 0 6.85 16.5311
      vertex 0 7.23066 16.2767
    endloop
  endfacet
  facet normal 0 -0.442305 -0.896864
    outer loop
      vertex 0 6.43939 16.7336
      vertex 1.6 6.85 16.5311
      vertex 1.6 6.43939 16.7336
    endloop
  endfacet
  facet normal -0 -0.442305 -0.896864
    outer loop
      vertex 1.6 6.85 16.5311
      vertex 0 6.43939 16.7336
      vertex 0 6.85 16.5311
    endloop
  endfacet
  facet normal 0 0.98079 -0.195066
    outer loop
      vertex 1.6 1.62994 13.9568
      vertex 0 1.71926 14.4059
      vertex 1.6 1.71926 14.4059
    endloop
  endfacet
  facet normal 0 0.98079 -0.195066
    outer loop
      vertex 0 1.71926 14.4059
      vertex 1.6 1.62994 13.9568
      vertex 0 1.62994 13.9568
    endloop
  endfacet
  facet normal -1 0 0
    outer loop
      vertex 44.2 0 10
      vertex 44.2 1.6 13.5
      vertex 44.2 1.6 10
    endloop
  endfacet
  facet normal -1 -0 0
    outer loop
      vertex 44.2 1.6 13.5
      vertex 44.2 0 10
      vertex 44.2 0 13.5
    endloop
  endfacet
  facet normal 0 0 -1
    outer loop
      vertex 34.2 0 13.5
      vertex 44.2 1.6 13.5
      vertex 44.2 0 13.5
    endloop
  endfacet
  facet normal -0 0 -1
    outer loop
      vertex 44.2 1.6 13.5
      vertex 34.2 0 13.5
      vertex 34.2 1.6 13.5
    endloop
  endfacet
  facet normal -0 0 1
    outer loop
      vertex 34.2 1.6 10
      vertex 44.2 0 10
      vertex 44.2 1.6 10
    endloop
  endfacet
  facet normal 0 0 1
    outer loop
      vertex 44.2 0 10
      vertex 34.2 1.6 10
      vertex 34.2 0 10
    endloop
  endfacet
  facet normal 1 -0 0
    outer loop
      vertex 34.2 0 13.5
      vertex 34.2 1.6 10
      vertex 34.2 1.6 13.5
    endloop
  endfacet
  facet normal 1 0 0
    outer loop
      vertex 34.2 1.6 10
      vertex 34.2 0 13.5
      vertex 34.2 0 10
    endloop
  endfacet
  facet normal 0 0 -1
    outer loop
      vertex 48.2 1.1 12
      vertex 46.6 1.6 12
      vertex 48.2 9.1 12
    endloop
  endfacet
  facet normal 0 0 -1
    outer loop
      vertex 46.59 1.1 12
      vertex 46.6 1.6 12
      vertex 48.2 1.1 12
    endloop
  endfacet
  facet normal -0 0 -1
    outer loop
      vertex 46.6 1.6 12
      vertex 46.59 1.1 12
      vertex 46.59 1.6 12
    endloop
  endfacet
  facet normal 0 0 -1
    outer loop
      vertex 46.6 8.6 12
      vertex 48.2 9.1 12
      vertex 46.6 1.6 12
    endloop
  endfacet
  facet normal 0 0 -1
    outer loop
      vertex 46.59 9.1 12
      vertex 46.6 8.6 12
      vertex 46.59 8.6 12
    endloop
  endfacet
  facet normal 0 0 -1
    outer loop
      vertex 46.6 8.6 12
      vertex 46.59 9.1 12
      vertex 48.2 9.1 12
    endloop
  endfacet
  facet normal 0 0 1
    outer loop
      vertex 48.2 9.1 9
      vertex 46.6 8.6 9
      vertex 48.2 1.1 9
    endloop
  endfacet
  facet normal -0 0 1
    outer loop
      vertex 46.59 9.1 9
      vertex 46.6 8.6 9
      vertex 48.2 9.1 9
    endloop
  endfacet
  facet normal 0 0 1
    outer loop
      vertex 46.6 8.6 9
      vertex 46.59 9.1 9
      vertex 46.59 8.6 9
    endloop
  endfacet
  facet normal -0 0 1
    outer loop
      vertex 46.6 1.6 9
      vertex 48.2 1.1 9
      vertex 46.6 8.6 9
    endloop
  endfacet
  facet normal 0 0 1
    outer loop
      vertex 46.59 1.1 9
      vertex 46.6 1.6 9
      vertex 46.59 1.6 9
    endloop
  endfacet
  facet normal 0 0 1
    outer loop
      vertex 46.6 1.6 9
      vertex 46.59 1.1 9
      vertex 48.2 1.1 9
    endloop
  endfacet
  facet normal 1 -0 0
    outer loop
      vertex 46.59 8.6 12
      vertex 46.59 9.1 9
      vertex 46.59 9.1 12
    endloop
  endfacet
  facet normal 1 0 0
    outer loop
      vertex 46.59 9.1 9
      vertex 46.59 8.6 12
      vertex 46.59 8.6 9
    endloop
  endfacet
  facet normal 1 -0 0
    outer loop
      vertex 46.59 1.1 12
      vertex 46.59 1.6 9
      vertex 46.59 1.6 12
    endloop
  endfacet
  facet normal 1 0 0
    outer loop
      vertex 46.59 1.6 9
      vertex 46.59 1.1 12
      vertex 46.59 1.1 9
    endloop
  endfacet
  facet normal 0 -1 0
    outer loop
      vertex 46.59 9.1 9
      vertex 48.2 9.1 12
      vertex 46.59 9.1 12
    endloop
  endfacet
  facet normal 0 -1 -0
    outer loop
      vertex 48.2 9.1 12
      vertex 46.59 9.1 9
      vertex 48.2 9.1 9
    endloop
  endfacet
  facet normal 0 1 -0
    outer loop
      vertex 48.2 1.1 9
      vertex 46.59 1.1 12
      vertex 48.2 1.1 12
    endloop
  endfacet
  facet normal 0 1 0
    outer loop
      vertex 46.59 1.1 12
      vertex 48.2 1.1 9
      vertex 46.59 1.1 9
    endloop
  endfacet
  facet normal 0.980815 0.19494 0
    outer loop
      vertex 48.1914 9.33052 28.6
      vertex 48.1659 9.45882 0
      vertex 48.1659 9.45882 28.6
    endloop
  endfacet
  facet normal 0.980815 0.19494 0
    outer loop
      vertex 48.1659 9.45882 0
      vertex 48.1914 9.33052 28.6
      vertex 48.1914 9.33052 0
    endloop
  endfacet
  facet normal 0.321404 -0.946942 0
    outer loop
      vertex 47.4588 0.0340729 0
      vertex 47.5827 0.0761261 28.6
      vertex 47.4588 0.0340729 28.6
    endloop
  endfacet
  facet normal 0.321404 -0.946942 0
    outer loop
      vertex 47.5827 0.0761261 28.6
      vertex 47.4588 0.0340729 0
      vertex 47.5827 0.0761261 0
    endloop
  endfacet
  facet normal 0 -1 0
    outer loop
      vertex 1 0 28.6
      vertex 34.2 0 13.5
      vertex 47.2 0 28.6
    endloop
  endfacet
  facet normal 0 -1 0
    outer loop
      vertex 1 0 0
      vertex 34.2 0 13.5
      vertex 1 0 28.6
    endloop
  endfacet
  facet normal 0 -1 0
    outer loop
      vertex 47.2 0 0
      vertex 34.2 0 10
      vertex 1 0 0
    endloop
  endfacet
  facet normal 0 -1 -0
    outer loop
      vertex 34.2 0 13.5
      vertex 1 0 0
      vertex 34.2 0 10
    endloop
  endfacet
  facet normal 0 -1 0
    outer loop
      vertex 44.2 0 13.5
      vertex 47.2 0 28.6
      vertex 34.2 0 13.5
    endloop
  endfacet
  facet normal 0 -1 0
    outer loop
      vertex 47.2 0 0
      vertex 44.2 0 13.5
      vertex 44.2 0 10
    endloop
  endfacet
  facet normal 0 -1 0
    outer loop
      vertex 44.2 0 13.5
      vertex 47.2 0 0
      vertex 47.2 0 28.6
    endloop
  endfacet
  facet normal 0 -1 0
    outer loop
      vertex 34.2 0 10
      vertex 47.2 0 0
      vertex 44.2 0 10
    endloop
  endfacet
  facet normal 0.195033 -0.980797 0
    outer loop
      vertex 47.3305 0.00856018 0
      vertex 47.4588 0.0340729 28.6
      vertex 47.3305 0.00856018 28.6
    endloop
  endfacet
  facet normal 0.195033 -0.980797 0
    outer loop
      vertex 47.4588 0.0340729 28.6
      vertex 47.3305 0.00856018 0
      vertex 47.4588 0.0340729 0
    endloop
  endfacet
  facet normal 0.659533 0.751676 -0
    outer loop
      vertex 47.9071 9.9071 0
      vertex 47.8088 9.99335 28.6
      vertex 47.9071 9.9071 28.6
    endloop
  endfacet
  facet normal 0.659533 0.751676 0
    outer loop
      vertex 47.8088 9.99335 28.6
      vertex 47.9071 9.9071 0
      vertex 47.8088 9.99335 0
    endloop
  endfacet
  facet normal -0.0654426 -0.997856 0
    outer loop
      vertex 0.869476 0.00856018 0
      vertex 1 0 28.6
      vertex 0.869476 0.00856018 28.6
    endloop
  endfacet
  facet normal -0.0654426 -0.997856 -0
    outer loop
      vertex 1 0 28.6
      vertex 0.869476 0.00856018 0
      vertex 1 0 0
    endloop
  endfacet
  facet normal -0.751839 0.659346 0
    outer loop
      vertex 0.20665 9.80876 0
      vertex 0.292892 9.9071 28.6
      vertex 0.292892 9.9071 0
    endloop
  endfacet
  facet normal -0.751839 0.659346 0
    outer loop
      vertex 0.292892 9.9071 28.6
      vertex 0.20665 9.80876 0
      vertex 0.20665 9.80876 28.6
    endloop
  endfacet
  facet normal 0.0654546 -0.997856 0
    outer loop
      vertex 47.2 0 0
      vertex 47.3305 0.00856018 28.6
      vertex 47.2 0 28.6
    endloop
  endfacet
  facet normal 0.0654546 -0.997856 0
    outer loop
      vertex 47.3305 0.00856018 28.6
      vertex 47.2 0 0
      vertex 47.3305 0.00856018 0
    endloop
  endfacet
  facet normal -0.0657457 0.997836 0
    outer loop
      vertex 1 10.2 0
      vertex 0.869476 10.1914 28.6
      vertex 1 10.2 28.6
    endloop
  endfacet
  facet normal -0.0657457 0.997836 0
    outer loop
      vertex 0.869476 10.1914 28.6
      vertex 1 10.2 0
      vertex 0.869476 10.1914 0
    endloop
  endfacet
  facet normal 0 1 -0
    outer loop
      vertex 47.2 10.2 0
      vertex 1 10.2 28.6
      vertex 47.2 10.2 28.6
    endloop
  endfacet
  facet normal 0 1 0
    outer loop
      vertex 1 10.2 28.6
      vertex 47.2 10.2 0
      vertex 1 10.2 0
    endloop
  endfacet
  facet normal 0.997836 0.0657477 0
    outer loop
      vertex 48.2 9.2 28.6
      vertex 48.1914 9.33052 0
      vertex 48.1914 9.33052 28.6
    endloop
  endfacet
  facet normal 0.997836 0.0657477 0
    outer loop
      vertex 48.1914 9.33052 0
      vertex 48.2 9.2 28.6
      vertex 48.2 9.2 0
    endloop
  endfacet
  facet normal -0.997856 -0.0654426 0
    outer loop
      vertex 0.00856018 0.869476 0
      vertex 0 1 28.6
      vertex 0 1 0
    endloop
  endfacet
  facet normal -0.997856 -0.0654426 0
    outer loop
      vertex 0 1 28.6
      vertex 0.00856018 0.869476 0
      vertex 0.00856018 0.869476 28.6
    endloop
  endfacet
  facet normal -0.946918 0.321474 0
    outer loop
      vertex 0.0340729 9.45882 0
      vertex 0.0761261 9.58269 28.6
      vertex 0.0761261 9.58269 0
    endloop
  endfacet
  facet normal -0.946918 0.321474 0
    outer loop
      vertex 0.0761261 9.58269 28.6
      vertex 0.0340729 9.45882 0
      vertex 0.0340729 9.45882 28.6
    endloop
  endfacet
  facet normal 0.0657577 0.997836 -0
    outer loop
      vertex 47.3305 10.1914 0
      vertex 47.2 10.2 28.6
      vertex 47.3305 10.1914 28.6
    endloop
  endfacet
  facet normal 0.0657577 0.997836 0
    outer loop
      vertex 47.2 10.2 28.6
      vertex 47.3305 10.1914 0
      vertex 47.2 10.2 0
    endloop
  endfacet
  facet normal -0.442591 0.896724 0
    outer loop
      vertex 0.61731 10.1239 0
      vertex 0.5 10.066 28.6
      vertex 0.61731 10.1239 28.6
    endloop
  endfacet
  facet normal -0.442591 0.896724 0
    outer loop
      vertex 0.5 10.066 28.6
      vertex 0.61731 10.1239 0
      vertex 0.5 10.066 0
    endloop
  endfacet
  facet normal 0.19494 0.980815 -0
    outer loop
      vertex 47.4588 10.1659 0
      vertex 47.3305 10.1914 28.6
      vertex 47.4588 10.1659 28.6
    endloop
  endfacet
  facet normal 0.19494 0.980815 0
    outer loop
      vertex 47.3305 10.1914 28.6
      vertex 47.4588 10.1659 0
      vertex 47.3305 10.1914 0
    endloop
  endfacet
  facet normal -0.555441 0.831556 0
    outer loop
      vertex 0.5 10.066 0
      vertex 0.391235 9.99335 28.6
      vertex 0.5 10.066 28.6
    endloop
  endfacet
  facet normal -0.555441 0.831556 0
    outer loop
      vertex 0.391235 9.99335 28.6
      vertex 0.5 10.066 0
      vertex 0.391235 9.99335 0
    endloop
  endfacet
  facet normal 0.442621 0.896709 -0
    outer loop
      vertex 47.7 10.066 0
      vertex 47.5827 10.1239 28.6
      vertex 47.7 10.066 28.6
    endloop
  endfacet
  facet normal 0.442621 0.896709 0
    outer loop
      vertex 47.5827 10.1239 28.6
      vertex 47.7 10.066 0
      vertex 47.5827 10.1239 0
    endloop
  endfacet
  facet normal -0.946918 -0.321474 0
    outer loop
      vertex 0.0761261 0.61731 0
      vertex 0.0340729 0.74118 28.6
      vertex 0.0340729 0.74118 0
    endloop
  endfacet
  facet normal -0.946918 -0.321474 0
    outer loop
      vertex 0.0340729 0.74118 28.6
      vertex 0.0761261 0.61731 0
      vertex 0.0761261 0.61731 28.6
    endloop
  endfacet
  facet normal -0.555589 -0.831457 0
    outer loop
      vertex 0.391235 0.20665 0
      vertex 0.5 0.133972 28.6
      vertex 0.391235 0.20665 28.6
    endloop
  endfacet
  facet normal -0.555589 -0.831457 -0
    outer loop
      vertex 0.5 0.133972 28.6
      vertex 0.391235 0.20665 0
      vertex 0.5 0.133972 0
    endloop
  endfacet
  facet normal 0.997836 -0.0657457 0
    outer loop
      vertex 48.1914 0.869476 28.6
      vertex 48.2 1 0
      vertex 48.2 1 28.6
    endloop
  endfacet
  facet normal 0.997836 -0.0657457 0
    outer loop
      vertex 48.2 1 0
      vertex 48.1914 0.869476 28.6
      vertex 48.1914 0.869476 0
    endloop
  endfacet
  facet normal -0.195039 -0.980795 0
    outer loop
      vertex 0.74118 0.0340729 0
      vertex 0.869476 0.00856018 28.6
      vertex 0.74118 0.0340729 28.6
    endloop
  endfacet
  facet normal -0.195039 -0.980795 -0
    outer loop
      vertex 0.869476 0.00856018 28.6
      vertex 0.74118 0.0340729 0
      vertex 0.869476 0.00856018 0
    endloop
  endfacet
  facet normal -0.751849 -0.659335 0
    outer loop
      vertex 0.292892 0.292892 0
      vertex 0.20665 0.391235 28.6
      vertex 0.20665 0.391235 0
    endloop
  endfacet
  facet normal -0.751849 -0.659335 0
    outer loop
      vertex 0.20665 0.391235 28.6
      vertex 0.292892 0.292892 0
      vertex 0.292892 0.292892 28.6
    endloop
  endfacet
  facet normal -1 0 0
    outer loop
      vertex 0 9.2 0
      vertex 0 8.6 13.5
      vertex 0 9.2 28.6
    endloop
  endfacet
  facet normal -1 0 0
    outer loop
      vertex 0 9.2 0
      vertex 0 8.57006 13.0432
      vertex 0 8.6 13.5
    endloop
  endfacet
  facet normal -1 0 0
    outer loop
      vertex 0 9.2 0
      vertex 0 8.48074 12.5941
      vertex 0 8.57006 13.0432
    endloop
  endfacet
  facet normal -1 0 0
    outer loop
      vertex 0 7.9 6.4
      vertex 0 8.48074 12.5941
      vertex 0 9.2 0
    endloop
  endfacet
  facet normal -1 0 0
    outer loop
      vertex 0 8.48074 12.5941
      vertex 0 7.9 6.4
      vertex 0 8.33358 12.1606
    endloop
  endfacet
  facet normal -1 0 0
    outer loop
      vertex 0 7.9 6.4
      vertex 0 9.2 0
      vertex 0 7.9 1.6
    endloop
  endfacet
  facet normal -1 0 0
    outer loop
      vertex 0 7.4 0
      vertex 0 7.9 1.6
      vertex 0 9.2 0
    endloop
  endfacet
  facet normal -1 -0 0
    outer loop
      vertex 0 7.9 1.6
      vertex 0 7.4 0
      vertex 0 7.4 1.6
    endloop
  endfacet
  facet normal -1 0 0
    outer loop
      vertex 0 8.57006 13.9568
      vertex 0 9.2 28.6
      vertex 0 8.6 13.5
    endloop
  endfacet
  facet normal -1 0 0
    outer loop
      vertex 0 8.48074 14.4059
      vertex 0 9.2 28.6
      vertex 0 8.57006 13.9568
    endloop
  endfacet
  facet normal -1 0 0
    outer loop
      vertex 0 8.33358 14.8394
      vertex 0 9.2 28.6
      vertex 0 8.48074 14.4059
    endloop
  endfacet
  facet normal -1 0 0
    outer loop
      vertex 0 8.13109 15.25
      vertex 0 9.2 28.6
      vertex 0 8.33358 14.8394
    endloop
  endfacet
  facet normal -1 0 0
    outer loop
      vertex 0 7.87674 15.6307
      vertex 0 9.2 28.6
      vertex 0 8.13109 15.25
    endloop
  endfacet
  facet normal -1 0 0
    outer loop
      vertex 0 7.57487 15.9749
      vertex 0 9.2 28.6
      vertex 0 7.87674 15.6307
    endloop
  endfacet
  facet normal -1 0 0
    outer loop
      vertex 0 7.23066 16.2767
      vertex 0 9.2 28.6
      vertex 0 7.57487 15.9749
    endloop
  endfacet
  facet normal -1 0 0
    outer loop
      vertex 0 6.85 16.5311
      vertex 0 9.2 28.6
      vertex 0 7.23066 16.2767
    endloop
  endfacet
  facet normal -1 0 0
    outer loop
      vertex 0 6.43939 16.7336
      vertex 0 9.2 28.6
      vertex 0 6.85 16.5311
    endloop
  endfacet
  facet normal -1 0 0
    outer loop
      vertex 0 6.00587 16.8807
      vertex 0 9.2 28.6
      vertex 0 6.43939 16.7336
    endloop
  endfacet
  facet normal -1 0 0
    outer loop
      vertex 0 5.55684 16.9701
      vertex 0 9.2 28.6
      vertex 0 6.00587 16.8807
    endloop
  endfacet
  facet normal -1 0 0
    outer loop
      vertex 0 5.1 17
      vertex 0 9.2 28.6
      vertex 0 5.55684 16.9701
    endloop
  endfacet
  facet normal -1 0 0
    outer loop
      vertex 0 1 28.6
      vertex 0 5.1 17
      vertex 0 4.64316 16.9701
    endloop
  endfacet
  facet normal -1 0 0
    outer loop
      vertex 0 1 28.6
      vertex 0 4.64316 16.9701
      vertex 0 4.19413 16.8807
    endloop
  endfacet
  facet normal -1 0 0
    outer loop
      vertex 0 1 28.6
      vertex 0 4.19413 16.8807
      vertex 0 3.76061 16.7336
    endloop
  endfacet
  facet normal -1 0 0
    outer loop
      vertex 0 1 28.6
      vertex 0 3.76061 16.7336
      vertex 0 3.35 16.5311
    endloop
  endfacet
  facet normal -1 0 0
    outer loop
      vertex 0 1 28.6
      vertex 0 3.35 16.5311
      vertex 0 2.96933 16.2767
    endloop
  endfacet
  facet normal -1 0 0
    outer loop
      vertex 0 1 28.6
      vertex 0 2.96933 16.2767
      vertex 0 2.62513 15.9749
    endloop
  endfacet
  facet normal -1 0 0
    outer loop
      vertex 0 1 28.6
      vertex 0 2.62513 15.9749
      vertex 0 2.32326 15.6307
    endloop
  endfacet
  facet normal -1 0 0
    outer loop
      vertex 0 1 28.6
      vertex 0 2.32326 15.6307
      vertex 0 2.06891 15.25
    endloop
  endfacet
  facet normal -1 0 0
    outer loop
      vertex 0 5.1 17
      vertex 0 1 28.6
      vertex 0 9.2 28.6
    endloop
  endfacet
  facet normal -1 0 0
    outer loop
      vertex 0 1.86642 14.8394
      vertex 0 1 28.6
      vertex 0 2.06891 15.25
    endloop
  endfacet
  facet normal -1 0 0
    outer loop
      vertex 0 1.71926 14.4059
      vertex 0 1 28.6
      vertex 0 1.86642 14.8394
    endloop
  endfacet
  facet normal -1 0 0
    outer loop
      vertex 0 1.62994 13.9568
      vertex 0 1 28.6
      vertex 0 1.71926 14.4059
    endloop
  endfacet
  facet normal -1 0 0
    outer loop
      vertex 0 1.6 13.5
      vertex 0 1 28.6
      vertex 0 1.62994 13.9568
    endloop
  endfacet
  facet normal -1 0 0
    outer loop
      vertex 0 1 28.6
      vertex 0 1.6 13.5
      vertex 0 1 0
    endloop
  endfacet
  facet normal -1 0 0
    outer loop
      vertex 0 8.33358 12.1606
      vertex 0 7.9 6.4
      vertex 0 8.13109 11.75
    endloop
  endfacet
  facet normal -1 0 0
    outer loop
      vertex 0 7.9 6.4
      vertex 0 7.87674 11.3693
      vertex 0 8.13109 11.75
    endloop
  endfacet
  facet normal -1 0 0
    outer loop
      vertex 0 7.9 6.4
      vertex 0 7.57487 11.0251
      vertex 0 7.87674 11.3693
    endloop
  endfacet
  facet normal -1 0 0
    outer loop
      vertex 0 7.9 6.4
      vertex 0 7.23066 10.7233
      vertex 0 7.57487 11.0251
    endloop
  endfacet
  facet normal -1 0 0
    outer loop
      vertex 0 7.9 6.4
      vertex 0 6.85 10.4689
      vertex 0 7.23066 10.7233
    endloop
  endfacet
  facet normal -1 0 0
    outer loop
      vertex 0 7.9 6.4
      vertex 0 6.43939 10.2664
      vertex 0 6.85 10.4689
    endloop
  endfacet
  facet normal -1 0 0
    outer loop
      vertex 0 7.9 6.4
      vertex 0 6.00587 10.1193
      vertex 0 6.43939 10.2664
    endloop
  endfacet
  facet normal -1 0 0
    outer loop
      vertex 0 7.9 6.4
      vertex 0 5.55684 10.0299
      vertex 0 6.00587 10.1193
    endloop
  endfacet
  facet normal -1 0 0
    outer loop
      vertex 0 7.9 6.4
      vertex 0 5.1 10
      vertex 0 5.55684 10.0299
    endloop
  endfacet
  facet normal -1 0 0
    outer loop
      vertex 0 1.6 6.4
      vertex 0 5.1 10
      vertex 0 7.9 6.4
    endloop
  endfacet
  facet normal -1 -0 0
    outer loop
      vertex 0 5.1 10
      vertex 0 1.6 6.4
      vertex 0 4.64316 10.0299
    endloop
  endfacet
  facet normal -1 -0 0
    outer loop
      vertex 0 4.64316 10.0299
      vertex 0 1.6 6.4
      vertex 0 4.19413 10.1193
    endloop
  endfacet
  facet normal -1 -0 0
    outer loop
      vertex 0 4.19413 10.1193
      vertex 0 1.6 6.4
      vertex 0 3.76061 10.2664
    endloop
  endfacet
  facet normal -1 -0 0
    outer loop
      vertex 0 3.76061 10.2664
      vertex 0 1.6 6.4
      vertex 0 3.35 10.4689
    endloop
  endfacet
  facet normal -1 -0 0
    outer loop
      vertex 0 3.35 10.4689
      vertex 0 1.6 6.4
      vertex 0 2.96933 10.7233
    endloop
  endfacet
  facet normal -1 0 0
    outer loop
      vertex 0 1.6 6.4
      vertex 0 2.62513 11.0251
      vertex 0 2.96933 10.7233
    endloop
  endfacet
  facet normal -1 0 0
    outer loop
      vertex 0 1.6 6.4
      vertex 0 2.32326 11.3693
      vertex 0 2.62513 11.0251
    endloop
  endfacet
  facet normal -1 0 0
    outer loop
      vertex 0 1.6 6.4
      vertex 0 2.06891 11.75
      vertex 0 2.32326 11.3693
    endloop
  endfacet
  facet normal -1 0 0
    outer loop
      vertex 0 1.6 6.4
      vertex 0 1.86642 12.1606
      vertex 0 2.06891 11.75
    endloop
  endfacet
  facet normal -1 0 0
    outer loop
      vertex 0 1.6 6.4
      vertex 0 1.71926 12.5941
      vertex 0 1.86642 12.1606
    endloop
  endfacet
  facet normal -1 0 0
    outer loop
      vertex 0 1.6 6.4
      vertex 0 1.62994 13.0432
      vertex 0 1.71926 12.5941
    endloop
  endfacet
  facet normal -1 -0 0
    outer loop
      vertex 0 1.62994 13.0432
      vertex 0 1.6 6.4
      vertex 0 1.6 13.5
    endloop
  endfacet
  facet normal -1 0 0
    outer loop
      vertex 0 2.1 0
      vertex 0 1.6 1.6
      vertex 0 2.1 1.6
    endloop
  endfacet
  facet normal -1 0 0
    outer loop
      vertex 0 1 0
      vertex 0 1.6 6.4
      vertex 0 1.6 1.6
    endloop
  endfacet
  facet normal -1 -0 0
    outer loop
      vertex 0 1.6 6.4
      vertex 0 1 0
      vertex 0 1.6 13.5
    endloop
  endfacet
  facet normal -1 0 0
    outer loop
      vertex 0 1 0
      vertex 0 1.6 1.6
      vertex 0 2.1 0
    endloop
  endfacet
  facet normal 0.831368 0.555723 0
    outer loop
      vertex 48.066 9.7 28.6
      vertex 47.9933 9.80876 0
      vertex 47.9933 9.80876 28.6
    endloop
  endfacet
  facet normal 0.831368 0.555723 0
    outer loop
      vertex 47.9933 9.80876 0
      vertex 48.066 9.7 28.6
      vertex 48.066 9.7 0
    endloop
  endfacet
  facet normal 0.896724 -0.442591 0
    outer loop
      vertex 48.066 0.5 28.6
      vertex 48.1239 0.61731 0
      vertex 48.1239 0.61731 28.6
    endloop
  endfacet
  facet normal 0.896724 -0.442591 0
    outer loop
      vertex 48.1239 0.61731 0
      vertex 48.066 0.5 28.6
      vertex 48.066 0.5 0
    endloop
  endfacet
  facet normal 0.947042 -0.321109 0
    outer loop
      vertex 48.1239 0.61731 28.6
      vertex 48.1659 0.74118 0
      vertex 48.1659 0.74118 28.6
    endloop
  endfacet
  facet normal 0.947042 -0.321109 0
    outer loop
      vertex 48.1659 0.74118 0
      vertex 48.1239 0.61731 28.6
      vertex 48.1239 0.61731 0
    endloop
  endfacet
  facet normal -0.321109 0.947042 0
    outer loop
      vertex 0.74118 10.1659 0
      vertex 0.61731 10.1239 28.6
      vertex 0.74118 10.1659 28.6
    endloop
  endfacet
  facet normal -0.321109 0.947042 0
    outer loop
      vertex 0.61731 10.1239 28.6
      vertex 0.74118 10.1659 0
      vertex 0.61731 10.1239 0
    endloop
  endfacet
  facet normal -0.831445 0.555607 0
    outer loop
      vertex 0.133972 9.7 0
      vertex 0.20665 9.80876 28.6
      vertex 0.20665 9.80876 0
    endloop
  endfacet
  facet normal -0.831445 0.555607 0
    outer loop
      vertex 0.20665 9.80876 28.6
      vertex 0.133972 9.7 0
      vertex 0.133972 9.7 28.6
    endloop
  endfacet
  facet normal -0.659335 -0.751849 0
    outer loop
      vertex 0.292892 0.292892 0
      vertex 0.391235 0.20665 28.6
      vertex 0.292892 0.292892 28.6
    endloop
  endfacet
  facet normal -0.659335 -0.751849 -0
    outer loop
      vertex 0.391235 0.20665 28.6
      vertex 0.292892 0.292892 0
      vertex 0.391235 0.20665 0
    endloop
  endfacet
  facet normal 0.321039 0.947066 -0
    outer loop
      vertex 47.5827 10.1239 0
      vertex 47.4588 10.1659 28.6
      vertex 47.5827 10.1239 28.6
    endloop
  endfacet
  facet normal 0.321039 0.947066 0
    outer loop
      vertex 47.4588 10.1659 28.6
      vertex 47.5827 10.1239 0
      vertex 47.4588 10.1659 0
    endloop
  endfacet
  facet normal -0.194946 0.980814 0
    outer loop
      vertex 0.869476 10.1914 0
      vertex 0.74118 10.1659 28.6
      vertex 0.869476 10.1914 28.6
    endloop
  endfacet
  facet normal -0.194946 0.980814 0
    outer loop
      vertex 0.74118 10.1659 28.6
      vertex 0.869476 10.1914 0
      vertex 0.74118 10.1659 0
    endloop
  endfacet
  facet normal -0.896888 0.442258 0
    outer loop
      vertex 0.0761261 9.58269 0
      vertex 0.133972 9.7 28.6
      vertex 0.133972 9.7 0
    endloop
  endfacet
  facet normal -0.896888 0.442258 0
    outer loop
      vertex 0.133972 9.7 28.6
      vertex 0.0761261 9.58269 0
      vertex 0.0761261 9.58269 28.6
    endloop
  endfacet
  facet normal 0.831379 -0.555705 0
    outer loop
      vertex 47.9933 0.391235 28.6
      vertex 48.066 0.5 0
      vertex 48.066 0.5 28.6
    endloop
  endfacet
  facet normal 0.831379 -0.555705 0
    outer loop
      vertex 48.066 0.5 0
      vertex 47.9933 0.391235 28.6
      vertex 47.9933 0.391235 0
    endloop
  endfacet
  facet normal -0.980797 0.195033 0
    outer loop
      vertex 0.00856018 9.33052 0
      vertex 0.0340729 9.45882 28.6
      vertex 0.0340729 9.45882 0
    endloop
  endfacet
  facet normal -0.980797 0.195033 0
    outer loop
      vertex 0.0340729 9.45882 28.6
      vertex 0.00856018 9.33052 0
      vertex 0.00856018 9.33052 28.6
    endloop
  endfacet
  facet normal 0.442288 -0.896873 0
    outer loop
      vertex 47.5827 0.0761261 0
      vertex 47.7 0.133972 28.6
      vertex 47.5827 0.0761261 28.6
    endloop
  endfacet
  facet normal 0.442288 -0.896873 0
    outer loop
      vertex 47.7 0.133972 28.6
      vertex 47.5827 0.0761261 0
      vertex 47.7 0.133972 0
    endloop
  endfacet
  facet normal -0.997856 0.0654446 0
    outer loop
      vertex 0 9.2 0
      vertex 0.00856018 9.33052 28.6
      vertex 0.00856018 9.33052 0
    endloop
  endfacet
  facet normal -0.997856 0.0654446 0
    outer loop
      vertex 0.00856018 9.33052 28.6
      vertex 0 9.2 0
      vertex 0 9.2 28.6
    endloop
  endfacet
  facet normal 0 0 -1
    outer loop
      vertex 47.2 10.2 0
      vertex 48.2 9.2 0
      vertex 48.2 7.4 0
    endloop
  endfacet
  facet normal 0 0 -1
    outer loop
      vertex 48.2 9.2 0
      vertex 47.2 10.2 0
      vertex 48.1914 9.33052 0
    endloop
  endfacet
  facet normal 0 0 -1
    outer loop
      vertex 48.1914 9.33052 0
      vertex 47.2 10.2 0
      vertex 48.1659 9.45882 0
    endloop
  endfacet
  facet normal 0 0 -1
    outer loop
      vertex 48.1659 9.45882 0
      vertex 47.2 10.2 0
      vertex 48.1239 9.58269 0
    endloop
  endfacet
  facet normal 0 0 -1
    outer loop
      vertex 48.1239 9.58269 0
      vertex 47.2 10.2 0
      vertex 48.066 9.7 0
    endloop
  endfacet
  facet normal 0 0 -1
    outer loop
      vertex 48.066 9.7 0
      vertex 47.2 10.2 0
      vertex 47.9933 9.80876 0
    endloop
  endfacet
  facet normal 0 0 -1
    outer loop
      vertex 47.9933 9.80876 0
      vertex 47.2 10.2 0
      vertex 47.9071 9.9071 0
    endloop
  endfacet
  facet normal 0 0 -1
    outer loop
      vertex 47.9071 9.9071 0
      vertex 47.2 10.2 0
      vertex 47.8088 9.99335 0
    endloop
  endfacet
  facet normal 0 0 -1
    outer loop
      vertex 47.8088 9.99335 0
      vertex 47.2 10.2 0
      vertex 47.7 10.066 0
    endloop
  endfacet
  facet normal 0 0 -1
    outer loop
      vertex 47.7 10.066 0
      vertex 47.2 10.2 0
      vertex 47.5827 10.1239 0
    endloop
  endfacet
  facet normal 0 0 -1
    outer loop
      vertex 47.5827 10.1239 0
      vertex 47.2 10.2 0
      vertex 47.4588 10.1659 0
    endloop
  endfacet
  facet normal 0 0 -1
    outer loop
      vertex 47.4588 10.1659 0
      vertex 47.2 10.2 0
      vertex 47.3305 10.1914 0
    endloop
  endfacet
  facet normal 0 0 -1
    outer loop
      vertex 48.2 7.4 0
      vertex 1 10.2 0
      vertex 47.2 10.2 0
    endloop
  endfacet
  facet normal 0 0 -1
    outer loop
      vertex 0 7.4 0
      vertex 1 10.2 0
      vertex 48.2 7.4 0
    endloop
  endfacet
  facet normal 0 0 -1
    outer loop
      vertex 0 9.2 0
      vertex 1 10.2 0
      vertex 0 7.4 0
    endloop
  endfacet
  facet normal 0 0 -1
    outer loop
      vertex 1 10.2 0
      vertex 0 9.2 0
      vertex 0.869476 10.1914 0
    endloop
  endfacet
  facet normal 0 0 -1
    outer loop
      vertex 0.869476 10.1914 0
      vertex 0 9.2 0
      vertex 0.74118 10.1659 0
    endloop
  endfacet
  facet normal 0 0 -1
    outer loop
      vertex 0.74118 10.1659 0
      vertex 0 9.2 0
      vertex 0.61731 10.1239 0
    endloop
  endfacet
  facet normal 0 0 -1
    outer loop
      vertex 0.61731 10.1239 0
      vertex 0 9.2 0
      vertex 0.5 10.066 0
    endloop
  endfacet
  facet normal 0 0 -1
    outer loop
      vertex 0.5 10.066 0
      vertex 0 9.2 0
      vertex 0.391235 9.99335 0
    endloop
  endfacet
  facet normal 0 0 -1
    outer loop
      vertex 0.391235 9.99335 0
      vertex 0 9.2 0
      vertex 0.292892 9.9071 0
    endloop
  endfacet
  facet normal 0 0 -1
    outer loop
      vertex 0.292892 9.9071 0
      vertex 0 9.2 0
      vertex 0.20665 9.80876 0
    endloop
  endfacet
  facet normal 0 0 -1
    outer loop
      vertex 0.20665 9.80876 0
      vertex 0 9.2 0
      vertex 0.133972 9.7 0
    endloop
  endfacet
  facet normal 0 0 -1
    outer loop
      vertex 0.133972 9.7 0
      vertex 0 9.2 0
      vertex 0.0761261 9.58269 0
    endloop
  endfacet
  facet normal 0 0 -1
    outer loop
      vertex 0.0761261 9.58269 0
      vertex 0 9.2 0
      vertex 0.0340729 9.45882 0
    endloop
  endfacet
  facet normal 0 0 -1
    outer loop
      vertex 0.0340729 9.45882 0
      vertex 0 9.2 0
      vertex 0.00856018 9.33052 0
    endloop
  endfacet
  facet normal 0 0 -1
    outer loop
      vertex 47.2 0 0
      vertex 48.2 1 0
      vertex 48.1914 0.869476 0
    endloop
  endfacet
  facet normal 0 0 -1
    outer loop
      vertex 47.2 0 0
      vertex 48.1914 0.869476 0
      vertex 48.1659 0.74118 0
    endloop
  endfacet
  facet normal 0 0 -1
    outer loop
      vertex 47.2 0 0
      vertex 48.1659 0.74118 0
      vertex 48.1239 0.61731 0
    endloop
  endfacet
  facet normal 0 0 -1
    outer loop
      vertex 47.2 0 0
      vertex 48.1239 0.61731 0
      vertex 48.066 0.5 0
    endloop
  endfacet
  facet normal 0 0 -1
    outer loop
      vertex 47.2 0 0
      vertex 48.066 0.5 0
      vertex 47.9933 0.391235 0
    endloop
  endfacet
  facet normal 0 0 -1
    outer loop
      vertex 47.2 0 0
      vertex 47.9933 0.391235 0
      vertex 47.9071 0.292892 0
    endloop
  endfacet
  facet normal 0 0 -1
    outer loop
      vertex 47.2 0 0
      vertex 47.9071 0.292892 0
      vertex 47.8088 0.20665 0
    endloop
  endfacet
  facet normal 0 0 -1
    outer loop
      vertex 47.2 0 0
      vertex 47.8088 0.20665 0
      vertex 47.7 0.133972 0
    endloop
  endfacet
  facet normal 0 0 -1
    outer loop
      vertex 47.2 0 0
      vertex 47.7 0.133972 0
      vertex 47.5827 0.0761261 0
    endloop
  endfacet
  facet normal 0 0 -1
    outer loop
      vertex 47.2 0 0
      vertex 47.5827 0.0761261 0
      vertex 47.4588 0.0340729 0
    endloop
  endfacet
  facet normal 0 0 -1
    outer loop
      vertex 47.2 0 0
      vertex 47.4588 0.0340729 0
      vertex 47.3305 0.00856018 0
    endloop
  endfacet
  facet normal -0 0 -1
    outer loop
      vertex 48.2 1 0
      vertex 47.2 0 0
      vertex 48.2 2.1 0
    endloop
  endfacet
  facet normal 0 0 -1
    outer loop
      vertex 1 0 0
      vertex 48.2 2.1 0
      vertex 47.2 0 0
    endloop
  endfacet
  facet normal 0 0 -1
    outer loop
      vertex 0 1 0
      vertex 1 0 0
      vertex 0.869476 0.00856018 0
    endloop
  endfacet
  facet normal 0 0 -1
    outer loop
      vertex 0 1 0
      vertex 0.869476 0.00856018 0
      vertex 0.74118 0.0340729 0
    endloop
  endfacet
  facet normal 0 0 -1
    outer loop
      vertex 0 1 0
      vertex 0.74118 0.0340729 0
      vertex 0.61731 0.0761261 0
    endloop
  endfacet
  facet normal 0 0 -1
    outer loop
      vertex 0 1 0
      vertex 0.61731 0.0761261 0
      vertex 0.5 0.133972 0
    endloop
  endfacet
  facet normal 0 0 -1
    outer loop
      vertex 0 1 0
      vertex 0.5 0.133972 0
      vertex 0.391235 0.20665 0
    endloop
  endfacet
  facet normal 0 0 -1
    outer loop
      vertex 0 1 0
      vertex 0.391235 0.20665 0
      vertex 0.292892 0.292892 0
    endloop
  endfacet
  facet normal 0 0 -1
    outer loop
      vertex 0 1 0
      vertex 0.292892 0.292892 0
      vertex 0.20665 0.391235 0
    endloop
  endfacet
  facet normal 0 0 -1
    outer loop
      vertex 0 1 0
      vertex 0.20665 0.391235 0
      vertex 0.133972 0.5 0
    endloop
  endfacet
  facet normal 0 0 -1
    outer loop
      vertex 0 1 0
      vertex 0.133972 0.5 0
      vertex 0.0761261 0.61731 0
    endloop
  endfacet
  facet normal 0 0 -1
    outer loop
      vertex 0 1 0
      vertex 0.0761261 0.61731 0
      vertex 0.0340729 0.74118 0
    endloop
  endfacet
  facet normal 0 0 -1
    outer loop
      vertex 0 1 0
      vertex 0.0340729 0.74118 0
      vertex 0.00856018 0.869476 0
    endloop
  endfacet
  facet normal 0 0 -1
    outer loop
      vertex 1 0 0
      vertex 0 1 0
      vertex 0 2.1 0
    endloop
  endfacet
  facet normal 0 0 -1
    outer loop
      vertex 1 0 0
      vertex 0 2.1 0
      vertex 48.2 2.1 0
    endloop
  endfacet
  facet normal -0.896888 -0.442258 0
    outer loop
      vertex 0.133972 0.5 0
      vertex 0.0761261 0.61731 28.6
      vertex 0.0761261 0.61731 0
    endloop
  endfacet
  facet normal -0.896888 -0.442258 0
    outer loop
      vertex 0.0761261 0.61731 28.6
      vertex 0.133972 0.5 0
      vertex 0.133972 0.5 28.6
    endloop
  endfacet
  facet normal 1 -0 0
    outer loop
      vertex 48.2 1.1 9
      vertex 48.2 7.9 6.4
      vertex 48.2 9.1 9
    endloop
  endfacet
  facet normal 1 0 0
    outer loop
      vertex 48.2 1 0
      vertex 48.2 1.6 6.4
      vertex 48.2 1.1 9
    endloop
  endfacet
  facet normal 1 0 0
    outer loop
      vertex 48.2 7.9 6.4
      vertex 48.2 1.1 9
      vertex 48.2 1.6 6.4
    endloop
  endfacet
  facet normal 1 0 0
    outer loop
      vertex 48.2 9.2 28.6
      vertex 48.2 9.1 12
      vertex 48.2 9.2 0
    endloop
  endfacet
  facet normal 1 0 0
    outer loop
      vertex 48.2 9.2 28.6
      vertex 48.2 1.1 12
      vertex 48.2 9.1 12
    endloop
  endfacet
  facet normal 1 0 0
    outer loop
      vertex 48.2 1.1 12
      vertex 48.2 1 28.6
      vertex 48.2 1.1 9
    endloop
  endfacet
  facet normal 1 -0 0
    outer loop
      vertex 48.2 1 28.6
      vertex 48.2 1.1 12
      vertex 48.2 9.2 28.6
    endloop
  endfacet
  facet normal 1 -0 0
    outer loop
      vertex 48.2 9.1 9
      vertex 48.2 9.2 0
      vertex 48.2 9.1 12
    endloop
  endfacet
  facet normal 1 -0 0
    outer loop
      vertex 48.2 7.9 6.4
      vertex 48.2 9.2 0
      vertex 48.2 9.1 9
    endloop
  endfacet
  facet normal 1 -0 0
    outer loop
      vertex 48.2 7.9 1.6
      vertex 48.2 9.2 0
      vertex 48.2 7.9 6.4
    endloop
  endfacet
  facet normal 1 0 0
    outer loop
      vertex 48.2 7.4 0
      vertex 48.2 7.9 1.6
      vertex 48.2 7.4 1.6
    endloop
  endfacet
  facet normal 1 0 0
    outer loop
      vertex 48.2 7.9 1.6
      vertex 48.2 7.4 0
      vertex 48.2 9.2 0
    endloop
  endfacet
  facet normal 1 -0 0
    outer loop
      vertex 48.2 1.6 1.6
      vertex 48.2 2.1 0
      vertex 48.2 2.1 1.6
    endloop
  endfacet
  facet normal 1 0 0
    outer loop
      vertex 48.2 1.6 1.6
      vertex 48.2 1 0
      vertex 48.2 2.1 0
    endloop
  endfacet
  facet normal 1 0 0
    outer loop
      vertex 48.2 1.6 6.4
      vertex 48.2 1 0
      vertex 48.2 1.6 1.6
    endloop
  endfacet
  facet normal 1 0 0
    outer loop
      vertex 48.2 1 0
      vertex 48.2 1.1 9
      vertex 48.2 1 28.6
    endloop
  endfacet
  facet normal 0.751998 0.659165 0
    outer loop
      vertex 47.9933 9.80876 28.6
      vertex 47.9071 9.9071 0
      vertex 47.9071 9.9071 28.6
    endloop
  endfacet
  facet normal 0.751998 0.659165 0
    outer loop
      vertex 47.9071 9.9071 0
      vertex 47.9933 9.80876 28.6
      vertex 47.9933 9.80876 0
    endloop
  endfacet
  facet normal 0.752008 -0.659153 0
    outer loop
      vertex 47.9071 0.292892 28.6
      vertex 47.9933 0.391235 0
      vertex 47.9933 0.391235 28.6
    endloop
  endfacet
  facet normal 0.752008 -0.659153 0
    outer loop
      vertex 47.9933 0.391235 0
      vertex 47.9071 0.292892 28.6
      vertex 47.9071 0.292892 0
    endloop
  endfacet
  facet normal 0.947042 0.321109 0
    outer loop
      vertex 48.1659 9.45882 28.6
      vertex 48.1239 9.58269 0
      vertex 48.1239 9.58269 28.6
    endloop
  endfacet
  facet normal 0.947042 0.321109 0
    outer loop
      vertex 48.1239 9.58269 0
      vertex 48.1659 9.45882 28.6
      vertex 48.1659 9.45882 0
    endloop
  endfacet
  facet normal -0.65937 0.751819 0
    outer loop
      vertex 0.391235 9.99335 0
      vertex 0.292892 9.9071 28.6
      vertex 0.391235 9.99335 28.6
    endloop
  endfacet
  facet normal -0.65937 0.751819 0
    outer loop
      vertex 0.292892 9.9071 28.6
      vertex 0.391235 9.99335 0
      vertex 0.292892 9.9071 0
    endloop
  endfacet
  facet normal -0.831457 -0.555589 0
    outer loop
      vertex 0.20665 0.391235 0
      vertex 0.133972 0.5 28.6
      vertex 0.133972 0.5 0
    endloop
  endfacet
  facet normal -0.831457 -0.555589 0
    outer loop
      vertex 0.133972 0.5 28.6
      vertex 0.20665 0.391235 0
      vertex 0.20665 0.391235 28.6
    endloop
  endfacet
  facet normal 0.896724 0.442591 0
    outer loop
      vertex 48.1239 9.58269 28.6
      vertex 48.066 9.7 0
      vertex 48.066 9.7 28.6
    endloop
  endfacet
  facet normal 0.896724 0.442591 0
    outer loop
      vertex 48.066 9.7 0
      vertex 48.1239 9.58269 28.6
      vertex 48.1239 9.58269 0
    endloop
  endfacet
  facet normal -0.442258 -0.896888 0
    outer loop
      vertex 0.5 0.133972 0
      vertex 0.61731 0.0761261 28.6
      vertex 0.5 0.133972 28.6
    endloop
  endfacet
  facet normal -0.442258 -0.896888 -0
    outer loop
      vertex 0.61731 0.0761261 28.6
      vertex 0.5 0.133972 0
      vertex 0.61731 0.0761261 0
    endloop
  endfacet
  facet normal -0.980795 -0.195039 0
    outer loop
      vertex 0.0340729 0.74118 0
      vertex 0.00856018 0.869476 28.6
      vertex 0.00856018 0.869476 0
    endloop
  endfacet
  facet normal -0.980795 -0.195039 0
    outer loop
      vertex 0.00856018 0.869476 28.6
      vertex 0.0340729 0.74118 0
      vertex 0.0340729 0.74118 28.6
    endloop
  endfacet
  facet normal 0.555317 0.831638 -0
    outer loop
      vertex 47.8088 9.99335 0
      vertex 47.7 10.066 28.6
      vertex 47.8088 9.99335 28.6
    endloop
  endfacet
  facet normal 0.555317 0.831638 0
    outer loop
      vertex 47.7 10.066 28.6
      vertex 47.8088 9.99335 0
      vertex 47.7 10.066 0
    endloop
  endfacet
  facet normal -0.321474 -0.946918 0
    outer loop
      vertex 0.61731 0.0761261 0
      vertex 0.74118 0.0340729 28.6
      vertex 0.61731 0.0761261 28.6
    endloop
  endfacet
  facet normal -0.321474 -0.946918 -0
    outer loop
      vertex 0.74118 0.0340729 28.6
      vertex 0.61731 0.0761261 0
      vertex 0.74118 0.0340729 0
    endloop
  endfacet
  facet normal 0.659498 -0.751706 0
    outer loop
      vertex 47.8088 0.20665 0
      vertex 47.9071 0.292892 28.6
      vertex 47.8088 0.20665 28.6
    endloop
  endfacet
  facet normal 0.659498 -0.751706 0
    outer loop
      vertex 47.9071 0.292892 28.6
      vertex 47.8088 0.20665 0
      vertex 47.9071 0.292892 0
    endloop
  endfacet
  facet normal 0 0 1
    outer loop
      vertex 46.6 8.6 28.6
      vertex 48.2 9.2 28.6
      vertex 48.1914 9.33052 28.6
    endloop
  endfacet
  facet normal 0 0 1
    outer loop
      vertex 48.2 9.2 28.6
      vertex 46.6 8.6 28.6
      vertex 48.2 1 28.6
    endloop
  endfacet
  facet normal 0 0 1
    outer loop
      vertex 46.6 8.6 28.6
      vertex 48.1914 9.33052 28.6
      vertex 48.1659 9.45882 28.6
    endloop
  endfacet
  facet normal -0 0 1
    outer loop
      vertex 46.6 1.6 28.6
      vertex 48.2 1 28.6
      vertex 46.6 8.6 28.6
    endloop
  endfacet
  facet normal 0 0 1
    outer loop
      vertex 46.6 8.6 28.6
      vertex 48.1659 9.45882 28.6
      vertex 48.1239 9.58269 28.6
    endloop
  endfacet
  facet normal 0 0 1
    outer loop
      vertex 48.2 1 28.6
      vertex 46.6 1.6 28.6
      vertex 48.1914 0.869476 28.6
    endloop
  endfacet
  facet normal 0 0 1
    outer loop
      vertex 46.6 8.6 28.6
      vertex 48.1239 9.58269 28.6
      vertex 48.066 9.7 28.6
    endloop
  endfacet
  facet normal 0 0 1
    outer loop
      vertex 48.1914 0.869476 28.6
      vertex 46.6 1.6 28.6
      vertex 48.1659 0.74118 28.6
    endloop
  endfacet
  facet normal 0 0 1
    outer loop
      vertex 46.6 8.6 28.6
      vertex 48.066 9.7 28.6
      vertex 47.9933 9.80876 28.6
    endloop
  endfacet
  facet normal 0 0 1
    outer loop
      vertex 48.1659 0.74118 28.6
      vertex 46.6 1.6 28.6
      vertex 48.1239 0.61731 28.6
    endloop
  endfacet
  facet normal 0 0 1
    outer loop
      vertex 46.6 8.6 28.6
      vertex 47.9933 9.80876 28.6
      vertex 47.9071 9.9071 28.6
    endloop
  endfacet
  facet normal 0 0 1
    outer loop
      vertex 48.1239 0.61731 28.6
      vertex 46.6 1.6 28.6
      vertex 48.066 0.5 28.6
    endloop
  endfacet
  facet normal 0 0 1
    outer loop
      vertex 46.6 8.6 28.6
      vertex 47.9071 9.9071 28.6
      vertex 47.8088 9.99335 28.6
    endloop
  endfacet
  facet normal 0 0 1
    outer loop
      vertex 48.066 0.5 28.6
      vertex 46.6 1.6 28.6
      vertex 47.9933 0.391235 28.6
    endloop
  endfacet
  facet normal 0 0 1
    outer loop
      vertex 46.6 8.6 28.6
      vertex 47.8088 9.99335 28.6
      vertex 47.7 10.066 28.6
    endloop
  endfacet
  facet normal 0 0 1
    outer loop
      vertex 47.9933 0.391235 28.6
      vertex 46.6 1.6 28.6
      vertex 47.9071 0.292892 28.6
    endloop
  endfacet
  facet normal 0 0 1
    outer loop
      vertex 46.6 8.6 28.6
      vertex 47.7 10.066 28.6
      vertex 47.5827 10.1239 28.6
    endloop
  endfacet
  facet normal 0 0 1
    outer loop
      vertex 47.9071 0.292892 28.6
      vertex 46.6 1.6 28.6
      vertex 47.8088 0.20665 28.6
    endloop
  endfacet
  facet normal 0 0 1
    outer loop
      vertex 46.6 8.6 28.6
      vertex 47.5827 10.1239 28.6
      vertex 47.4588 10.1659 28.6
    endloop
  endfacet
  facet normal 0 0 1
    outer loop
      vertex 47.8088 0.20665 28.6
      vertex 46.6 1.6 28.6
      vertex 47.7 0.133972 28.6
    endloop
  endfacet
  facet normal 0 0 1
    outer loop
      vertex 46.6 8.6 28.6
      vertex 47.4588 10.1659 28.6
      vertex 47.3305 10.1914 28.6
    endloop
  endfacet
  facet normal 0 0 1
    outer loop
      vertex 47.7 0.133972 28.6
      vertex 46.6 1.6 28.6
      vertex 47.5827 0.0761261 28.6
    endloop
  endfacet
  facet normal 0 0 1
    outer loop
      vertex 46.6 8.6 28.6
      vertex 47.3305 10.1914 28.6
      vertex 47.2 10.2 28.6
    endloop
  endfacet
  facet normal 0 0 1
    outer loop
      vertex 47.5827 0.0761261 28.6
      vertex 46.6 1.6 28.6
      vertex 47.4588 0.0340729 28.6
    endloop
  endfacet
  facet normal 0 0 1
    outer loop
      vertex 47.4588 0.0340729 28.6
      vertex 46.6 1.6 28.6
      vertex 47.3305 0.00856018 28.6
    endloop
  endfacet
  facet normal 0 0 1
    outer loop
      vertex 47.2 10.2 28.6
      vertex 1.6 8.6 28.6
      vertex 46.6 8.6 28.6
    endloop
  endfacet
  facet normal -0 0 1
    outer loop
      vertex 0.869476 10.1914 28.6
      vertex 1.6 8.6 28.6
      vertex 1 10.2 28.6
    endloop
  endfacet
  facet normal -0 0 1
    outer loop
      vertex 1 10.2 28.6
      vertex 1.6 8.6 28.6
      vertex 47.2 10.2 28.6
    endloop
  endfacet
  facet normal 0 0 1
    outer loop
      vertex 47.3305 0.00856018 28.6
      vertex 46.6 1.6 28.6
      vertex 47.2 0 28.6
    endloop
  endfacet
  facet normal -0 0 1
    outer loop
      vertex 1.6 1.6 28.6
      vertex 47.2 0 28.6
      vertex 46.6 1.6 28.6
    endloop
  endfacet
  facet normal 0 0 1
    outer loop
      vertex 1.6 1.6 28.6
      vertex 1 0 28.6
      vertex 47.2 0 28.6
    endloop
  endfacet
  facet normal 0 0 1
    outer loop
      vertex 1.6 8.6 28.6
      vertex 0 9.2 28.6
      vertex 1.6 1.6 28.6
    endloop
  endfacet
  facet normal -0 0 1
    outer loop
      vertex 0.74118 10.1659 28.6
      vertex 1.6 8.6 28.6
      vertex 0.869476 10.1914 28.6
    endloop
  endfacet
  facet normal 0 0 1
    outer loop
      vertex 0 1 28.6
      vertex 1.6 1.6 28.6
      vertex 0 9.2 28.6
    endloop
  endfacet
  facet normal -0 0 1
    outer loop
      vertex 0.61731 10.1239 28.6
      vertex 1.6 8.6 28.6
      vertex 0.74118 10.1659 28.6
    endloop
  endfacet
  facet normal 0 -0 1
    outer loop
      vertex 0.00856018 0.869476 28.6
      vertex 1.6 1.6 28.6
      vertex 0 1 28.6
    endloop
  endfacet
  facet normal -0 0 1
    outer loop
      vertex 0.5 10.066 28.6
      vertex 1.6 8.6 28.6
      vertex 0.61731 10.1239 28.6
    endloop
  endfacet
  facet normal 0 0 1
    outer loop
      vertex 1.6 1.6 28.6
      vertex 0.869476 0.00856018 28.6
      vertex 1 0 28.6
    endloop
  endfacet
  facet normal -0 0 1
    outer loop
      vertex 0.391235 9.99335 28.6
      vertex 1.6 8.6 28.6
      vertex 0.5 10.066 28.6
    endloop
  endfacet
  facet normal 0 0 1
    outer loop
      vertex 1.6 1.6 28.6
      vertex 0.74118 0.0340729 28.6
      vertex 0.869476 0.00856018 28.6
    endloop
  endfacet
  facet normal -0 0 1
    outer loop
      vertex 0.292892 9.9071 28.6
      vertex 1.6 8.6 28.6
      vertex 0.391235 9.99335 28.6
    endloop
  endfacet
  facet normal 0 0 1
    outer loop
      vertex 1.6 1.6 28.6
      vertex 0.61731 0.0761261 28.6
      vertex 0.74118 0.0340729 28.6
    endloop
  endfacet
  facet normal -0 0 1
    outer loop
      vertex 0.20665 9.80876 28.6
      vertex 1.6 8.6 28.6
      vertex 0.292892 9.9071 28.6
    endloop
  endfacet
  facet normal 0 0 1
    outer loop
      vertex 1.6 1.6 28.6
      vertex 0.5 0.133972 28.6
      vertex 0.61731 0.0761261 28.6
    endloop
  endfacet
  facet normal -0 0 1
    outer loop
      vertex 0.133972 9.7 28.6
      vertex 1.6 8.6 28.6
      vertex 0.20665 9.80876 28.6
    endloop
  endfacet
  facet normal 0 0 1
    outer loop
      vertex 1.6 1.6 28.6
      vertex 0.391235 0.20665 28.6
      vertex 0.5 0.133972 28.6
    endloop
  endfacet
  facet normal -0 0 1
    outer loop
      vertex 0.0761261 9.58269 28.6
      vertex 1.6 8.6 28.6
      vertex 0.133972 9.7 28.6
    endloop
  endfacet
  facet normal 0 0 1
    outer loop
      vertex 1.6 1.6 28.6
      vertex 0.292892 0.292892 28.6
      vertex 0.391235 0.20665 28.6
    endloop
  endfacet
  facet normal -0 0 1
    outer loop
      vertex 0.0340729 9.45882 28.6
      vertex 1.6 8.6 28.6
      vertex 0.0761261 9.58269 28.6
    endloop
  endfacet
  facet normal 0 0 1
    outer loop
      vertex 1.6 1.6 28.6
      vertex 0.20665 0.391235 28.6
      vertex 0.292892 0.292892 28.6
    endloop
  endfacet
  facet normal -0 0 1
    outer loop
      vertex 0.00856018 9.33052 28.6
      vertex 1.6 8.6 28.6
      vertex 0.0340729 9.45882 28.6
    endloop
  endfacet
  facet normal 0 0 1
    outer loop
      vertex 1.6 1.6 28.6
      vertex 0.133972 0.5 28.6
      vertex 0.20665 0.391235 28.6
    endloop
  endfacet
  facet normal 0 0 1
    outer loop
      vertex 1.6 8.6 28.6
      vertex 0.00856018 9.33052 28.6
      vertex 0 9.2 28.6
    endloop
  endfacet
  facet normal 0 0 1
    outer loop
      vertex 1.6 1.6 28.6
      vertex 0.0761261 0.61731 28.6
      vertex 0.133972 0.5 28.6
    endloop
  endfacet
  facet normal 0 0 1
    outer loop
      vertex 1.6 1.6 28.6
      vertex 0.0340729 0.74118 28.6
      vertex 0.0761261 0.61731 28.6
    endloop
  endfacet
  facet normal 0 0 1
    outer loop
      vertex 1.6 1.6 28.6
      vertex 0.00856018 0.869476 28.6
      vertex 0.0340729 0.74118 28.6
    endloop
  endfacet
  facet normal 0.980814 -0.194946 0
    outer loop
      vertex 48.1659 0.74118 28.6
      vertex 48.1914 0.869476 0
      vertex 48.1914 0.869476 28.6
    endloop
  endfacet
  facet normal 0.980814 -0.194946 0
    outer loop
      vertex 48.1914 0.869476 0
      vertex 48.1659 0.74118 28.6
      vertex 48.1659 0.74118 0
    endloop
  endfacet
  facet normal 0.555465 -0.83154 0
    outer loop
      vertex 47.7 0.133972 0
      vertex 47.8088 0.20665 28.6
      vertex 47.7 0.133972 28.6
    endloop
  endfacet
  facet normal 0.555465 -0.83154 0
    outer loop
      vertex 47.8088 0.20665 28.6
      vertex 47.7 0.133972 0
      vertex 47.8088 0.20665 0
    endloop
  endfacet
  facet normal 0 0 -1
    outer loop
      vertex 0 1.6 6.4
      vertex 48.2 7.9 6.4
      vertex 48.2 1.6 6.4
    endloop
  endfacet
  facet normal -0 0 -1
    outer loop
      vertex 48.2 7.9 6.4
      vertex 0 1.6 6.4
      vertex 0 7.9 6.4
    endloop
  endfacet
  facet normal -0 0 1
    outer loop
      vertex 0 2.1 1.6
      vertex 48.2 1.6 1.6
      vertex 48.2 2.1 1.6
    endloop
  endfacet
  facet normal 0 0 1
    outer loop
      vertex 48.2 1.6 1.6
      vertex 0 2.1 1.6
      vertex 0 1.6 1.6
    endloop
  endfacet
  facet normal -0 0 1
    outer loop
      vertex 0 7.9 1.6
      vertex 48.2 7.4 1.6
      vertex 48.2 7.9 1.6
    endloop
  endfacet
  facet normal 0 0 1
    outer loop
      vertex 48.2 7.4 1.6
      vertex 0 7.9 1.6
      vertex 0 7.4 1.6
    endloop
  endfacet
  facet normal 0 -1 0
    outer loop
      vertex 0 7.9 1.6
      vertex 48.2 7.9 6.4
      vertex 0 7.9 6.4
    endloop
  endfacet
  facet normal 0 -1 -0
    outer loop
      vertex 48.2 7.9 6.4
      vertex 0 7.9 1.6
      vertex 48.2 7.9 1.6
    endloop
  endfacet
  facet normal 0 1 -0
    outer loop
      vertex 48.2 1.6 1.6
      vertex 0 1.6 6.4
      vertex 48.2 1.6 6.4
    endloop
  endfacet
  facet normal 0 1 0
    outer loop
      vertex 0 1.6 6.4
      vertex 48.2 1.6 1.6
      vertex 0 1.6 1.6
    endloop
  endfacet
  facet normal 0 -1 0
    outer loop
      vertex 0 7.4 0
      vertex 48.2 7.4 1.6
      vertex 0 7.4 1.6
    endloop
  endfacet
  facet normal 0 -1 -0
    outer loop
      vertex 48.2 7.4 1.6
      vertex 0 7.4 0
      vertex 48.2 7.4 0
    endloop
  endfacet
  facet normal 0 1 -0
    outer loop
      vertex 48.2 2.1 0
      vertex 0 2.1 1.6
      vertex 48.2 2.1 1.6
    endloop
  endfacet
  facet normal 0 1 0
    outer loop
      vertex 0 2.1 1.6
      vertex 48.2 2.1 0
      vertex 0 2.1 0
    endloop
  endfacet
  facet normal -1 0 0
    outer loop
      vertex 46.6 1.6 8
      vertex 46.6 8.6 9
      vertex 46.6 8.6 8
    endloop
  endfacet
  facet normal -1 -0 0
    outer loop
      vertex 46.6 8.6 9
      vertex 46.6 1.6 8
      vertex 46.6 1.6 9
    endloop
  endfacet
  facet normal -1 0 0
    outer loop
      vertex 46.6 1.6 12
      vertex 46.6 8.6 28.6
      vertex 46.6 8.6 12
    endloop
  endfacet
  facet normal -1 -0 0
    outer loop
      vertex 46.6 8.6 28.6
      vertex 46.6 1.6 12
      vertex 46.6 1.6 28.6
    endloop
  endfacet
  facet normal -0 0 1
    outer loop
      vertex 1.6 8.6 8
      vertex 46.6 1.6 8
      vertex 46.6 8.6 8
    endloop
  endfacet
  facet normal 0 0 1
    outer loop
      vertex 46.6 1.6 8
      vertex 1.6 8.6 8
      vertex 1.6 1.6 8
    endloop
  endfacet
  facet normal 1 -0 0
    outer loop
      vertex 1.6 8.57006 13.0432
      vertex 1.6 8.6 8
      vertex 1.6 8.6 13.5
    endloop
  endfacet
  facet normal 1 -0 0
    outer loop
      vertex 1.6 8.48074 12.5941
      vertex 1.6 8.6 8
      vertex 1.6 8.57006 13.0432
    endloop
  endfacet
  facet normal 1 -0 0
    outer loop
      vertex 1.6 8.33358 12.1606
      vertex 1.6 8.6 8
      vertex 1.6 8.48074 12.5941
    endloop
  endfacet
  facet normal 1 -0 0
    outer loop
      vertex 1.6 8.13109 11.75
      vertex 1.6 8.6 8
      vertex 1.6 8.33358 12.1606
    endloop
  endfacet
  facet normal 1 -0 0
    outer loop
      vertex 1.6 7.87674 11.3693
      vertex 1.6 8.6 8
      vertex 1.6 8.13109 11.75
    endloop
  endfacet
  facet normal 1 -0 0
    outer loop
      vertex 1.6 7.57487 11.0251
      vertex 1.6 8.6 8
      vertex 1.6 7.87674 11.3693
    endloop
  endfacet
  facet normal 1 -0 0
    outer loop
      vertex 1.6 7.23066 10.7233
      vertex 1.6 8.6 8
      vertex 1.6 7.57487 11.0251
    endloop
  endfacet
  facet normal 1 -0 0
    outer loop
      vertex 1.6 6.85 10.4689
      vertex 1.6 8.6 8
      vertex 1.6 7.23066 10.7233
    endloop
  endfacet
  facet normal 1 -0 0
    outer loop
      vertex 1.6 6.43939 10.2664
      vertex 1.6 8.6 8
      vertex 1.6 6.85 10.4689
    endloop
  endfacet
  facet normal 1 -0 0
    outer loop
      vertex 1.6 6.00587 10.1193
      vertex 1.6 8.6 8
      vertex 1.6 6.43939 10.2664
    endloop
  endfacet
  facet normal 1 -0 0
    outer loop
      vertex 1.6 5.55684 10.0299
      vertex 1.6 8.6 8
      vertex 1.6 6.00587 10.1193
    endloop
  endfacet
  facet normal 1 -0 0
    outer loop
      vertex 1.6 5.1 10
      vertex 1.6 8.6 8
      vertex 1.6 5.55684 10.0299
    endloop
  endfacet
  facet normal 1 0 0
    outer loop
      vertex 1.6 1.6 8
      vertex 1.6 5.1 10
      vertex 1.6 4.64316 10.0299
    endloop
  endfacet
  facet normal 1 0 0
    outer loop
      vertex 1.6 1.6 8
      vertex 1.6 4.64316 10.0299
      vertex 1.6 4.19413 10.1193
    endloop
  endfacet
  facet normal 1 0 0
    outer loop
      vertex 1.6 1.6 8
      vertex 1.6 4.19413 10.1193
      vertex 1.6 3.76061 10.2664
    endloop
  endfacet
  facet normal 1 0 0
    outer loop
      vertex 1.6 5.1 10
      vertex 1.6 1.6 8
      vertex 1.6 8.6 8
    endloop
  endfacet
  facet normal 1 0 0
    outer loop
      vertex 1.6 3.35 10.4689
      vertex 1.6 1.6 8
      vertex 1.6 3.76061 10.2664
    endloop
  endfacet
  facet normal 1 0 0
    outer loop
      vertex 1.6 2.96933 10.7233
      vertex 1.6 1.6 8
      vertex 1.6 3.35 10.4689
    endloop
  endfacet
  facet normal 1 0 0
    outer loop
      vertex 1.6 2.62513 11.0251
      vertex 1.6 1.6 8
      vertex 1.6 2.96933 10.7233
    endloop
  endfacet
  facet normal 1 0 0
    outer loop
      vertex 1.6 2.32326 11.3693
      vertex 1.6 1.6 8
      vertex 1.6 2.62513 11.0251
    endloop
  endfacet
  facet normal 1 0 0
    outer loop
      vertex 1.6 2.06891 11.75
      vertex 1.6 1.6 8
      vertex 1.6 2.32326 11.3693
    endloop
  endfacet
  facet normal 1 0 0
    outer loop
      vertex 1.6 1.86642 12.1606
      vertex 1.6 1.6 8
      vertex 1.6 2.06891 11.75
    endloop
  endfacet
  facet normal 1 0 0
    outer loop
      vertex 1.6 1.71926 12.5941
      vertex 1.6 1.6 8
      vertex 1.6 1.86642 12.1606
    endloop
  endfacet
  facet normal 1 0 0
    outer loop
      vertex 1.6 1.62994 13.0432
      vertex 1.6 1.6 8
      vertex 1.6 1.71926 12.5941
    endloop
  endfacet
  facet normal 1 0 0
    outer loop
      vertex 1.6 1.6 8
      vertex 1.6 1.62994 13.0432
      vertex 1.6 1.6 13.5
    endloop
  endfacet
  facet normal 1 0 0
    outer loop
      vertex 1.6 8.6 28.6
      vertex 1.6 8.57006 13.9568
      vertex 1.6 8.6 13.5
    endloop
  endfacet
  facet normal 1 0 0
    outer loop
      vertex 1.6 8.6 28.6
      vertex 1.6 8.48074 14.4059
      vertex 1.6 8.57006 13.9568
    endloop
  endfacet
  facet normal 1 0 0
    outer loop
      vertex 1.6 8.6 28.6
      vertex 1.6 8.33358 14.8394
      vertex 1.6 8.48074 14.4059
    endloop
  endfacet
  facet normal 1 0 0
    outer loop
      vertex 1.6 8.6 28.6
      vertex 1.6 8.13109 15.25
      vertex 1.6 8.33358 14.8394
    endloop
  endfacet
  facet normal 1 0 0
    outer loop
      vertex 1.6 8.6 28.6
      vertex 1.6 7.87674 15.6307
      vertex 1.6 8.13109 15.25
    endloop
  endfacet
  facet normal 1 0 0
    outer loop
      vertex 1.6 8.6 28.6
      vertex 1.6 7.57487 15.9749
      vertex 1.6 7.87674 15.6307
    endloop
  endfacet
  facet normal 1 0 0
    outer loop
      vertex 1.6 8.6 28.6
      vertex 1.6 7.23066 16.2767
      vertex 1.6 7.57487 15.9749
    endloop
  endfacet
  facet normal 1 0 0
    outer loop
      vertex 1.6 8.6 28.6
      vertex 1.6 6.85 16.5311
      vertex 1.6 7.23066 16.2767
    endloop
  endfacet
  facet normal 1 0 0
    outer loop
      vertex 1.6 8.6 28.6
      vertex 1.6 6.43939 16.7336
      vertex 1.6 6.85 16.5311
    endloop
  endfacet
  facet normal 1 0 0
    outer loop
      vertex 1.6 8.6 28.6
      vertex 1.6 6.00587 16.8807
      vertex 1.6 6.43939 16.7336
    endloop
  endfacet
  facet normal 1 0 0
    outer loop
      vertex 1.6 8.6 28.6
      vertex 1.6 5.55684 16.9701
      vertex 1.6 6.00587 16.8807
    endloop
  endfacet
  facet normal 1 0 0
    outer loop
      vertex 1.6 8.6 28.6
      vertex 1.6 5.1 17
      vertex 1.6 5.55684 16.9701
    endloop
  endfacet
  facet normal 1 -0 0
    outer loop
      vertex 1.6 1.6 28.6
      vertex 1.6 5.1 17
      vertex 1.6 8.6 28.6
    endloop
  endfacet
  facet normal 1 0 0
    outer loop
      vertex 1.6 5.1 17
      vertex 1.6 1.6 28.6
      vertex 1.6 4.64316 16.9701
    endloop
  endfacet
  facet normal 1 0 0
    outer loop
      vertex 1.6 4.64316 16.9701
      vertex 1.6 1.6 28.6
      vertex 1.6 4.19413 16.8807
    endloop
  endfacet
  facet normal 1 0 0
    outer loop
      vertex 1.6 4.19413 16.8807
      vertex 1.6 1.6 28.6
      vertex 1.6 3.76061 16.7336
    endloop
  endfacet
  facet normal 1 0 0
    outer loop
      vertex 1.6 3.76061 16.7336
      vertex 1.6 1.6 28.6
      vertex 1.6 3.35 16.5311
    endloop
  endfacet
  facet normal 1 0 0
    outer loop
      vertex 1.6 3.35 16.5311
      vertex 1.6 1.6 28.6
      vertex 1.6 2.96933 16.2767
    endloop
  endfacet
  facet normal 1 0 0
    outer loop
      vertex 1.6 2.96933 16.2767
      vertex 1.6 1.6 28.6
      vertex 1.6 2.62513 15.9749
    endloop
  endfacet
  facet normal 1 0 0
    outer loop
      vertex 1.6 2.62513 15.9749
      vertex 1.6 1.6 28.6
      vertex 1.6 2.32326 15.6307
    endloop
  endfacet
  facet normal 1 0 0
    outer loop
      vertex 1.6 2.32326 15.6307
      vertex 1.6 1.6 28.6
      vertex 1.6 2.06891 15.25
    endloop
  endfacet
  facet normal 1 0 0
    outer loop
      vertex 1.6 2.06891 15.25
      vertex 1.6 1.6 28.6
      vertex 1.6 1.86642 14.8394
    endloop
  endfacet
  facet normal 1 0 0
    outer loop
      vertex 1.6 1.6 28.6
      vertex 1.6 1.71926 14.4059
      vertex 1.6 1.86642 14.8394
    endloop
  endfacet
  facet normal 1 0 0
    outer loop
      vertex 1.6 1.6 28.6
      vertex 1.6 1.62994 13.9568
      vertex 1.6 1.71926 14.4059
    endloop
  endfacet
  facet normal 1 0 0
    outer loop
      vertex 1.6 1.62994 13.9568
      vertex 1.6 1.6 28.6
      vertex 1.6 1.6 13.5
    endloop
  endfacet
  facet normal 0 -1 0
    outer loop
      vertex 1.6 8.6 8
      vertex 46.59 8.6 12
      vertex 1.6 8.6 13.5
    endloop
  endfacet
  facet normal 0 -1 -0
    outer loop
      vertex 46.59 8.6 12
      vertex 1.6 8.6 8
      vertex 46.59 8.6 9
    endloop
  endfacet
  facet normal 0 -1 0
    outer loop
      vertex 46.6 8.6 8
      vertex 46.59 8.6 9
      vertex 1.6 8.6 8
    endloop
  endfacet
  facet normal 0 -1 0
    outer loop
      vertex 46.59 8.6 9
      vertex 46.6 8.6 8
      vertex 46.6 8.6 9
    endloop
  endfacet
  facet normal 0 -1 0
    outer loop
      vertex 1.6 8.6 13.5
      vertex 46.6 8.6 28.6
      vertex 1.6 8.6 28.6
    endloop
  endfacet
  facet normal 0 -1 0
    outer loop
      vertex 46.59 8.6 12
      vertex 46.6 8.6 28.6
      vertex 1.6 8.6 13.5
    endloop
  endfacet
  facet normal 0 -1 -0
    outer loop
      vertex 46.6 8.6 28.6
      vertex 46.59 8.6 12
      vertex 46.6 8.6 12
    endloop
  endfacet
  facet normal 0 1 0
    outer loop
      vertex 46.6 1.6 9
      vertex 46.6 1.6 8
      vertex 46.59 1.6 9
    endloop
  endfacet
  facet normal 0 1 0
    outer loop
      vertex 34.2 1.6 13.5
      vertex 46.6 1.6 28.6
      vertex 44.2 1.6 13.5
    endloop
  endfacet
  facet normal 0 1 -0
    outer loop
      vertex 46.6 1.6 12
      vertex 44.2 1.6 13.5
      vertex 46.6 1.6 28.6
    endloop
  endfacet
  facet normal 0 1 -0
    outer loop
      vertex 46.59 1.6 12
      vertex 44.2 1.6 13.5
      vertex 46.6 1.6 12
    endloop
  endfacet
  facet normal 0 1 0
    outer loop
      vertex 46.59 1.6 12
      vertex 44.2 1.6 10
      vertex 44.2 1.6 13.5
    endloop
  endfacet
  facet normal 0 1 0
    outer loop
      vertex 46.6 1.6 8
      vertex 44.2 1.6 10
      vertex 46.59 1.6 9
    endloop
  endfacet
  facet normal 0 1 -0
    outer loop
      vertex 46.59 1.6 9
      vertex 44.2 1.6 10
      vertex 46.59 1.6 12
    endloop
  endfacet
  facet normal 0 1 0
    outer loop
      vertex 46.6 1.6 28.6
      vertex 34.2 1.6 13.5
      vertex 1.6 1.6 28.6
    endloop
  endfacet
  facet normal 0 1 0
    outer loop
      vertex 34.2 1.6 13.5
      vertex 1.6 1.6 13.5
      vertex 1.6 1.6 28.6
    endloop
  endfacet
  facet normal 0 1 -0
    outer loop
      vertex 34.2 1.6 10
      vertex 1.6 1.6 13.5
      vertex 34.2 1.6 13.5
    endloop
  endfacet
  facet normal 0 1 0
    outer loop
      vertex 44.2 1.6 10
      vertex 46.6 1.6 8
      vertex 34.2 1.6 10
    endloop
  endfacet
  facet normal 0 1 0
    outer loop
      vertex 1.6 1.6 8
      vertex 34.2 1.6 10
      vertex 46.6 1.6 8
    endloop
  endfacet
  facet normal 0 1 0
    outer loop
      vertex 34.2 1.6 10
      vertex 1.6 1.6 8
      vertex 1.6 1.6 13.5
    endloop
  endfacet
endsolid OpenSCAD_Model
