solid OpenSCAD_Model
  facet normal 0 0 -1
    outer loop
      vertex 0 10.6 10.5
      vertex 1.6 20.6 10.5
      vertex 1.6 10.6 10.5
    endloop
  endfacet
  facet normal -0 0 -1
    outer loop
      vertex 1.6 20.6 10.5
      vertex 0 10.6 10.5
      vertex 0 20.6 10.5
    endloop
  endfacet
  facet normal -0 0 1
    outer loop
      vertex 0 20.6 9
      vertex 1.6 10.6 9
      vertex 1.6 20.6 9
    endloop
  endfacet
  facet normal 0 0 1
    outer loop
      vertex 1.6 10.6 9
      vertex 0 20.6 9
      vertex 0 10.6 9
    endloop
  endfacet
  facet normal 0 -1 0
    outer loop
      vertex 0 20.6 9
      vertex 1.6 20.6 10.5
      vertex 0 20.6 10.5
    endloop
  endfacet
  facet normal 0 -1 -0
    outer loop
      vertex 1.6 20.6 10.5
      vertex 0 20.6 9
      vertex 1.6 20.6 9
    endloop
  endfacet
  facet normal 0 1 -0
    outer loop
      vertex 1.6 10.6 9
      vertex 0 10.6 10.5
      vertex 1.6 10.6 10.5
    endloop
  endfacet
  facet normal 0 1 0
    outer loop
      vertex 0 10.6 10.5
      vertex 1.6 10.6 9
      vertex 0 10.6 9
    endloop
  endfacet
  facet normal -1 0 0
    outer loop
      vertex 14 0 9.5
      vertex 14 1.6 13
      vertex 14 1.6 9.5
    endloop
  endfacet
  facet normal -1 -0 0
    outer loop
      vertex 14 1.6 13
      vertex 14 0 9.5
      vertex 14 0 13
    endloop
  endfacet
  facet normal 0 0 -1
    outer loop
      vertex 4 0 13
      vertex 14 1.6 13
      vertex 14 0 13
    endloop
  endfacet
  facet normal -0 0 -1
    outer loop
      vertex 14 1.6 13
      vertex 4 0 13
      vertex 4 1.6 13
    endloop
  endfacet
  facet normal -0 0 1
    outer loop
      vertex 4 1.6 9.5
      vertex 14 0 9.5
      vertex 14 1.6 9.5
    endloop
  endfacet
  facet normal 0 0 1
    outer loop
      vertex 14 0 9.5
      vertex 4 1.6 9.5
      vertex 4 0 9.5
    endloop
  endfacet
  facet normal 1 -0 0
    outer loop
      vertex 4 0 13
      vertex 4 1.6 9.5
      vertex 4 1.6 13
    endloop
  endfacet
  facet normal 1 0 0
    outer loop
      vertex 4 1.6 9.5
      vertex 4 0 13
      vertex 4 0 9.5
    endloop
  endfacet
  facet normal 1 0 0
    outer loop
      vertex 59.2 31.2 22.6
      vertex 59.2 7.9 6.4
      vertex 59.2 31.2 0
    endloop
  endfacet
  facet normal 1 -0 0
    outer loop
      vertex 59.2 0 22.6
      vertex 59.2 7.9 6.4
      vertex 59.2 31.2 22.6
    endloop
  endfacet
  facet normal 1 0 0
    outer loop
      vertex 59.2 0 0
      vertex 59.2 1.6 6.4
      vertex 59.2 0 22.6
    endloop
  endfacet
  facet normal 1 0 0
    outer loop
      vertex 59.2 7.9 6.4
      vertex 59.2 0 22.6
      vertex 59.2 1.6 6.4
    endloop
  endfacet
  facet normal 1 -0 0
    outer loop
      vertex 59.2 7.9 1.6
      vertex 59.2 31.2 0
      vertex 59.2 7.9 6.4
    endloop
  endfacet
  facet normal 1 0 0
    outer loop
      vertex 59.2 7.4 0
      vertex 59.2 7.9 1.6
      vertex 59.2 7.4 1.6
    endloop
  endfacet
  facet normal 1 0 0
    outer loop
      vertex 59.2 7.9 1.6
      vertex 59.2 7.4 0
      vertex 59.2 31.2 0
    endloop
  endfacet
  facet normal 1 -0 0
    outer loop
      vertex 59.2 1.6 1.6
      vertex 59.2 2.1 0
      vertex 59.2 2.1 1.6
    endloop
  endfacet
  facet normal 1 0 0
    outer loop
      vertex 59.2 1.6 1.6
      vertex 59.2 0 0
      vertex 59.2 2.1 0
    endloop
  endfacet
  facet normal 1 0 0
    outer loop
      vertex 59.2 1.6 6.4
      vertex 59.2 0 0
      vertex 59.2 1.6 1.6
    endloop
  endfacet
  facet normal 0 0 1
    outer loop
      vertex 59.2 31.2 22.6
      vertex 57.6 29.6 22.6
      vertex 59.2 0 22.6
    endloop
  endfacet
  facet normal 0 0 1
    outer loop
      vertex 59.2 31.2 22.6
      vertex 1.6 29.6 22.6
      vertex 57.6 29.6 22.6
    endloop
  endfacet
  facet normal 0 0 1
    outer loop
      vertex 1.6 29.6 22.6
      vertex 0 31.2 22.6
      vertex 1.6 1.6 22.6
    endloop
  endfacet
  facet normal -0 0 1
    outer loop
      vertex 0 31.2 22.6
      vertex 1.6 29.6 22.6
      vertex 59.2 31.2 22.6
    endloop
  endfacet
  facet normal -0 0 1
    outer loop
      vertex 57.6 1.6 22.6
      vertex 59.2 0 22.6
      vertex 57.6 29.6 22.6
    endloop
  endfacet
  facet normal -0 0 1
    outer loop
      vertex 1.6 1.6 22.6
      vertex 59.2 0 22.6
      vertex 57.6 1.6 22.6
    endloop
  endfacet
  facet normal 0 0 1
    outer loop
      vertex 1.6 1.6 22.6
      vertex 0 0 22.6
      vertex 59.2 0 22.6
    endloop
  endfacet
  facet normal 0 0 1
    outer loop
      vertex 0 0 22.6
      vertex 1.6 1.6 22.6
      vertex 0 31.2 22.6
    endloop
  endfacet
  facet normal 0 0 -1
    outer loop
      vertex 0 7.4 0
      vertex 59.2 31.2 0
      vertex 59.2 7.4 0
    endloop
  endfacet
  facet normal -0 0 -1
    outer loop
      vertex 59.2 31.2 0
      vertex 0 7.4 0
      vertex 0 31.2 0
    endloop
  endfacet
  facet normal 0 0 -1
    outer loop
      vertex 0 0 0
      vertex 59.2 2.1 0
      vertex 59.2 0 0
    endloop
  endfacet
  facet normal -0 0 -1
    outer loop
      vertex 59.2 2.1 0
      vertex 0 0 0
      vertex 0 2.1 0
    endloop
  endfacet
  facet normal -1 0 0
    outer loop
      vertex 0 2.1 0
      vertex 0 1.6 1.6
      vertex 0 2.1 1.6
    endloop
  endfacet
  facet normal -1 -0 0
    outer loop
      vertex 0 1.6 1.6
      vertex 0 0 0
      vertex 0 1.6 6.4
    endloop
  endfacet
  facet normal -1 0 0
    outer loop
      vertex 0 0 0
      vertex 0 1.6 1.6
      vertex 0 2.1 0
    endloop
  endfacet
  facet normal -1 0 0
    outer loop
      vertex 0 20.6 10.5
      vertex 0 31.2 0
      vertex 0 20.6 9
    endloop
  endfacet
  facet normal -1 0 0
    outer loop
      vertex 0 7.4 0
      vertex 0 20.6 9
      vertex 0 31.2 0
    endloop
  endfacet
  facet normal -1 0 0
    outer loop
      vertex 0 7.9 6.4
      vertex 0 10.6 9
      vertex 0 7.9 1.6
    endloop
  endfacet
  facet normal -1 -0 0
    outer loop
      vertex 0 20.6 9
      vertex 0 7.9 1.6
      vertex 0 10.6 9
    endloop
  endfacet
  facet normal -1 0 0
    outer loop
      vertex 0 20.6 9
      vertex 0 7.4 0
      vertex 0 7.9 1.6
    endloop
  endfacet
  facet normal -1 -0 0
    outer loop
      vertex 0 7.9 1.6
      vertex 0 7.4 0
      vertex 0 7.4 1.6
    endloop
  endfacet
  facet normal -1 0 0
    outer loop
      vertex 0 31.2 0
      vertex 0 20.6 10.5
      vertex 0 31.2 22.6
    endloop
  endfacet
  facet normal -1 0 0
    outer loop
      vertex 0 10.6 10.5
      vertex 0 31.2 22.6
      vertex 0 20.6 10.5
    endloop
  endfacet
  facet normal -1 -0 0
    outer loop
      vertex 0 10.6 9
      vertex 0 7.9 6.4
      vertex 0 10.6 10.5
    endloop
  endfacet
  facet normal -1 0 0
    outer loop
      vertex 0 1.6 6.4
      vertex 0 10.6 10.5
      vertex 0 7.9 6.4
    endloop
  endfacet
  facet normal -1 0 0
    outer loop
      vertex 0 0 22.6
      vertex 0 10.6 10.5
      vertex 0 1.6 6.4
    endloop
  endfacet
  facet normal -1 0 0
    outer loop
      vertex 0 10.6 10.5
      vertex 0 0 22.6
      vertex 0 31.2 22.6
    endloop
  endfacet
  facet normal -1 0 0
    outer loop
      vertex 0 0 22.6
      vertex 0 1.6 6.4
      vertex 0 0 0
    endloop
  endfacet
  facet normal 0 1 -0
    outer loop
      vertex 59.2 31.2 0
      vertex 0 31.2 22.6
      vertex 59.2 31.2 22.6
    endloop
  endfacet
  facet normal 0 1 0
    outer loop
      vertex 0 31.2 22.6
      vertex 59.2 31.2 0
      vertex 0 31.2 0
    endloop
  endfacet
  facet normal 0 -1 0
    outer loop
      vertex 14 0 13
      vertex 0 0 22.6
      vertex 4 0 13
    endloop
  endfacet
  facet normal 0 -1 0
    outer loop
      vertex 0 0 22.6
      vertex 4 0 9.5
      vertex 4 0 13
    endloop
  endfacet
  facet normal 0 -1 -0
    outer loop
      vertex 4 0 9.5
      vertex 0 0 0
      vertex 14 0 9.5
    endloop
  endfacet
  facet normal 0 -1 0
    outer loop
      vertex 0 0 0
      vertex 4 0 9.5
      vertex 0 0 22.6
    endloop
  endfacet
  facet normal 0 -1 0
    outer loop
      vertex 0 0 22.6
      vertex 14 0 13
      vertex 59.2 0 22.6
    endloop
  endfacet
  facet normal 0 -1 0
    outer loop
      vertex 14 0 9.5
      vertex 59.2 0 22.6
      vertex 14 0 13
    endloop
  endfacet
  facet normal 0 -1 0
    outer loop
      vertex 59.2 0 0
      vertex 14 0 9.5
      vertex 0 0 0
    endloop
  endfacet
  facet normal 0 -1 0
    outer loop
      vertex 14 0 9.5
      vertex 59.2 0 0
      vertex 59.2 0 22.6
    endloop
  endfacet
  facet normal 0 0 -1
    outer loop
      vertex 0 1.6 6.4
      vertex 59.2 7.9 6.4
      vertex 59.2 1.6 6.4
    endloop
  endfacet
  facet normal -0 0 -1
    outer loop
      vertex 59.2 7.9 6.4
      vertex 0 1.6 6.4
      vertex 0 7.9 6.4
    endloop
  endfacet
  facet normal -0 0 1
    outer loop
      vertex 0 7.9 1.6
      vertex 59.2 7.4 1.6
      vertex 59.2 7.9 1.6
    endloop
  endfacet
  facet normal 0 0 1
    outer loop
      vertex 59.2 7.4 1.6
      vertex 0 7.9 1.6
      vertex 0 7.4 1.6
    endloop
  endfacet
  facet normal -0 0 1
    outer loop
      vertex 0 2.1 1.6
      vertex 59.2 1.6 1.6
      vertex 59.2 2.1 1.6
    endloop
  endfacet
  facet normal 0 0 1
    outer loop
      vertex 59.2 1.6 1.6
      vertex 0 2.1 1.6
      vertex 0 1.6 1.6
    endloop
  endfacet
  facet normal 0 -1 0
    outer loop
      vertex 0 7.9 1.6
      vertex 59.2 7.9 6.4
      vertex 0 7.9 6.4
    endloop
  endfacet
  facet normal 0 -1 -0
    outer loop
      vertex 59.2 7.9 6.4
      vertex 0 7.9 1.6
      vertex 59.2 7.9 1.6
    endloop
  endfacet
  facet normal 0 1 -0
    outer loop
      vertex 59.2 1.6 1.6
      vertex 0 1.6 6.4
      vertex 59.2 1.6 6.4
    endloop
  endfacet
  facet normal 0 1 0
    outer loop
      vertex 0 1.6 6.4
      vertex 59.2 1.6 1.6
      vertex 0 1.6 1.6
    endloop
  endfacet
  facet normal 0 -1 0
    outer loop
      vertex 0 7.4 0
      vertex 59.2 7.4 1.6
      vertex 0 7.4 1.6
    endloop
  endfacet
  facet normal 0 -1 -0
    outer loop
      vertex 59.2 7.4 1.6
      vertex 0 7.4 0
      vertex 59.2 7.4 0
    endloop
  endfacet
  facet normal 0 1 -0
    outer loop
      vertex 59.2 2.1 0
      vertex 0 2.1 1.6
      vertex 59.2 2.1 1.6
    endloop
  endfacet
  facet normal 0 1 0
    outer loop
      vertex 0 2.1 1.6
      vertex 59.2 2.1 0
      vertex 0 2.1 0
    endloop
  endfacet
  facet normal -1 0 0
    outer loop
      vertex 57.6 1.6 8
      vertex 57.6 29.6 22.6
      vertex 57.6 29.6 8
    endloop
  endfacet
  facet normal -1 -0 0
    outer loop
      vertex 57.6 29.6 22.6
      vertex 57.6 1.6 8
      vertex 57.6 1.6 22.6
    endloop
  endfacet
  facet normal -0 0 1
    outer loop
      vertex 1.6 29.6 8
      vertex 57.6 1.6 8
      vertex 57.6 29.6 8
    endloop
  endfacet
  facet normal 0 0 1
    outer loop
      vertex 57.6 1.6 8
      vertex 1.6 29.6 8
      vertex 1.6 1.6 8
    endloop
  endfacet
  facet normal 1 0 0
    outer loop
      vertex 1.6 29.6 22.6
      vertex 1.6 20.6 10.5
      vertex 1.6 29.6 8
    endloop
  endfacet
  facet normal 1 0 0
    outer loop
      vertex 1.6 29.6 22.6
      vertex 1.6 10.6 10.5
      vertex 1.6 20.6 10.5
    endloop
  endfacet
  facet normal 1 0 0
    outer loop
      vertex 1.6 1.6 8
      vertex 1.6 10.6 10.5
      vertex 1.6 1.6 22.6
    endloop
  endfacet
  facet normal 1 -0 0
    outer loop
      vertex 1.6 1.6 22.6
      vertex 1.6 10.6 10.5
      vertex 1.6 29.6 22.6
    endloop
  endfacet
  facet normal 1 -0 0
    outer loop
      vertex 1.6 20.6 9
      vertex 1.6 29.6 8
      vertex 1.6 20.6 10.5
    endloop
  endfacet
  facet normal 1 -0 0
    outer loop
      vertex 1.6 10.6 9
      vertex 1.6 29.6 8
      vertex 1.6 20.6 9
    endloop
  endfacet
  facet normal 1 0 0
    outer loop
      vertex 1.6 10.6 9
      vertex 1.6 1.6 8
      vertex 1.6 29.6 8
    endloop
  endfacet
  facet normal 1 0 0
    outer loop
      vertex 1.6 10.6 10.5
      vertex 1.6 1.6 8
      vertex 1.6 10.6 9
    endloop
  endfacet
  facet normal 0 -1 0
    outer loop
      vertex 1.6 29.6 8
      vertex 57.6 29.6 22.6
      vertex 1.6 29.6 22.6
    endloop
  endfacet
  facet normal 0 -1 -0
    outer loop
      vertex 57.6 29.6 22.6
      vertex 1.6 29.6 8
      vertex 57.6 29.6 8
    endloop
  endfacet
  facet normal 0 1 0
    outer loop
      vertex 57.6 1.6 22.6
      vertex 14 1.6 13
      vertex 1.6 1.6 22.6
    endloop
  endfacet
  facet normal 0 1 -0
    outer loop
      vertex 57.6 1.6 8
      vertex 14 1.6 13
      vertex 57.6 1.6 22.6
    endloop
  endfacet
  facet normal 0 1 0
    outer loop
      vertex 1.6 1.6 8
      vertex 14 1.6 9.5
      vertex 57.6 1.6 8
    endloop
  endfacet
  facet normal 0 1 0
    outer loop
      vertex 14 1.6 13
      vertex 57.6 1.6 8
      vertex 14 1.6 9.5
    endloop
  endfacet
  facet normal 0 1 -0
    outer loop
      vertex 4 1.6 13
      vertex 1.6 1.6 22.6
      vertex 14 1.6 13
    endloop
  endfacet
  facet normal 0 1 0
    outer loop
      vertex 1.6 1.6 8
      vertex 4 1.6 13
      vertex 4 1.6 9.5
    endloop
  endfacet
  facet normal 0 1 0
    outer loop
      vertex 4 1.6 13
      vertex 1.6 1.6 8
      vertex 1.6 1.6 22.6
    endloop
  endfacet
  facet normal 0 1 0
    outer loop
      vertex 14 1.6 9.5
      vertex 1.6 1.6 8
      vertex 4 1.6 9.5
    endloop
  endfacet
endsolid OpenSCAD_Model
