solid OpenSCAD_Model
  facet normal 1 0 0
    outer loop
      vertex 57.2 31.2 15.6
      vertex 57.2 7.9 6.4
      vertex 57.2 31.2 0
    endloop
  endfacet
  facet normal 1 -0 0
    outer loop
      vertex 57.2 0 15.6
      vertex 57.2 7.9 6.4
      vertex 57.2 31.2 15.6
    endloop
  endfacet
  facet normal 1 0 0
    outer loop
      vertex 57.2 0 0
      vertex 57.2 1.6 6.4
      vertex 57.2 0 15.6
    endloop
  endfacet
  facet normal 1 0 0
    outer loop
      vertex 57.2 7.9 6.4
      vertex 57.2 0 15.6
      vertex 57.2 1.6 6.4
    endloop
  endfacet
  facet normal 1 -0 0
    outer loop
      vertex 57.2 7.9 1.6
      vertex 57.2 31.2 0
      vertex 57.2 7.9 6.4
    endloop
  endfacet
  facet normal 1 0 0
    outer loop
      vertex 57.2 7.4 0
      vertex 57.2 7.9 1.6
      vertex 57.2 7.4 1.6
    endloop
  endfacet
  facet normal 1 0 0
    outer loop
      vertex 57.2 7.9 1.6
      vertex 57.2 7.4 0
      vertex 57.2 31.2 0
    endloop
  endfacet
  facet normal 1 -0 0
    outer loop
      vertex 57.2 1.6 1.6
      vertex 57.2 2.1 0
      vertex 57.2 2.1 1.6
    endloop
  endfacet
  facet normal 1 0 0
    outer loop
      vertex 57.2 1.6 1.6
      vertex 57.2 0 0
      vertex 57.2 2.1 0
    endloop
  endfacet
  facet normal 1 0 0
    outer loop
      vertex 57.2 1.6 6.4
      vertex 57.2 0 0
      vertex 57.2 1.6 1.6
    endloop
  endfacet
  facet normal 0 0 1
    outer loop
      vertex 57.2 31.2 15.6
      vertex 55.6 29.6 15.6
      vertex 57.2 0 15.6
    endloop
  endfacet
  facet normal 0 0 1
    outer loop
      vertex 57.2 31.2 15.6
      vertex 1.6 29.6 15.6
      vertex 55.6 29.6 15.6
    endloop
  endfacet
  facet normal 0 0 1
    outer loop
      vertex 1.6 29.6 15.6
      vertex 0 31.2 15.6
      vertex 1.6 1.6 15.6
    endloop
  endfacet
  facet normal -0 0 1
    outer loop
      vertex 0 31.2 15.6
      vertex 1.6 29.6 15.6
      vertex 57.2 31.2 15.6
    endloop
  endfacet
  facet normal -0 0 1
    outer loop
      vertex 55.6 1.6 15.6
      vertex 57.2 0 15.6
      vertex 55.6 29.6 15.6
    endloop
  endfacet
  facet normal -0 0 1
    outer loop
      vertex 1.6 1.6 15.6
      vertex 57.2 0 15.6
      vertex 55.6 1.6 15.6
    endloop
  endfacet
  facet normal 0 0 1
    outer loop
      vertex 1.6 1.6 15.6
      vertex 0 0 15.6
      vertex 57.2 0 15.6
    endloop
  endfacet
  facet normal 0 0 1
    outer loop
      vertex 0 0 15.6
      vertex 1.6 1.6 15.6
      vertex 0 31.2 15.6
    endloop
  endfacet
  facet normal 0 0 -1
    outer loop
      vertex 0 7.4 0
      vertex 57.2 31.2 0
      vertex 57.2 7.4 0
    endloop
  endfacet
  facet normal -0 0 -1
    outer loop
      vertex 57.2 31.2 0
      vertex 0 7.4 0
      vertex 0 31.2 0
    endloop
  endfacet
  facet normal 0 0 -1
    outer loop
      vertex 0 0 0
      vertex 57.2 2.1 0
      vertex 57.2 0 0
    endloop
  endfacet
  facet normal -0 0 -1
    outer loop
      vertex 57.2 2.1 0
      vertex 0 0 0
      vertex 0 2.1 0
    endloop
  endfacet
  facet normal -1 0 0
    outer loop
      vertex 0 2.1 0
      vertex 0 1.6 1.6
      vertex 0 2.1 1.6
    endloop
  endfacet
  facet normal -1 -0 0
    outer loop
      vertex 0 1.6 1.6
      vertex 0 0 0
      vertex 0 1.6 6.4
    endloop
  endfacet
  facet normal -1 0 0
    outer loop
      vertex 0 0 0
      vertex 0 1.6 1.6
      vertex 0 2.1 0
    endloop
  endfacet
  facet normal -1 0 0
    outer loop
      vertex 0 31.2 0
      vertex 0 19.6 9
      vertex 0 31.2 15.6
    endloop
  endfacet
  facet normal -1 0 0
    outer loop
      vertex 0 7.4 0
      vertex 0 19.6 9
      vertex 0 31.2 0
    endloop
  endfacet
  facet normal -1 0 0
    outer loop
      vertex 0 7.9 6.4
      vertex 0 11.6 9
      vertex 0 7.9 1.6
    endloop
  endfacet
  facet normal -1 -0 0
    outer loop
      vertex 0 19.6 9
      vertex 0 7.9 1.6
      vertex 0 11.6 9
    endloop
  endfacet
  facet normal -1 0 0
    outer loop
      vertex 0 19.6 9
      vertex 0 7.4 0
      vertex 0 7.9 1.6
    endloop
  endfacet
  facet normal -1 -0 0
    outer loop
      vertex 0 7.9 1.6
      vertex 0 7.4 0
      vertex 0 7.4 1.6
    endloop
  endfacet
  facet normal -1 0 0
    outer loop
      vertex 0 19.6 12
      vertex 0 31.2 15.6
      vertex 0 19.6 9
    endloop
  endfacet
  facet normal -1 0 0
    outer loop
      vertex 0 11.6 12
      vertex 0 31.2 15.6
      vertex 0 19.6 12
    endloop
  endfacet
  facet normal -1 -0 0
    outer loop
      vertex 0 11.6 9
      vertex 0 7.9 6.4
      vertex 0 11.6 12
    endloop
  endfacet
  facet normal -1 0 0
    outer loop
      vertex 0 0 15.6
      vertex 0 7.9 6.4
      vertex 0 1.6 6.4
    endloop
  endfacet
  facet normal -1 0 0
    outer loop
      vertex 0 11.6 12
      vertex 0 0 15.6
      vertex 0 31.2 15.6
    endloop
  endfacet
  facet normal -1 0 0
    outer loop
      vertex 0 7.9 6.4
      vertex 0 0 15.6
      vertex 0 11.6 12
    endloop
  endfacet
  facet normal -1 0 0
    outer loop
      vertex 0 0 15.6
      vertex 0 1.6 6.4
      vertex 0 0 0
    endloop
  endfacet
  facet normal 0 1 -0
    outer loop
      vertex 57.2 31.2 0
      vertex 0 31.2 15.6
      vertex 57.2 31.2 15.6
    endloop
  endfacet
  facet normal 0 1 0
    outer loop
      vertex 0 31.2 15.6
      vertex 57.2 31.2 0
      vertex 0 31.2 0
    endloop
  endfacet
  facet normal 0 -1 0
    outer loop
      vertex 0 0 0
      vertex 57.2 0 15.6
      vertex 0 0 15.6
    endloop
  endfacet
  facet normal 0 -1 -0
    outer loop
      vertex 57.2 0 15.6
      vertex 0 0 0
      vertex 57.2 0 0
    endloop
  endfacet
  facet normal 0 0 -1
    outer loop
      vertex 0 1.6 6.4
      vertex 57.2 7.9 6.4
      vertex 57.2 1.6 6.4
    endloop
  endfacet
  facet normal -0 0 -1
    outer loop
      vertex 57.2 7.9 6.4
      vertex 0 1.6 6.4
      vertex 0 7.9 6.4
    endloop
  endfacet
  facet normal -0 0 1
    outer loop
      vertex 0 7.9 1.6
      vertex 57.2 7.4 1.6
      vertex 57.2 7.9 1.6
    endloop
  endfacet
  facet normal 0 0 1
    outer loop
      vertex 57.2 7.4 1.6
      vertex 0 7.9 1.6
      vertex 0 7.4 1.6
    endloop
  endfacet
  facet normal -0 0 1
    outer loop
      vertex 0 2.1 1.6
      vertex 57.2 1.6 1.6
      vertex 57.2 2.1 1.6
    endloop
  endfacet
  facet normal 0 0 1
    outer loop
      vertex 57.2 1.6 1.6
      vertex 0 2.1 1.6
      vertex 0 1.6 1.6
    endloop
  endfacet
  facet normal 0 -1 0
    outer loop
      vertex 0 7.9 1.6
      vertex 57.2 7.9 6.4
      vertex 0 7.9 6.4
    endloop
  endfacet
  facet normal 0 -1 -0
    outer loop
      vertex 57.2 7.9 6.4
      vertex 0 7.9 1.6
      vertex 57.2 7.9 1.6
    endloop
  endfacet
  facet normal 0 1 -0
    outer loop
      vertex 57.2 1.6 1.6
      vertex 0 1.6 6.4
      vertex 57.2 1.6 6.4
    endloop
  endfacet
  facet normal 0 1 0
    outer loop
      vertex 0 1.6 6.4
      vertex 57.2 1.6 1.6
      vertex 0 1.6 1.6
    endloop
  endfacet
  facet normal 0 -1 0
    outer loop
      vertex 0 7.4 0
      vertex 57.2 7.4 1.6
      vertex 0 7.4 1.6
    endloop
  endfacet
  facet normal 0 -1 -0
    outer loop
      vertex 57.2 7.4 1.6
      vertex 0 7.4 0
      vertex 57.2 7.4 0
    endloop
  endfacet
  facet normal 0 1 -0
    outer loop
      vertex 57.2 2.1 0
      vertex 0 2.1 1.6
      vertex 57.2 2.1 1.6
    endloop
  endfacet
  facet normal 0 1 0
    outer loop
      vertex 0 2.1 1.6
      vertex 57.2 2.1 0
      vertex 0 2.1 0
    endloop
  endfacet
  facet normal -1 0 0
    outer loop
      vertex 55.6 1.6 8
      vertex 55.6 29.6 15.6
      vertex 55.6 29.6 8
    endloop
  endfacet
  facet normal -1 -0 0
    outer loop
      vertex 55.6 29.6 15.6
      vertex 55.6 1.6 8
      vertex 55.6 1.6 15.6
    endloop
  endfacet
  facet normal -0 0 1
    outer loop
      vertex 1.6 29.6 8
      vertex 55.6 1.6 8
      vertex 55.6 29.6 8
    endloop
  endfacet
  facet normal 0 0 1
    outer loop
      vertex 55.6 1.6 8
      vertex 1.6 29.6 8
      vertex 1.6 1.6 8
    endloop
  endfacet
  facet normal 1 0 0
    outer loop
      vertex 1.6 29.6 15.6
      vertex 1.6 19.6 12
      vertex 1.6 29.6 8
    endloop
  endfacet
  facet normal 1 0 0
    outer loop
      vertex 1.6 29.6 15.6
      vertex 1.6 11.6 12
      vertex 1.6 19.6 12
    endloop
  endfacet
  facet normal 1 0 0
    outer loop
      vertex 1.6 1.6 8
      vertex 1.6 11.6 12
      vertex 1.6 1.6 15.6
    endloop
  endfacet
  facet normal 1 -0 0
    outer loop
      vertex 1.6 1.6 15.6
      vertex 1.6 11.6 12
      vertex 1.6 29.6 15.6
    endloop
  endfacet
  facet normal 1 -0 0
    outer loop
      vertex 1.6 19.6 9
      vertex 1.6 29.6 8
      vertex 1.6 19.6 12
    endloop
  endfacet
  facet normal 1 -0 0
    outer loop
      vertex 1.6 11.6 9
      vertex 1.6 29.6 8
      vertex 1.6 19.6 9
    endloop
  endfacet
  facet normal 1 0 0
    outer loop
      vertex 1.6 11.6 9
      vertex 1.6 1.6 8
      vertex 1.6 29.6 8
    endloop
  endfacet
  facet normal 1 0 0
    outer loop
      vertex 1.6 11.6 12
      vertex 1.6 1.6 8
      vertex 1.6 11.6 9
    endloop
  endfacet
  facet normal 0 -1 0
    outer loop
      vertex 1.6 29.6 8
      vertex 55.6 29.6 15.6
      vertex 1.6 29.6 15.6
    endloop
  endfacet
  facet normal 0 -1 -0
    outer loop
      vertex 55.6 29.6 15.6
      vertex 1.6 29.6 8
      vertex 55.6 29.6 8
    endloop
  endfacet
  facet normal 0 1 -0
    outer loop
      vertex 55.6 1.6 8
      vertex 1.6 1.6 15.6
      vertex 55.6 1.6 15.6
    endloop
  endfacet
  facet normal 0 1 0
    outer loop
      vertex 1.6 1.6 15.6
      vertex 55.6 1.6 8
      vertex 1.6 1.6 8
    endloop
  endfacet
  facet normal 0 0 -1
    outer loop
      vertex 0 11.6 12
      vertex 1.6 19.6 12
      vertex 1.6 11.6 12
    endloop
  endfacet
  facet normal -0 0 -1
    outer loop
      vertex 1.6 19.6 12
      vertex 0 11.6 12
      vertex 0 19.6 12
    endloop
  endfacet
  facet normal -0 0 1
    outer loop
      vertex 0 19.6 9
      vertex 1.6 11.6 9
      vertex 1.6 19.6 9
    endloop
  endfacet
  facet normal 0 0 1
    outer loop
      vertex 1.6 11.6 9
      vertex 0 19.6 9
      vertex 0 11.6 9
    endloop
  endfacet
  facet normal 0 -1 0
    outer loop
      vertex 0 19.6 9
      vertex 1.6 19.6 12
      vertex 0 19.6 12
    endloop
  endfacet
  facet normal 0 -1 -0
    outer loop
      vertex 1.6 19.6 12
      vertex 0 19.6 9
      vertex 1.6 19.6 9
    endloop
  endfacet
  facet normal 0 1 -0
    outer loop
      vertex 1.6 11.6 9
      vertex 0 11.6 12
      vertex 1.6 11.6 12
    endloop
  endfacet
  facet normal 0 1 0
    outer loop
      vertex 0 11.6 12
      vertex 1.6 11.6 9
      vertex 0 11.6 9
    endloop
  endfacet
endsolid OpenSCAD_Model
