solid OpenSCAD_Model
  facet normal 1 -0 0
    outer loop
      vertex 4 0 0
      vertex 4 18.4 -1
      vertex 4 18.4 0
    endloop
  endfacet
  facet normal 1 0 0
    outer loop
      vertex 4 18.4 -1
      vertex 4 0 0
      vertex 4 0 -1
    endloop
  endfacet
  facet normal 0 0 -1
    outer loop
      vertex 3 0 -1
      vertex 4 18.4 -1
      vertex 4 0 -1
    endloop
  endfacet
  facet normal -0 0 -1
    outer loop
      vertex 4 18.4 -1
      vertex 3 0 -1
      vertex 3 18.4 -1
    endloop
  endfacet
  facet normal -1 0 0
    outer loop
      vertex 3 0 -1
      vertex 3 18.4 0
      vertex 3 18.4 -1
    endloop
  endfacet
  facet normal -1 -0 0
    outer loop
      vertex 3 18.4 0
      vertex 3 0 -1
      vertex 3 0 0
    endloop
  endfacet
  facet normal 0 1 -0
    outer loop
      vertex 4 18.4 -1
      vertex 3 18.4 0
      vertex 4 18.4 0
    endloop
  endfacet
  facet normal 0 1 0
    outer loop
      vertex 3 18.4 0
      vertex 4 18.4 -1
      vertex 3 18.4 -1
    endloop
  endfacet
  facet normal 0 1 -0
    outer loop
      vertex 24.4 18.4 -1
      vertex 23.4 18.4 0
      vertex 24.4 18.4 0
    endloop
  endfacet
  facet normal 0 1 0
    outer loop
      vertex 23.4 18.4 0
      vertex 24.4 18.4 -1
      vertex 23.4 18.4 -1
    endloop
  endfacet
  facet normal 0 1 0
    outer loop
      vertex 24.4 18.4 0
      vertex 27.4 18.4 1.6
      vertex 27.4 18.4 0
    endloop
  endfacet
  facet normal 0 1 0
    outer loop
      vertex 23.4 18.4 0
      vertex 27.4 18.4 1.6
      vertex 24.4 18.4 0
    endloop
  endfacet
  facet normal 0 1 0
    outer loop
      vertex 27.4 18.4 1.6
      vertex 23.4 18.4 0
      vertex 0 18.4 1.6
    endloop
  endfacet
  facet normal 0 1 -0
    outer loop
      vertex 4 18.4 0
      vertex 0 18.4 1.6
      vertex 23.4 18.4 0
    endloop
  endfacet
  facet normal 0 1 -0
    outer loop
      vertex 3 18.4 0
      vertex 0 18.4 1.6
      vertex 4 18.4 0
    endloop
  endfacet
  facet normal 0 1 0
    outer loop
      vertex 0 18.4 1.6
      vertex 3 18.4 0
      vertex 0 18.4 0
    endloop
  endfacet
  facet normal 0 -1 0
    outer loop
      vertex 23.4 0 -1
      vertex 24.4 0 0
      vertex 23.4 0 0
    endloop
  endfacet
  facet normal 0 -1 -0
    outer loop
      vertex 24.4 0 0
      vertex 23.4 0 -1
      vertex 24.4 0 -1
    endloop
  endfacet
  facet normal 0 -1 0
    outer loop
      vertex 3 0 -1
      vertex 4 0 0
      vertex 3 0 0
    endloop
  endfacet
  facet normal 0 -1 -0
    outer loop
      vertex 4 0 0
      vertex 3 0 -1
      vertex 4 0 -1
    endloop
  endfacet
  facet normal 0 -1 0
    outer loop
      vertex 3 0 0
      vertex 0 0 1.6
      vertex 0 0 0
    endloop
  endfacet
  facet normal 0 -1 0
    outer loop
      vertex 4 0 0
      vertex 0 0 1.6
      vertex 3 0 0
    endloop
  endfacet
  facet normal 0 -1 0
    outer loop
      vertex 0 0 1.6
      vertex 4 0 0
      vertex 27.4 0 1.6
    endloop
  endfacet
  facet normal 0 -1 0
    outer loop
      vertex 23.4 0 0
      vertex 27.4 0 1.6
      vertex 4 0 0
    endloop
  endfacet
  facet normal 0 -1 0
    outer loop
      vertex 24.4 0 0
      vertex 27.4 0 1.6
      vertex 23.4 0 0
    endloop
  endfacet
  facet normal 0 -1 -0
    outer loop
      vertex 27.4 0 1.6
      vertex 24.4 0 0
      vertex 27.4 0 0
    endloop
  endfacet
  facet normal 1 -0 0
    outer loop
      vertex 24.4 0 0
      vertex 24.4 18.4 -1
      vertex 24.4 18.4 0
    endloop
  endfacet
  facet normal 1 0 0
    outer loop
      vertex 24.4 18.4 -1
      vertex 24.4 0 0
      vertex 24.4 0 -1
    endloop
  endfacet
  facet normal 0 0 -1
    outer loop
      vertex 23.4 0 -1
      vertex 24.4 18.4 -1
      vertex 24.4 0 -1
    endloop
  endfacet
  facet normal -0 0 -1
    outer loop
      vertex 24.4 18.4 -1
      vertex 23.4 0 -1
      vertex 23.4 18.4 -1
    endloop
  endfacet
  facet normal -1 0 0
    outer loop
      vertex 23.4 0 -1
      vertex 23.4 18.4 0
      vertex 23.4 18.4 -1
    endloop
  endfacet
  facet normal -1 -0 0
    outer loop
      vertex 23.4 18.4 0
      vertex 23.4 0 -1
      vertex 23.4 0 0
    endloop
  endfacet
  facet normal 1 -0 0
    outer loop
      vertex 27.4 0 1.6
      vertex 27.4 18.4 0
      vertex 27.4 18.4 1.6
    endloop
  endfacet
  facet normal 1 0 0
    outer loop
      vertex 27.4 18.4 0
      vertex 27.4 0 1.6
      vertex 27.4 0 0
    endloop
  endfacet
  facet normal -0 0 1
    outer loop
      vertex 0 18.4 1.6
      vertex 27.4 0 1.6
      vertex 27.4 18.4 1.6
    endloop
  endfacet
  facet normal 0 0 1
    outer loop
      vertex 27.4 0 1.6
      vertex 0 18.4 1.6
      vertex 0 0 1.6
    endloop
  endfacet
  facet normal 0 0 -1
    outer loop
      vertex 24.4 0 0
      vertex 27.4 18.4 0
      vertex 27.4 0 0
    endloop
  endfacet
  facet normal -0 0 -1
    outer loop
      vertex 27.4 18.4 0
      vertex 24.4 0 0
      vertex 24.4 18.4 0
    endloop
  endfacet
  facet normal 0 0 -1
    outer loop
      vertex 0 0 0
      vertex 3 18.4 0
      vertex 3 0 0
    endloop
  endfacet
  facet normal -0 0 -1
    outer loop
      vertex 3 18.4 0
      vertex 0 0 0
      vertex 0 18.4 0
    endloop
  endfacet
  facet normal 0 0 -1
    outer loop
      vertex 4 0 0
      vertex 23.4 18.4 0
      vertex 23.4 0 0
    endloop
  endfacet
  facet normal -0 0 -1
    outer loop
      vertex 23.4 18.4 0
      vertex 4 0 0
      vertex 4 18.4 0
    endloop
  endfacet
  facet normal -1 0 0
    outer loop
      vertex 0 0 0
      vertex 0 18.4 1.6
      vertex 0 18.4 0
    endloop
  endfacet
  facet normal -1 -0 0
    outer loop
      vertex 0 18.4 1.6
      vertex 0 0 0
      vertex 0 0 1.6
    endloop
  endfacet
endsolid OpenSCAD_Model
