solid OpenSCAD_Model
  facet normal -1 0 0
    outer loop
      vertex 26.35 0 7
      vertex 26.35 0.99 21.5
      vertex 26.35 0.99 7
    endloop
  endfacet
  facet normal -1 -0 0
    outer loop
      vertex 26.35 0.99 21.5
      vertex 26.35 0 7
      vertex 26.35 0 21.5
    endloop
  endfacet
  facet normal 0 0 -1
    outer loop
      vertex 4.85 0 21.5
      vertex 26.35 0.99 21.5
      vertex 26.35 0 21.5
    endloop
  endfacet
  facet normal -0 0 -1
    outer loop
      vertex 26.35 0.99 21.5
      vertex 4.85 0 21.5
      vertex 4.85 0.99 21.5
    endloop
  endfacet
  facet normal -0 0 1
    outer loop
      vertex 4.85 0.99 7
      vertex 26.35 0 7
      vertex 26.35 0.99 7
    endloop
  endfacet
  facet normal 0 0 1
    outer loop
      vertex 26.35 0 7
      vertex 4.85 0.99 7
      vertex 4.85 0 7
    endloop
  endfacet
  facet normal 1 -0 0
    outer loop
      vertex 4.85 0 21.5
      vertex 4.85 0.99 13
      vertex 4.85 0.99 21.5
    endloop
  endfacet
  facet normal 1 0 0
    outer loop
      vertex 4.85 0.99 13
      vertex 4.85 0 21.5
      vertex 4.85 0 13
    endloop
  endfacet
  facet normal 1 -0 0
    outer loop
      vertex 4.85 0 9.5
      vertex 4.85 0.99 7
      vertex 4.85 0.99 9.5
    endloop
  endfacet
  facet normal 1 0 0
    outer loop
      vertex 4.85 0.99 7
      vertex 4.85 0 9.5
      vertex 4.85 0 7
    endloop
  endfacet
  facet normal 0 -1 0
    outer loop
      vertex 4.85 0.99 7
      vertex 14 0.99 9.5
      vertex 4.85 0.99 9.5
    endloop
  endfacet
  facet normal -0 -1 0
    outer loop
      vertex 14.41 0.99 9.08686
      vertex 14 0.99 9.5
      vertex 4.85 0.99 7
    endloop
  endfacet
  facet normal 0 -1 0
    outer loop
      vertex 14 0.99 9.5
      vertex 14.301 0.99 9.25
      vertex 14.2142 0.99 9.42597
    endloop
  endfacet
  facet normal 0 -1 0
    outer loop
      vertex 14 0.99 9.5
      vertex 14.41 0.99 9.08686
      vertex 14.301 0.99 9.25
    endloop
  endfacet
  facet normal 0 -1 -0
    outer loop
      vertex 14.41 0.99 9.08686
      vertex 4.85 0.99 7
      vertex 14.5393 0.99 8.93934
    endloop
  endfacet
  facet normal 0 -1 -0
    outer loop
      vertex 14.5393 0.99 8.93934
      vertex 4.85 0.99 7
      vertex 14.6869 0.99 8.80997
    endloop
  endfacet
  facet normal 0 -1 -0
    outer loop
      vertex 14.6869 0.99 8.80997
      vertex 4.85 0.99 7
      vertex 14.85 0.99 8.70096
    endloop
  endfacet
  facet normal 0 -1 -0
    outer loop
      vertex 14.85 0.99 8.70096
      vertex 4.85 0.99 7
      vertex 15.026 0.99 8.61418
    endloop
  endfacet
  facet normal 0 -1 -0
    outer loop
      vertex 15.026 0.99 8.61418
      vertex 4.85 0.99 7
      vertex 15.2118 0.99 8.55111
    endloop
  endfacet
  facet normal 0 -1 -0
    outer loop
      vertex 15.4042 0.99 8.51283
      vertex 4.85 0.99 7
      vertex 15.6 0.99 8.5
    endloop
  endfacet
  facet normal 0 -1 -0
    outer loop
      vertex 15.2118 0.99 8.55111
      vertex 4.85 0.99 7
      vertex 15.4042 0.99 8.51283
    endloop
  endfacet
  facet normal 0 -1 0
    outer loop
      vertex 14 0.99 13
      vertex 15.4042 0.99 11.4872
      vertex 15.6 0.99 11.5
    endloop
  endfacet
  facet normal 0 -1 0
    outer loop
      vertex 14 0.99 13
      vertex 15.2118 0.99 11.4489
      vertex 15.4042 0.99 11.4872
    endloop
  endfacet
  facet normal 0 -1 0
    outer loop
      vertex 14 0.99 13
      vertex 15.026 0.99 11.3858
      vertex 15.2118 0.99 11.4489
    endloop
  endfacet
  facet normal 0 -1 0
    outer loop
      vertex 14 0.99 13
      vertex 14.85 0.99 11.299
      vertex 15.026 0.99 11.3858
    endloop
  endfacet
  facet normal 0 -1 0
    outer loop
      vertex 14 0.99 13
      vertex 14.6869 0.99 11.19
      vertex 14.85 0.99 11.299
    endloop
  endfacet
  facet normal 0 -1 0
    outer loop
      vertex 14 0.99 13
      vertex 14.5393 0.99 11.0607
      vertex 14.6869 0.99 11.19
    endloop
  endfacet
  facet normal 0 -1 0
    outer loop
      vertex 14 0.99 13
      vertex 14.41 0.99 10.9131
      vertex 14.5393 0.99 11.0607
    endloop
  endfacet
  facet normal 0 -1 0
    outer loop
      vertex 14 0.99 13
      vertex 14.301 0.99 10.75
      vertex 14.41 0.99 10.9131
    endloop
  endfacet
  facet normal 0 -1 0
    outer loop
      vertex 14 0.99 13
      vertex 14.2142 0.99 10.574
      vertex 14.301 0.99 10.75
    endloop
  endfacet
  facet normal 0 -1 0
    outer loop
      vertex 14 0.99 13
      vertex 14.1511 0.99 10.3882
      vertex 14.2142 0.99 10.574
    endloop
  endfacet
  facet normal 0 -1 0
    outer loop
      vertex 14 0.99 13
      vertex 14.1128 0.99 10.1958
      vertex 14.1511 0.99 10.3882
    endloop
  endfacet
  facet normal 0 -1 0
    outer loop
      vertex 14 0.99 9.5
      vertex 14.1128 0.99 10.1958
      vertex 14 0.99 13
    endloop
  endfacet
  facet normal 0 -1 0
    outer loop
      vertex 14.1128 0.99 10.1958
      vertex 14 0.99 9.5
      vertex 14.1 0.99 10
    endloop
  endfacet
  facet normal 0 -1 0
    outer loop
      vertex 14 0.99 9.5
      vertex 14.1128 0.99 9.80421
      vertex 14.1 0.99 10
    endloop
  endfacet
  facet normal 0 -1 0
    outer loop
      vertex 14 0.99 9.5
      vertex 14.1511 0.99 9.61177
      vertex 14.1128 0.99 9.80421
    endloop
  endfacet
  facet normal 0 -1 -0
    outer loop
      vertex 14.1511 0.99 9.61177
      vertex 14 0.99 9.5
      vertex 14.2142 0.99 9.42597
    endloop
  endfacet
  facet normal 0 -1 0
    outer loop
      vertex 14 0.99 13
      vertex 4.85 0.99 21.5
      vertex 4.85 0.99 13
    endloop
  endfacet
  facet normal 0 -1 0
    outer loop
      vertex 4.85 0.99 21.5
      vertex 14 0.99 13
      vertex 26.35 0.99 21.5
    endloop
  endfacet
  facet normal 0 -1 0
    outer loop
      vertex 15.7958 0.99 11.4872
      vertex 14 0.99 13
      vertex 15.6 0.99 11.5
    endloop
  endfacet
  facet normal 0 -1 0
    outer loop
      vertex 15.9882 0.99 11.4489
      vertex 14 0.99 13
      vertex 15.7958 0.99 11.4872
    endloop
  endfacet
  facet normal 0 -1 0
    outer loop
      vertex 16.174 0.99 11.3858
      vertex 14 0.99 13
      vertex 15.9882 0.99 11.4489
    endloop
  endfacet
  facet normal 0 -1 0
    outer loop
      vertex 14 0.99 13
      vertex 16.174 0.99 11.3858
      vertex 26.35 0.99 21.5
    endloop
  endfacet
  facet normal 0 -1 0
    outer loop
      vertex 16.35 0.99 11.299
      vertex 26.35 0.99 21.5
      vertex 16.174 0.99 11.3858
    endloop
  endfacet
  facet normal 0 -1 0
    outer loop
      vertex 16.5131 0.99 11.19
      vertex 26.35 0.99 21.5
      vertex 16.35 0.99 11.299
    endloop
  endfacet
  facet normal 0 -1 0
    outer loop
      vertex 16.6607 0.99 11.0607
      vertex 26.35 0.99 21.5
      vertex 16.5131 0.99 11.19
    endloop
  endfacet
  facet normal 0 -1 0
    outer loop
      vertex 16.79 0.99 10.9131
      vertex 26.35 0.99 21.5
      vertex 16.6607 0.99 11.0607
    endloop
  endfacet
  facet normal 0 -1 0
    outer loop
      vertex 16.899 0.99 10.75
      vertex 26.35 0.99 21.5
      vertex 16.79 0.99 10.9131
    endloop
  endfacet
  facet normal 0 -1 0
    outer loop
      vertex 26.35 0.99 7
      vertex 16.899 0.99 10.75
      vertex 16.9858 0.99 10.574
    endloop
  endfacet
  facet normal 0 -1 0
    outer loop
      vertex 26.35 0.99 7
      vertex 16.9858 0.99 10.574
      vertex 17.0489 0.99 10.3882
    endloop
  endfacet
  facet normal 0 -1 0
    outer loop
      vertex 26.35 0.99 7
      vertex 17.0489 0.99 10.3882
      vertex 17.0872 0.99 10.1958
    endloop
  endfacet
  facet normal 0 -1 0
    outer loop
      vertex 26.35 0.99 7
      vertex 17.0872 0.99 10.1958
      vertex 17.1 0.99 10
    endloop
  endfacet
  facet normal 0 -1 0
    outer loop
      vertex 26.35 0.99 7
      vertex 17.1 0.99 10
      vertex 17.0872 0.99 9.80421
    endloop
  endfacet
  facet normal 0 -1 0
    outer loop
      vertex 26.35 0.99 7
      vertex 17.0872 0.99 9.80421
      vertex 17.0489 0.99 9.61177
    endloop
  endfacet
  facet normal 0 -1 0
    outer loop
      vertex 26.35 0.99 7
      vertex 17.0489 0.99 9.61177
      vertex 16.9858 0.99 9.42597
    endloop
  endfacet
  facet normal 0 -1 0
    outer loop
      vertex 26.35 0.99 7
      vertex 16.9858 0.99 9.42597
      vertex 16.899 0.99 9.25
    endloop
  endfacet
  facet normal 0 -1 0
    outer loop
      vertex 26.35 0.99 7
      vertex 16.899 0.99 9.25
      vertex 16.79 0.99 9.08686
    endloop
  endfacet
  facet normal 0 -1 0
    outer loop
      vertex 26.35 0.99 7
      vertex 15.6 0.99 8.5
      vertex 4.85 0.99 7
    endloop
  endfacet
  facet normal 0 -1 0
    outer loop
      vertex 16.899 0.99 10.75
      vertex 26.35 0.99 7
      vertex 26.35 0.99 21.5
    endloop
  endfacet
  facet normal 0 -1 0
    outer loop
      vertex 16.6607 0.99 8.93934
      vertex 26.35 0.99 7
      vertex 16.79 0.99 9.08686
    endloop
  endfacet
  facet normal 0 -1 0
    outer loop
      vertex 16.5131 0.99 8.80997
      vertex 26.35 0.99 7
      vertex 16.6607 0.99 8.93934
    endloop
  endfacet
  facet normal 0 -1 0
    outer loop
      vertex 16.35 0.99 8.70096
      vertex 26.35 0.99 7
      vertex 16.5131 0.99 8.80997
    endloop
  endfacet
  facet normal 0 -1 0
    outer loop
      vertex 16.174 0.99 8.61418
      vertex 26.35 0.99 7
      vertex 16.35 0.99 8.70096
    endloop
  endfacet
  facet normal 0 -1 0
    outer loop
      vertex 15.9882 0.99 8.55111
      vertex 26.35 0.99 7
      vertex 16.174 0.99 8.61418
    endloop
  endfacet
  facet normal 0 -1 0
    outer loop
      vertex 15.7958 0.99 8.51283
      vertex 26.35 0.99 7
      vertex 15.9882 0.99 8.55111
    endloop
  endfacet
  facet normal 0 -1 0
    outer loop
      vertex 15.6 0.99 8.5
      vertex 26.35 0.99 7
      vertex 15.7958 0.99 8.51283
    endloop
  endfacet
  facet normal -0.195136 0 0.980776
    outer loop
      vertex 15.7958 1.6 8.51283
      vertex 15.9882 0.99 8.55111
      vertex 15.9882 1.6 8.55111
    endloop
  endfacet
  facet normal -0.195136 0 0.980776
    outer loop
      vertex 15.9882 0.99 8.55111
      vertex 15.7958 1.6 8.51283
      vertex 15.7958 0.99 8.51283
    endloop
  endfacet
  facet normal -0.980757 0 -0.195234
    outer loop
      vertex 17.0872 0.99 10.1958
      vertex 17.0489 1.6 10.3882
      vertex 17.0872 1.6 10.1958
    endloop
  endfacet
  facet normal -0.980757 -0 -0.195234
    outer loop
      vertex 17.0489 1.6 10.3882
      vertex 17.0872 0.99 10.1958
      vertex 17.0489 0.99 10.3882
    endloop
  endfacet
  facet normal -0.99787 0 -0.0652336
    outer loop
      vertex 17.1 0.99 10
      vertex 17.0872 1.6 10.1958
      vertex 17.1 1.6 10
    endloop
  endfacet
  facet normal -0.99787 -0 -0.0652336
    outer loop
      vertex 17.0872 1.6 10.1958
      vertex 17.1 0.99 10
      vertex 17.0872 0.99 10.1958
    endloop
  endfacet
  facet normal 0.99787 0 -0.0652336
    outer loop
      vertex 14.1128 0.99 10.1958
      vertex 14.1 1.6 10
      vertex 14.1128 1.6 10.1958
    endloop
  endfacet
  facet normal 0.99787 0 -0.0652336
    outer loop
      vertex 14.1 1.6 10
      vertex 14.1128 0.99 10.1958
      vertex 14.1 0.99 10
    endloop
  endfacet
  facet normal -0.831422 0 -0.555641
    outer loop
      vertex 16.899 0.99 10.75
      vertex 16.79 1.6 10.9131
      vertex 16.899 1.6 10.75
    endloop
  endfacet
  facet normal -0.831422 -0 -0.555641
    outer loop
      vertex 16.79 1.6 10.9131
      vertex 16.899 0.99 10.75
      vertex 16.79 0.99 10.9131
    endloop
  endfacet
  facet normal -0.946885 0 0.321574
    outer loop
      vertex 16.9858 0.99 9.42597
      vertex 17.0489 1.6 9.61177
      vertex 16.9858 1.6 9.42597
    endloop
  endfacet
  facet normal -0.946885 0 0.321574
    outer loop
      vertex 17.0489 1.6 9.61177
      vertex 16.9858 0.99 9.42597
      vertex 17.0489 0.99 9.61177
    endloop
  endfacet
  facet normal -0.980764 0 0.195195
    outer loop
      vertex 17.0489 0.99 9.61177
      vertex 17.0872 1.6 9.80421
      vertex 17.0489 1.6 9.61177
    endloop
  endfacet
  facet normal -0.980764 0 0.195195
    outer loop
      vertex 17.0872 1.6 9.80421
      vertex 17.0489 0.99 9.61177
      vertex 17.0872 0.99 9.80421
    endloop
  endfacet
  facet normal -0.89686 0 -0.442315
    outer loop
      vertex 16.9858 0.99 10.574
      vertex 16.899 1.6 10.75
      vertex 16.9858 1.6 10.574
    endloop
  endfacet
  facet normal -0.89686 -0 -0.442315
    outer loop
      vertex 16.899 1.6 10.75
      vertex 16.9858 0.99 10.574
      vertex 16.899 0.99 10.75
    endloop
  endfacet
  facet normal 0.980764 -0 0.195195
    outer loop
      vertex 14.1128 0.99 9.80421
      vertex 14.1511 1.6 9.61177
      vertex 14.1128 1.6 9.80421
    endloop
  endfacet
  facet normal 0.980764 0 0.195195
    outer loop
      vertex 14.1511 1.6 9.61177
      vertex 14.1128 0.99 9.80421
      vertex 14.1511 0.99 9.61177
    endloop
  endfacet
  facet normal -0.555676 0 0.831399
    outer loop
      vertex 16.35 1.6 8.70096
      vertex 16.5131 0.99 8.80997
      vertex 16.5131 1.6 8.80997
    endloop
  endfacet
  facet normal -0.555676 0 0.831399
    outer loop
      vertex 16.5131 0.99 8.80997
      vertex 16.35 1.6 8.70096
      vertex 16.35 0.99 8.70096
    endloop
  endfacet
  facet normal -0.658937 0 -0.752198
    outer loop
      vertex 16.5131 0.99 11.19
      vertex 16.6607 1.6 11.0607
      vertex 16.6607 0.99 11.0607
    endloop
  endfacet
  facet normal -0.658937 0 -0.752198
    outer loop
      vertex 16.6607 1.6 11.0607
      vertex 16.5131 0.99 11.19
      vertex 16.5131 1.6 11.19
    endloop
  endfacet
  facet normal 0.0653858 0 0.99786
    outer loop
      vertex 15.4042 1.6 8.51283
      vertex 15.6 0.99 8.5
      vertex 15.6 1.6 8.5
    endloop
  endfacet
  facet normal 0.0653858 0 0.99786
    outer loop
      vertex 15.6 0.99 8.5
      vertex 15.4042 1.6 8.51283
      vertex 15.4042 0.99 8.51283
    endloop
  endfacet
  facet normal -0.321574 0 -0.946885
    outer loop
      vertex 15.9882 0.99 11.4489
      vertex 16.174 1.6 11.3858
      vertex 16.174 0.99 11.3858
    endloop
  endfacet
  facet normal -0.321574 0 -0.946885
    outer loop
      vertex 16.174 1.6 11.3858
      vertex 15.9882 0.99 11.4489
      vertex 15.9882 1.6 11.4489
    endloop
  endfacet
  facet normal 0.195136 0 0.980776
    outer loop
      vertex 15.2118 1.6 8.55111
      vertex 15.4042 0.99 8.51283
      vertex 15.4042 1.6 8.51283
    endloop
  endfacet
  facet normal 0.195136 0 0.980776
    outer loop
      vertex 15.4042 0.99 8.51283
      vertex 15.2118 1.6 8.55111
      vertex 15.2118 0.99 8.55111
    endloop
  endfacet
  facet normal 0.752021 -0 0.65914
    outer loop
      vertex 14.41 0.99 9.08686
      vertex 14.5393 1.6 8.93934
      vertex 14.41 1.6 9.08686
    endloop
  endfacet
  facet normal 0.752021 0 0.65914
    outer loop
      vertex 14.5393 1.6 8.93934
      vertex 14.41 0.99 9.08686
      vertex 14.5393 0.99 8.93934
    endloop
  endfacet
  facet normal -0.555641 0 -0.831422
    outer loop
      vertex 16.35 0.99 11.299
      vertex 16.5131 1.6 11.19
      vertex 16.5131 0.99 11.19
    endloop
  endfacet
  facet normal -0.555641 0 -0.831422
    outer loop
      vertex 16.5131 1.6 11.19
      vertex 16.35 0.99 11.299
      vertex 16.35 1.6 11.299
    endloop
  endfacet
  facet normal 0.89686 0 -0.442315
    outer loop
      vertex 14.301 0.99 10.75
      vertex 14.2142 1.6 10.574
      vertex 14.301 1.6 10.75
    endloop
  endfacet
  facet normal 0.89686 0 -0.442315
    outer loop
      vertex 14.2142 1.6 10.574
      vertex 14.301 0.99 10.75
      vertex 14.2142 0.99 10.574
    endloop
  endfacet
  facet normal -0.0652336 0 -0.99787
    outer loop
      vertex 15.6 0.99 11.5
      vertex 15.7958 1.6 11.4872
      vertex 15.7958 0.99 11.4872
    endloop
  endfacet
  facet normal -0.0652336 0 -0.99787
    outer loop
      vertex 15.7958 1.6 11.4872
      vertex 15.6 0.99 11.5
      vertex 15.6 1.6 11.5
    endloop
  endfacet
  facet normal 0.555676 0 0.831399
    outer loop
      vertex 14.6869 1.6 8.80997
      vertex 14.85 0.99 8.70096
      vertex 14.85 1.6 8.70096
    endloop
  endfacet
  facet normal 0.555676 0 0.831399
    outer loop
      vertex 14.85 0.99 8.70096
      vertex 14.6869 1.6 8.80997
      vertex 14.6869 0.99 8.80997
    endloop
  endfacet
  facet normal 0.659139 0 0.752021
    outer loop
      vertex 14.5393 1.6 8.93934
      vertex 14.6869 0.99 8.80997
      vertex 14.6869 1.6 8.80997
    endloop
  endfacet
  facet normal 0.659139 0 0.752021
    outer loop
      vertex 14.6869 0.99 8.80997
      vertex 14.5393 1.6 8.93934
      vertex 14.5393 0.99 8.93934
    endloop
  endfacet
  facet normal 0.831485 -0 0.555547
    outer loop
      vertex 14.301 0.99 9.25
      vertex 14.41 1.6 9.08686
      vertex 14.301 1.6 9.25
    endloop
  endfacet
  facet normal 0.831485 0 0.555547
    outer loop
      vertex 14.41 1.6 9.08686
      vertex 14.301 0.99 9.25
      vertex 14.41 0.99 9.08686
    endloop
  endfacet
  facet normal 0.946885 -0 0.321574
    outer loop
      vertex 14.1511 0.99 9.61177
      vertex 14.2142 1.6 9.42597
      vertex 14.1511 1.6 9.61177
    endloop
  endfacet
  facet normal 0.946885 0 0.321574
    outer loop
      vertex 14.2142 1.6 9.42597
      vertex 14.1511 0.99 9.61177
      vertex 14.2142 0.99 9.42597
    endloop
  endfacet
  facet normal 0.752198 0 -0.658937
    outer loop
      vertex 14.5393 0.99 11.0607
      vertex 14.41 1.6 10.9131
      vertex 14.5393 1.6 11.0607
    endloop
  endfacet
  facet normal 0.752198 0 -0.658937
    outer loop
      vertex 14.41 1.6 10.9131
      vertex 14.5393 0.99 11.0607
      vertex 14.41 0.99 10.9131
    endloop
  endfacet
  facet normal 0.555641 0 -0.831422
    outer loop
      vertex 14.6869 0.99 11.19
      vertex 14.85 1.6 11.299
      vertex 14.85 0.99 11.299
    endloop
  endfacet
  facet normal 0.555641 0 -0.831422
    outer loop
      vertex 14.85 1.6 11.299
      vertex 14.6869 0.99 11.19
      vertex 14.6869 1.6 11.19
    endloop
  endfacet
  facet normal -0.752021 0 0.65914
    outer loop
      vertex 16.6607 0.99 8.93934
      vertex 16.79 1.6 9.08686
      vertex 16.6607 1.6 8.93934
    endloop
  endfacet
  facet normal -0.752021 0 0.65914
    outer loop
      vertex 16.79 1.6 9.08686
      vertex 16.6607 0.99 8.93934
      vertex 16.79 0.99 9.08686
    endloop
  endfacet
  facet normal 0.89683 -0 0.442376
    outer loop
      vertex 14.2142 0.99 9.42597
      vertex 14.301 1.6 9.25
      vertex 14.2142 1.6 9.42597
    endloop
  endfacet
  facet normal 0.89683 0 0.442376
    outer loop
      vertex 14.301 1.6 9.25
      vertex 14.2142 0.99 9.42597
      vertex 14.301 0.99 9.25
    endloop
  endfacet
  facet normal 0.442315 0 -0.89686
    outer loop
      vertex 14.85 0.99 11.299
      vertex 15.026 1.6 11.3858
      vertex 15.026 0.99 11.3858
    endloop
  endfacet
  facet normal 0.442315 0 -0.89686
    outer loop
      vertex 15.026 1.6 11.3858
      vertex 14.85 0.99 11.299
      vertex 14.85 1.6 11.299
    endloop
  endfacet
  facet normal 0.0652336 0 -0.99787
    outer loop
      vertex 15.4042 0.99 11.4872
      vertex 15.6 1.6 11.5
      vertex 15.6 0.99 11.5
    endloop
  endfacet
  facet normal 0.0652336 0 -0.99787
    outer loop
      vertex 15.6 1.6 11.5
      vertex 15.4042 0.99 11.4872
      vertex 15.4042 1.6 11.4872
    endloop
  endfacet
  facet normal -0.99787 0 0.0652369
    outer loop
      vertex 17.0872 0.99 9.80421
      vertex 17.1 1.6 10
      vertex 17.0872 1.6 9.80421
    endloop
  endfacet
  facet normal -0.99787 0 0.0652369
    outer loop
      vertex 17.1 1.6 10
      vertex 17.0872 0.99 9.80421
      vertex 17.1 0.99 10
    endloop
  endfacet
  facet normal -0.659139 0 0.752021
    outer loop
      vertex 16.5131 1.6 8.80997
      vertex 16.6607 0.99 8.93934
      vertex 16.6607 1.6 8.93934
    endloop
  endfacet
  facet normal -0.659139 0 0.752021
    outer loop
      vertex 16.6607 0.99 8.93934
      vertex 16.5131 1.6 8.80997
      vertex 16.5131 0.99 8.80997
    endloop
  endfacet
  facet normal -0.442315 0 -0.89686
    outer loop
      vertex 16.174 0.99 11.3858
      vertex 16.35 1.6 11.299
      vertex 16.35 0.99 11.299
    endloop
  endfacet
  facet normal -0.442315 0 -0.89686
    outer loop
      vertex 16.35 1.6 11.299
      vertex 16.174 0.99 11.3858
      vertex 16.174 1.6 11.3858
    endloop
  endfacet
  facet normal -0.0653858 0 0.99786
    outer loop
      vertex 15.6 1.6 8.5
      vertex 15.7958 0.99 8.51283
      vertex 15.7958 1.6 8.51283
    endloop
  endfacet
  facet normal -0.0653858 0 0.99786
    outer loop
      vertex 15.7958 0.99 8.51283
      vertex 15.6 1.6 8.5
      vertex 15.6 0.99 8.5
    endloop
  endfacet
  facet normal 0.99787 -0 0.0652369
    outer loop
      vertex 14.1 0.99 10
      vertex 14.1128 1.6 9.80421
      vertex 14.1 1.6 10
    endloop
  endfacet
  facet normal 0.99787 0 0.0652369
    outer loop
      vertex 14.1128 1.6 9.80421
      vertex 14.1 0.99 10
      vertex 14.1128 0.99 9.80421
    endloop
  endfacet
  facet normal 0.946885 0 -0.321574
    outer loop
      vertex 14.2142 0.99 10.574
      vertex 14.1511 1.6 10.3882
      vertex 14.2142 1.6 10.574
    endloop
  endfacet
  facet normal 0.946885 0 -0.321574
    outer loop
      vertex 14.1511 1.6 10.3882
      vertex 14.2142 0.99 10.574
      vertex 14.1511 0.99 10.3882
    endloop
  endfacet
  facet normal 0.195234 0 -0.980757
    outer loop
      vertex 15.2118 0.99 11.4489
      vertex 15.4042 1.6 11.4872
      vertex 15.4042 0.99 11.4872
    endloop
  endfacet
  facet normal 0.195234 0 -0.980757
    outer loop
      vertex 15.4042 1.6 11.4872
      vertex 15.2118 0.99 11.4489
      vertex 15.2118 1.6 11.4489
    endloop
  endfacet
  facet normal -0.946885 0 -0.321574
    outer loop
      vertex 17.0489 0.99 10.3882
      vertex 16.9858 1.6 10.574
      vertex 17.0489 1.6 10.3882
    endloop
  endfacet
  facet normal -0.946885 -0 -0.321574
    outer loop
      vertex 16.9858 1.6 10.574
      vertex 17.0489 0.99 10.3882
      vertex 16.9858 0.99 10.574
    endloop
  endfacet
  facet normal -0.89683 0 0.442376
    outer loop
      vertex 16.899 0.99 9.25
      vertex 16.9858 1.6 9.42597
      vertex 16.899 1.6 9.25
    endloop
  endfacet
  facet normal -0.89683 0 0.442376
    outer loop
      vertex 16.9858 1.6 9.42597
      vertex 16.899 0.99 9.25
      vertex 16.9858 0.99 9.42597
    endloop
  endfacet
  facet normal -0.195234 0 -0.980757
    outer loop
      vertex 15.7958 0.99 11.4872
      vertex 15.9882 1.6 11.4489
      vertex 15.9882 0.99 11.4489
    endloop
  endfacet
  facet normal -0.195234 0 -0.980757
    outer loop
      vertex 15.9882 1.6 11.4489
      vertex 15.7958 0.99 11.4872
      vertex 15.7958 1.6 11.4872
    endloop
  endfacet
  facet normal 0.831422 0 -0.555641
    outer loop
      vertex 14.41 0.99 10.9131
      vertex 14.301 1.6 10.75
      vertex 14.41 1.6 10.9131
    endloop
  endfacet
  facet normal 0.831422 0 -0.555641
    outer loop
      vertex 14.301 1.6 10.75
      vertex 14.41 0.99 10.9131
      vertex 14.301 0.99 10.75
    endloop
  endfacet
  facet normal -0.831485 0 0.555547
    outer loop
      vertex 16.79 0.99 9.08686
      vertex 16.899 1.6 9.25
      vertex 16.79 1.6 9.08686
    endloop
  endfacet
  facet normal -0.831485 0 0.555547
    outer loop
      vertex 16.899 1.6 9.25
      vertex 16.79 0.99 9.08686
      vertex 16.899 0.99 9.25
    endloop
  endfacet
  facet normal 0.980757 0 -0.195234
    outer loop
      vertex 14.1511 0.99 10.3882
      vertex 14.1128 1.6 10.1958
      vertex 14.1511 1.6 10.3882
    endloop
  endfacet
  facet normal 0.980757 0 -0.195234
    outer loop
      vertex 14.1128 1.6 10.1958
      vertex 14.1511 0.99 10.3882
      vertex 14.1128 0.99 10.1958
    endloop
  endfacet
  facet normal -0.752198 0 -0.658937
    outer loop
      vertex 16.79 0.99 10.9131
      vertex 16.6607 1.6 11.0607
      vertex 16.79 1.6 10.9131
    endloop
  endfacet
  facet normal -0.752198 -0 -0.658937
    outer loop
      vertex 16.6607 1.6 11.0607
      vertex 16.79 0.99 10.9131
      vertex 16.6607 0.99 11.0607
    endloop
  endfacet
  facet normal 0.321437 0 0.946931
    outer loop
      vertex 15.026 1.6 8.61418
      vertex 15.2118 0.99 8.55111
      vertex 15.2118 1.6 8.55111
    endloop
  endfacet
  facet normal 0.321437 0 0.946931
    outer loop
      vertex 15.2118 0.99 8.55111
      vertex 15.026 1.6 8.61418
      vertex 15.026 0.99 8.61418
    endloop
  endfacet
  facet normal 0.321574 0 -0.946885
    outer loop
      vertex 15.026 0.99 11.3858
      vertex 15.2118 1.6 11.4489
      vertex 15.2118 0.99 11.4489
    endloop
  endfacet
  facet normal 0.321574 0 -0.946885
    outer loop
      vertex 15.2118 1.6 11.4489
      vertex 15.026 0.99 11.3858
      vertex 15.026 1.6 11.3858
    endloop
  endfacet
  facet normal -0.442233 0 0.8969
    outer loop
      vertex 16.174 1.6 8.61418
      vertex 16.35 0.99 8.70096
      vertex 16.35 1.6 8.70096
    endloop
  endfacet
  facet normal -0.442233 0 0.8969
    outer loop
      vertex 16.35 0.99 8.70096
      vertex 16.174 1.6 8.61418
      vertex 16.174 0.99 8.61418
    endloop
  endfacet
  facet normal -0.321437 0 0.946931
    outer loop
      vertex 15.9882 1.6 8.55111
      vertex 16.174 0.99 8.61418
      vertex 16.174 1.6 8.61418
    endloop
  endfacet
  facet normal -0.321437 0 0.946931
    outer loop
      vertex 16.174 0.99 8.61418
      vertex 15.9882 1.6 8.55111
      vertex 15.9882 0.99 8.55111
    endloop
  endfacet
  facet normal 0.442233 0 0.8969
    outer loop
      vertex 14.85 1.6 8.70096
      vertex 15.026 0.99 8.61418
      vertex 15.026 1.6 8.61418
    endloop
  endfacet
  facet normal 0.442233 0 0.8969
    outer loop
      vertex 15.026 0.99 8.61418
      vertex 14.85 1.6 8.70096
      vertex 14.85 0.99 8.70096
    endloop
  endfacet
  facet normal 0.658937 0 -0.752198
    outer loop
      vertex 14.5393 0.99 11.0607
      vertex 14.6869 1.6 11.19
      vertex 14.6869 0.99 11.19
    endloop
  endfacet
  facet normal 0.658937 0 -0.752198
    outer loop
      vertex 14.6869 1.6 11.19
      vertex 14.5393 0.99 11.0607
      vertex 14.5393 1.6 11.0607
    endloop
  endfacet
  facet normal 0 0 -1
    outer loop
      vertex 0 6.1 10.5
      vertex 1.6 16.1 10.5
      vertex 1.6 6.1 10.5
    endloop
  endfacet
  facet normal -0 0 -1
    outer loop
      vertex 1.6 16.1 10.5
      vertex 0 6.1 10.5
      vertex 0 16.1 10.5
    endloop
  endfacet
  facet normal -0 0 1
    outer loop
      vertex 0 16.1 9
      vertex 1.6 6.1 9
      vertex 1.6 16.1 9
    endloop
  endfacet
  facet normal 0 0 1
    outer loop
      vertex 1.6 6.1 9
      vertex 0 16.1 9
      vertex 0 6.1 9
    endloop
  endfacet
  facet normal 0 -1 0
    outer loop
      vertex 0 16.1 9
      vertex 1.6 16.1 10.5
      vertex 0 16.1 10.5
    endloop
  endfacet
  facet normal 0 -1 -0
    outer loop
      vertex 1.6 16.1 10.5
      vertex 0 16.1 9
      vertex 1.6 16.1 9
    endloop
  endfacet
  facet normal 0 1 -0
    outer loop
      vertex 1.6 6.1 9
      vertex 0 6.1 10.5
      vertex 1.6 6.1 10.5
    endloop
  endfacet
  facet normal 0 1 0
    outer loop
      vertex 0 6.1 10.5
      vertex 1.6 6.1 9
      vertex 0 6.1 9
    endloop
  endfacet
  facet normal -1 0 0
    outer loop
      vertex 14 0.99 9.5
      vertex 14 1.6 13
      vertex 14 1.6 9.5
    endloop
  endfacet
  facet normal -1 -0 0
    outer loop
      vertex 14 1.6 13
      vertex 14 0.99 9.5
      vertex 14 0.99 13
    endloop
  endfacet
  facet normal 0 0 -1
    outer loop
      vertex 4.85 0 13
      vertex 4 0 13
      vertex 4.85 0.99 13
    endloop
  endfacet
  facet normal 0 0 -1
    outer loop
      vertex 4.85 0.99 13
      vertex 14 1.6 13
      vertex 14 0.99 13
    endloop
  endfacet
  facet normal 0 0 -1
    outer loop
      vertex 4.85 0.99 13
      vertex 4 1.6 13
      vertex 14 1.6 13
    endloop
  endfacet
  facet normal 0 0 -1
    outer loop
      vertex 4 1.6 13
      vertex 4.85 0.99 13
      vertex 4 0 13
    endloop
  endfacet
  facet normal 0 0 1
    outer loop
      vertex 14 1.6 9.5
      vertex 4.85 0.99 9.5
      vertex 14 0.99 9.5
    endloop
  endfacet
  facet normal -0 0 1
    outer loop
      vertex 4 1.6 9.5
      vertex 4.85 0.99 9.5
      vertex 14 1.6 9.5
    endloop
  endfacet
  facet normal 0 0 1
    outer loop
      vertex 4 0 9.5
      vertex 4.85 0.99 9.5
      vertex 4 1.6 9.5
    endloop
  endfacet
  facet normal 0 0 1
    outer loop
      vertex 4.85 0.99 9.5
      vertex 4 0 9.5
      vertex 4.85 0 9.5
    endloop
  endfacet
  facet normal 1 -0 0
    outer loop
      vertex 4 0 13
      vertex 4 1.6 9.5
      vertex 4 1.6 13
    endloop
  endfacet
  facet normal 1 0 0
    outer loop
      vertex 4 1.6 9.5
      vertex 4 0 13
      vertex 4 0 9.5
    endloop
  endfacet
  facet normal 1 0 0
    outer loop
      vertex 31.2 22.2 22.6
      vertex 31.2 7.9 6.4
      vertex 31.2 22.2 0
    endloop
  endfacet
  facet normal 1 -0 0
    outer loop
      vertex 31.2 0 22.6
      vertex 31.2 7.9 6.4
      vertex 31.2 22.2 22.6
    endloop
  endfacet
  facet normal 1 0 0
    outer loop
      vertex 31.2 0 0
      vertex 31.2 1.6 6.4
      vertex 31.2 0 22.6
    endloop
  endfacet
  facet normal 1 0 0
    outer loop
      vertex 31.2 7.9 6.4
      vertex 31.2 0 22.6
      vertex 31.2 1.6 6.4
    endloop
  endfacet
  facet normal 1 -0 0
    outer loop
      vertex 31.2 7.9 1.6
      vertex 31.2 22.2 0
      vertex 31.2 7.9 6.4
    endloop
  endfacet
  facet normal 1 0 0
    outer loop
      vertex 31.2 7.4 0
      vertex 31.2 7.9 1.6
      vertex 31.2 7.4 1.6
    endloop
  endfacet
  facet normal 1 0 0
    outer loop
      vertex 31.2 7.9 1.6
      vertex 31.2 7.4 0
      vertex 31.2 22.2 0
    endloop
  endfacet
  facet normal 1 -0 0
    outer loop
      vertex 31.2 1.6 1.6
      vertex 31.2 2.1 0
      vertex 31.2 2.1 1.6
    endloop
  endfacet
  facet normal 1 0 0
    outer loop
      vertex 31.2 1.6 1.6
      vertex 31.2 0 0
      vertex 31.2 2.1 0
    endloop
  endfacet
  facet normal 1 0 0
    outer loop
      vertex 31.2 1.6 6.4
      vertex 31.2 0 0
      vertex 31.2 1.6 1.6
    endloop
  endfacet
  facet normal 0 0 1
    outer loop
      vertex 31.2 22.2 22.6
      vertex 29.6 20.6 22.6
      vertex 31.2 0 22.6
    endloop
  endfacet
  facet normal 0 0 1
    outer loop
      vertex 31.2 22.2 22.6
      vertex 1.6 20.6 22.6
      vertex 29.6 20.6 22.6
    endloop
  endfacet
  facet normal 0 0 1
    outer loop
      vertex 1.6 20.6 22.6
      vertex 0 22.2 22.6
      vertex 1.6 1.6 22.6
    endloop
  endfacet
  facet normal -0 0 1
    outer loop
      vertex 0 22.2 22.6
      vertex 1.6 20.6 22.6
      vertex 31.2 22.2 22.6
    endloop
  endfacet
  facet normal -0 0 1
    outer loop
      vertex 29.6 1.6 22.6
      vertex 31.2 0 22.6
      vertex 29.6 20.6 22.6
    endloop
  endfacet
  facet normal -0 0 1
    outer loop
      vertex 1.6 1.6 22.6
      vertex 31.2 0 22.6
      vertex 29.6 1.6 22.6
    endloop
  endfacet
  facet normal 0 0 1
    outer loop
      vertex 1.6 1.6 22.6
      vertex 0 0 22.6
      vertex 31.2 0 22.6
    endloop
  endfacet
  facet normal 0 0 1
    outer loop
      vertex 0 0 22.6
      vertex 1.6 1.6 22.6
      vertex 0 22.2 22.6
    endloop
  endfacet
  facet normal 0 0 -1
    outer loop
      vertex 0 7.4 0
      vertex 31.2 22.2 0
      vertex 31.2 7.4 0
    endloop
  endfacet
  facet normal -0 0 -1
    outer loop
      vertex 31.2 22.2 0
      vertex 0 7.4 0
      vertex 0 22.2 0
    endloop
  endfacet
  facet normal 0 0 -1
    outer loop
      vertex 0 0 0
      vertex 31.2 2.1 0
      vertex 31.2 0 0
    endloop
  endfacet
  facet normal -0 0 -1
    outer loop
      vertex 31.2 2.1 0
      vertex 0 0 0
      vertex 0 2.1 0
    endloop
  endfacet
  facet normal -1 0 0
    outer loop
      vertex 0 2.1 0
      vertex 0 1.6 1.6
      vertex 0 2.1 1.6
    endloop
  endfacet
  facet normal -1 -0 0
    outer loop
      vertex 0 1.6 1.6
      vertex 0 0 0
      vertex 0 1.6 6.4
    endloop
  endfacet
  facet normal -1 0 0
    outer loop
      vertex 0 0 0
      vertex 0 1.6 1.6
      vertex 0 2.1 0
    endloop
  endfacet
  facet normal -1 0 0
    outer loop
      vertex 0 16.1 10.5
      vertex 0 22.2 0
      vertex 0 16.1 9
    endloop
  endfacet
  facet normal -1 0 0
    outer loop
      vertex 0 22.2 0
      vertex 0 7.9 1.6
      vertex 0 16.1 9
    endloop
  endfacet
  facet normal -1 0 0
    outer loop
      vertex 0 7.4 0
      vertex 0 7.9 1.6
      vertex 0 22.2 0
    endloop
  endfacet
  facet normal -1 -0 0
    outer loop
      vertex 0 7.9 1.6
      vertex 0 7.4 0
      vertex 0 7.4 1.6
    endloop
  endfacet
  facet normal -1 0 0
    outer loop
      vertex 0 22.2 0
      vertex 0 16.1 10.5
      vertex 0 22.2 22.6
    endloop
  endfacet
  facet normal -1 0 0
    outer loop
      vertex 0 6.1 10.5
      vertex 0 22.2 22.6
      vertex 0 16.1 10.5
    endloop
  endfacet
  facet normal -1 0 0
    outer loop
      vertex 0 6.1 10.5
      vertex 0 0 22.6
      vertex 0 22.2 22.6
    endloop
  endfacet
  facet normal -1 0 0
    outer loop
      vertex 0 1.6 6.4
      vertex 0 0 22.6
      vertex 0 6.1 10.5
    endloop
  endfacet
  facet normal -1 0 0
    outer loop
      vertex 0 0 22.6
      vertex 0 1.6 6.4
      vertex 0 0 0
    endloop
  endfacet
  facet normal -1 0 0
    outer loop
      vertex 0 7.9 6.4
      vertex 0 16.1 9
      vertex 0 7.9 1.6
    endloop
  endfacet
  facet normal -1 0 0
    outer loop
      vertex 0 7.9 6.4
      vertex 0 6.1 9
      vertex 0 16.1 9
    endloop
  endfacet
  facet normal -1 -0 0
    outer loop
      vertex 0 6.1 9
      vertex 0 1.6 6.4
      vertex 0 6.1 10.5
    endloop
  endfacet
  facet normal -1 0 0
    outer loop
      vertex 0 1.6 6.4
      vertex 0 6.1 9
      vertex 0 7.9 6.4
    endloop
  endfacet
  facet normal 0 1 -0
    outer loop
      vertex 31.2 22.2 0
      vertex 0 22.2 22.6
      vertex 31.2 22.2 22.6
    endloop
  endfacet
  facet normal 0 1 0
    outer loop
      vertex 0 22.2 22.6
      vertex 31.2 22.2 0
      vertex 0 22.2 0
    endloop
  endfacet
  facet normal 0 -1 0
    outer loop
      vertex 0 0 22.6
      vertex 4.85 0 21.5
      vertex 31.2 0 22.6
    endloop
  endfacet
  facet normal 0 -1 0
    outer loop
      vertex 0 0 22.6
      vertex 4 0 13
      vertex 4.85 0 21.5
    endloop
  endfacet
  facet normal 0 -1 0
    outer loop
      vertex 0 0 22.6
      vertex 4 0 9.5
      vertex 4 0 13
    endloop
  endfacet
  facet normal 0 -1 0
    outer loop
      vertex 4 0 9.5
      vertex 4.85 0 7
      vertex 4.85 0 9.5
    endloop
  endfacet
  facet normal 0 -1 -0
    outer loop
      vertex 4.85 0 7
      vertex 0 0 0
      vertex 26.35 0 7
    endloop
  endfacet
  facet normal 0 -1 -0
    outer loop
      vertex 4 0 9.5
      vertex 0 0 0
      vertex 4.85 0 7
    endloop
  endfacet
  facet normal 0 -1 0
    outer loop
      vertex 0 0 0
      vertex 4 0 9.5
      vertex 0 0 22.6
    endloop
  endfacet
  facet normal 0 -1 0
    outer loop
      vertex 26.35 0 21.5
      vertex 31.2 0 22.6
      vertex 4.85 0 21.5
    endloop
  endfacet
  facet normal 0 -1 0
    outer loop
      vertex 26.35 0 7
      vertex 31.2 0 22.6
      vertex 26.35 0 21.5
    endloop
  endfacet
  facet normal 0 -1 0
    outer loop
      vertex 26.35 0 7
      vertex 31.2 0 0
      vertex 31.2 0 22.6
    endloop
  endfacet
  facet normal 0 -1 0
    outer loop
      vertex 31.2 0 0
      vertex 26.35 0 7
      vertex 0 0 0
    endloop
  endfacet
  facet normal 0 -1 -0
    outer loop
      vertex 4.85 0 21.5
      vertex 4 0 13
      vertex 4.85 0 13
    endloop
  endfacet
  facet normal 0 0 -1
    outer loop
      vertex 0 1.6 6.4
      vertex 31.2 7.9 6.4
      vertex 31.2 1.6 6.4
    endloop
  endfacet
  facet normal -0 0 -1
    outer loop
      vertex 31.2 7.9 6.4
      vertex 0 1.6 6.4
      vertex 0 7.9 6.4
    endloop
  endfacet
  facet normal -0 0 1
    outer loop
      vertex 0 7.9 1.6
      vertex 31.2 7.4 1.6
      vertex 31.2 7.9 1.6
    endloop
  endfacet
  facet normal 0 0 1
    outer loop
      vertex 31.2 7.4 1.6
      vertex 0 7.9 1.6
      vertex 0 7.4 1.6
    endloop
  endfacet
  facet normal -0 0 1
    outer loop
      vertex 0 2.1 1.6
      vertex 31.2 1.6 1.6
      vertex 31.2 2.1 1.6
    endloop
  endfacet
  facet normal 0 0 1
    outer loop
      vertex 31.2 1.6 1.6
      vertex 0 2.1 1.6
      vertex 0 1.6 1.6
    endloop
  endfacet
  facet normal 0 -1 0
    outer loop
      vertex 0 7.9 1.6
      vertex 31.2 7.9 6.4
      vertex 0 7.9 6.4
    endloop
  endfacet
  facet normal 0 -1 -0
    outer loop
      vertex 31.2 7.9 6.4
      vertex 0 7.9 1.6
      vertex 31.2 7.9 1.6
    endloop
  endfacet
  facet normal 0 1 -0
    outer loop
      vertex 31.2 1.6 1.6
      vertex 0 1.6 6.4
      vertex 31.2 1.6 6.4
    endloop
  endfacet
  facet normal 0 1 0
    outer loop
      vertex 0 1.6 6.4
      vertex 31.2 1.6 1.6
      vertex 0 1.6 1.6
    endloop
  endfacet
  facet normal 0 -1 0
    outer loop
      vertex 0 7.4 0
      vertex 31.2 7.4 1.6
      vertex 0 7.4 1.6
    endloop
  endfacet
  facet normal 0 -1 -0
    outer loop
      vertex 31.2 7.4 1.6
      vertex 0 7.4 0
      vertex 31.2 7.4 0
    endloop
  endfacet
  facet normal 0 1 -0
    outer loop
      vertex 31.2 2.1 0
      vertex 0 2.1 1.6
      vertex 31.2 2.1 1.6
    endloop
  endfacet
  facet normal 0 1 0
    outer loop
      vertex 0 2.1 1.6
      vertex 31.2 2.1 0
      vertex 0 2.1 0
    endloop
  endfacet
  facet normal -1 0 0
    outer loop
      vertex 29.6 1.6 8
      vertex 29.6 20.6 22.6
      vertex 29.6 20.6 8
    endloop
  endfacet
  facet normal -1 -0 0
    outer loop
      vertex 29.6 20.6 22.6
      vertex 29.6 1.6 8
      vertex 29.6 1.6 22.6
    endloop
  endfacet
  facet normal -0 0 1
    outer loop
      vertex 1.6 20.6 8
      vertex 29.6 1.6 8
      vertex 29.6 20.6 8
    endloop
  endfacet
  facet normal 0 0 1
    outer loop
      vertex 29.6 1.6 8
      vertex 1.6 20.6 8
      vertex 1.6 1.6 8
    endloop
  endfacet
  facet normal 1 0 0
    outer loop
      vertex 1.6 20.6 22.6
      vertex 1.6 16.1 10.5
      vertex 1.6 20.6 8
    endloop
  endfacet
  facet normal 1 0 0
    outer loop
      vertex 1.6 20.6 22.6
      vertex 1.6 6.1 10.5
      vertex 1.6 16.1 10.5
    endloop
  endfacet
  facet normal 1 0 0
    outer loop
      vertex 1.6 1.6 8
      vertex 1.6 6.1 10.5
      vertex 1.6 1.6 22.6
    endloop
  endfacet
  facet normal 1 -0 0
    outer loop
      vertex 1.6 1.6 22.6
      vertex 1.6 6.1 10.5
      vertex 1.6 20.6 22.6
    endloop
  endfacet
  facet normal 1 -0 0
    outer loop
      vertex 1.6 16.1 9
      vertex 1.6 20.6 8
      vertex 1.6 16.1 10.5
    endloop
  endfacet
  facet normal 1 -0 0
    outer loop
      vertex 1.6 6.1 9
      vertex 1.6 20.6 8
      vertex 1.6 16.1 9
    endloop
  endfacet
  facet normal 1 0 0
    outer loop
      vertex 1.6 6.1 9
      vertex 1.6 1.6 8
      vertex 1.6 20.6 8
    endloop
  endfacet
  facet normal 1 0 0
    outer loop
      vertex 1.6 6.1 10.5
      vertex 1.6 1.6 8
      vertex 1.6 6.1 9
    endloop
  endfacet
  facet normal 0 -1 0
    outer loop
      vertex 1.6 20.6 8
      vertex 29.6 20.6 22.6
      vertex 1.6 20.6 22.6
    endloop
  endfacet
  facet normal 0 -1 -0
    outer loop
      vertex 29.6 20.6 22.6
      vertex 1.6 20.6 8
      vertex 29.6 20.6 8
    endloop
  endfacet
  facet normal 0 1 0
    outer loop
      vertex 29.6 1.6 22.6
      vertex 14 1.6 13
      vertex 1.6 1.6 22.6
    endloop
  endfacet
  facet normal 0 1 -0
    outer loop
      vertex 16.35 1.6 11.299
      vertex 14 1.6 13
      vertex 29.6 1.6 22.6
    endloop
  endfacet
  facet normal 0 1 0
    outer loop
      vertex 14 1.6 13
      vertex 15.7958 1.6 11.4872
      vertex 15.6 1.6 11.5
    endloop
  endfacet
  facet normal 0 1 0
    outer loop
      vertex 14 1.6 13
      vertex 15.9882 1.6 11.4489
      vertex 15.7958 1.6 11.4872
    endloop
  endfacet
  facet normal 0 1 0
    outer loop
      vertex 14 1.6 13
      vertex 16.174 1.6 11.3858
      vertex 15.9882 1.6 11.4489
    endloop
  endfacet
  facet normal 0 1 0
    outer loop
      vertex 14 1.6 13
      vertex 16.35 1.6 11.299
      vertex 16.174 1.6 11.3858
    endloop
  endfacet
  facet normal 0 1 0
    outer loop
      vertex 29.6 1.6 22.6
      vertex 16.5131 1.6 11.19
      vertex 16.35 1.6 11.299
    endloop
  endfacet
  facet normal 0 1 0
    outer loop
      vertex 29.6 1.6 22.6
      vertex 16.6607 1.6 11.0607
      vertex 16.5131 1.6 11.19
    endloop
  endfacet
  facet normal 0 1 0
    outer loop
      vertex 29.6 1.6 22.6
      vertex 16.79 1.6 10.9131
      vertex 16.6607 1.6 11.0607
    endloop
  endfacet
  facet normal 0 1 0
    outer loop
      vertex 29.6 1.6 22.6
      vertex 16.899 1.6 10.75
      vertex 16.79 1.6 10.9131
    endloop
  endfacet
  facet normal 0 1 -0
    outer loop
      vertex 29.6 1.6 8
      vertex 16.899 1.6 10.75
      vertex 29.6 1.6 22.6
    endloop
  endfacet
  facet normal 0 1 0
    outer loop
      vertex 16.899 1.6 10.75
      vertex 29.6 1.6 8
      vertex 16.9858 1.6 10.574
    endloop
  endfacet
  facet normal 0 1 0
    outer loop
      vertex 16.9858 1.6 10.574
      vertex 29.6 1.6 8
      vertex 17.0489 1.6 10.3882
    endloop
  endfacet
  facet normal 0 1 0
    outer loop
      vertex 17.0489 1.6 10.3882
      vertex 29.6 1.6 8
      vertex 17.0872 1.6 10.1958
    endloop
  endfacet
  facet normal 0 1 0
    outer loop
      vertex 17.0872 1.6 10.1958
      vertex 29.6 1.6 8
      vertex 17.1 1.6 10
    endloop
  endfacet
  facet normal 0 1 0
    outer loop
      vertex 17.1 1.6 10
      vertex 29.6 1.6 8
      vertex 17.0872 1.6 9.80421
    endloop
  endfacet
  facet normal 0 1 0
    outer loop
      vertex 17.0872 1.6 9.80421
      vertex 29.6 1.6 8
      vertex 17.0489 1.6 9.61177
    endloop
  endfacet
  facet normal 0 1 0
    outer loop
      vertex 17.0489 1.6 9.61177
      vertex 29.6 1.6 8
      vertex 16.9858 1.6 9.42597
    endloop
  endfacet
  facet normal 0 1 0
    outer loop
      vertex 16.9858 1.6 9.42597
      vertex 29.6 1.6 8
      vertex 16.899 1.6 9.25
    endloop
  endfacet
  facet normal 0 1 0
    outer loop
      vertex 16.899 1.6 9.25
      vertex 29.6 1.6 8
      vertex 16.79 1.6 9.08686
    endloop
  endfacet
  facet normal 0 1 0
    outer loop
      vertex 15.7958 1.6 8.51283
      vertex 29.6 1.6 8
      vertex 15.6 1.6 8.5
    endloop
  endfacet
  facet normal 0 1 0
    outer loop
      vertex 15.9882 1.6 8.55111
      vertex 29.6 1.6 8
      vertex 15.7958 1.6 8.51283
    endloop
  endfacet
  facet normal 0 1 0
    outer loop
      vertex 16.174 1.6 8.61418
      vertex 29.6 1.6 8
      vertex 15.9882 1.6 8.55111
    endloop
  endfacet
  facet normal 0 1 0
    outer loop
      vertex 16.35 1.6 8.70096
      vertex 29.6 1.6 8
      vertex 16.174 1.6 8.61418
    endloop
  endfacet
  facet normal 0 1 0
    outer loop
      vertex 16.5131 1.6 8.80997
      vertex 29.6 1.6 8
      vertex 16.35 1.6 8.70096
    endloop
  endfacet
  facet normal 0 1 0
    outer loop
      vertex 16.6607 1.6 8.93934
      vertex 29.6 1.6 8
      vertex 16.5131 1.6 8.80997
    endloop
  endfacet
  facet normal 0 1 0
    outer loop
      vertex 16.79 1.6 9.08686
      vertex 29.6 1.6 8
      vertex 16.6607 1.6 8.93934
    endloop
  endfacet
  facet normal 0 1 -0
    outer loop
      vertex 4 1.6 13
      vertex 1.6 1.6 22.6
      vertex 14 1.6 13
    endloop
  endfacet
  facet normal 0 1 0
    outer loop
      vertex 1.6 1.6 8
      vertex 4 1.6 13
      vertex 4 1.6 9.5
    endloop
  endfacet
  facet normal 0 1 0
    outer loop
      vertex 14.41 1.6 9.08686
      vertex 14 1.6 9.5
      vertex 14.301 1.6 9.25
    endloop
  endfacet
  facet normal 0 1 0
    outer loop
      vertex 14 1.6 9.5
      vertex 14.41 1.6 9.08686
      vertex 4 1.6 9.5
    endloop
  endfacet
  facet normal 0 1 0
    outer loop
      vertex 14.5393 1.6 8.93934
      vertex 4 1.6 9.5
      vertex 14.41 1.6 9.08686
    endloop
  endfacet
  facet normal 0 1 0
    outer loop
      vertex 14.6869 1.6 8.80997
      vertex 4 1.6 9.5
      vertex 14.5393 1.6 8.93934
    endloop
  endfacet
  facet normal 0 1 0
    outer loop
      vertex 14.85 1.6 8.70096
      vertex 4 1.6 9.5
      vertex 14.6869 1.6 8.80997
    endloop
  endfacet
  facet normal 0 1 0
    outer loop
      vertex 1.6 1.6 8
      vertex 14.85 1.6 8.70096
      vertex 15.026 1.6 8.61418
    endloop
  endfacet
  facet normal 0 1 0
    outer loop
      vertex 1.6 1.6 8
      vertex 15.026 1.6 8.61418
      vertex 15.2118 1.6 8.55111
    endloop
  endfacet
  facet normal 0 1 0
    outer loop
      vertex 1.6 1.6 8
      vertex 15.2118 1.6 8.55111
      vertex 15.4042 1.6 8.51283
    endloop
  endfacet
  facet normal 0 1 0
    outer loop
      vertex 4 1.6 13
      vertex 1.6 1.6 8
      vertex 1.6 1.6 22.6
    endloop
  endfacet
  facet normal 0 1 0
    outer loop
      vertex 14.85 1.6 8.70096
      vertex 1.6 1.6 8
      vertex 4 1.6 9.5
    endloop
  endfacet
  facet normal 0 1 0
    outer loop
      vertex 15.6 1.6 8.5
      vertex 1.6 1.6 8
      vertex 15.4042 1.6 8.51283
    endloop
  endfacet
  facet normal 0 1 0
    outer loop
      vertex 1.6 1.6 8
      vertex 15.6 1.6 8.5
      vertex 29.6 1.6 8
    endloop
  endfacet
  facet normal 0 1 -0
    outer loop
      vertex 15.4042 1.6 11.4872
      vertex 14 1.6 13
      vertex 15.6 1.6 11.5
    endloop
  endfacet
  facet normal 0 1 -0
    outer loop
      vertex 15.2118 1.6 11.4489
      vertex 14 1.6 13
      vertex 15.4042 1.6 11.4872
    endloop
  endfacet
  facet normal 0 1 -0
    outer loop
      vertex 15.026 1.6 11.3858
      vertex 14 1.6 13
      vertex 15.2118 1.6 11.4489
    endloop
  endfacet
  facet normal 0 1 -0
    outer loop
      vertex 14.85 1.6 11.299
      vertex 14 1.6 13
      vertex 15.026 1.6 11.3858
    endloop
  endfacet
  facet normal 0 1 -0
    outer loop
      vertex 14.6869 1.6 11.19
      vertex 14 1.6 13
      vertex 14.85 1.6 11.299
    endloop
  endfacet
  facet normal 0 1 -0
    outer loop
      vertex 14.5393 1.6 11.0607
      vertex 14 1.6 13
      vertex 14.6869 1.6 11.19
    endloop
  endfacet
  facet normal 0 1 -0
    outer loop
      vertex 14.41 1.6 10.9131
      vertex 14 1.6 13
      vertex 14.5393 1.6 11.0607
    endloop
  endfacet
  facet normal 0 1 -0
    outer loop
      vertex 14.301 1.6 10.75
      vertex 14 1.6 13
      vertex 14.41 1.6 10.9131
    endloop
  endfacet
  facet normal 0 1 -0
    outer loop
      vertex 14.2142 1.6 10.574
      vertex 14 1.6 13
      vertex 14.301 1.6 10.75
    endloop
  endfacet
  facet normal 0 1 -0
    outer loop
      vertex 14.1511 1.6 10.3882
      vertex 14 1.6 13
      vertex 14.2142 1.6 10.574
    endloop
  endfacet
  facet normal 0 1 -0
    outer loop
      vertex 14.1128 1.6 10.1958
      vertex 14 1.6 13
      vertex 14.1511 1.6 10.3882
    endloop
  endfacet
  facet normal 0 1 0
    outer loop
      vertex 14 1.6 9.5
      vertex 14.1128 1.6 10.1958
      vertex 14.1 1.6 10
    endloop
  endfacet
  facet normal 0 1 0
    outer loop
      vertex 14.1128 1.6 10.1958
      vertex 14 1.6 9.5
      vertex 14 1.6 13
    endloop
  endfacet
  facet normal 0 1 0
    outer loop
      vertex 14.1128 1.6 9.80421
      vertex 14 1.6 9.5
      vertex 14.1 1.6 10
    endloop
  endfacet
  facet normal 0 1 0
    outer loop
      vertex 14.1511 1.6 9.61177
      vertex 14 1.6 9.5
      vertex 14.1128 1.6 9.80421
    endloop
  endfacet
  facet normal 0 1 0
    outer loop
      vertex 14.301 1.6 9.25
      vertex 14 1.6 9.5
      vertex 14.2142 1.6 9.42597
    endloop
  endfacet
  facet normal 0 1 0
    outer loop
      vertex 14.2142 1.6 9.42597
      vertex 14 1.6 9.5
      vertex 14.1511 1.6 9.61177
    endloop
  endfacet
endsolid OpenSCAD_Model
